<svg xmlns="http://www.w3.org/2000/svg" xmlns:xlink="http://www.w3.org/1999/xlink" width="23" height="17" viewBox="0 0 23 17"><defs><linearGradient id="c" x1="50%" x2="50%" y1="0%" y2="100%"><stop offset="0%" stop-color="#FFF"/><stop offset="100%" stop-color="#F0F0F0"/></linearGradient><linearGradient id="g" x1="50%" x2="50%" y1="0%" y2="100%"><stop offset="0%" stop-color="#0A17A7"/><stop offset="100%" stop-color="#030E88"/></linearGradient><linearGradient id="j" x1="50%" x2="50%" y1="0%" y2="100%"><stop offset="0%" stop-color="#FFF"/><stop offset="100%" stop-color="#F0F0F0"/></linearGradient><linearGradient id="l" x1="50%" x2="50%" y1="0%" y2="100%"><stop offset="0%" stop-color="#FFA51B"/><stop offset="100%" stop-color="#FF9A00"/></linearGradient><linearGradient id="m" x1="50%" x2="50%" y1="0%" y2="100%"><stop offset="0%" stop-color="#FF2E3B"/><stop offset="100%" stop-color="#FC0D1B"/></linearGradient><linearGradient id="p" x1="50%" x2="50%" y1="0%" y2="100%"><stop offset="0%" stop-color="#FFF"/><stop offset="100%" stop-color="#F0F0F0"/></linearGradient><filter id="b" width="116.7%" height="123.3%" x="-8.3%" y="-8.3%" filterUnits="objectBoundingBox"><feOffset dy=".5" in="SourceAlpha" result="shadowOffsetOuter1"/><feGaussianBlur in="shadowOffsetOuter1" result="shadowBlurOuter1" stdDeviation=".5"/><feColorMatrix in="shadowBlurOuter1" values="0 0 0 0 0 0 0 0 0 0 0 0 0 0 0 0 0 0 0.16 0"/></filter><filter id="e" width="116.7%" height="123.3%" x="-8.3%" y="-8.3%" filterUnits="objectBoundingBox"><feOffset dy=".5" in="SourceAlpha" result="shadowOffsetOuter1"/><feGaussianBlur in="shadowOffsetOuter1" result="shadowBlurOuter1" stdDeviation=".5"/><feColorMatrix in="shadowBlurOuter1" values="0 0 0 0 0 0 0 0 0 0 0 0 0 0 0 0 0 0 0.16 0"/></filter><filter id="i" width="112.5%" height="120%" x="-6.2%" y="-5%" filterUnits="objectBoundingBox"><feOffset dy=".5" in="SourceAlpha" result="shadowOffsetOuter1"/><feColorMatrix in="shadowOffsetOuter1" values="0 0 0 0 0 0 0 0 0 0 0 0 0 0 0 0 0 0 0.06 0"/></filter><filter id="n" width="117.5%" height="122.1%" x="-7.9%" y="-10%" filterUnits="objectBoundingBox"><feMorphology in="SourceAlpha" operator="dilate" radius=".25" result="shadowSpreadOuter1"/><feOffset in="shadowSpreadOuter1" result="shadowOffsetOuter1"/><feColorMatrix in="shadowOffsetOuter1" values="0 0 0 0 0 0 0 0 0 0 0 0 0 0 0 0 0 0 0.06 0"/></filter><filter id="q" width="102.4%" height="103.3%" x="-1.2%" y="-1.7%" filterUnits="objectBoundingBox"><feOffset dy="-.5" in="SourceAlpha" result="shadowOffsetInner1"/><feComposite in="shadowOffsetInner1" in2="SourceAlpha" k2="-1" k3="1" operator="arithmetic" result="shadowInnerInner1"/><feColorMatrix in="shadowInnerInner1" result="shadowMatrixInner1" values="0 0 0 0 0 0 0 0 0 0 0 0 0 0 0 0 0 0 0.04 0"/><feOffset dy=".5" in="SourceAlpha" result="shadowOffsetInner2"/><feComposite in="shadowOffsetInner2" in2="SourceAlpha" k2="-1" k3="1" operator="arithmetic" result="shadowInnerInner2"/><feColorMatrix in="shadowInnerInner2" result="shadowMatrixInner2" values="0 0 0 0 1 0 0 0 0 1 0 0 0 0 1 0 0 0 0.12 0"/><feMerge><feMergeNode in="shadowMatrixInner1"/><feMergeNode in="shadowMatrixInner2"/></feMerge></filter><path id="f" d="M0 0h21v15H0z"/><path id="h" d="M0 2.5V0l1 .5L2 0l1 .5L4 0v2.5C4 4 2 5 2 5S0 4 0 2.5z"/><path id="o" d="M0 2.5v2h3.5v2.505c0 .273.214.495.505.495h.99a.496.496 0 00.505-.495V4.5h3.51a.49.49 0 00.49-.505v-.99a.495.495 0 00-.49-.505H5.5V0h-2v2.5H0z"/><rect id="a" width="21" height="15" x="0" y="0" rx="1.5"/><rect id="r" width="21" height="15" x="0" y="0" rx="1.5"/></defs><g fill="none" fill-rule="evenodd" transform="translate(1 1)"><mask id="d" fill="#fff"><use xlink:href="#a"/></mask><use fill="#000" filter="url(#b)" xlink:href="#a"/><use fill="url(#c)" xlink:href="#a"/><g mask="url(#d)"><use fill="#000" filter="url(#e)" xlink:href="#f"/><use fill="url(#g)" xlink:href="#f"/></g><g mask="url(#d)"><g transform="translate(13 5)"><mask id="k" fill="#fff"><use xlink:href="#h"/></mask><use fill="#000" filter="url(#i)" xlink:href="#h"/><use fill="url(#j)" xlink:href="#h"/><path fill="#9ACCFF" mask="url(#k)" d="M0 4h4v1H0z"/><path fill="url(#l)" d="M1 2a.5.5 0 110 1 .5.5 0 010-1zm2 0a.5.5 0 110 1 .5.5 0 010-1zM2 1a.5.5 0 110 1 .5.5 0 010-1z" mask="url(#k)"/></g></g><path fill="url(#m)" stroke="#FFF" stroke-width=".5" d="M.58-.25H-.676L3.25 3.115v.756l-3.5 2.5v1.08L4.072 4.75h.857l6.439 3.95L5.75 3.885v-.77l5.938-5.09-6.76 4.225H4.08L.58-.25z" mask="url(#d)"/><g mask="url(#d)"><use fill="#000" filter="url(#n)" xlink:href="#o"/><use fill="url(#p)" xlink:href="#o"/></g><path fill="url(#m)" mask="url(#d)" d="M0 3h4V0h1v3h4v1H5v3H4V4H0z"/><g fill="#000" mask="url(#d)"><use filter="url(#q)" xlink:href="#r"/></g></g></svg>