<svg xmlns="http://www.w3.org/2000/svg" xmlns:xlink="http://www.w3.org/1999/xlink" width="23" height="17" viewBox="0 0 23 17"><defs><linearGradient id="c" x1="50%" x2="50%" y1="0%" y2="100%"><stop offset="0%" stop-color="#FFF"/><stop offset="100%" stop-color="#F0F0F0"/></linearGradient><linearGradient id="d" x1="50%" x2="50%" y1="0%" y2="100%"><stop offset="0%" stop-color="#EE343C"/><stop offset="100%" stop-color="#E2222A"/></linearGradient><linearGradient id="f" x1="50%" x2="50%" y1="0%" y2="100%"><stop offset="0%" stop-color="#262626"/><stop offset="100%" stop-color="#0D0D0D"/></linearGradient><filter id="b" width="116.7%" height="123.3%" x="-8.3%" y="-8.3%" filterUnits="objectBoundingBox"><feOffset dy=".5" in="SourceAlpha" result="shadowOffsetOuter1"/><feGaussianBlur in="shadowOffsetOuter1" result="shadowBlurOuter1" stdDeviation=".5"/><feColorMatrix in="shadowBlurOuter1" values="0 0 0 0 0 0 0 0 0 0 0 0 0 0 0 0 0 0 0.16 0"/></filter><filter id="g" width="102.4%" height="103.3%" x="-1.2%" y="-1.7%" filterUnits="objectBoundingBox"><feOffset dy="-.5" in="SourceAlpha" result="shadowOffsetInner1"/><feComposite in="shadowOffsetInner1" in2="SourceAlpha" k2="-1" k3="1" operator="arithmetic" result="shadowInnerInner1"/><feColorMatrix in="shadowInnerInner1" result="shadowMatrixInner1" values="0 0 0 0 0 0 0 0 0 0 0 0 0 0 0 0 0 0 0.04 0"/><feOffset dy=".5" in="SourceAlpha" result="shadowOffsetInner2"/><feComposite in="shadowOffsetInner2" in2="SourceAlpha" k2="-1" k3="1" operator="arithmetic" result="shadowInnerInner2"/><feColorMatrix in="shadowInnerInner2" result="shadowMatrixInner2" values="0 0 0 0 1 0 0 0 0 1 0 0 0 0 1 0 0 0 0.12 0"/><feMerge><feMergeNode in="shadowMatrixInner1"/><feMergeNode in="shadowMatrixInner2"/></feMerge></filter><rect id="a" width="21" height="15" x="0" y="0" rx="1.5"/><rect id="h" width="21" height="15" x="0" y="0" rx="1.5"/></defs><g fill="none" fill-rule="evenodd" transform="translate(1 1)"><mask id="e" fill="#fff"><use xlink:href="#a"/></mask><use fill="#000" filter="url(#b)" xlink:href="#a"/><use fill="url(#c)" xlink:href="#a"/><path fill="url(#d)" mask="url(#e)" d="M0 0h21v15H0z"/><path fill="url(#f)" d="M9.348 3.348a.626.626 0 00-.758-.075l-.68.454c-.226.15-.21.373.034.495l1.112.556c.245.123.444.454.444.722 0 .276-.232.5-.5.5-.276 0-.7-.1-.944-.222l-1.112-.556a.733.733 0 00-.794.128l-.3.3c-.193.193-.15.45.094.572l1.112.556c.245.123.26.345.034.495l-.68.454c-.226.15-.197.316.072.37l1.536.307c.266.053.297.234.077.4l-1.19.892C6.68 9.864 6.732 10 7 10c.276 0 .714-.054.984-.121l1.032-.258c.267-.067.361.063.21.289l-.453.68c-.15.226-.052.41.235.41h.484c.28 0 .578.209.666.475l.184.55c.087.263.228.266.316 0l.184-.55a.74.74 0 01.666-.475h.484c.28 0 .385-.184.235-.41l-.454-.68c-.15-.226-.059-.356.211-.289l1.032.258c.267.067.716.121.984.121.276 0 .315-.138.095-.304l-1.19-.892c-.224-.168-.192-.347.077-.4l1.536-.308c.266-.053.298-.219.072-.37l-.68-.453c-.226-.15-.21-.373.034-.495l1.112-.556c.245-.123.288-.378.094-.572l-.3-.3a.734.734 0 00-.794-.128l-1.112.556A2.54 2.54 0 0112 6a.505.505 0 01-.5-.5c0-.276.203-.602.452-.726L13.5 4l-1.09-.727a.631.631 0 00-.758.075l-.804.804a.496.496 0 01-.696 0l-.804-.804z" mask="url(#e)"/><g fill="#000" mask="url(#e)"><use filter="url(#g)" xlink:href="#h"/></g></g></svg>