<svg xmlns="http://www.w3.org/2000/svg" xmlns:xlink="http://www.w3.org/1999/xlink" width="23" height="17" viewBox="0 0 23 17"><defs><linearGradient id="c" x1="50%" x2="50%" y1="0%" y2="100%"><stop offset="0%" stop-color="#FFF"/><stop offset="100%" stop-color="#F0F0F0"/></linearGradient><linearGradient id="d" x1="50%" x2="50%" y1="0%" y2="100%"><stop offset="0%" stop-color="#1132C7"/><stop offset="100%" stop-color="#0522A5"/></linearGradient><linearGradient id="f" x1="50%" x2="50%" y1="0%" y2="100%"><stop offset="0%" stop-color="#08379D"/><stop offset="100%" stop-color="#042A7D"/></linearGradient><linearGradient id="g" x1="50%" x2="50%" y1="0%" y2="100%"><stop offset="0%" stop-color="#08379D"/><stop offset="100%" stop-color="#042A7D"/></linearGradient><linearGradient id="j" x1="50%" x2="50%" y1="0%" y2="100%"><stop offset="0%" stop-color="#FFCC50"/><stop offset="100%" stop-color="#FFC63C"/></linearGradient><linearGradient id="k" x1="50%" x2="50%" y1="0%" y2="100%"><stop offset="0%" stop-color="#262626"/><stop offset="100%" stop-color="#0D0D0D"/></linearGradient><filter id="b" width="116.7%" height="123.3%" x="-8.3%" y="-8.3%" filterUnits="objectBoundingBox"><feOffset dy=".5" in="SourceAlpha" result="shadowOffsetOuter1"/><feGaussianBlur in="shadowOffsetOuter1" result="shadowBlurOuter1" stdDeviation=".5"/><feColorMatrix in="shadowBlurOuter1" values="0 0 0 0 0 0 0 0 0 0 0 0 0 0 0 0 0 0 0.16 0"/></filter><filter id="h" width="121.4%" height="110%" x="-10.7%" y="-5%" filterUnits="objectBoundingBox"><feMorphology in="SourceAlpha" operator="dilate" radius=".25" result="shadowSpreadOuter1"/><feOffset in="shadowSpreadOuter1" result="shadowOffsetOuter1"/><feColorMatrix in="shadowOffsetOuter1" values="0 0 0 0 0 0 0 0 0 0 0 0 0 0 0 0 0 0 0.06 0"/></filter><filter id="l" width="102.4%" height="103.3%" x="-1.2%" y="-1.7%" filterUnits="objectBoundingBox"><feOffset dy="-.5" in="SourceAlpha" result="shadowOffsetInner1"/><feComposite in="shadowOffsetInner1" in2="SourceAlpha" k2="-1" k3="1" operator="arithmetic" result="shadowInnerInner1"/><feColorMatrix in="shadowInnerInner1" result="shadowMatrixInner1" values="0 0 0 0 0 0 0 0 0 0 0 0 0 0 0 0 0 0 0.04 0"/><feOffset dy=".5" in="SourceAlpha" result="shadowOffsetInner2"/><feComposite in="shadowOffsetInner2" in2="SourceAlpha" k2="-1" k3="1" operator="arithmetic" result="shadowInnerInner2"/><feColorMatrix in="shadowInnerInner2" result="shadowMatrixInner2" values="0 0 0 0 1 0 0 0 0 1 0 0 0 0 1 0 0 0 0.12 0"/><feMerge><feMergeNode in="shadowMatrixInner1"/><feMergeNode in="shadowMatrixInner2"/></feMerge></filter><rect id="a" width="21" height="15" x="0" y="0" rx="1.5"/><rect id="m" width="21" height="15" x="0" y="0" rx="1.5"/><path id="i" d="M7 0h7v15H7z"/></defs><g fill="none" fill-rule="evenodd" transform="translate(1 1)"><mask id="e" fill="#fff"><use xlink:href="#a"/></mask><use fill="#000" filter="url(#b)" xlink:href="#a"/><use fill="url(#c)" xlink:href="#a"/><path fill="url(#d)" mask="url(#e)" d="M0 0h21v15H0z"/><path fill="url(#f)" mask="url(#e)" d="M10 0h11v15H10z"/><path fill="url(#g)" mask="url(#e)" d="M0 0h7v15H0z"/><g mask="url(#e)"><use fill="#000" filter="url(#h)" xlink:href="#i"/><use fill="url(#j)" xlink:href="#i"/></g><path fill="url(#k)" d="M10.378 4.709c.079-.116.206-.11.278 0l.708 1.082c.075.116.019.209-.118.209h-.242a.221.221 0 00-.23.249l.201 2.002c.014.138.141.249.275.249a.695.695 0 00.43-.179l.14-.137c.1-.099.18-.286.18-.432v-.498a.696.696 0 00-.18-.435l-.14-.138c-.1-.1-.082-.214.054-.26l1.032-.343c.13-.043.214.03.188.17l-.368 2.003a.918.918 0 01-.227.423l-.678.652a.726.726 0 01-.431.174.247.247 0 00-.25.252v.496c0 .139-.107.252-.252.252h-.496a.249.249 0 01-.252-.252v-.496a.254.254 0 00-.25-.252.69.69 0 01-.424-.174l-.652-.652a.956.956 0 01-.224-.423l-.4-2.002c-.028-.138.048-.216.184-.17l1.032.343c.13.043.156.156.053.259l-.138.138c-.1.1-.181.289-.181.435v.498c0 .14.078.33.18.432l.14.137c.1.1.296.179.43.179.138 0 .26-.107.275-.249l.2-2.002A.225.225 0 009.996 6h-.242c-.14 0-.187-.098-.112-.209l.736-1.082z" mask="url(#e)"/><g fill="#000" mask="url(#e)"><use filter="url(#l)" xlink:href="#m"/></g></g></svg>