<svg xmlns="http://www.w3.org/2000/svg" xmlns:xlink="http://www.w3.org/1999/xlink" width="23" height="17" viewBox="0 0 23 17"><defs><linearGradient id="c" x1="50%" x2="50%" y1="0%" y2="100%"><stop offset="0%" stop-color="#FFF"/><stop offset="100%" stop-color="#F0F0F0"/></linearGradient><linearGradient id="d" x1="50%" x2="50%" y1="0%" y2="100%"><stop offset="0%" stop-color="#FF3131"/><stop offset="100%" stop-color="red"/></linearGradient><linearGradient id="f" x1="50%" x2="50%" y1="0%" y2="100%"><stop offset="0%" stop-color="#FF3131"/><stop offset="100%" stop-color="red"/></linearGradient><linearGradient id="i" x1="50%" x2="50%" y1="0%" y2="100%"><stop offset="0%" stop-color="#FFF"/><stop offset="100%" stop-color="#F0F0F0"/></linearGradient><linearGradient id="j" x1="50%" x2="50%" y1="0%" y2="100%"><stop offset="0%" stop-color="#FF3131"/><stop offset="100%" stop-color="red"/></linearGradient><filter id="b" width="116.7%" height="123.3%" x="-8.3%" y="-8.3%" filterUnits="objectBoundingBox"><feOffset dy=".5" in="SourceAlpha" result="shadowOffsetOuter1"/><feGaussianBlur in="shadowOffsetOuter1" result="shadowBlurOuter1" stdDeviation=".5"/><feColorMatrix in="shadowBlurOuter1" values="0 0 0 0 0 0 0 0 0 0 0 0 0 0 0 0 0 0 0.16 0"/></filter><filter id="g" width="116.7%" height="110%" x="-8.3%" y="-5%" filterUnits="objectBoundingBox"><feMorphology in="SourceAlpha" operator="dilate" radius=".25" result="shadowSpreadOuter1"/><feOffset in="shadowSpreadOuter1" result="shadowOffsetOuter1"/><feColorMatrix in="shadowOffsetOuter1" values="0 0 0 0 0 0 0 0 0 0 0 0 0 0 0 0 0 0 0.06 0"/></filter><filter id="k" width="102.4%" height="103.3%" x="-1.2%" y="-1.7%" filterUnits="objectBoundingBox"><feOffset dy="-.5" in="SourceAlpha" result="shadowOffsetInner1"/><feComposite in="shadowOffsetInner1" in2="SourceAlpha" k2="-1" k3="1" operator="arithmetic" result="shadowInnerInner1"/><feColorMatrix in="shadowInnerInner1" result="shadowMatrixInner1" values="0 0 0 0 0 0 0 0 0 0 0 0 0 0 0 0 0 0 0.04 0"/><feOffset dy=".5" in="SourceAlpha" result="shadowOffsetInner2"/><feComposite in="shadowOffsetInner2" in2="SourceAlpha" k2="-1" k3="1" operator="arithmetic" result="shadowInnerInner2"/><feColorMatrix in="shadowInnerInner2" result="shadowMatrixInner2" values="0 0 0 0 1 0 0 0 0 1 0 0 0 0 1 0 0 0 0.12 0"/><feMerge><feMergeNode in="shadowMatrixInner1"/><feMergeNode in="shadowMatrixInner2"/></feMerge></filter><rect id="a" width="21" height="15" x="0" y="0" rx="1.5"/><rect id="l" width="21" height="15" x="0" y="0" rx="1.5"/><path id="h" d="M6 0h9v15H6z"/></defs><g fill="none" fill-rule="evenodd" transform="translate(1 1)"><mask id="e" fill="#fff"><use xlink:href="#a"/></mask><use fill="#000" filter="url(#b)" xlink:href="#a"/><use fill="url(#c)" xlink:href="#a"/><path fill="url(#d)" mask="url(#e)" d="M10 0h11v15H10z"/><path fill="url(#f)" mask="url(#e)" d="M0 0h7v15H0z"/><g mask="url(#e)"><use fill="#000" filter="url(#g)" xlink:href="#h"/><use fill="url(#i)" xlink:href="#h"/></g><path fill="url(#j)" d="M11.674 7.326c-.096.096-.153.067-.124-.075L12 5l-1 .5-.5-1.5-.5 1.5L9 5l.45 2.251c.028.138-.028.17-.124.075l-.652-.652a.249.249 0 00-.355.007L8 7l-1-.5.5 1-.32.32c-.1.1-.1.26-.008.352L8.5 9.5H10l.25 1.5h.5L11 9.5h1.5l1.328-1.328a.247.247 0 00-.009-.353L13.5 7.5l.5-1-1 .5-.32-.32a.251.251 0 00-.354-.006l-.652.652z" mask="url(#e)"/><g fill="#000" mask="url(#e)"><use filter="url(#k)" xlink:href="#l"/></g></g></svg>