<svg xmlns="http://www.w3.org/2000/svg" xmlns:xlink="http://www.w3.org/1999/xlink" width="23" height="17" viewBox="0 0 23 17"><defs><linearGradient id="c" x1="50%" x2="50%" y1="0%" y2="100%"><stop offset="0%" stop-color="#FFF"/><stop offset="100%" stop-color="#F0F0F0"/></linearGradient><linearGradient id="d" x1="50%" x2="50%" y1="0%" y2="100%"><stop offset="0%" stop-color="#E7832C"/><stop offset="100%" stop-color="#D7751F"/></linearGradient><filter id="b" width="116.7%" height="123.3%" x="-8.3%" y="-8.3%" filterUnits="objectBoundingBox"><feOffset dy=".5" in="SourceAlpha" result="shadowOffsetOuter1"/><feGaussianBlur in="shadowOffsetOuter1" result="shadowBlurOuter1" stdDeviation=".5"/><feColorMatrix in="shadowBlurOuter1" values="0 0 0 0 0 0 0 0 0 0 0 0 0 0 0 0 0 0 0.16 0"/></filter><filter id="f" width="102.4%" height="103.3%" x="-1.2%" y="-1.7%" filterUnits="objectBoundingBox"><feOffset dy="-.5" in="SourceAlpha" result="shadowOffsetInner1"/><feComposite in="shadowOffsetInner1" in2="SourceAlpha" k2="-1" k3="1" operator="arithmetic" result="shadowInnerInner1"/><feColorMatrix in="shadowInnerInner1" result="shadowMatrixInner1" values="0 0 0 0 0 0 0 0 0 0 0 0 0 0 0 0 0 0 0.04 0"/><feOffset dy=".5" in="SourceAlpha" result="shadowOffsetInner2"/><feComposite in="shadowOffsetInner2" in2="SourceAlpha" k2="-1" k3="1" operator="arithmetic" result="shadowInnerInner2"/><feColorMatrix in="shadowInnerInner2" result="shadowMatrixInner2" values="0 0 0 0 1 0 0 0 0 1 0 0 0 0 1 0 0 0 0.12 0"/><feMerge><feMergeNode in="shadowMatrixInner1"/><feMergeNode in="shadowMatrixInner2"/></feMerge></filter><rect id="a" width="21" height="15" x="0" y="0" rx="1.5"/><rect id="g" width="21" height="15" x="0" y="0" rx="1.5"/></defs><g fill="none" fill-rule="evenodd" transform="translate(1 1)"><mask id="e" fill="#fff"><use xlink:href="#a"/></mask><use fill="#000" filter="url(#b)" xlink:href="#a"/><use fill="url(#c)" xlink:href="#a"/><path fill="url(#d)" d="M15.547 2.227c.25-.126.33-.043.18.183l-.454.68c-.15.226-.457.533-.683.683l-.68.454c-.226.15-.568.431-.763.626l.206-.206a.496.496 0 00-.003.703l.3.3a.494.494 0 010 .7l-.3.3a.729.729 0 01-.803.123l-.094-.046a.5.5 0 00-.68.226l-.046.094c-.126.25-.436.523-.702.611l-.55.184A3.743 3.743 0 019.5 8a.876.876 0 00-.727.453l-.046.094a.502.502 0 01-.67.231l-1.113-.556a3.651 3.651 0 01-.794-.572l-.3-.3c-.193-.193-.35-.582-.35-.85 0-.276.227-.5.5-.5h-.5c.276 0 .656-.156.85-.35l.3-.3c.193-.193.582-.35.85-.35.276 0 .57-.209.658-.475l.184-.55a.574.574 0 01.64-.379l1.536.308c.266.053.696.042.966-.025l1.032-.258a5.4 5.4 0 00.937-.348l.094-.046.906-.454.094-.046.906-.454.094-.046z" mask="url(#e)"/><circle cx="10.5" cy="11.5" r="1" fill="#445128" mask="url(#e)"/><path stroke="#445128" stroke-linecap="round" d="M12 11s1.5-.5 2-1.5" mask="url(#e)" opacity=".75"/><path stroke="#445128" stroke-linecap="round" d="M7 11s1.5-.5 2-1.5" mask="url(#e)" opacity=".75" transform="matrix(-1 0 0 1 16 0)"/><use fill="#000" filter="url(#f)" xlink:href="#g"/></g></svg>