<svg xmlns="http://www.w3.org/2000/svg" xmlns:xlink="http://www.w3.org/1999/xlink" width="23" height="17" viewBox="0 0 23 17"><defs><linearGradient id="c" x1="50%" x2="50%" y1="0%" y2="100%"><stop offset="0%" stop-color="#FFF"/><stop offset="100%" stop-color="#F0F0F0"/></linearGradient><linearGradient id="d" x1="50%" x2="50%" y1="0%" y2="100%"><stop offset="0%" stop-color="#29C53F"/><stop offset="100%" stop-color="#21AC35"/></linearGradient><linearGradient id="f" x1="50%" x2="50%" y1="0%" y2="100%"><stop offset="0%" stop-color="#579DED"/><stop offset="100%" stop-color="#458BDB"/></linearGradient><linearGradient id="g" x1="50%" x2="50%" y1="0%" y2="100%"><stop offset="0%" stop-color="#F42D56"/><stop offset="100%" stop-color="#E9103D"/></linearGradient><filter id="b" width="116.7%" height="123.3%" x="-8.3%" y="-8.3%" filterUnits="objectBoundingBox"><feOffset dy=".5" in="SourceAlpha" result="shadowOffsetOuter1"/><feGaussianBlur in="shadowOffsetOuter1" result="shadowBlurOuter1" stdDeviation=".5"/><feColorMatrix in="shadowBlurOuter1" values="0 0 0 0 0 0 0 0 0 0 0 0 0 0 0 0 0 0 0.16 0"/></filter><filter id="h" width="102.4%" height="103.3%" x="-1.2%" y="-1.7%" filterUnits="objectBoundingBox"><feOffset dy="-.5" in="SourceAlpha" result="shadowOffsetInner1"/><feComposite in="shadowOffsetInner1" in2="SourceAlpha" k2="-1" k3="1" operator="arithmetic" result="shadowInnerInner1"/><feColorMatrix in="shadowInnerInner1" result="shadowMatrixInner1" values="0 0 0 0 0 0 0 0 0 0 0 0 0 0 0 0 0 0 0.04 0"/><feOffset dy=".5" in="SourceAlpha" result="shadowOffsetInner2"/><feComposite in="shadowOffsetInner2" in2="SourceAlpha" k2="-1" k3="1" operator="arithmetic" result="shadowInnerInner2"/><feColorMatrix in="shadowInnerInner2" result="shadowMatrixInner2" values="0 0 0 0 1 0 0 0 0 1 0 0 0 0 1 0 0 0 0.12 0"/><feMerge><feMergeNode in="shadowMatrixInner1"/><feMergeNode in="shadowMatrixInner2"/></feMerge></filter><rect id="a" width="21" height="15" x="0" y="0" rx="1.5"/><rect id="i" width="21" height="15" x="0" y="0" rx="1.5"/></defs><g fill="none" fill-rule="evenodd" transform="translate(1 1)"><mask id="e" fill="#fff"><use xlink:href="#a"/></mask><use fill="#000" filter="url(#b)" xlink:href="#a"/><use fill="url(#c)" xlink:href="#a"/><path fill="url(#d)" mask="url(#e)" d="M0 0h21v7.5H0z"/><path fill="url(#f)" mask="url(#e)" d="M0 7.5h21v8H0z"/><path fill="url(#g)" mask="url(#e)" d="M0 15l21-7.5L0 0z"/><circle cx="6.5" cy="7.5" r="3" stroke="#FFC63C" mask="url(#e)"/><circle cx="6" cy="6.5" r="1" fill="#FFC63C" mask="url(#e)"/><circle cx="7" cy="7" r="1" fill="#FFC63C" mask="url(#e)"/><circle cx="6.5" cy="6" r="1" fill="#FFC63C" mask="url(#e)"/><circle cx="6" cy="7.5" r="1" fill="#FFC63C" mask="url(#e)"/><circle cx="7" cy="8" r="1" fill="#FFC63C" mask="url(#e)"/><circle cx="6" cy="8.5" r="1" fill="#FFC63C" mask="url(#e)"/><circle cx="7" cy="9" r="1" fill="#FFC63C" mask="url(#e)"/><g fill="#000" mask="url(#e)"><use filter="url(#h)" xlink:href="#i"/></g></g></svg>