<svg xmlns="http://www.w3.org/2000/svg" xmlns:xlink="http://www.w3.org/1999/xlink" width="23" height="17" viewBox="0 0 23 17"><defs><filter id="b" width="116.7%" height="123.3%" x="-8.3%" y="-8.3%" filterUnits="objectBoundingBox"><feOffset dy=".5" in="SourceAlpha" result="shadowOffsetOuter1"/><feGaussianBlur in="shadowOffsetOuter1" result="shadowBlurOuter1" stdDeviation=".5"/><feColorMatrix in="shadowBlurOuter1" values="0 0 0 0 0 0 0 0 0 0 0 0 0 0 0 0 0 0 0.16 0"/></filter><filter id="g" width="102.2%" height="102.9%" x="-1.1%" y="-1.5%" filterUnits="objectBoundingBox"><feMorphology in="SourceAlpha" radius=".5" result="shadowSpreadInner1"/><feOffset in="shadowSpreadInner1" result="shadowOffsetInner1"/><feComposite in="shadowOffsetInner1" in2="SourceAlpha" k2="-1" k3="1" operator="arithmetic" result="shadowInnerInner1"/><feColorMatrix in="shadowInnerInner1" values="0 0 0 0 0 0 0 0 0 0 0 0 0 0 0 0 0 0 0.06 0"/></filter><filter id="h" width="102.4%" height="103.3%" x="-1.2%" y="-1.7%" filterUnits="objectBoundingBox"><feOffset dy="-.5" in="SourceAlpha" result="shadowOffsetInner1"/><feComposite in="shadowOffsetInner1" in2="SourceAlpha" k2="-1" k3="1" operator="arithmetic" result="shadowInnerInner1"/><feColorMatrix in="shadowInnerInner1" result="shadowMatrixInner1" values="0 0 0 0 0 0 0 0 0 0 0 0 0 0 0 0 0 0 0.04 0"/><feOffset dy=".5" in="SourceAlpha" result="shadowOffsetInner2"/><feComposite in="shadowOffsetInner2" in2="SourceAlpha" k2="-1" k3="1" operator="arithmetic" result="shadowInnerInner2"/><feColorMatrix in="shadowInnerInner2" result="shadowMatrixInner2" values="0 0 0 0 1 0 0 0 0 1 0 0 0 0 1 0 0 0 0.12 0"/><feMerge><feMergeNode in="shadowMatrixInner1"/><feMergeNode in="shadowMatrixInner2"/></feMerge></filter><linearGradient id="c" x1="50%" x2="50%" y1="0%" y2="100%"><stop offset="0%" stop-color="#FFF"/><stop offset="100%" stop-color="#F0F0F0"/></linearGradient><linearGradient id="e" x1="50%" x2="50%" y1="0%" y2="100%"><stop offset="0%" stop-color="#FF2B37"/><stop offset="100%" stop-color="#FD0D1B"/></linearGradient><rect id="a" width="21" height="15" x="0" y="0" rx="1.5"/><rect id="i" width="21" height="15" x="0" y="0" rx="1.5"/><path id="f" d="M12-1v7h10v3H12v7H9V9H-1V6H9v-7h3z"/></defs><g fill="none" fill-rule="evenodd" transform="translate(1 1)"><mask id="d" fill="#fff"><use xlink:href="#a"/></mask><use fill="#000" filter="url(#b)" xlink:href="#a"/><use fill="url(#c)" xlink:href="#a"/><g mask="url(#d)"><use fill="url(#e)" xlink:href="#f"/><use fill="#000" filter="url(#g)" xlink:href="#f"/></g><path fill="#FD0D1B" d="M17 1.5l-.2 1.2 1.2-.2v1l-1.2-.2.2 1.2h-1l.2-1.2-1.2.2v-1l1.2.2-.2-1.2h1zm-12 0l-.2 1.2L6 2.5v1l-1.2-.2.2 1.2H4l.2-1.2-1.2.2v-1l1.2.2L4 1.5h1zm0 9l-.2 1.2 1.2-.2v1l-1.2-.2.2 1.2H4l.2-1.2-1.2.2v-1l1.2.2-.2-1.2h1zm12 0l-.2 1.2 1.2-.2v1l-1.2-.2.2 1.2h-1l.2-1.2-1.2.2v-1l1.2.2-.2-1.2h1z" mask="url(#d)"/><g fill="#000" mask="url(#d)"><use filter="url(#h)" xlink:href="#i"/></g></g></svg>