<svg xmlns="http://www.w3.org/2000/svg" xmlns:xlink="http://www.w3.org/1999/xlink" width="23" height="17" viewBox="0 0 23 17"><defs><filter id="b" width="116.7%" height="123.3%" x="-8.3%" y="-8.3%" filterUnits="objectBoundingBox"><feOffset dy=".5" in="SourceAlpha" result="shadowOffsetOuter1"/><feGaussianBlur in="shadowOffsetOuter1" result="shadowBlurOuter1" stdDeviation=".5"/><feColorMatrix in="shadowBlurOuter1" values="0 0 0 0 0 0 0 0 0 0 0 0 0 0 0 0 0 0 0.16 0"/></filter><filter id="e" width="107.1%" height="110%" x="-3.6%" y="-5%" filterUnits="objectBoundingBox"><feMorphology in="SourceAlpha" operator="dilate" radius=".25" result="shadowSpreadOuter1"/><feOffset in="shadowSpreadOuter1" result="shadowOffsetOuter1"/><feColorMatrix in="shadowOffsetOuter1" values="0 0 0 0 0 0 0 0 0 0 0 0 0 0 0 0 0 0 0.06 0"/></filter><filter id="h" width="105.8%" height="111.6%" x="-2.9%" y="-2.9%" filterUnits="objectBoundingBox"><feOffset dy=".5" in="SourceAlpha" result="shadowOffsetOuter1"/><feColorMatrix in="shadowOffsetOuter1" values="0 0 0 0 0 0 0 0 0 0 0 0 0 0 0 0 0 0 0.06 0"/></filter><filter id="k" width="102.4%" height="103.3%" x="-1.2%" y="-1.7%" filterUnits="objectBoundingBox"><feOffset dy="-.5" in="SourceAlpha" result="shadowOffsetInner1"/><feComposite in="shadowOffsetInner1" in2="SourceAlpha" k2="-1" k3="1" operator="arithmetic" result="shadowInnerInner1"/><feColorMatrix in="shadowInnerInner1" result="shadowMatrixInner1" values="0 0 0 0 0 0 0 0 0 0 0 0 0 0 0 0 0 0 0.04 0"/><feOffset dy=".5" in="SourceAlpha" result="shadowOffsetInner2"/><feComposite in="shadowOffsetInner2" in2="SourceAlpha" k2="-1" k3="1" operator="arithmetic" result="shadowInnerInner2"/><feColorMatrix in="shadowInnerInner2" result="shadowMatrixInner2" values="0 0 0 0 1 0 0 0 0 1 0 0 0 0 1 0 0 0 0.12 0"/><feMerge><feMergeNode in="shadowMatrixInner1"/><feMergeNode in="shadowMatrixInner2"/></feMerge></filter><linearGradient id="c" x1="50%" x2="50%" y1="0%" y2="100%"><stop offset="0%" stop-color="#FFF"/><stop offset="100%" stop-color="#F0F0F0"/></linearGradient><linearGradient id="g" x1="50%" x2="50%" y1="0%" y2="100%"><stop offset="0%" stop-color="#F0371D"/><stop offset="100%" stop-color="#DE290F"/></linearGradient><linearGradient id="j" x1="50%" x2="50%" y1="0%" y2="100%"><stop offset="0%" stop-color="#FFF"/><stop offset="100%" stop-color="#F0F0F0"/></linearGradient><rect id="a" width="21" height="15" x="0" y="0" rx="1.5"/><rect id="l" width="21" height="15" x="0" y="0" rx="1.5"/><path id="f" d="M0 0h21v15H0z"/><path id="i" d="M11.13 8.011c.788-.256 1.703.388 2.045 1.439.341 1.05-.021 2.11-.809 2.366-.293-.903-.798-.838-.939-1.272-.173-.533-.217-.668.012-1.582.229-.913-.697-.824-.309-.95zm-1.55.966c.94-.065.57-.919.81-.588.486.67.157 1.74-.737 2.389-.894.65-2.013.632-2.5-.038.768-.558.55-1.018.92-1.286.453-.33.568-.413 1.507-.477zm-.899.888a.25.25 0 10.294.405.25.25 0 00-.294-.405zm3.486-.088a.25.25 0 10.154.476.25.25 0 00-.154-.476zM6.566 5.45c.767.558 1.138.209 1.507.477.453.33.568.413.92 1.286.351.874 1.049.258.809.588-.487.67-1.606.687-2.5.038-.894-.65-1.223-1.719-.736-2.39zM13 5.69c1.105 0 2 .672 2 1.5-.949 0-1.044.5-1.5.5-.56 0-.702 0-1.5-.5s-1 .409-1 0c0-.828.895-1.5 2-1.5zm-5.48.998a.25.25 0 10.405.294.25.25 0 00-.405-.294zm1.85-1.993c.342-1.05 1.257-1.695 2.045-1.439-.293.903.153 1.147.012 1.581-.173.533-.217.668-.939 1.272-.722.605.08 1.078-.309.951-.788-.256-1.15-1.315-.809-2.365zM13.25 6.5a.25.25 0 100 .5.25.25 0 000-.5zm-3.032-1.793a.25.25 0 10.475.155.25.25 0 00-.475-.155z"/></defs><g fill="none" fill-rule="evenodd" transform="translate(1 1)"><mask id="d" fill="#fff"><use xlink:href="#a"/></mask><use fill="#000" filter="url(#b)" xlink:href="#a"/><use fill="url(#c)" xlink:href="#a"/><g mask="url(#d)"><use fill="#000" filter="url(#e)" xlink:href="#f"/><use fill="url(#g)" xlink:href="#f"/></g><g mask="url(#d)"><use fill="#000" filter="url(#h)" xlink:href="#i"/><use fill="url(#j)" xlink:href="#i"/></g><g fill="#000" mask="url(#d)"><use filter="url(#k)" xlink:href="#l"/></g></g></svg>