<svg xmlns="http://www.w3.org/2000/svg" xmlns:xlink="http://www.w3.org/1999/xlink" width="23" height="17" viewBox="0 0 23 17"><defs><filter id="b" width="116.7%" height="123.3%" x="-8.3%" y="-8.3%" filterUnits="objectBoundingBox"><feOffset dy=".5" in="SourceAlpha" result="shadowOffsetOuter1"/><feGaussianBlur in="shadowOffsetOuter1" result="shadowBlurOuter1" stdDeviation=".5"/><feColorMatrix in="shadowBlurOuter1" values="0 0 0 0 0 0 0 0 0 0 0 0 0 0 0 0 0 0 0.16 0"/></filter><filter id="e" width="107.1%" height="130%" x="-3.6%" y="-15%" filterUnits="objectBoundingBox"><feMorphology in="SourceAlpha" operator="dilate" radius=".25" result="shadowSpreadOuter1"/><feOffset in="shadowSpreadOuter1" result="shadowOffsetOuter1"/><feColorMatrix in="shadowOffsetOuter1" values="0 0 0 0 0 0 0 0 0 0 0 0 0 0 0 0 0 0 0.06 0"/></filter><filter id="h" width="107.1%" height="130%" x="-3.6%" y="-15%" filterUnits="objectBoundingBox"><feMorphology in="SourceAlpha" operator="dilate" radius=".25" result="shadowSpreadOuter1"/><feOffset in="shadowSpreadOuter1" result="shadowOffsetOuter1"/><feColorMatrix in="shadowOffsetOuter1" values="0 0 0 0 0 0 0 0 0 0 0 0 0 0 0 0 0 0 0.06 0"/></filter><filter id="k" width="107.1%" height="130%" x="-3.6%" y="-15%" filterUnits="objectBoundingBox"><feMorphology in="SourceAlpha" operator="dilate" radius=".25" result="shadowSpreadOuter1"/><feOffset in="shadowSpreadOuter1" result="shadowOffsetOuter1"/><feColorMatrix in="shadowOffsetOuter1" values="0 0 0 0 0 0 0 0 0 0 0 0 0 0 0 0 0 0 0.06 0"/></filter><filter id="n" width="102.4%" height="103.3%" x="-1.2%" y="-1.7%" filterUnits="objectBoundingBox"><feOffset dy="-.5" in="SourceAlpha" result="shadowOffsetInner1"/><feComposite in="shadowOffsetInner1" in2="SourceAlpha" k2="-1" k3="1" operator="arithmetic" result="shadowInnerInner1"/><feColorMatrix in="shadowInnerInner1" result="shadowMatrixInner1" values="0 0 0 0 0 0 0 0 0 0 0 0 0 0 0 0 0 0 0.04 0"/><feOffset dy=".5" in="SourceAlpha" result="shadowOffsetInner2"/><feComposite in="shadowOffsetInner2" in2="SourceAlpha" k2="-1" k3="1" operator="arithmetic" result="shadowInnerInner2"/><feColorMatrix in="shadowInnerInner2" result="shadowMatrixInner2" values="0 0 0 0 1 0 0 0 0 1 0 0 0 0 1 0 0 0 0.12 0"/><feMerge><feMergeNode in="shadowMatrixInner1"/><feMergeNode in="shadowMatrixInner2"/></feMerge></filter><linearGradient id="c" x1="50%" x2="50%" y1="0%" y2="100%"><stop offset="0%" stop-color="#FFF"/><stop offset="100%" stop-color="#F0F0F0"/></linearGradient><linearGradient id="g" x1="50%" x2="50%" y1="0%" y2="100%"><stop offset="0%" stop-color="#38BB56"/><stop offset="100%" stop-color="#2B9F45"/></linearGradient><linearGradient id="j" x1="50%" x2="50%" y1="0%" y2="100%"><stop offset="0%" stop-color="#DE1B27"/><stop offset="100%" stop-color="#D80915"/></linearGradient><linearGradient id="m" x1="50%" x2="50%" y1="0%" y2="100%"><stop offset="0%" stop-color="#FFF"/><stop offset="100%" stop-color="#F0F0F0"/></linearGradient><path id="f" d="M0 0h21v5H0z"/><path id="i" d="M0 10h21v5H0z"/><path id="l" d="M0 5h21v5H0z"/><rect id="a" width="21" height="15" x="0" y="0" rx="1.5"/><rect id="o" width="21" height="15" x="0" y="0" rx="1.5"/></defs><g fill="none" fill-rule="evenodd" transform="translate(1 1)"><mask id="d" fill="#fff"><use xlink:href="#a"/></mask><use fill="#000" filter="url(#b)" xlink:href="#a"/><use fill="url(#c)" xlink:href="#a"/><g mask="url(#d)"><use fill="#000" filter="url(#e)" xlink:href="#f"/><use fill="url(#g)" xlink:href="#f"/></g><g mask="url(#d)"><use fill="#000" filter="url(#h)" xlink:href="#i"/><use fill="url(#j)" xlink:href="#i"/></g><g mask="url(#d)"><use fill="#000" filter="url(#k)" xlink:href="#l"/><use fill="url(#m)" xlink:href="#l"/></g><path fill="#FFF" fill-opacity=".5" d="M1.748 10c.139 0 .252.107.252.252v.496c0 .139-.107.252-.252.252h-.496A.249.249 0 011 10.748v-.496c0-.139.107-.252.252-.252h.496zm2 0c.139 0 .252.107.252.252v.496c0 .139-.107.252-.252.252h-.496A.249.249 0 013 10.748v-.496c0-.139.107-.252.252-.252h.496zm2 0c.139 0 .252.107.252.252v.496c0 .139-.107.252-.252.252h-.496A.249.249 0 015 10.748v-.496c0-.139.107-.252.252-.252h.496zm2 0c.139 0 .252.107.252.252v.496c0 .139-.107.252-.252.252h-.496A.249.249 0 017 10.748v-.496c0-.139.107-.252.252-.252h.496zm2 0c.139 0 .252.107.252.252v.496c0 .139-.107.252-.252.252h-.496A.249.249 0 019 10.748v-.496c0-.139.107-.252.252-.252h.496zm2 0c.139 0 .252.107.252.252v.496c0 .139-.107.252-.252.252h-.496a.249.249 0 01-.252-.252v-.496c0-.139.107-.252.252-.252h.496zm2 0c.139 0 .252.107.252.252v.496c0 .139-.107.252-.252.252h-.496a.249.249 0 01-.252-.252v-.496c0-.139.107-.252.252-.252h.496zm2 0c.139 0 .252.107.252.252v.496c0 .139-.107.252-.252.252h-.496a.249.249 0 01-.252-.252v-.496c0-.139.107-.252.252-.252h.496zm2 0c.139 0 .252.107.252.252v.496c0 .139-.107.252-.252.252h-.496a.249.249 0 01-.252-.252v-.496c0-.139.107-.252.252-.252h.496zm2 0c.139 0 .252.107.252.252v.496c0 .139-.107.252-.252.252h-.496a.249.249 0 01-.252-.252v-.496c0-.139.107-.252.252-.252h.496zm-18-6c.139 0 .252.107.252.252v.496C2 4.887 1.893 5 1.748 5h-.496A.249.249 0 011 4.748v-.496C1 4.113 1.107 4 1.252 4h.496zm2 0c.139 0 .252.107.252.252v.496C4 4.887 3.893 5 3.748 5h-.496A.249.249 0 013 4.748v-.496C3 4.113 3.107 4 3.252 4h.496zm2 0c.139 0 .252.107.252.252v.496C6 4.887 5.893 5 5.748 5h-.496A.249.249 0 015 4.748v-.496C5 4.113 5.107 4 5.252 4h.496zm2 0c.139 0 .252.107.252.252v.496C8 4.887 7.893 5 7.748 5h-.496A.249.249 0 017 4.748v-.496C7 4.113 7.107 4 7.252 4h.496zm2 0c.139 0 .252.107.252.252v.496c0 .139-.107.252-.252.252h-.496A.249.249 0 019 4.748v-.496C9 4.113 9.107 4 9.252 4h.496zm2 0c.139 0 .252.107.252.252v.496c0 .139-.107.252-.252.252h-.496A.249.249 0 0111 4.748v-.496c0-.139.107-.252.252-.252h.496zm2 0c.139 0 .252.107.252.252v.496c0 .139-.107.252-.252.252h-.496A.249.249 0 0113 4.748v-.496c0-.139.107-.252.252-.252h.496zm2 0c.139 0 .252.107.252.252v.496c0 .139-.107.252-.252.252h-.496A.249.249 0 0115 4.748v-.496c0-.139.107-.252.252-.252h.496zm2 0c.139 0 .252.107.252.252v.496c0 .139-.107.252-.252.252h-.496A.249.249 0 0117 4.748v-.496c0-.139.107-.252.252-.252h.496zm2 0c.139 0 .252.107.252.252v.496c0 .139-.107.252-.252.252h-.496A.249.249 0 0119 4.748v-.496c0-.139.107-.252.252-.252h.496z" mask="url(#d)"/><path stroke="#D80915" stroke-width=".5" d="M9.49 6.39A1.5 1.5 0 0010.5 9h0a1.5 1.5 0 001.027-2.593" mask="url(#d)"/><rect width="1" height="2" x="10" y="7" fill="#D80915" mask="url(#d)" rx=".5"/><g fill="#000" mask="url(#d)"><use filter="url(#n)" xlink:href="#o"/></g></g></svg>