<svg xmlns="http://www.w3.org/2000/svg" xmlns:xlink="http://www.w3.org/1999/xlink" width="23" height="17" viewBox="0 0 23 17"><defs><linearGradient id="c" x1="50%" x2="50%" y1="0%" y2="100%"><stop offset="0%" stop-color="#FFF"/><stop offset="100%" stop-color="#F0F0F0"/></linearGradient><linearGradient id="d" x1="50%" x2="50%" y1="0%" y2="100%"><stop offset="0%" stop-color="#F22A46"/><stop offset="100%" stop-color="#E71834"/></linearGradient><linearGradient id="h" x1="50%" x2="50%" y1="0%" y2="100%"><stop offset="0%" stop-color="#FFF04D"/><stop offset="100%" stop-color="#FFEE35"/></linearGradient><linearGradient id="k" x1="50%" x2="50%" y1="0%" y2="100%"><stop offset="0%" stop-color="#FFF04D"/><stop offset="100%" stop-color="#FFEE35"/></linearGradient><filter id="b" width="116.7%" height="123.3%" x="-8.3%" y="-8.3%" filterUnits="objectBoundingBox"><feOffset dy=".5" in="SourceAlpha" result="shadowOffsetOuter1"/><feGaussianBlur in="shadowOffsetOuter1" result="shadowBlurOuter1" stdDeviation=".5"/><feColorMatrix in="shadowBlurOuter1" values="0 0 0 0 0 0 0 0 0 0 0 0 0 0 0 0 0 0 0.16 0"/></filter><filter id="f" width="110%" height="120%" x="-5%" y="-5%" filterUnits="objectBoundingBox"><feOffset dy=".5" in="SourceAlpha" result="shadowOffsetOuter1"/><feColorMatrix in="shadowOffsetOuter1" values="0 0 0 0 0 0 0 0 0 0 0 0 0 0 0 0 0 0 0.08 0"/></filter><filter id="i" width="104.5%" height="109.3%" x="-2.3%" y="-2.3%" filterUnits="objectBoundingBox"><feOffset dy=".5" in="SourceAlpha" result="shadowOffsetOuter1"/><feColorMatrix in="shadowOffsetOuter1" values="0 0 0 0 0 0 0 0 0 0 0 0 0 0 0 0 0 0 0.08 0"/></filter><filter id="l" width="102.4%" height="103.3%" x="-1.2%" y="-1.7%" filterUnits="objectBoundingBox"><feOffset dy="-.5" in="SourceAlpha" result="shadowOffsetInner1"/><feComposite in="shadowOffsetInner1" in2="SourceAlpha" k2="-1" k3="1" operator="arithmetic" result="shadowInnerInner1"/><feColorMatrix in="shadowInnerInner1" result="shadowMatrixInner1" values="0 0 0 0 0 0 0 0 0 0 0 0 0 0 0 0 0 0 0.04 0"/><feOffset dy=".5" in="SourceAlpha" result="shadowOffsetInner2"/><feComposite in="shadowOffsetInner2" in2="SourceAlpha" k2="-1" k3="1" operator="arithmetic" result="shadowInnerInner2"/><feColorMatrix in="shadowInnerInner2" result="shadowMatrixInner2" values="0 0 0 0 1 0 0 0 0 1 0 0 0 0 1 0 0 0 0.12 0"/><feMerge><feMergeNode in="shadowMatrixInner1"/><feMergeNode in="shadowMatrixInner2"/></feMerge></filter><rect id="a" width="21" height="15" x="0" y="0" rx="1.5"/><rect id="m" width="21" height="15" x="0" y="0" rx="1.5"/><circle id="g" cx="10.5" cy="7.5" r="2.5"/><path id="j" d="M11.724 2.138l.31 2.177L13.929 3.2l-.665 2.096 2.191-.182-1.508 1.6L16 7.5l-2.053.787 1.508 1.6-2.191-.183.665 2.096-1.895-1.115-.31 2.177-1.224-1.827-1.224 1.827-.31-2.177L7.071 11.8l.665-2.096-2.191.182 1.508-1.6L5 7.5l2.053-.787-1.508-1.6 2.191.183L7.071 3.2l1.895 1.115.31-2.177L10.5 3.965l1.224-1.827zM10.5 4a3.5 3.5 0 100 7 3.5 3.5 0 000-7z"/></defs><g fill="none" fill-rule="evenodd" transform="translate(1 1)"><mask id="e" fill="#fff"><use xlink:href="#a"/></mask><use fill="#000" filter="url(#b)" xlink:href="#a"/><use fill="url(#c)" xlink:href="#a"/><path fill="url(#d)" mask="url(#e)" d="M0 0h21v15H0z"/><g mask="url(#e)"><use fill="#000" filter="url(#f)" xlink:href="#g"/><use fill="url(#h)" xlink:href="#g"/></g><g mask="url(#e)"><use fill="#000" filter="url(#i)" xlink:href="#j"/><use fill="url(#k)" xlink:href="#j"/></g><use fill="#000" filter="url(#l)" xlink:href="#m"/></g></svg>