<svg xmlns="http://www.w3.org/2000/svg" xmlns:xlink="http://www.w3.org/1999/xlink" width="23" height="17" viewBox="0 0 23 17"><defs><filter id="b" width="116.7%" height="123.3%" x="-8.3%" y="-8.3%" filterUnits="objectBoundingBox"><feOffset dy=".5" in="SourceAlpha" result="shadowOffsetOuter1"/><feGaussianBlur in="shadowOffsetOuter1" result="shadowBlurOuter1" stdDeviation=".5"/><feColorMatrix in="shadowBlurOuter1" values="0 0 0 0 0 0 0 0 0 0 0 0 0 0 0 0 0 0 0.16 0"/></filter><filter id="e" width="107.1%" height="137.5%" x="-3.6%" y="-18.8%" filterUnits="objectBoundingBox"><feMorphology in="SourceAlpha" operator="dilate" radius=".25" result="shadowSpreadOuter1"/><feOffset in="shadowSpreadOuter1" result="shadowOffsetOuter1"/><feColorMatrix in="shadowOffsetOuter1" values="0 0 0 0 0 0 0 0 0 0 0 0 0 0 0 0 0 0 0.06 0"/></filter><filter id="h" width="107.1%" height="137.5%" x="-3.6%" y="-18.8%" filterUnits="objectBoundingBox"><feMorphology in="SourceAlpha" operator="dilate" radius=".25" result="shadowSpreadOuter1"/><feOffset in="shadowSpreadOuter1" result="shadowOffsetOuter1"/><feColorMatrix in="shadowOffsetOuter1" values="0 0 0 0 0 0 0 0 0 0 0 0 0 0 0 0 0 0 0.06 0"/></filter><filter id="j" width="107.1%" height="121.4%" x="-3.6%" y="-10.7%" filterUnits="objectBoundingBox"><feMorphology in="SourceAlpha" operator="dilate" radius=".25" result="shadowSpreadOuter1"/><feOffset in="shadowSpreadOuter1" result="shadowOffsetOuter1"/><feColorMatrix in="shadowOffsetOuter1" values="0 0 0 0 0 0 0 0 0 0 0 0 0 0 0 0 0 0 0.06 0"/></filter><filter id="m" width="106.2%" height="122.2%" x="-3.1%" y="-5.6%" filterUnits="objectBoundingBox"><feOffset dy=".5" in="SourceAlpha" result="shadowOffsetOuter1"/><feColorMatrix in="shadowOffsetOuter1" values="0 0 0 0 0 0 0 0 0 0 0 0 0 0 0 0 0 0 0.06 0"/></filter><filter id="p" width="102.4%" height="103.3%" x="-1.2%" y="-1.7%" filterUnits="objectBoundingBox"><feOffset dy="-.5" in="SourceAlpha" result="shadowOffsetInner1"/><feComposite in="shadowOffsetInner1" in2="SourceAlpha" k2="-1" k3="1" operator="arithmetic" result="shadowInnerInner1"/><feColorMatrix in="shadowInnerInner1" result="shadowMatrixInner1" values="0 0 0 0 0 0 0 0 0 0 0 0 0 0 0 0 0 0 0.04 0"/><feOffset dy=".5" in="SourceAlpha" result="shadowOffsetInner2"/><feComposite in="shadowOffsetInner2" in2="SourceAlpha" k2="-1" k3="1" operator="arithmetic" result="shadowInnerInner2"/><feColorMatrix in="shadowInnerInner2" result="shadowMatrixInner2" values="0 0 0 0 1 0 0 0 0 1 0 0 0 0 1 0 0 0 0.12 0"/><feMerge><feMergeNode in="shadowMatrixInner1"/><feMergeNode in="shadowMatrixInner2"/></feMerge></filter><linearGradient id="c" x1="50%" x2="50%" y1="0%" y2="100%"><stop offset="0%" stop-color="#FFF"/><stop offset="100%" stop-color="#F0F0F0"/></linearGradient><linearGradient id="g" x1="50%" x2="50%" y1="0%" y2="100%"><stop offset="0%" stop-color="#0F3EB6"/><stop offset="100%" stop-color="#09339F"/></linearGradient><linearGradient id="l" x1="50%" x2="50%" y1="0%" y2="100%"><stop offset="0%" stop-color="#ED1A3C"/><stop offset="100%" stop-color="#DE0B2D"/></linearGradient><linearGradient id="o" x1="50%" x2="50%" y1="0%" y2="100%"><stop offset="0%" stop-color="#FFF"/><stop offset="100%" stop-color="#F0F0F0"/></linearGradient><path id="f" d="M0 0h21v4H0z"/><path id="i" d="M0 11h21v4H0z"/><path id="k" d="M0 4h21v7H0z"/><path id="n" d="M8.5 8v2h-2l1-2h1zM12 8v2H9V8h3zm1.5 0l1 2h-2V8h1zM13 6a.5.5 0 01.5.508V7.5h-1v-.992c0-.25.183-.457.412-.5L13 6zm-2.5-.5c.276 0 .5.222.5.498v.547h1V7.5H9v-.955h1v-.547c0-.244.183-.448.412-.49L10.5 5.5zM8 6a.5.5 0 01.5.508V7.5h-1v-.992c0-.25.183-.457.412-.5L8 6z"/><rect id="a" width="21" height="15" x="0" y="0" rx="1.5"/><rect id="q" width="21" height="15" x="0" y="0" rx="1.5"/></defs><g fill="none" fill-rule="evenodd" transform="translate(1 1)"><mask id="d" fill="#fff"><use xlink:href="#a"/></mask><use fill="#000" filter="url(#b)" xlink:href="#a"/><use fill="url(#c)" xlink:href="#a"/><g mask="url(#d)"><use fill="#000" filter="url(#e)" xlink:href="#f"/><use fill="url(#g)" xlink:href="#f"/></g><g mask="url(#d)"><use fill="#000" filter="url(#h)" xlink:href="#i"/><use fill="url(#g)" xlink:href="#i"/></g><g mask="url(#d)"><use fill="#000" filter="url(#j)" xlink:href="#k"/><use fill="url(#l)" xlink:href="#k"/></g><g mask="url(#d)"><use fill="#000" filter="url(#m)" xlink:href="#n"/><use fill="url(#o)" xlink:href="#n"/></g><g fill="#000" mask="url(#d)"><use filter="url(#p)" xlink:href="#q"/></g></g></svg>