<svg xmlns="http://www.w3.org/2000/svg" xmlns:xlink="http://www.w3.org/1999/xlink" width="23" height="17" viewBox="0 0 23 17"><defs><linearGradient id="c" x1="50%" x2="50%" y1="0%" y2="100%"><stop offset="0%" stop-color="#FFF"/><stop offset="100%" stop-color="#F0F0F0"/></linearGradient><linearGradient id="g" x1="50%" x2="50%" y1="0%" y2="100%"><stop offset="0%" stop-color="#FFCB49"/><stop offset="100%" stop-color="#FFC638"/></linearGradient><linearGradient id="j" x1="50%" x2="50%" y1="0%" y2="100%"><stop offset="0%" stop-color="#DC1D34"/><stop offset="100%" stop-color="#CC162C"/></linearGradient><linearGradient id="m" x1="50%" x2="50%" y1="0%" y2="100%"><stop offset="0%" stop-color="#4985D4"/><stop offset="100%" stop-color="#3D77C2"/></linearGradient><linearGradient id="p" x1="50%" x2="50%" y1="0%" y2="100%"><stop offset="0%" stop-color="#FFF"/><stop offset="100%" stop-color="#F0F0F0"/></linearGradient><linearGradient id="q" x1="50%" x2="50%" y1="0%" y2="100%"><stop offset="0%" stop-color="#4BA343"/><stop offset="100%" stop-color="#408D39"/></linearGradient><linearGradient id="t" x1="50%" x2="50%" y1="0%" y2="100%"><stop offset="0%" stop-color="#FFF"/><stop offset="100%" stop-color="#F0F0F0"/></linearGradient><filter id="b" width="116.7%" height="123.3%" x="-8.3%" y="-8.3%" filterUnits="objectBoundingBox"><feOffset dy=".5" in="SourceAlpha" result="shadowOffsetOuter1"/><feGaussianBlur in="shadowOffsetOuter1" result="shadowBlurOuter1" stdDeviation=".5"/><feColorMatrix in="shadowBlurOuter1" values="0 0 0 0 0 0 0 0 0 0 0 0 0 0 0 0 0 0 0.16 0"/></filter><filter id="e" width="107.1%" height="137.5%" x="-3.6%" y="-18.8%" filterUnits="objectBoundingBox"><feMorphology in="SourceAlpha" operator="dilate" radius=".25" result="shadowSpreadOuter1"/><feOffset in="shadowSpreadOuter1" result="shadowOffsetOuter1"/><feColorMatrix in="shadowOffsetOuter1" values="0 0 0 0 0 0 0 0 0 0 0 0 0 0 0 0 0 0 0.06 0"/></filter><filter id="h" width="107.1%" height="137.5%" x="-3.6%" y="-18.8%" filterUnits="objectBoundingBox"><feMorphology in="SourceAlpha" operator="dilate" radius=".25" result="shadowSpreadOuter1"/><feOffset in="shadowSpreadOuter1" result="shadowOffsetOuter1"/><feColorMatrix in="shadowOffsetOuter1" values="0 0 0 0 0 0 0 0 0 0 0 0 0 0 0 0 0 0 0.06 0"/></filter><filter id="k" width="107.1%" height="137.5%" x="-3.6%" y="-18.8%" filterUnits="objectBoundingBox"><feMorphology in="SourceAlpha" operator="dilate" radius=".25" result="shadowSpreadOuter1"/><feOffset in="shadowSpreadOuter1" result="shadowOffsetOuter1"/><feColorMatrix in="shadowOffsetOuter1" values="0 0 0 0 0 0 0 0 0 0 0 0 0 0 0 0 0 0 0.06 0"/></filter><filter id="n" width="107.1%" height="150%" x="-3.6%" y="-25%" filterUnits="objectBoundingBox"><feMorphology in="SourceAlpha" operator="dilate" radius=".25" result="shadowSpreadOuter1"/><feOffset in="shadowSpreadOuter1" result="shadowOffsetOuter1"/><feColorMatrix in="shadowOffsetOuter1" values="0 0 0 0 0 0 0 0 0 0 0 0 0 0 0 0 0 0 0.06 0"/></filter><filter id="r" width="110%" height="116.7%" x="-5%" y="-4.2%" filterUnits="objectBoundingBox"><feOffset dy=".5" in="SourceAlpha" result="shadowOffsetOuter1"/><feColorMatrix in="shadowOffsetOuter1" values="0 0 0 0 0 0 0 0 0 0 0 0 0 0 0 0 0 0 0.06 0"/></filter><filter id="u" width="102.4%" height="103.3%" x="-1.2%" y="-1.7%" filterUnits="objectBoundingBox"><feOffset dy="-.5" in="SourceAlpha" result="shadowOffsetInner1"/><feComposite in="shadowOffsetInner1" in2="SourceAlpha" k2="-1" k3="1" operator="arithmetic" result="shadowInnerInner1"/><feColorMatrix in="shadowInnerInner1" result="shadowMatrixInner1" values="0 0 0 0 0 0 0 0 0 0 0 0 0 0 0 0 0 0 0.04 0"/><feOffset dy=".5" in="SourceAlpha" result="shadowOffsetInner2"/><feComposite in="shadowOffsetInner2" in2="SourceAlpha" k2="-1" k3="1" operator="arithmetic" result="shadowInnerInner2"/><feColorMatrix in="shadowInnerInner2" result="shadowMatrixInner2" values="0 0 0 0 1 0 0 0 0 1 0 0 0 0 1 0 0 0 0.12 0"/><feMerge><feMergeNode in="shadowMatrixInner1"/><feMergeNode in="shadowMatrixInner2"/></feMerge></filter><path id="f" d="M0 0h21v4H0z"/><path id="i" d="M0 7h21v4H0z"/><path id="l" d="M0 11h21v4H0z"/><path id="o" d="M0 4h21v3H0z"/><path id="s" d="M4 4.5c.26 0 .511.033.751.095a3 3 0 00-.001 5.81A3 3 0 114 4.5zM5.5 9a.5.5 0 110 1 .5.5 0 010-1zm0-2a.5.5 0 110 1 .5.5 0 010-1zm0-2a.5.5 0 110 1 .5.5 0 010-1z"/><rect id="a" width="21" height="15" x="0" y="0" rx="1.5"/><rect id="v" width="21" height="15" x="0" y="0" rx="1.5"/></defs><g fill="none" fill-rule="evenodd" transform="translate(1 1)"><mask id="d" fill="#fff"><use xlink:href="#a"/></mask><use fill="#000" filter="url(#b)" xlink:href="#a"/><use fill="url(#c)" xlink:href="#a"/><g mask="url(#d)"><use fill="#000" filter="url(#e)" xlink:href="#f"/><use fill="url(#g)" xlink:href="#f"/></g><g mask="url(#d)"><use fill="#000" filter="url(#h)" xlink:href="#i"/><use fill="url(#j)" xlink:href="#i"/></g><g mask="url(#d)"><use fill="#000" filter="url(#k)" xlink:href="#l"/><use fill="url(#m)" xlink:href="#l"/></g><g mask="url(#d)"><use fill="#000" filter="url(#n)" xlink:href="#o"/><use fill="url(#p)" xlink:href="#o"/></g><path fill="url(#q)" mask="url(#d)" d="M0 15l10-7.5L0 0z"/><g mask="url(#d)"><use fill="#000" filter="url(#r)" xlink:href="#s"/><use fill="url(#t)" xlink:href="#s"/></g><g fill="#000" mask="url(#d)"><use filter="url(#u)" xlink:href="#v"/></g></g></svg>