<svg xmlns="http://www.w3.org/2000/svg" xmlns:xlink="http://www.w3.org/1999/xlink" width="23" height="17" viewBox="0 0 23 17"><defs><linearGradient id="c" x1="50%" x2="50%" y1="0%" y2="100%"><stop offset="0%" stop-color="#FFF"/><stop offset="100%" stop-color="#F0F0F0"/></linearGradient><linearGradient id="f" x1="50%" x2="50%" y1="0%" y2="100%"><stop offset="0%" stop-color="#E01B41"/><stop offset="100%" stop-color="#C51335"/></linearGradient><linearGradient id="g" x1="50%" x2="50%" y1="0%" y2="100%"><stop offset="0%" stop-color="#0E4B9C"/><stop offset="100%" stop-color="#053677"/></linearGradient><linearGradient id="i" x1="50%" x2="50%" y1="0%" y2="100%"><stop offset="0%" stop-color="#262626"/><stop offset="100%" stop-color="#0D0D0D"/></linearGradient><filter id="b" width="116.7%" height="123.3%" x="-8.3%" y="-8.3%" filterUnits="objectBoundingBox"><feOffset dy=".5" in="SourceAlpha" result="shadowOffsetOuter1"/><feGaussianBlur in="shadowOffsetOuter1" result="shadowBlurOuter1" stdDeviation=".5"/><feColorMatrix in="shadowBlurOuter1" values="0 0 0 0 0 0 0 0 0 0 0 0 0 0 0 0 0 0 0.16 0"/></filter><filter id="j" width="102.4%" height="103.3%" x="-1.2%" y="-1.7%" filterUnits="objectBoundingBox"><feOffset dy="-.5" in="SourceAlpha" result="shadowOffsetInner1"/><feComposite in="shadowOffsetInner1" in2="SourceAlpha" k2="-1" k3="1" operator="arithmetic" result="shadowInnerInner1"/><feColorMatrix in="shadowInnerInner1" result="shadowMatrixInner1" values="0 0 0 0 0 0 0 0 0 0 0 0 0 0 0 0 0 0 0.04 0"/><feOffset dy=".5" in="SourceAlpha" result="shadowOffsetInner2"/><feComposite in="shadowOffsetInner2" in2="SourceAlpha" k2="-1" k3="1" operator="arithmetic" result="shadowInnerInner2"/><feColorMatrix in="shadowInnerInner2" result="shadowMatrixInner2" values="0 0 0 0 1 0 0 0 0 1 0 0 0 0 1 0 0 0 0.12 0"/><feMerge><feMergeNode in="shadowMatrixInner1"/><feMergeNode in="shadowMatrixInner2"/></feMerge></filter><rect id="a" width="21" height="15" x="0" y="0" rx="1.5"/><rect id="k" width="21" height="15" x="0" y="0" rx="1.5"/><circle id="e" cx="3.5" cy="3.5" r="3.5"/></defs><g fill="none" fill-rule="evenodd" transform="translate(1 1)"><mask id="d" fill="#fff"><use xlink:href="#a"/></mask><use fill="#000" filter="url(#b)" xlink:href="#a"/><use fill="url(#c)" xlink:href="#a"/><g mask="url(#d)"><g transform="translate(7 4)"><mask id="h" fill="#fff"><use xlink:href="#e"/></mask><use fill="url(#f)" xlink:href="#e"/><path fill="url(#g)" d="M0 4c1 .937 2.5 1.5 3.5 0s3-1.5 3.5 0 0 3 0 3H0s-1-3.937 0-3z" mask="url(#h)"/></g></g><path fill="url(#i)" d="M17.098 9.577l.429.248c.12.07.161.225.09.347l-1.244 2.156a.25.25 0 01-.346.095l-.43-.248a.254.254 0 01-.09-.347l1.244-2.156a.25.25 0 01.347-.095zm-12.85.095l1.245 2.156a.25.25 0 01-.09.347l-.43.248a.254.254 0 01-.346-.095l-1.244-2.156a.25.25 0 01.09-.347l.43-.248a.254.254 0 01.346.095zm11.55-.845l.43.248c.12.07.161.225.09.347l-1.244 2.156a.25.25 0 01-.346.095l-.43-.248a.254.254 0 01-.09-.347l1.244-2.156a.25.25 0 01.347-.095zm-10.25.095l1.244 2.156a.25.25 0 01-.09.347l-.43.248a.254.254 0 01-.346-.095L4.682 9.422a.25.25 0 01.09-.347l.43-.248a.254.254 0 01.346.095zm.724-5.595l.43.248c.12.07.16.225.09.347L5.548 6.078a.25.25 0 01-.347.095l-.429-.248a.254.254 0 01-.09-.347l1.244-2.156a.25.25 0 01.346-.095zm8.802.095l1.244 2.156a.25.25 0 01-.09.347l-.43.248a.254.254 0 01-.346-.095l-1.244-2.156a.25.25 0 01.09-.347l.43-.248a.254.254 0 01.346.095zm-10.1-.845l.428.248c.121.07.162.225.09.347L4.25 5.328a.25.25 0 01-.347.095l-.429-.248a.254.254 0 01-.09-.347l1.244-2.156a.25.25 0 01.346-.095zm11.4.095l1.243 2.156a.25.25 0 01-.09.347l-.43.248a.254.254 0 01-.346-.095l-1.244-2.156a.25.25 0 01.09-.347l.43-.248a.254.254 0 01.346.095z" mask="url(#d)" opacity=".75"/><use fill="#000" filter="url(#j)" xlink:href="#k"/></g></svg>