<svg xmlns="http://www.w3.org/2000/svg" xmlns:xlink="http://www.w3.org/1999/xlink" width="23" height="17" viewBox="0 0 23 17"><defs><linearGradient id="c" x1="50%" x2="50%" y1="0%" y2="100%"><stop offset="0%" stop-color="#FFF"/><stop offset="100%" stop-color="#F0F0F0"/></linearGradient><linearGradient id="d" x1="50%" x2="50%" y1="0%" y2="100%"><stop offset="0%" stop-color="#30C6E0"/><stop offset="100%" stop-color="#1CB0C9"/></linearGradient><linearGradient id="h" x1="50%" x2="50%" y1="0%" y2="100%"><stop offset="0%" stop-color="#FFCD4B"/><stop offset="100%" stop-color="#FEC531"/></linearGradient><linearGradient id="k" x1="50%" x2="50%" y1="0%" y2="100%"><stop offset="0%" stop-color="#FFCD4B"/><stop offset="100%" stop-color="#FEC531"/></linearGradient><linearGradient id="n" x1="50%" x2="50%" y1="0%" y2="100%"><stop offset="0%" stop-color="#FFCD4B"/><stop offset="100%" stop-color="#FEC531"/></linearGradient><filter id="b" width="116.7%" height="123.3%" x="-8.3%" y="-8.3%" filterUnits="objectBoundingBox"><feOffset dy=".5" in="SourceAlpha" result="shadowOffsetOuter1"/><feGaussianBlur in="shadowOffsetOuter1" result="shadowBlurOuter1" stdDeviation=".5"/><feColorMatrix in="shadowBlurOuter1" values="0 0 0 0 0 0 0 0 0 0 0 0 0 0 0 0 0 0 0.16 0"/></filter><filter id="f" width="108.3%" height="116.7%" x="-4.2%" y="-4.2%" filterUnits="objectBoundingBox"><feOffset dy=".5" in="SourceAlpha" result="shadowOffsetOuter1"/><feColorMatrix in="shadowOffsetOuter1" values="0 0 0 0 0 0 0 0 0 0 0 0 0 0 0 0 0 0 0.08 0"/></filter><filter id="i" width="104.5%" height="109.3%" x="-2.3%" y="-2.3%" filterUnits="objectBoundingBox"><feOffset dy=".5" in="SourceAlpha" result="shadowOffsetOuter1"/><feColorMatrix in="shadowOffsetOuter1" values="0 0 0 0 0 0 0 0 0 0 0 0 0 0 0 0 0 0 0.08 0"/></filter><filter id="l" width="125%" height="107.7%" x="-12.5%" y="-1.9%" filterUnits="objectBoundingBox"><feOffset dy=".5" in="SourceAlpha" result="shadowOffsetOuter1"/><feColorMatrix in="shadowOffsetOuter1" values="0 0 0 0 0 0 0 0 0 0 0 0 0 0 0 0 0 0 0.08 0"/></filter><filter id="o" width="102.4%" height="103.3%" x="-1.2%" y="-1.7%" filterUnits="objectBoundingBox"><feOffset dy="-.5" in="SourceAlpha" result="shadowOffsetInner1"/><feComposite in="shadowOffsetInner1" in2="SourceAlpha" k2="-1" k3="1" operator="arithmetic" result="shadowInnerInner1"/><feColorMatrix in="shadowInnerInner1" result="shadowMatrixInner1" values="0 0 0 0 0 0 0 0 0 0 0 0 0 0 0 0 0 0 0.04 0"/><feOffset dy=".5" in="SourceAlpha" result="shadowOffsetInner2"/><feComposite in="shadowOffsetInner2" in2="SourceAlpha" k2="-1" k3="1" operator="arithmetic" result="shadowInnerInner2"/><feColorMatrix in="shadowInnerInner2" result="shadowMatrixInner2" values="0 0 0 0 1 0 0 0 0 1 0 0 0 0 1 0 0 0 0.12 0"/><feMerge><feMergeNode in="shadowMatrixInner1"/><feMergeNode in="shadowMatrixInner2"/></feMerge></filter><rect id="a" width="21" height="15" x="0" y="0" rx="1.5"/><rect id="p" width="21" height="15" x="0" y="0" rx="1.5"/><path id="j" d="M11.724 2.138l.31 2.177L13.929 3.2l-.665 2.096 2.191-.182-1.508 1.6L16 7.5l-2.053.787 1.508 1.6-2.191-.183.665 2.096-1.895-1.115-.31 2.177-1.224-1.827-1.224 1.827-.31-2.177L7.071 11.8l.665-2.096-2.191.182 1.508-1.6L5 7.5l2.053-.787-1.508-1.6 2.191.183L7.071 3.2l1.895 1.115.31-2.177L10.5 3.965l1.224-1.827zM10.5 4a3.5 3.5 0 100 7 3.5 3.5 0 000-7z"/><path id="m" d="M1.748 13c.139 0 .252.107.252.252v.496c0 .139-.107.252-.252.252h-.496A.249.249 0 011 13.748v-.496c0-.139.107-.252.252-.252h.496zm1-1c.139 0 .252.107.252.252v.496c0 .139-.107.252-.252.252h-.496A.249.249 0 012 12.748v-.496c0-.139.107-.252.252-.252h.496zm-1-1c.139 0 .252.107.252.252v.496c0 .139-.107.252-.252.252h-.496A.249.249 0 011 11.748v-.496c0-.139.107-.252.252-.252h.496zm1-1c.139 0 .252.107.252.252v.496c0 .139-.107.252-.252.252h-.496A.249.249 0 012 10.748v-.496c0-.139.107-.252.252-.252h.496zm-1-1c.139 0 .252.107.252.252v.496c0 .139-.107.252-.252.252h-.496A.249.249 0 011 9.748v-.496C1 9.113 1.107 9 1.252 9h.496zm1-1c.139 0 .252.107.252.252v.496C3 8.887 2.893 9 2.748 9h-.496A.249.249 0 012 8.748v-.496C2 8.113 2.107 8 2.252 8h.496zm-1-1c.139 0 .252.107.252.252v.496C2 7.887 1.893 8 1.748 8h-.496A.249.249 0 011 7.748v-.496C1 7.113 1.107 7 1.252 7h.496zm1-1c.139 0 .252.107.252.252v.496C3 6.887 2.893 7 2.748 7h-.496A.249.249 0 012 6.748v-.496C2 6.113 2.107 6 2.252 6h.496zm-1-1c.139 0 .252.107.252.252v.496C2 5.887 1.893 6 1.748 6h-.496A.249.249 0 011 5.748v-.496C1 5.113 1.107 5 1.252 5h.496zm1-1c.139 0 .252.107.252.252v.496C3 4.887 2.893 5 2.748 5h-.496A.249.249 0 012 4.748v-.496C2 4.113 2.107 4 2.252 4h.496zm-1-1c.139 0 .252.107.252.252v.496C2 3.887 1.893 4 1.748 4h-.496A.249.249 0 011 3.748v-.496C1 3.113 1.107 3 1.252 3h.496zm1-1c.139 0 .252.107.252.252v.496C3 2.887 2.893 3 2.748 3h-.496A.249.249 0 012 2.748v-.496C2 2.113 2.107 2 2.252 2h.496zm-1-1c.139 0 .252.107.252.252v.496C2 1.887 1.893 2 1.748 2h-.496A.249.249 0 011 1.748v-.496C1 1.113 1.107 1 1.252 1h.496z"/><circle id="g" cx="10.5" cy="7.5" r="3"/></defs><g fill="none" fill-rule="evenodd" transform="translate(1 1)"><mask id="e" fill="#fff"><use xlink:href="#a"/></mask><use fill="#000" filter="url(#b)" xlink:href="#a"/><use fill="url(#c)" xlink:href="#a"/><path fill="url(#d)" mask="url(#e)" d="M0 0h21v15H0z"/><g mask="url(#e)"><use fill="#000" filter="url(#f)" xlink:href="#g"/><use fill="url(#h)" xlink:href="#g"/></g><g mask="url(#e)"><use fill="#000" filter="url(#i)" xlink:href="#j"/><use fill="url(#k)" xlink:href="#j"/></g><g mask="url(#e)"><use fill="#000" filter="url(#l)" xlink:href="#m"/><use fill="url(#n)" xlink:href="#m"/></g><use fill="#000" filter="url(#o)" xlink:href="#p"/></g></svg>