<svg xmlns="http://www.w3.org/2000/svg" xmlns:xlink="http://www.w3.org/1999/xlink" width="23" height="17" viewBox="0 0 23 17"><defs><linearGradient id="c" x1="50%" x2="50%" y1="0%" y2="100%"><stop offset="0%" stop-color="#FFF"/><stop offset="100%" stop-color="#F0F0F0"/></linearGradient><linearGradient id="g" x1="50%" x2="50%" y1="0%" y2="100%"><stop offset="0%" stop-color="#E6BE53"/><stop offset="100%" stop-color="#D3AD46"/></linearGradient><linearGradient id="h" x1="50%" x2="50%" y1="0%" y2="100%"><stop offset="0%" stop-color="#E01826"/><stop offset="100%" stop-color="#C30A17"/></linearGradient><linearGradient id="k" x1="50%" x2="50%" y1="0%" y2="100%"><stop offset="0%" stop-color="#E6BE53"/><stop offset="100%" stop-color="#D3AD46"/></linearGradient><filter id="b" width="116.7%" height="123.3%" x="-8.3%" y="-8.3%" filterUnits="objectBoundingBox"><feOffset dy=".5" in="SourceAlpha" result="shadowOffsetOuter1"/><feGaussianBlur in="shadowOffsetOuter1" result="shadowBlurOuter1" stdDeviation=".5"/><feColorMatrix in="shadowBlurOuter1" values="0 0 0 0 0 0 0 0 0 0 0 0 0 0 0 0 0 0 0.16 0"/></filter><filter id="e" width="116.7%" height="123.3%" x="-8.3%" y="-8.3%" filterUnits="objectBoundingBox"><feOffset dy=".5" in="SourceAlpha" result="shadowOffsetOuter1"/><feGaussianBlur in="shadowOffsetOuter1" result="shadowBlurOuter1" stdDeviation=".5"/><feColorMatrix in="shadowBlurOuter1" values="0 0 0 0 0 0 0 0 0 0 0 0 0 0 0 0 0 0 0.16 0"/></filter><filter id="i" width="105%" height="108.1%" x="-2.5%" y="-2.4%" filterUnits="objectBoundingBox"><feOffset dy=".5" in="SourceAlpha" result="shadowOffsetOuter1"/><feColorMatrix in="shadowOffsetOuter1" values="0 0 0 0 0 0 0 0 0 0 0 0 0 0 0 0 0 0 0.06 0"/></filter><filter id="l" width="102.4%" height="103.3%" x="-1.2%" y="-1.7%" filterUnits="objectBoundingBox"><feOffset dy="-.5" in="SourceAlpha" result="shadowOffsetInner1"/><feComposite in="shadowOffsetInner1" in2="SourceAlpha" k2="-1" k3="1" operator="arithmetic" result="shadowInnerInner1"/><feColorMatrix in="shadowInnerInner1" result="shadowMatrixInner1" values="0 0 0 0 0 0 0 0 0 0 0 0 0 0 0 0 0 0 0.04 0"/><feOffset dy=".5" in="SourceAlpha" result="shadowOffsetInner2"/><feComposite in="shadowOffsetInner2" in2="SourceAlpha" k2="-1" k3="1" operator="arithmetic" result="shadowInnerInner2"/><feColorMatrix in="shadowInnerInner2" result="shadowMatrixInner2" values="0 0 0 0 1 0 0 0 0 1 0 0 0 0 1 0 0 0 0.12 0"/><feMerge><feMergeNode in="shadowMatrixInner1"/><feMergeNode in="shadowMatrixInner2"/></feMerge></filter><rect id="a" width="21" height="15" x="0" y="0" rx="1.5"/><rect id="m" width="21" height="15" x="0" y="0" rx="1.5"/><path id="f" d="M0 0h21v15H0z"/><path id="j" d="M7.121 3.484l.258 1.032a5.4 5.4 0 00.348.937l.046.094c.105.208.302.494.478.696l.1.108-.204-.204a.499.499 0 010 .706l.203-.204-.054.065c-.128.183-.074.397.157.513l.094.046C8.797 7.4 9 7.273 9 7v.5c0-.276.096-.693.227-.953l.046-.094a.74.74 0 00-.123-.803l-.3-.3-.427-.427-.07-.07c-.195-.195-.16-.45.1-.58l.094-.046a.74.74 0 01.803.123l.575.575.152.152.073.072.066.056a.5.5 0 00.568 0l.065-.056.226-.224.146-.146.43-.43a.729.729 0 01.802-.122l.094.046c.25.126.295.385.1.58l-.222.222-.275.275-.3.3a.729.729 0 00-.123.803l.046.094c.126.25.227.68.227.953V7c0 .276.193.404.453.273l.094-.046c.222-.112.282-.33.156-.513l-.054-.065.204.204a.499.499 0 010-.706l-.205.204.1-.108c.175-.2.37-.48.479-.696l.046-.094c.126-.25.28-.667.348-.937l.258-1.032c.067-.267.26-.3.425-.08l.892 1.191c.168.224.304.619.304.91v.99c0 .279-.096.698-.227.958l-.046.094a3.69 3.69 0 01-.577.803l-.3.3a3.62 3.62 0 01-.803.577l-.094.046a2.63 2.63 0 01-.807.219L12.5 9.5c-.276 0-.307.096-.047.227l.094.046c.25.126.611.385.806.58l-.206-.206c.195.195.511.195.706 0l-.206.206a.5.5 0 01.56-.101l.03.016.03.05c.094.194.104.44.006.635l-.046.094c-.11.219-.379.402-.624.444l-.103.009a2.48 2.48 0 01-.953-.227l-.094-.046a1.74 1.74 0 01-.68-.68l-.046-.094c-.098-.194-.276-.265-.443-.195l-.021.011-.026.048a.629.629 0 00.036.593l.454.68c.15.226.09.533-.137.683l-.68.454a.8.8 0 01-.82 0l-.68-.454a.493.493 0 01-.137-.683l.454-.68a.629.629 0 00.036-.593l-.028-.05-.019-.01c-.165-.072-.341-.006-.443.196l-.046.094c-.126.25-.42.55-.68.68l-.094.046a2.63 2.63 0 01-.807.219L7.5 11.5a.876.876 0 01-.727-.453l-.046-.094a.754.754 0 01.006-.633l.03-.052.03-.016a.5.5 0 01.56.1l-.206-.205c.195.195.511.195.706 0l-.206.206c.195-.195.546-.45.806-.58l.094-.046c.225-.113.224-.206.026-.224L8.5 9.5a2.48 2.48 0 01-.953-.227l-.094-.046a3.69 3.69 0 01-.803-.577l-.3-.3a3.62 3.62 0 01-.577-.803l-.046-.094a2.488 2.488 0 01-.227-.958v-.99c0-.279.138-.69.304-.91l.892-1.19c.168-.224.358-.191.425.08zm3.854-.826l.55.184c.263.087.319.314.125.508l-.3.3c-.166.166-.475.305-.729.34L10.5 4c-.276 0-.656-.156-.85-.35l-.3-.3c-.193-.193-.141-.42.125-.508l.55-.184c.263-.087.684-.088.95 0z"/></defs><g fill="none" fill-rule="evenodd" transform="translate(1 1)"><mask id="d" fill="#fff"><use xlink:href="#a"/></mask><use fill="#000" filter="url(#b)" xlink:href="#a"/><use fill="url(#c)" xlink:href="#a"/><g mask="url(#d)"><use fill="#000" filter="url(#e)" xlink:href="#f"/><use fill="url(#g)" xlink:href="#f"/></g><rect width="19" height="13" x="1" y="1" fill="url(#h)" mask="url(#d)" rx=".75"/><g mask="url(#d)"><use fill="#000" filter="url(#i)" xlink:href="#j"/><use fill="url(#k)" xlink:href="#j"/></g><path fill="#215F90" d="M9.5 9.006c0 .273.076.285.185.02C9.685 9.025 10 8 10.5 8c.5 0 .823 1.042.823 1.042.098.253.177.236.177-.047V8.5c0-.828-.448-1.5-1-1.5s-1 .672-1 1.5v.506z" mask="url(#d)"/><g fill="#000" mask="url(#d)"><use filter="url(#l)" xlink:href="#m"/></g></g></svg>