<svg xmlns="http://www.w3.org/2000/svg" xmlns:xlink="http://www.w3.org/1999/xlink" width="23" height="17" viewBox="0 0 23 17"><defs><filter id="b" width="116.7%" height="123.3%" x="-8.3%" y="-8.3%" filterUnits="objectBoundingBox"><feOffset dy=".5" in="SourceAlpha" result="shadowOffsetOuter1"/><feGaussianBlur in="shadowOffsetOuter1" result="shadowBlurOuter1" stdDeviation=".5"/><feColorMatrix in="shadowBlurOuter1" values="0 0 0 0 0 0 0 0 0 0 0 0 0 0 0 0 0 0 0.16 0"/></filter><filter id="e" width="107.1%" height="110%" x="-3.6%" y="-5%" filterUnits="objectBoundingBox"><feMorphology in="SourceAlpha" operator="dilate" radius=".25" result="shadowSpreadOuter1"/><feOffset in="shadowSpreadOuter1" result="shadowOffsetOuter1"/><feColorMatrix in="shadowOffsetOuter1" values="0 0 0 0 0 0 0 0 0 0 0 0 0 0 0 0 0 0 0.06 0"/></filter><filter id="h" width="105.9%" height="112.5%" x="-2.9%" y="-3.1%" filterUnits="objectBoundingBox"><feOffset dy=".5" in="SourceAlpha" result="shadowOffsetOuter1"/><feColorMatrix in="shadowOffsetOuter1" values="0 0 0 0 0 0 0 0 0 0 0 0 0 0 0 0 0 0 0.06 0"/></filter><filter id="k" width="105.6%" height="128.6%" x="-2.8%" y="-7.1%" filterUnits="objectBoundingBox"><feOffset dy=".5" in="SourceAlpha" result="shadowOffsetOuter1"/><feColorMatrix in="shadowOffsetOuter1" values="0 0 0 0 0 0 0 0 0 0 0 0 0 0 0 0 0 0 0.06 0"/></filter><filter id="m" width="102.4%" height="103.3%" x="-1.2%" y="-1.7%" filterUnits="objectBoundingBox"><feOffset dy="-.5" in="SourceAlpha" result="shadowOffsetInner1"/><feComposite in="shadowOffsetInner1" in2="SourceAlpha" k2="-1" k3="1" operator="arithmetic" result="shadowInnerInner1"/><feColorMatrix in="shadowInnerInner1" result="shadowMatrixInner1" values="0 0 0 0 0 0 0 0 0 0 0 0 0 0 0 0 0 0 0.04 0"/><feOffset dy=".5" in="SourceAlpha" result="shadowOffsetInner2"/><feComposite in="shadowOffsetInner2" in2="SourceAlpha" k2="-1" k3="1" operator="arithmetic" result="shadowInnerInner2"/><feColorMatrix in="shadowInnerInner2" result="shadowMatrixInner2" values="0 0 0 0 1 0 0 0 0 1 0 0 0 0 1 0 0 0 0.12 0"/><feMerge><feMergeNode in="shadowMatrixInner1"/><feMergeNode in="shadowMatrixInner2"/></feMerge></filter><linearGradient id="c" x1="50%" x2="50%" y1="0%" y2="100%"><stop offset="0%" stop-color="#FFF"/><stop offset="100%" stop-color="#F0F0F0"/></linearGradient><linearGradient id="g" x1="50%" x2="50%" y1="0%" y2="100%"><stop offset="0%" stop-color="#079D7B"/><stop offset="100%" stop-color="#01795E"/></linearGradient><linearGradient id="j" x1="50%" x2="50%" y1="0%" y2="100%"><stop offset="0%" stop-color="#FFF"/><stop offset="100%" stop-color="#F0F0F0"/></linearGradient><path id="f" d="M0 0h21v15H0z"/><path id="i" d="M7.166 9c-.728.625-1.656 1-2.666 1a4.076 4.076 0 01-2.666-1h5.332zM4.5 7c.834 0 1.573-.082 2.027-.097-.15.039-.296.071-.44.098L8.5 7a4.597 4.597 0 01-.473 1H.973A4.597 4.597 0 01.5 7l2.382.001a6.586 6.586 0 01-.444-.102l.015.003C2.906 6.916 3.653 7 4.5 7zm0-5c.78 0 1.414 1.12 1.414 2.5 0 .22-.016.432-.046.635l.046-.015.188-.054c1.334-.357 2.524-.24 2.659.264.122.454-.661 1.068-1.798 1.445C6.763 6.18 5.737 6 4.5 6c-1.238 0-2.265.18-2.465.776C.915 6.399.146 5.792.267 5.341c.134-.503 1.325-.62 2.659-.263.07.019.14.038.208.06a4.167 4.167 0 01-.048-.638C3.086 3.12 3.72 2 4.5 2z"/><path id="l" d="M.5 2.5a.5.5 0 110 1 .5.5 0 010-1zm8 0a.5.5 0 110 1 .5.5 0 010-1zM7 1a.5.5 0 110 1 .5.5 0 010-1zM2 1a.5.5 0 110 1 .5.5 0 010-1zm2.5-1a.5.5 0 110 1 .5.5 0 010-1z"/><rect id="a" width="21" height="15" x="0" y="0" rx="1.5"/><rect id="n" width="21" height="15" x="0" y="0" rx="1.5"/></defs><g fill="none" fill-rule="evenodd" transform="translate(1 1)"><mask id="d" fill="#fff"><use xlink:href="#a"/></mask><use fill="#000" filter="url(#b)" xlink:href="#a"/><use fill="url(#c)" xlink:href="#a"/><g mask="url(#d)"><use fill="#000" filter="url(#e)" xlink:href="#f"/><use fill="url(#g)" xlink:href="#f"/></g><g mask="url(#d)"><g transform="translate(6 2)"><use fill="#000" filter="url(#h)" xlink:href="#i"/><use fill="url(#j)" xlink:href="#i"/><use fill="#000" filter="url(#k)" xlink:href="#l"/><use fill="#FCD117" xlink:href="#l"/></g></g><use fill="#000" filter="url(#m)" xlink:href="#n"/></g></svg>