<svg xmlns="http://www.w3.org/2000/svg" xmlns:xlink="http://www.w3.org/1999/xlink" width="23" height="17" viewBox="0 0 23 17"><defs><linearGradient id="c" x1="50%" x2="50%" y1="0%" y2="100%"><stop offset="0%" stop-color="#FFF"/><stop offset="100%" stop-color="#F0F0F0"/></linearGradient><linearGradient id="g" x1="50%" x2="50%" y1="0%" y2="100%"><stop offset="0%" stop-color="#07319C"/><stop offset="100%" stop-color="#00247E"/></linearGradient><linearGradient id="j" x1="50%" x2="50%" y1="0%" y2="100%"><stop offset="0%" stop-color="#08B9D6"/><stop offset="100%" stop-color="#00A3BE"/></linearGradient><linearGradient id="l" x1="50%" x2="50%" y1="0%" y2="100%"><stop offset="0%" stop-color="#262626"/><stop offset="100%" stop-color="#0D0D0D"/></linearGradient><linearGradient id="m" x1="50%" x2="50%" y1="0%" y2="100%"><stop offset="0%" stop-color="#DB1E36"/><stop offset="100%" stop-color="#D51931"/></linearGradient><linearGradient id="n" x1="50%" x2="50%" y1="0%" y2="100%"><stop offset="0%" stop-color="#FFF"/><stop offset="100%" stop-color="#F0F0F0"/></linearGradient><filter id="b" width="116.7%" height="123.3%" x="-8.3%" y="-8.3%" filterUnits="objectBoundingBox"><feOffset dy=".5" in="SourceAlpha" result="shadowOffsetOuter1"/><feGaussianBlur in="shadowOffsetOuter1" result="shadowBlurOuter1" stdDeviation=".5"/><feColorMatrix in="shadowBlurOuter1" values="0 0 0 0 0 0 0 0 0 0 0 0 0 0 0 0 0 0 0.16 0"/></filter><filter id="e" width="116.7%" height="123.3%" x="-8.3%" y="-8.3%" filterUnits="objectBoundingBox"><feOffset dy=".5" in="SourceAlpha" result="shadowOffsetOuter1"/><feGaussianBlur in="shadowOffsetOuter1" result="shadowBlurOuter1" stdDeviation=".5"/><feColorMatrix in="shadowBlurOuter1" values="0 0 0 0 0 0 0 0 0 0 0 0 0 0 0 0 0 0 0.16 0"/></filter><filter id="i" width="110%" height="114.3%" x="-5%" y="-3.6%" filterUnits="objectBoundingBox"><feOffset dy=".5" in="SourceAlpha" result="shadowOffsetOuter1"/><feColorMatrix in="shadowOffsetOuter1" values="0 0 0 0 0 0 0 0 0 0 0 0 0 0 0 0 0 0 0.06 0"/></filter><filter id="o" width="102.4%" height="103.3%" x="-1.2%" y="-1.7%" filterUnits="objectBoundingBox"><feOffset dy="-.5" in="SourceAlpha" result="shadowOffsetInner1"/><feComposite in="shadowOffsetInner1" in2="SourceAlpha" k2="-1" k3="1" operator="arithmetic" result="shadowInnerInner1"/><feColorMatrix in="shadowInnerInner1" result="shadowMatrixInner1" values="0 0 0 0 0 0 0 0 0 0 0 0 0 0 0 0 0 0 0.04 0"/><feOffset dy=".5" in="SourceAlpha" result="shadowOffsetInner2"/><feComposite in="shadowOffsetInner2" in2="SourceAlpha" k2="-1" k3="1" operator="arithmetic" result="shadowInnerInner2"/><feColorMatrix in="shadowInnerInner2" result="shadowMatrixInner2" values="0 0 0 0 1 0 0 0 0 1 0 0 0 0 1 0 0 0 0.12 0"/><feMerge><feMergeNode in="shadowMatrixInner1"/><feMergeNode in="shadowMatrixInner2"/></feMerge></filter><rect id="a" width="21" height="15" x="0" y="0" rx="1.5"/><rect id="p" width="21" height="15" x="0" y="0" rx="1.5"/><path id="f" d="M0 0h21v15H0z"/><path id="h" d="M0 3.5V1c0-.553.444-1 1-1h3c.552 0 1 .441 1 1v2.5C5 6 2.5 7 2.5 7S0 6 0 3.5z"/></defs><g fill="none" fill-rule="evenodd" transform="translate(1 1)"><mask id="d" fill="#fff"><use xlink:href="#a"/></mask><use fill="#000" filter="url(#b)" xlink:href="#a"/><use fill="url(#c)" xlink:href="#a"/><g mask="url(#d)"><use fill="#000" filter="url(#e)" xlink:href="#f"/><use fill="url(#g)" xlink:href="#f"/></g><g mask="url(#d)"><g transform="translate(13 4)"><mask id="k" fill="#fff"><use xlink:href="#h"/></mask><use fill="#000" filter="url(#i)" xlink:href="#h"/><use fill="url(#j)" xlink:href="#h"/><path fill="#A63D09" mask="url(#k)" d="M0 5h5v2H0z"/><path fill="url(#l)" d="M3 1v1h1v1H3v2H2V3H1V2h1V1h1z" mask="url(#k)"/></g></g><path fill="url(#m)" stroke="#FFF" stroke-width=".5" d="M.58-.25H-.676L3.25 3.115v.756l-3.5 2.5v1.08L4.072 4.75h.857l6.439 3.95L5.75 3.885v-.77l5.938-5.09-6.76 4.225H4.08L.58-.25z" mask="url(#d)"/><path fill="url(#n)" d="M0 2.5v2h3.5v2.505c0 .273.214.495.505.495h.99a.496.496 0 00.505-.495V4.5h3.51a.49.49 0 00.49-.505v-.99a.495.495 0 00-.49-.505H5.5V0h-2v2.5H0z" mask="url(#d)"/><path fill="url(#m)" mask="url(#d)" d="M0 3h4V0h1v3h4v1H5v3H4V4H0z"/><g fill="#000" mask="url(#d)"><use filter="url(#o)" xlink:href="#p"/></g></g></svg>