<svg xmlns="http://www.w3.org/2000/svg" xmlns:xlink="http://www.w3.org/1999/xlink" width="23" height="17" viewBox="0 0 23 17"><defs><linearGradient id="c" x1="50%" x2="50%" y1="0%" y2="100%"><stop offset="0%" stop-color="#FFF"/><stop offset="100%" stop-color="#F0F0F0"/></linearGradient><linearGradient id="d" x1="50%" x2="50%" y1="0%" y2="100%"><stop offset="0%" stop-color="#EE1B44"/><stop offset="100%" stop-color="#DD153C"/></linearGradient><linearGradient id="e" x1="50%" x2="50%" y1="0%" y2="100%"><stop offset="0%" stop-color="#0543A8"/><stop offset="100%" stop-color="#003893"/></linearGradient><linearGradient id="l" x1="50%" x2="50%" y1="0%" y2="100%"><stop offset="0%" stop-color="#FFF"/><stop offset="100%" stop-color="#F0F0F0"/></linearGradient><filter id="b" width="125.9%" height="123.3%" x="-13%" y="-8.3%" filterUnits="objectBoundingBox"><feOffset dy=".5" in="SourceAlpha" result="shadowOffsetOuter1"/><feGaussianBlur in="shadowOffsetOuter1" result="shadowBlurOuter1" stdDeviation=".5"/><feColorMatrix in="shadowBlurOuter1" values="0 0 0 0 0 0 0 0 0 0 0 0 0 0 0 0 0 0 0.16 0"/></filter><filter id="h" width="103.7%" height="103.3%" x="-1.9%" y="-1.7%" filterUnits="objectBoundingBox"><feOffset dy="-.5" in="SourceAlpha" result="shadowOffsetInner1"/><feComposite in="shadowOffsetInner1" in2="SourceAlpha" k2="-1" k3="1" operator="arithmetic" result="shadowInnerInner1"/><feColorMatrix in="shadowInnerInner1" result="shadowMatrixInner1" values="0 0 0 0 0 0 0 0 0 0 0 0 0 0 0 0 0 0 0.04 0"/><feOffset dy=".5" in="SourceAlpha" result="shadowOffsetInner2"/><feComposite in="shadowOffsetInner2" in2="SourceAlpha" k2="-1" k3="1" operator="arithmetic" result="shadowInnerInner2"/><feColorMatrix in="shadowInnerInner2" result="shadowMatrixInner2" values="0 0 0 0 1 0 0 0 0 1 0 0 0 0 1 0 0 0 0.12 0"/><feMerge><feMergeNode in="shadowMatrixInner1"/><feMergeNode in="shadowMatrixInner2"/></feMerge></filter><filter id="j" width="112.9%" height="111.5%" x="-6.5%" y="-2.9%" filterUnits="objectBoundingBox"><feOffset dy=".5" in="SourceAlpha" result="shadowOffsetOuter1"/><feColorMatrix in="shadowOffsetOuter1" values="0 0 0 0 0 0 0 0 0 0 0 0 0 0 0 0 0 0 0.06 0"/></filter><path id="a" d="M0 1.493A1.5 1.5 0 011.495 0c.279 0 .693.126.918.275L13.175 7.45c.456.304.372.55-.172.55H6l7.247 6.341c.416.364.303.659-.254.659H1.498A1.493 1.493 0 010 13.507V1.493z"/><path id="g" d="M0 1.493A1.5 1.5 0 011.495 0c.279 0 .693.126.918.275L13.175 7.45c.456.304.372.55-.172.55H6l7.247 6.341c.416.364.303.659-.254.659H1.498A1.493 1.493 0 010 13.507V1.493z"/><path id="k" d="M4.765 9.152l-.058 1.14 1.14-.057L5 11l.848.765-1.14-.058.057 1.14L4 12l-.765.848.058-1.14-1.14.057L3 11l-.848-.765 1.14.058-.057-1.14L4 10l.765-.848zm-.191-5.038l-.044.856.856-.044-.636.574.39.35a3.52 3.52 0 00.786-.317 2 2 0 01-3.856 0c.236.131.503.24.792.318L3.25 5.5l-.636-.574.856.044-.044-.856L4 4.75l.574-.636z"/></defs><g fill="none" fill-rule="evenodd" transform="translate(1 1)"><mask id="f" fill="#fff"><use xlink:href="#a"/></mask><use fill="#000" filter="url(#b)" xlink:href="#a"/><use fill="url(#c)" xlink:href="#a"/><path fill="url(#d)" stroke="url(#e)" d="M1.495.5H.5v13.975l11.488-.572-7.213-6.31 6.917-.53L2.136.69A1.364 1.364 0 001.496.5z" mask="url(#f)"/><mask id="i" fill="#fff"><use xlink:href="#g"/></mask><use fill="#000" filter="url(#h)" xlink:href="#g"/><g mask="url(#i)"><use fill="#000" filter="url(#j)" xlink:href="#k"/><use fill="url(#l)" xlink:href="#k"/></g></g></svg>