<svg xmlns="http://www.w3.org/2000/svg" xmlns:xlink="http://www.w3.org/1999/xlink" width="23" height="17" viewBox="0 0 23 17"><defs><filter id="b" width="116.7%" height="123.3%" x="-8.3%" y="-8.3%" filterUnits="objectBoundingBox"><feOffset dy=".5" in="SourceAlpha" result="shadowOffsetOuter1"/><feGaussianBlur in="shadowOffsetOuter1" result="shadowBlurOuter1" stdDeviation=".5"/><feColorMatrix in="shadowBlurOuter1" values="0 0 0 0 0 0 0 0 0 0 0 0 0 0 0 0 0 0 0.16 0"/></filter><filter id="g" width="95.7%" height="120.7%" x="2.1%" y="2.1%" filterUnits="objectBoundingBox"><feOffset dy=".5" in="SourceAlpha" result="shadowOffsetOuter1"/><feColorMatrix in="shadowOffsetOuter1" values="0 0 0 0 0 0 0 0 0 0 0 0 0 0 0 0 0 0 0.06 0"/></filter><filter id="j" width="95.7%" height="120.7%" x="2.1%" y="2.1%" filterUnits="objectBoundingBox"><feOffset dy=".5" in="SourceAlpha" result="shadowOffsetOuter1"/><feColorMatrix in="shadowOffsetOuter1" values="0 0 0 0 0 0 0 0 0 0 0 0 0 0 0 0 0 0 0.06 0"/></filter><filter id="l" width="95.7%" height="120.7%" x="2.1%" y="2.1%" filterUnits="objectBoundingBox"><feOffset dy=".5" in="SourceAlpha" result="shadowOffsetOuter1"/><feColorMatrix in="shadowOffsetOuter1" values="0 0 0 0 0 0 0 0 0 0 0 0 0 0 0 0 0 0 0.06 0"/></filter><filter id="n" width="95.7%" height="120.7%" x="2.1%" y="2.1%" filterUnits="objectBoundingBox"><feOffset dy=".5" in="SourceAlpha" result="shadowOffsetOuter1"/><feColorMatrix in="shadowOffsetOuter1" values="0 0 0 0 0 0 0 0 0 0 0 0 0 0 0 0 0 0 0.06 0"/></filter><filter id="p" width="108.7%" height="117.3%" x="-4.3%" y="-4.3%" filterUnits="objectBoundingBox"><feOffset dy=".5" in="SourceAlpha" result="shadowOffsetOuter1"/><feColorMatrix in="shadowOffsetOuter1" values="0 0 0 0 0 0 0 0 0 0 0 0 0 0 0 0 0 0 0.06 0"/></filter><filter id="s" width="102.4%" height="103.3%" x="-1.2%" y="-1.7%" filterUnits="objectBoundingBox"><feOffset dy="-.5" in="SourceAlpha" result="shadowOffsetInner1"/><feComposite in="shadowOffsetInner1" in2="SourceAlpha" k2="-1" k3="1" operator="arithmetic" result="shadowInnerInner1"/><feColorMatrix in="shadowInnerInner1" result="shadowMatrixInner1" values="0 0 0 0 0 0 0 0 0 0 0 0 0 0 0 0 0 0 0.04 0"/><feOffset dy=".5" in="SourceAlpha" result="shadowOffsetInner2"/><feComposite in="shadowOffsetInner2" in2="SourceAlpha" k2="-1" k3="1" operator="arithmetic" result="shadowInnerInner2"/><feColorMatrix in="shadowInnerInner2" result="shadowMatrixInner2" values="0 0 0 0 1 0 0 0 0 1 0 0 0 0 1 0 0 0 0.12 0"/><feMerge><feMergeNode in="shadowMatrixInner1"/><feMergeNode in="shadowMatrixInner2"/></feMerge></filter><linearGradient id="c" x1="50%" x2="50%" y1="0%" y2="100%"><stop offset="0%" stop-color="#FFF"/><stop offset="100%" stop-color="#F0F0F0"/></linearGradient><linearGradient id="d" x1="50%" x2="50%" y1="0%" y2="100%"><stop offset="0%" stop-color="#262626"/><stop offset="100%" stop-color="#0D0D0D"/></linearGradient><linearGradient id="f" x1="50%" x2="50%" y1="0%" y2="100%"><stop offset="0%" stop-color="#E8283F"/><stop offset="100%" stop-color="#CC162C"/></linearGradient><linearGradient id="i" x1="50%" x2="50%" y1="0%" y2="100%"><stop offset="0%" stop-color="#FFF"/><stop offset="100%" stop-color="#F0F0F0"/></linearGradient><linearGradient id="r" x1="50%" x2="50%" y1="0%" y2="100%"><stop offset="0%" stop-color="#FFD84E"/><stop offset="100%" stop-color="#FCD036"/></linearGradient><path id="h" d="M5 12.5l-.707.207L4.5 12l-.207-.707L5 11.5l.707-.207L5.5 12l.207.707z"/><path id="k" d="M5 6.5l-.707.207L4.5 6l-.207-.707L5 5.5l.707-.207L5.5 6l.207.707z"/><path id="m" d="M2.5 9l-.707.207L2 8.5l-.207-.707L2.5 8l.707-.207L3 8.5l.207.707z"/><path id="o" d="M7 8.5l-.707.207L6.5 8l-.207-.707L7 7.5l.707-.207L7.5 8l.207.707z"/><path id="q" d="M14.146 6.95a.49.49 0 01-.217-.377V5.65c0-.136-.098-.213-.246-.164l-.568.19a.87.87 0 01-.492 0l-.57-.19c-.135-.045-.15-.14-.028-.212l1.334-.8a.322.322 0 00.135-.377l-.19-.568c-.045-.136.016-.214.164-.164l.569.19a.332.332 0 00.376-.136l.8-1.334c.072-.12.163-.119.212.03l.19.568a.87.87 0 010 .492l-.19.569c-.045.136.03.246.165.246h.921c.136 0 .304.095.377.216l.8 1.335c.072.12.014.24-.116.266l-1.276.255a.414.414 0 00-.295.295l-.255 1.276c-.027.136-.144.189-.266.116l-1.334-.8z"/><rect id="a" width="21" height="15" x="0" y="0" rx="1.5"/><rect id="t" width="21" height="15" x="0" y="0" rx="1.5"/></defs><g fill="none" fill-rule="evenodd" transform="translate(1 1)"><mask id="e" fill="#fff"><use xlink:href="#a"/></mask><use fill="#000" filter="url(#b)" xlink:href="#a"/><use fill="url(#c)" xlink:href="#a"/><path fill="url(#d)" mask="url(#e)" d="M0 0h21v15H0z"/><path fill="url(#f)" mask="url(#e)" d="M0 0h21v15z"/><g mask="url(#e)"><use fill="#000" filter="url(#g)" xlink:href="#h"/><use fill="url(#i)" xlink:href="#h"/></g><g mask="url(#e)"><use fill="#000" filter="url(#j)" xlink:href="#k"/><use fill="url(#i)" xlink:href="#k"/></g><g mask="url(#e)"><use fill="#000" filter="url(#l)" xlink:href="#m"/><use fill="url(#i)" xlink:href="#m"/></g><g mask="url(#e)"><use fill="#000" filter="url(#n)" xlink:href="#o"/><use fill="url(#i)" xlink:href="#o"/></g><g mask="url(#e)"><use fill="#000" filter="url(#p)" xlink:href="#q"/><use fill="url(#r)" xlink:href="#q"/></g><g fill="#000" mask="url(#e)"><use filter="url(#s)" xlink:href="#t"/></g></g></svg>