<svg xmlns="http://www.w3.org/2000/svg" xmlns:xlink="http://www.w3.org/1999/xlink" width="23" height="17" viewBox="0 0 23 17"><defs><filter id="b" width="116.7%" height="123.3%" x="-8.3%" y="-8.3%" filterUnits="objectBoundingBox"><feOffset dy=".5" in="SourceAlpha" result="shadowOffsetOuter1"/><feGaussianBlur in="shadowOffsetOuter1" result="shadowBlurOuter1" stdDeviation=".5"/><feColorMatrix in="shadowBlurOuter1" values="0 0 0 0 0 0 0 0 0 0 0 0 0 0 0 0 0 0 0.16 0"/></filter><filter id="f" width="112.2%" height="113.1%" x="-3.6%" y="-5%" filterUnits="objectBoundingBox"><feMorphology in="SourceAlpha" operator="dilate" radius=".25" result="shadowSpreadOuter1"/><feOffset in="shadowSpreadOuter1" result="shadowOffsetOuter1"/><feColorMatrix in="shadowOffsetOuter1" values="0 0 0 0 0 0 0 0 0 0 0 0 0 0 0 0 0 0 0.06 0"/></filter><filter id="i" width="112.2%" height="113.1%" x="-3.6%" y="-8.1%" filterUnits="objectBoundingBox"><feMorphology in="SourceAlpha" operator="dilate" radius=".25" result="shadowSpreadOuter1"/><feOffset in="shadowSpreadOuter1" result="shadowOffsetOuter1"/><feColorMatrix in="shadowOffsetOuter1" values="0 0 0 0 0 0 0 0 0 0 0 0 0 0 0 0 0 0 0.06 0"/></filter><filter id="l" width="107.5%" height="110.6%" x="-3.8%" y="-5.3%" filterUnits="objectBoundingBox"><feMorphology in="SourceAlpha" operator="dilate" radius=".25" result="shadowSpreadOuter1"/><feOffset in="shadowSpreadOuter1" result="shadowOffsetOuter1"/><feColorMatrix in="shadowOffsetOuter1" values="0 0 0 0 0 0 0 0 0 0 0 0 0 0 0 0 0 0 0.06 0"/></filter><filter id="p" width="102.4%" height="103.3%" x="-1.2%" y="-1.7%" filterUnits="objectBoundingBox"><feOffset dy="-.5" in="SourceAlpha" result="shadowOffsetInner1"/><feComposite in="shadowOffsetInner1" in2="SourceAlpha" k2="-1" k3="1" operator="arithmetic" result="shadowInnerInner1"/><feColorMatrix in="shadowInnerInner1" result="shadowMatrixInner1" values="0 0 0 0 0 0 0 0 0 0 0 0 0 0 0 0 0 0 0.04 0"/><feOffset dy=".5" in="SourceAlpha" result="shadowOffsetInner2"/><feComposite in="shadowOffsetInner2" in2="SourceAlpha" k2="-1" k3="1" operator="arithmetic" result="shadowInnerInner2"/><feColorMatrix in="shadowInnerInner2" result="shadowMatrixInner2" values="0 0 0 0 1 0 0 0 0 1 0 0 0 0 1 0 0 0 0.12 0"/><feMerge><feMergeNode in="shadowMatrixInner1"/><feMergeNode in="shadowMatrixInner2"/></feMerge></filter><filter id="r" width="106.8%" height="119%" x="-3.4%" y="-4.8%" filterUnits="objectBoundingBox"><feOffset dy=".5" in="SourceAlpha" result="shadowOffsetOuter1"/><feColorMatrix in="shadowOffsetOuter1" values="0 0 0 0 0 0 0 0 0 0 0 0 0 0 0 0 0 0 0.24 0"/></filter><linearGradient id="c" x1="50%" x2="50%" y1="0%" y2="100%"><stop offset="0%" stop-color="#FFF"/><stop offset="100%" stop-color="#F0F0F0"/></linearGradient><linearGradient id="d" x1="50%" x2="50%" y1="0%" y2="100%"><stop offset="0%" stop-color="#1DBE4F"/><stop offset="100%" stop-color="#159B3F"/></linearGradient><linearGradient id="h" x1="50%" x2="50%" y1="0%" y2="100%"><stop offset="0%" stop-color="#0660D4"/><stop offset="100%" stop-color="#0051BB"/></linearGradient><linearGradient id="k" x1="50%" x2="50%" y1="0%" y2="100%"><stop offset="0%" stop-color="#2C7442"/><stop offset="100%" stop-color="#225B34"/></linearGradient><linearGradient id="n" x1="50%" x2="50%" y1="0%" y2="100%"><stop offset="0%" stop-color="#FFD646"/><stop offset="100%" stop-color="#FED02F"/></linearGradient><path id="g" d="M0 0h21L0 15z"/><path id="j" d="M0 0l21 15H0z"/><path id="m" d="M-4 6.5h29v2H-4z"/><path id="s" d="M7.25 4l.367.744.822.12-.595.58.14.817-.734-.386-.735.386.14-.818-.594-.58.822-.119L7.25 4zm-5 0l.367.744.822.12-.595.58.14.817-.734-.386-.735.386.14-.818-.594-.58.822-.119L2.25 4zm2.5-1.5l.367.744.822.12-.595.58.14.817-.734-.386-.735.386.14-.818-.594-.58.822-.119.367-.744zM2.25 1l.367.744.822.12-.595.58.14.817-.734-.386-.735.386.14-.818-.594-.58.822-.119L2.25 1zm5 0l.367.744.822.12-.595.58.14.817-.734-.386-.735.386.14-.818-.594-.58.822-.119L7.25 1z"/><rect id="a" width="21" height="15" x="0" y="0" rx="1.5"/><rect id="o" width="21" height="15" x="0" y="0" rx="1.5"/></defs><g fill="none" fill-rule="evenodd" transform="translate(1 1)"><mask id="e" fill="#fff"><use xlink:href="#a"/></mask><use fill="#000" filter="url(#b)" xlink:href="#a"/><use fill="url(#c)" xlink:href="#a"/><path fill="url(#d)" mask="url(#e)" d="M0 0h21v15H0z"/><g mask="url(#e)"><use fill="#000" filter="url(#f)" xlink:href="#g"/><use fill="url(#h)" xlink:href="#g"/></g><g mask="url(#e)" transform="matrix(-1 0 0 1 21 0)"><use fill="#000" filter="url(#i)" xlink:href="#j"/><use fill="url(#k)" xlink:href="#j"/></g><g mask="url(#e)"><use fill="#000" filter="url(#l)" xlink:href="#m"/><use fill="url(#n)" xlink:href="#m"/></g><mask id="q" fill="#fff"><use xlink:href="#o"/></mask><use fill="#000" filter="url(#p)" xlink:href="#o"/><g mask="url(#q)"><use fill="#000" filter="url(#r)" xlink:href="#s"/><use fill="#FFF" xlink:href="#s"/></g></g></svg>