<svg xmlns="http://www.w3.org/2000/svg" xmlns:xlink="http://www.w3.org/1999/xlink" width="23" height="17" viewBox="0 0 23 17"><defs><linearGradient id="c" x1="50%" x2="50%" y1="0%" y2="100%"><stop offset="0%" stop-color="#FFF"/><stop offset="100%" stop-color="#F0F0F0"/></linearGradient><linearGradient id="g" x1="50%" x2="50%" y1="0%" y2="100%"><stop offset="0%" stop-color="#0C47B7"/><stop offset="100%" stop-color="#073DA4"/></linearGradient><linearGradient id="j" x1="50%" x2="50%" y1="0%" y2="100%"><stop offset="0%" stop-color="#E53B35"/><stop offset="100%" stop-color="#D32E28"/></linearGradient><linearGradient id="m" x1="50%" x2="50%" y1="0%" y2="100%"><stop offset="0%" stop-color="#FFF"/><stop offset="100%" stop-color="#F0F0F0"/></linearGradient><linearGradient id="p" x1="50%" x2="50%" y1="0%" y2="100%"><stop offset="0%" stop-color="#F73744"/><stop offset="100%" stop-color="#EC212F"/></linearGradient><linearGradient id="q" x1="50%" x2="50%" y1="0%" y2="100%"><stop offset="0%" stop-color="#FFF"/><stop offset="100%" stop-color="#F0F0F0"/></linearGradient><linearGradient id="u" x1="50%" x2="50%" y1="0%" y2="100%"><stop offset="0%" stop-color="#FFF"/><stop offset="100%" stop-color="#F0F0F0"/></linearGradient><filter id="b" width="116.7%" height="123.3%" x="-8.3%" y="-8.3%" filterUnits="objectBoundingBox"><feOffset dy=".5" in="SourceAlpha" result="shadowOffsetOuter1"/><feGaussianBlur in="shadowOffsetOuter1" result="shadowBlurOuter1" stdDeviation=".5"/><feColorMatrix in="shadowBlurOuter1" values="0 0 0 0 0 0 0 0 0 0 0 0 0 0 0 0 0 0 0.16 0"/></filter><filter id="e" width="107.1%" height="130%" x="-3.6%" y="-15%" filterUnits="objectBoundingBox"><feMorphology in="SourceAlpha" operator="dilate" radius=".25" result="shadowSpreadOuter1"/><feOffset in="shadowSpreadOuter1" result="shadowOffsetOuter1"/><feColorMatrix in="shadowOffsetOuter1" values="0 0 0 0 0 0 0 0 0 0 0 0 0 0 0 0 0 0 0.06 0"/></filter><filter id="h" width="107.1%" height="130%" x="-3.6%" y="-15%" filterUnits="objectBoundingBox"><feMorphology in="SourceAlpha" operator="dilate" radius=".25" result="shadowSpreadOuter1"/><feOffset in="shadowSpreadOuter1" result="shadowOffsetOuter1"/><feColorMatrix in="shadowOffsetOuter1" values="0 0 0 0 0 0 0 0 0 0 0 0 0 0 0 0 0 0 0.06 0"/></filter><filter id="k" width="107.1%" height="130%" x="-3.6%" y="-15%" filterUnits="objectBoundingBox"><feMorphology in="SourceAlpha" operator="dilate" radius=".25" result="shadowSpreadOuter1"/><feOffset in="shadowSpreadOuter1" result="shadowOffsetOuter1"/><feColorMatrix in="shadowOffsetOuter1" values="0 0 0 0 0 0 0 0 0 0 0 0 0 0 0 0 0 0 0.06 0"/></filter><filter id="o" width="143.3%" height="144.8%" x="-21.7%" y="-16.8%" filterUnits="objectBoundingBox"><feMorphology in="SourceAlpha" operator="dilate" radius="1" result="shadowSpreadOuter1"/><feOffset dy="1" in="shadowSpreadOuter1" result="shadowOffsetOuter1"/><feComposite in="shadowOffsetOuter1" in2="SourceAlpha" operator="out" result="shadowOffsetOuter1"/><feColorMatrix in="shadowOffsetOuter1" values="0 0 0 0 0 0 0 0 0 0 0 0 0 0 0 0 0 0 0.06 0"/></filter><filter id="s" width="112.5%" height="116.7%" x="-6.2%" y="-4.2%" filterUnits="objectBoundingBox"><feOffset dy=".5" in="SourceAlpha" result="shadowOffsetOuter1"/><feColorMatrix in="shadowOffsetOuter1" values="0 0 0 0 0 0 0 0 0 0 0 0 0 0 0 0 0 0 0.06 0"/></filter><filter id="v" width="102.4%" height="103.3%" x="-1.2%" y="-1.7%" filterUnits="objectBoundingBox"><feOffset dy="-.5" in="SourceAlpha" result="shadowOffsetInner1"/><feComposite in="shadowOffsetInner1" in2="SourceAlpha" k2="-1" k3="1" operator="arithmetic" result="shadowInnerInner1"/><feColorMatrix in="shadowInnerInner1" result="shadowMatrixInner1" values="0 0 0 0 0 0 0 0 0 0 0 0 0 0 0 0 0 0 0.04 0"/><feOffset dy=".5" in="SourceAlpha" result="shadowOffsetInner2"/><feComposite in="shadowOffsetInner2" in2="SourceAlpha" k2="-1" k3="1" operator="arithmetic" result="shadowInnerInner2"/><feColorMatrix in="shadowInnerInner2" result="shadowMatrixInner2" values="0 0 0 0 1 0 0 0 0 1 0 0 0 0 1 0 0 0 0.12 0"/><feMerge><feMergeNode in="shadowMatrixInner1"/><feMergeNode in="shadowMatrixInner2"/></feMerge></filter><path id="f" d="M0 5h21v5H0z"/><path id="i" d="M0 10h21v5H0z"/><path id="l" d="M0 0h21v5H0z"/><path id="n" d="M.711 1.001A1.048 1.048 0 011.751 0H6.25c.553 0 1.018.447 1.04 1.001L7.46 5.5c.022.553-.297 1.289-.72 1.652L5.146 8.518c-.633.542-1.662.54-2.292 0L1.259 7.15C.84 6.791.517 6.053.54 5.499L.71 1z"/><path id="t" d="M3.5 5.245A.25.25 0 003.252 5H2.248A.246.246 0 012 4.748v-.496C2 4.113 2.118 4 2.248 4h1.004a.246.246 0 00.248-.252v-.496A.249.249 0 003.248 3h-.496a.249.249 0 01-.252-.252v-.496c0-.139.107-.252.252-.252h.496c.139 0 .252-.107.252-.252v-.496c0-.139.107-.252.252-.252h.496c.139 0 .252.107.252.252v.496c0 .139.107.252.252.252h.496c.139 0 .252.107.252.252v.496c0 .139-.107.252-.252.252h-.496a.249.249 0 00-.252.252v.496c0 .139.118.252.248.252h1.004C5.89 4 6 4.107 6 4.252v.496C6 4.887 5.882 5 5.752 5H4.748a.245.245 0 00-.248.245v1.51A.245.245 0 014.248 7h-.496a.247.247 0 01-.252-.245v-1.51z"/><rect id="a" width="21" height="15" x="0" y="0" rx="1.5"/><rect id="w" width="21" height="15" x="0" y="0" rx="1.5"/></defs><g fill="none" fill-rule="evenodd" transform="translate(1 1)"><mask id="d" fill="#fff"><use xlink:href="#a"/></mask><use fill="#000" filter="url(#b)" xlink:href="#a"/><use fill="url(#c)" xlink:href="#a"/><g mask="url(#d)"><use fill="#000" filter="url(#e)" xlink:href="#f"/><use fill="url(#g)" xlink:href="#f"/></g><g mask="url(#d)"><use fill="#000" filter="url(#h)" xlink:href="#i"/><use fill="url(#j)" xlink:href="#i"/></g><g mask="url(#d)"><use fill="#000" filter="url(#k)" xlink:href="#l"/><use fill="url(#m)" xlink:href="#l"/></g><g mask="url(#d)"><g transform="translate(3.5 3)"><mask id="r" fill="#fff"><use xlink:href="#n"/></mask><use fill="#000" filter="url(#o)" xlink:href="#n"/><path fill="url(#p)" stroke="url(#q)" d="M6.249-.5H1.75c-.41 0-.787.165-1.066.433S.228.573.212.983L.039 5.478c-.027.689.374 1.605.895 2.052L2.53 8.897c.404.347.936.527 1.471.527.534 0 1.066-.179 1.471-.527l1.595-1.366c.526-.451.922-1.365.895-2.052L7.788.982a1.538 1.538 0 00-.473-1.05A1.537 1.537 0 006.25-.5z"/><g mask="url(#r)"><use fill="#000" filter="url(#s)" xlink:href="#t"/><use fill="url(#u)" xlink:href="#t"/></g><path fill="#1251A1" d="M4 6.5a1 1 0 01.903.569C6.119 7.261 7 7.829 7 8.5 7 9.328 5.657 10 4 10s-3-.672-3-1.5c0-.671.881-1.24 2.097-1.43.161-.338.505-.57.903-.57z" mask="url(#r)"/></g></g><g fill="#000" mask="url(#d)"><use filter="url(#v)" xlink:href="#w"/></g></g></svg>