<svg xmlns="http://www.w3.org/2000/svg" xmlns:xlink="http://www.w3.org/1999/xlink" width="23" height="17" viewBox="0 0 23 17"><defs><ellipse id="g" cx="1.5" cy="1" rx="1.5" ry="1"/><ellipse id="i" cx="1.5" cy="1" rx="1.5" ry="1"/><ellipse id="k" cx="1.5" cy="1" rx="1.5" ry="1"/><ellipse id="m" cx="1.5" cy=".5" rx="1.5" ry="1"/><ellipse id="n" cx="1.5" cy="1" rx="1.5" ry="1"/><linearGradient id="c" x1="50%" x2="50%" y1="0%" y2="100%"><stop offset="0%" stop-color="#FFF"/><stop offset="100%" stop-color="#F0F0F0"/></linearGradient><linearGradient id="d" x1="50%" x2="50%" y1="0%" y2="100%"><stop offset="0%" stop-color="#30C375"/><stop offset="100%" stop-color="#28AE67"/></linearGradient><linearGradient id="f" x1="50%" x2="50%" y1="0%" y2="100%"><stop offset="0%" stop-color="#DE414F"/><stop offset="100%" stop-color="#CA3745"/></linearGradient><linearGradient id="r" x1="50%" x2="50%" y1="0%" y2="100%"><stop offset="0%" stop-color="#FFF"/><stop offset="100%" stop-color="#F0F0F0"/></linearGradient><filter id="b" width="116.7%" height="123.3%" x="-8.3%" y="-8.3%" filterUnits="objectBoundingBox"><feOffset dy=".5" in="SourceAlpha" result="shadowOffsetOuter1"/><feGaussianBlur in="shadowOffsetOuter1" result="shadowBlurOuter1" stdDeviation=".5"/><feColorMatrix in="shadowBlurOuter1" values="0 0 0 0 0 0 0 0 0 0 0 0 0 0 0 0 0 0 0.16 0"/></filter><filter id="p" width="112.5%" height="125%" x="-6.2%" y="-6.2%" filterUnits="objectBoundingBox"><feOffset dy=".5" in="SourceAlpha" result="shadowOffsetOuter1"/><feColorMatrix in="shadowOffsetOuter1" values="0 0 0 0 0 0 0 0 0 0 0 0 0 0 0 0 0 0 0.06 0"/></filter><filter id="s" width="109.1%" height="118.1%" x="-4.5%" y="-4.5%" filterUnits="objectBoundingBox"><feOffset dy=".5" in="SourceAlpha" result="shadowOffsetOuter1"/><feColorMatrix in="shadowOffsetOuter1" values="0 0 0 0 0 0 0 0 0 0 0 0 0 0 0 0 0 0 0.06 0"/></filter><filter id="u" width="102.4%" height="103.3%" x="-1.2%" y="-1.7%" filterUnits="objectBoundingBox"><feOffset dy="-.5" in="SourceAlpha" result="shadowOffsetInner1"/><feComposite in="shadowOffsetInner1" in2="SourceAlpha" k2="-1" k3="1" operator="arithmetic" result="shadowInnerInner1"/><feColorMatrix in="shadowInnerInner1" result="shadowMatrixInner1" values="0 0 0 0 0 0 0 0 0 0 0 0 0 0 0 0 0 0 0.04 0"/><feOffset dy=".5" in="SourceAlpha" result="shadowOffsetInner2"/><feComposite in="shadowOffsetInner2" in2="SourceAlpha" k2="-1" k3="1" operator="arithmetic" result="shadowInnerInner2"/><feColorMatrix in="shadowInnerInner2" result="shadowMatrixInner2" values="0 0 0 0 1 0 0 0 0 1 0 0 0 0 1 0 0 0 0.12 0"/><feMerge><feMergeNode in="shadowMatrixInner1"/><feMergeNode in="shadowMatrixInner2"/></feMerge></filter><rect id="a" width="21" height="15" x="0" y="0" rx="1.5"/><rect id="v" width="21" height="15" x="0" y="0" rx="1.5"/><path id="q" d="M11.117 3.179a.5.5 0 10.766.642.5.5 0 00-.766-.642zM9.821 5.117a.5.5 0 10-.642.766.5.5 0 00.642-.766zm-1-1a.5.5 0 10-.642.766.5.5 0 00.642-.766zm2-2a.5.5 0 10-.642.766.5.5 0 00.642-.766zm-.5 1.5a.5.5 0 10-.642.766.5.5 0 00.642-.766z"/><path id="t" d="M13.107 7.088a3.05 3.05 0 01-4.626-.366 3.05 3.05 0 004.26-4.26 3.05 3.05 0 01.366 4.626z"/></defs><g fill="none" fill-rule="evenodd" transform="translate(1 1)"><mask id="e" fill="#fff"><use xlink:href="#a"/></mask><use fill="#000" filter="url(#b)" xlink:href="#a"/><use fill="url(#c)" xlink:href="#a"/><path fill="url(#d)" mask="url(#e)" d="M0 0h21v15H0z"/><path fill="url(#f)" mask="url(#e)" d="M3 0h3v15H3z"/><g mask="url(#e)"><g transform="translate(3 1)"><mask id="h" fill="#fff"><use xlink:href="#g"/></mask><use fill="#FFF" xlink:href="#g"/><circle cx="1.5" cy="1" r="1" fill="#DD404F" mask="url(#h)"/><path fill="#FBAF29" mask="url(#h)" d="M0 0h1.5v1H0zM1.5 1H3v1H1.5z"/></g></g><g mask="url(#e)"><g transform="translate(3 12)"><mask id="j" fill="#fff"><use xlink:href="#i"/></mask><use fill="#FFF" xlink:href="#i"/><circle cx="1.5" cy="1" r="1" fill="#DD404F" mask="url(#j)"/><path fill="#FBAF29" mask="url(#j)" d="M0 0h1.5v1H0zM1.5 1H3v1H1.5z"/></g></g><g mask="url(#e)"><g transform="translate(3 7)"><mask id="l" fill="#fff"><use xlink:href="#k"/></mask><use fill="#28AE67" xlink:href="#k"/><circle cx="1.5" cy="1" fill="#DD404F" mask="url(#l)" r="1"/></g></g><g mask="url(#e)"><use fill="#28AE67" transform="translate(3 10)" xlink:href="#m"/></g><g mask="url(#e)"><g transform="translate(3 4)"><mask id="o" fill="#fff"><use xlink:href="#n"/></mask><use fill="#FBAF29" xlink:href="#n"/><circle cx="1.5" cy="1" r="1" fill="#DD404F" mask="url(#o)"/><path fill="#28AE67" mask="url(#o)" d="M0 0h1v2H0zM2 0h1v2H2z"/></g></g><g mask="url(#e)"><use fill="#000" filter="url(#p)" xlink:href="#q"/><use fill="url(#r)" xlink:href="#q"/></g><g mask="url(#e)"><use fill="#000" filter="url(#s)" xlink:href="#t"/><use fill="url(#r)" xlink:href="#t"/></g><g fill="#000" mask="url(#e)"><use filter="url(#u)" xlink:href="#v"/></g></g></svg>