<svg xmlns="http://www.w3.org/2000/svg" xmlns:xlink="http://www.w3.org/1999/xlink" width="23" height="17" viewBox="0 0 23 17"><defs><filter id="b" width="116.7%" height="123.3%" x="-8.3%" y="-8.3%" filterUnits="objectBoundingBox"><feOffset dy=".5" in="SourceAlpha" result="shadowOffsetOuter1"/><feGaussianBlur in="shadowOffsetOuter1" result="shadowBlurOuter1" stdDeviation=".5"/><feColorMatrix in="shadowBlurOuter1" values="0 0 0 0 0 0 0 0 0 0 0 0 0 0 0 0 0 0 0.16 0"/></filter><filter id="e" width="107.1%" height="175%" x="-3.6%" y="-37.5%" filterUnits="objectBoundingBox"><feMorphology in="SourceAlpha" operator="dilate" radius=".25" result="shadowSpreadOuter1"/><feOffset in="shadowSpreadOuter1" result="shadowOffsetOuter1"/><feColorMatrix in="shadowOffsetOuter1" values="0 0 0 0 0 0 0 0 0 0 0 0 0 0 0 0 0 0 0.06 0"/></filter><filter id="h" width="107.1%" height="175%" x="-3.6%" y="-37.5%" filterUnits="objectBoundingBox"><feMorphology in="SourceAlpha" operator="dilate" radius=".25" result="shadowSpreadOuter1"/><feOffset in="shadowSpreadOuter1" result="shadowOffsetOuter1"/><feColorMatrix in="shadowOffsetOuter1" values="0 0 0 0 0 0 0 0 0 0 0 0 0 0 0 0 0 0 0.06 0"/></filter><filter id="j" width="107.1%" height="150%" x="-3.6%" y="-25%" filterUnits="objectBoundingBox"><feMorphology in="SourceAlpha" operator="dilate" radius=".25" result="shadowSpreadOuter1"/><feOffset in="shadowSpreadOuter1" result="shadowOffsetOuter1"/><feColorMatrix in="shadowOffsetOuter1" values="0 0 0 0 0 0 0 0 0 0 0 0 0 0 0 0 0 0 0.06 0"/></filter><filter id="m" width="107.1%" height="150%" x="-3.6%" y="-25%" filterUnits="objectBoundingBox"><feMorphology in="SourceAlpha" operator="dilate" radius=".25" result="shadowSpreadOuter1"/><feOffset in="shadowSpreadOuter1" result="shadowOffsetOuter1"/><feColorMatrix in="shadowOffsetOuter1" values="0 0 0 0 0 0 0 0 0 0 0 0 0 0 0 0 0 0 0.06 0"/></filter><filter id="p" width="107.1%" height="175%" x="-3.6%" y="-37.5%" filterUnits="objectBoundingBox"><feMorphology in="SourceAlpha" operator="dilate" radius=".25" result="shadowSpreadOuter1"/><feOffset in="shadowSpreadOuter1" result="shadowOffsetOuter1"/><feColorMatrix in="shadowOffsetOuter1" values="0 0 0 0 0 0 0 0 0 0 0 0 0 0 0 0 0 0 0.06 0"/></filter><filter id="s" width="107.1%" height="150%" x="-3.6%" y="-25%" filterUnits="objectBoundingBox"><feMorphology in="SourceAlpha" operator="dilate" radius=".25" result="shadowSpreadOuter1"/><feOffset in="shadowSpreadOuter1" result="shadowOffsetOuter1"/><feColorMatrix in="shadowOffsetOuter1" values="0 0 0 0 0 0 0 0 0 0 0 0 0 0 0 0 0 0 0.06 0"/></filter><filter id="u" width="102.4%" height="103.3%" x="-1.2%" y="-1.7%" filterUnits="objectBoundingBox"><feOffset dy="-.5" in="SourceAlpha" result="shadowOffsetInner1"/><feComposite in="shadowOffsetInner1" in2="SourceAlpha" k2="-1" k3="1" operator="arithmetic" result="shadowInnerInner1"/><feColorMatrix in="shadowInnerInner1" result="shadowMatrixInner1" values="0 0 0 0 0 0 0 0 0 0 0 0 0 0 0 0 0 0 0.04 0"/><feOffset dy=".5" in="SourceAlpha" result="shadowOffsetInner2"/><feComposite in="shadowOffsetInner2" in2="SourceAlpha" k2="-1" k3="1" operator="arithmetic" result="shadowInnerInner2"/><feColorMatrix in="shadowInnerInner2" result="shadowMatrixInner2" values="0 0 0 0 1 0 0 0 0 1 0 0 0 0 1 0 0 0 0.12 0"/><feMerge><feMergeNode in="shadowMatrixInner1"/><feMergeNode in="shadowMatrixInner2"/></feMerge></filter><filter id="w" width="107.1%" height="114.3%" x="-3.6%" y="-3.6%" filterUnits="objectBoundingBox"><feOffset dy=".5" in="SourceAlpha" result="shadowOffsetOuter1"/><feColorMatrix in="shadowOffsetOuter1" values="0 0 0 0 0 0 0 0 0 0 0 0 0 0 0 0 0 0 0.06 0"/></filter><linearGradient id="c" x1="50%" x2="50%" y1="0%" y2="100%"><stop offset="0%" stop-color="#FFF"/><stop offset="100%" stop-color="#F0F0F0"/></linearGradient><linearGradient id="g" x1="50%" x2="50%" y1="0%" y2="100%"><stop offset="0%" stop-color="#262626"/><stop offset="100%" stop-color="#0D0D0D"/></linearGradient><linearGradient id="l" x1="50%" x2="50%" y1="0%" y2="100%"><stop offset="0%" stop-color="#ED1623"/><stop offset="100%" stop-color="#D70915"/></linearGradient><linearGradient id="o" x1="50%" x2="50%" y1="0%" y2="100%"><stop offset="0%" stop-color="#FEE044"/><stop offset="100%" stop-color="#FCDB32"/></linearGradient><linearGradient id="r" x1="50%" x2="50%" y1="0%" y2="100%"><stop offset="0%" stop-color="#ED1623"/><stop offset="100%" stop-color="#D70915"/></linearGradient><linearGradient id="y" x1="50%" x2="50%" y1="0%" y2="100%"><stop offset="0%" stop-color="#FFF"/><stop offset="100%" stop-color="#F0F0F0"/></linearGradient><linearGradient id="z" x1="50%" x2="50%" y1="0%" y2="100%"><stop offset="0%" stop-color="#262626"/><stop offset="100%" stop-color="#0D0D0D"/></linearGradient><path id="f" d="M0 0h21v2H0z"/><path id="i" d="M0 8h21v2H0z"/><path id="k" d="M0 5h21v3H0z"/><path id="n" d="M0 2h21v3H0z"/><path id="q" d="M0 13h21v2H0z"/><path id="t" d="M0 10h21v3H0z"/><rect id="a" width="21" height="15" x="0" y="0" rx="1.5"/><rect id="v" width="21" height="15" x="0" y="0" rx="1.5"/><circle id="x" cx="11.5" cy="8.5" r="3.5"/></defs><g fill="none" fill-rule="evenodd"><g transform="translate(1 1)"><mask id="d" fill="#fff"><use xlink:href="#a"/></mask><use fill="#000" filter="url(#b)" xlink:href="#a"/><use fill="url(#c)" xlink:href="#a"/><g mask="url(#d)"><use fill="#000" filter="url(#e)" xlink:href="#f"/><use fill="url(#g)" xlink:href="#f"/></g><g mask="url(#d)"><use fill="#000" filter="url(#h)" xlink:href="#i"/><use fill="url(#g)" xlink:href="#i"/></g><g mask="url(#d)"><use fill="#000" filter="url(#j)" xlink:href="#k"/><use fill="url(#l)" xlink:href="#k"/></g><g mask="url(#d)"><use fill="#000" filter="url(#m)" xlink:href="#n"/><use fill="url(#o)" xlink:href="#n"/></g><g mask="url(#d)"><use fill="#000" filter="url(#p)" xlink:href="#q"/><use fill="url(#r)" xlink:href="#q"/></g><g mask="url(#d)"><use fill="#000" filter="url(#s)" xlink:href="#t"/><use fill="url(#o)" xlink:href="#t"/></g><g fill="#000" mask="url(#d)"><use filter="url(#u)" xlink:href="#v"/></g></g><use fill="#000" filter="url(#w)" xlink:href="#x"/><use fill="url(#y)" xlink:href="#x"/><path fill="url(#z)" d="M10.68 6.68a.253.253 0 010-.36l.14-.14c.1-.1.252-.27.338-.362l.122-.099c.122.017.317-.036.442-.012l.119.092c.088.111.113.293.043.433l-.268.536a1.298 1.298 0 00-.116.482c0 .138.092.296.232.366l.536.268c.128.064.31.194.406.29l.652.652a.36.36 0 01.058.406l-.268.536c-.064.128-.194.154-.297.051l-.138-.138a.253.253 0 00-.362 0l-.138.138a.71.71 0 00-.181.431c0 .138.078.328.18.43l.14.14c.1.1.062.18-.068.18h-1.004c-.137 0-.17-.078-.067-.18l.138-.14c.1-.1.181-.296.181-.43a.253.253 0 00-.25-.25.691.691 0 00-.43.18l-.14.14c-.1.1-.258.102-.36 0l-.14-.14a.253.253 0 010-.36l.14-.14c.1-.1.287-.18.432-.18h.496c.139 0 .171-.08.08-.172l-1.156-1.156a.245.245 0 01.002-.346l.652-.652a.249.249 0 00-.007-.355l-.138-.138z"/></g></svg>