<svg xmlns="http://www.w3.org/2000/svg" xmlns:xlink="http://www.w3.org/1999/xlink" width="23" height="17" viewBox="0 0 23 17"><defs><linearGradient id="c" x1="50%" x2="50%" y1="0%" y2="100%"><stop offset="0%" stop-color="#FFF"/><stop offset="100%" stop-color="#F0F0F0"/></linearGradient><linearGradient id="g" x1="50%" x2="50%" y1="0%" y2="100%"><stop offset="0%" stop-color="#0E4DC5"/><stop offset="100%" stop-color="#073DA6"/></linearGradient><linearGradient id="j" x1="50%" x2="50%" y1="0%" y2="100%"><stop offset="0%" stop-color="#FFF"/><stop offset="100%" stop-color="#F0F0F0"/></linearGradient><linearGradient id="k" x1="50%" x2="50%" y1="0%" y2="100%"><stop offset="0%" stop-color="#FED443"/><stop offset="100%" stop-color="#FCD036"/></linearGradient><filter id="b" width="116.7%" height="123.3%" x="-8.3%" y="-8.3%" filterUnits="objectBoundingBox"><feOffset dy=".5" in="SourceAlpha" result="shadowOffsetOuter1"/><feGaussianBlur in="shadowOffsetOuter1" result="shadowBlurOuter1" stdDeviation=".5"/><feColorMatrix in="shadowBlurOuter1" values="0 0 0 0 0 0 0 0 0 0 0 0 0 0 0 0 0 0 0.16 0"/></filter><filter id="e" width="116.7%" height="123.3%" x="-8.3%" y="-8.3%" filterUnits="objectBoundingBox"><feOffset dy=".5" in="SourceAlpha" result="shadowOffsetOuter1"/><feGaussianBlur in="shadowOffsetOuter1" result="shadowBlurOuter1" stdDeviation=".5"/><feColorMatrix in="shadowBlurOuter1" values="0 0 0 0 0 0 0 0 0 0 0 0 0 0 0 0 0 0 0.16 0"/></filter><filter id="h" width="102.4%" height="107.1%" x="-1.2%" y="-1.8%" filterUnits="objectBoundingBox"><feOffset dy=".5" in="SourceAlpha" result="shadowOffsetOuter1"/><feColorMatrix in="shadowOffsetOuter1" values="0 0 0 0 0 0 0 0 0 0 0 0 0 0 0 0 0 0 0.06 0"/></filter><filter id="l" width="102.4%" height="103.3%" x="-1.2%" y="-1.7%" filterUnits="objectBoundingBox"><feOffset dy="-.5" in="SourceAlpha" result="shadowOffsetInner1"/><feComposite in="shadowOffsetInner1" in2="SourceAlpha" k2="-1" k3="1" operator="arithmetic" result="shadowInnerInner1"/><feColorMatrix in="shadowInnerInner1" result="shadowMatrixInner1" values="0 0 0 0 0 0 0 0 0 0 0 0 0 0 0 0 0 0 0.04 0"/><feOffset dy=".5" in="SourceAlpha" result="shadowOffsetInner2"/><feComposite in="shadowOffsetInner2" in2="SourceAlpha" k2="-1" k3="1" operator="arithmetic" result="shadowInnerInner2"/><feColorMatrix in="shadowInnerInner2" result="shadowMatrixInner2" values="0 0 0 0 1 0 0 0 0 1 0 0 0 0 1 0 0 0 0.12 0"/><feMerge><feMergeNode in="shadowMatrixInner1"/><feMergeNode in="shadowMatrixInner2"/></feMerge></filter><rect id="a" width="21" height="15" x="0" y="0" rx="1.5"/><rect id="m" width="21" height="15" x="0" y="0" rx="1.5"/><path id="f" d="M0 0h21v15H0z"/><path id="i" d="M21 12v2H0v-2h21zM10 4h11v2H10v2h11v2H0V0h21v2H10v2z"/></defs><g fill="none" fill-rule="evenodd"><g transform="translate(1 1)"><mask id="d" fill="#fff"><use xlink:href="#a"/></mask><use fill="#000" filter="url(#b)" xlink:href="#a"/><use fill="url(#c)" xlink:href="#a"/><g mask="url(#d)"><use fill="#000" filter="url(#e)" xlink:href="#f"/><use fill="url(#g)" xlink:href="#f"/></g><g mask="url(#d)"><use fill="#000" filter="url(#h)" xlink:href="#i"/><use fill="url(#j)" xlink:href="#i"/></g><path fill="url(#k)" d="M5.668 2.138l.169 1.187 1.033-.608-.362 1.143 1.195-.099-.823.873L8 5.063l-1.12.429.823.872-1.195-.099.362 1.143L5.837 6.8l-.17 1.187L5 6.991l-.668.996L4.163 6.8l-1.033.608.362-1.143-1.195.1.823-.873L2 5.062l1.12-.428-.823-.873 1.195.1-.362-1.144 1.033.608.17-1.187.667.996.668-.996zM5 3.154a1.91 1.91 0 100 3.818 1.91 1.91 0 000-3.818zM5 3.5a1.5 1.5 0 110 3 1.5 1.5 0 010-3z" mask="url(#d)"/><g fill="#000" mask="url(#d)"><use filter="url(#l)" xlink:href="#m"/></g></g><path stroke="#C6A326" stroke-linecap="round" stroke-width=".25" d="M5.25 6a.747.747 0 00.75.75.75.75 0 00.677-.426c.047-.098.126-.179.126-.324"/><circle cx="6.5" cy="5.5" r="1" fill="#C6A326"/><circle cx="5.5" cy="5.5" r="1" fill="#C6A326"/></g></svg>