<svg xmlns="http://www.w3.org/2000/svg" xmlns:xlink="http://www.w3.org/1999/xlink" width="23" height="17" viewBox="0 0 23 17">
  <defs>
    <linearGradient id="ad-c" x1="50%" x2="50%" y1="0%" y2="100%">
      <stop offset="0%" stop-color="#FFF"/>
      <stop offset="100%" stop-color="#F0F0F0"/>
    </linearGradient>
    <rect id="ad-a" width="21" height="15" x="0" y="0" rx="1.5"/>
    <filter id="ad-b" width="116.7%" height="123.3%" x="-8.3%" y="-8.3%" filterUnits="objectBoundingBox">
      <feOffset dy=".5" in="SourceAlpha" result="shadowOffsetOuter1"/>
      <feGaussianBlur in="shadowOffsetOuter1" result="shadowBlurOuter1" stdDeviation=".5"/>
      <feColorMatrix in="shadowBlurOuter1" values="0 0 0 0 0   0 0 0 0 0   0 0 0 0 0  0 0 0 0.16 0"/>
    </filter>
    <linearGradient id="ad-d" x1="50%" x2="50%" y1="0%" y2="100%">
      <stop offset="0%" stop-color="#1537D1"/>
      <stop offset="100%" stop-color="#0522A5"/>
    </linearGradient>
    <linearGradient id="ad-f" x1="50%" x2="50%" y1="0%" y2="100%">
      <stop offset="0%" stop-color="#EA3058"/>
      <stop offset="100%" stop-color="#CE173E"/>
    </linearGradient>
    <linearGradient id="ad-i" x1="50%" x2="50%" y1="0%" y2="100%">
      <stop offset="0%" stop-color="#FFCF3C"/>
      <stop offset="100%" stop-color="#FECB2F"/>
    </linearGradient>
    <rect id="ad-h" width="7" height="15" x="7" y="0"/>
    <filter id="ad-g" width="121.4%" height="110%" x="-10.7%" y="-5%" filterUnits="objectBoundingBox">
      <feMorphology in="SourceAlpha" operator="dilate" radius=".25" result="shadowSpreadOuter1"/>
      <feOffset in="shadowSpreadOuter1" result="shadowOffsetOuter1"/>
      <feColorMatrix in="shadowOffsetOuter1" values="0 0 0 0 0   0 0 0 0 0   0 0 0 0 0  0 0 0 0.06 0"/>
    </filter>
    <rect id="ad-k" width="21" height="15" x="0" y="0" rx="1.5"/>
    <filter id="ad-j" width="102.4%" height="103.3%" x="-1.2%" y="-1.7%" filterUnits="objectBoundingBox">
      <feOffset dy="-.5" in="SourceAlpha" result="shadowOffsetInner1"/>
      <feComposite in="shadowOffsetInner1" in2="SourceAlpha" k2="-1" k3="1" operator="arithmetic" result="shadowInnerInner1"/>
      <feColorMatrix in="shadowInnerInner1" result="shadowMatrixInner1" values="0 0 0 0 0   0 0 0 0 0   0 0 0 0 0  0 0 0 0.04 0"/>
      <feOffset dy=".5" in="SourceAlpha" result="shadowOffsetInner2"/>
      <feComposite in="shadowOffsetInner2" in2="SourceAlpha" k2="-1" k3="1" operator="arithmetic" result="shadowInnerInner2"/>
      <feColorMatrix in="shadowInnerInner2" result="shadowMatrixInner2" values="0 0 0 0 1   0 0 0 0 1   0 0 0 0 1  0 0 0 0.12 0"/>
      <feMerge>
        <feMergeNode in="shadowMatrixInner1"/>
        <feMergeNode in="shadowMatrixInner2"/>
      </feMerge>
    </filter>
  </defs>
  <g fill="none" fill-rule="evenodd" transform="translate(1 1)">
    <mask id="ad-e" fill="#fff">
      <use xlink:href="#ad-a"/>
    </mask>
    <use fill="#000" filter="url(#ad-b)" xlink:href="#ad-a"/>
    <use fill="url(#ad-c)" xlink:href="#ad-a"/>
    <rect width="21" height="15" fill="url(#ad-d)" mask="url(#ad-e)"/>
    <rect width="11" height="15" x="10" fill="url(#ad-f)" mask="url(#ad-e)"/>
    <g mask="url(#ad-e)">
      <use fill="#000" filter="url(#ad-g)" xlink:href="#ad-h"/>
      <use fill="url(#ad-i)" xlink:href="#ad-h"/>
    </g>
    <polygon fill="#FFEDB1" points="9.5 6.5 10.5 6.5 10.5 7 9.5 7" mask="url(#ad-e)"/>
    <path stroke="#D32E28" stroke-width=".5" d="M11.2999031,6.29617322 L9.30891423,6.69657207 L9.41589006,7.98028207 C9.43413588,8.19923192 9.54613715,8.39264717 9.75979501,8.52766372 C9.9862946,8.67079532 10.3135769,8.75 10.7475592,8.75 C10.9613772,8.75 11.1608007,8.66274093 11.3117022,8.52389428 C11.4560533,8.39107475 11.5569501,8.21021173 11.5811922,8.008928 L11.2999031,6.29617322 Z" mask="url(#ad-e)"/>
    <polygon fill="#D32E28" points="9.5 7 11.5 7 11.5 7.5 11 7.5 10 7.5 9.5 7.5" mask="url(#ad-e)"/>
    <g fill="#000" mask="url(#ad-e)">
      <use filter="url(#ad-j)" xlink:href="#ad-k"/>
    </g>
  </g>
</svg>
