<svg xmlns="http://www.w3.org/2000/svg" xmlns:xlink="http://www.w3.org/1999/xlink" width="23" height="17" viewBox="0 0 23 17">
  <defs>
    <filter id="ao-a" width="111.9%" height="123.3%" x="-6%" y="-8.3%" filterUnits="objectBoundingBox">
      <feMorphology in="SourceAlpha" operator="dilate" radius=".25" result="shadowSpreadOuter1"/>
      <feOffset in="shadowSpreadOuter1" result="shadowOffsetOuter1"/>
      <feColorMatrix in="shadowOffsetOuter1" result="shadowMatrixOuter1" values="0 0 0 0 0   0 0 0 0 0   0 0 0 0 0  0 0 0 0.06 0"/>
      <feMerge>
        <feMergeNode in="shadowMatrixOuter1"/>
        <feMergeNode in="SourceGraphic"/>
      </feMerge>
    </filter>
    <linearGradient id="ao-d" x1="50%" x2="50%" y1="0%" y2="100%">
      <stop offset="0%" stop-color="#FFF"/>
      <stop offset="100%" stop-color="#F0F0F0"/>
    </linearGradient>
    <rect id="ao-b" width="21" height="15" x="0" y="0" rx="1.5"/>
    <filter id="ao-c" width="116.7%" height="123.3%" x="-8.3%" y="-8.3%" filterUnits="objectBoundingBox">
      <feOffset dy=".5" in="SourceAlpha" result="shadowOffsetOuter1"/>
      <feGaussianBlur in="shadowOffsetOuter1" result="shadowBlurOuter1" stdDeviation=".5"/>
      <feColorMatrix in="shadowBlurOuter1" values="0 0 0 0 0   0 0 0 0 0   0 0 0 0 0  0 0 0 0.16 0"/>
    </filter>
    <linearGradient id="ao-e" x1="50%" x2="50%" y1="0%" y2="100%">
      <stop offset="0%" stop-color="#FF323E"/>
      <stop offset="100%" stop-color="#FD0D1B"/>
    </linearGradient>
    <linearGradient id="ao-i" x1="50%" x2="50%" y1="0%" y2="100%">
      <stop offset="0%" stop-color="#262626"/>
      <stop offset="100%" stop-color="#0D0D0D"/>
    </linearGradient>
    <rect id="ao-h" width="21" height="7" x="0" y="8"/>
    <filter id="ao-g" width="107.1%" height="121.4%" x="-3.6%" y="-10.7%" filterUnits="objectBoundingBox">
      <feMorphology in="SourceAlpha" operator="dilate" radius=".25" result="shadowSpreadOuter1"/>
      <feOffset in="shadowSpreadOuter1" result="shadowOffsetOuter1"/>
      <feColorMatrix in="shadowOffsetOuter1" values="0 0 0 0 0   0 0 0 0 0   0 0 0 0 0  0 0 0 0.06 0"/>
    </filter>
    <linearGradient id="ao-l" x1="50%" x2="50%" y1="0%" y2="100%">
      <stop offset="0%" stop-color="#DD2137"/>
      <stop offset="100%" stop-color="#CC162C"/>
    </linearGradient>
    <rect id="ao-k" width="21" height="8" x="0" y="0"/>
    <filter id="ao-j" width="107.1%" height="118.8%" x="-3.6%" y="-9.4%" filterUnits="objectBoundingBox">
      <feMorphology in="SourceAlpha" operator="dilate" radius=".25" result="shadowSpreadOuter1"/>
      <feOffset in="shadowSpreadOuter1" result="shadowOffsetOuter1"/>
      <feColorMatrix in="shadowOffsetOuter1" values="0 0 0 0 0   0 0 0 0 0   0 0 0 0 0  0 0 0 0.06 0"/>
    </filter>
    <linearGradient id="ao-o" x1="50%" x2="50%" y1="0%" y2="100%">
      <stop offset="0%" stop-color="#F8D84B"/>
      <stop offset="100%" stop-color="#F9D536"/>
    </linearGradient>
    <path id="ao-n" d="M10.2301517,4.26321837 L10.3190499,4.27869871 C11.9194482,4.70752415 12.8691956,6.35253502 12.4403702,7.95293333 C12.372129,8.20761285 12.2730892,8.4458153 12.1483317,8.66460721 L12.7773501,9.08397485 C13.0071144,9.23715108 13.0692014,9.54758575 12.9160251,9.7773501 C12.7628489,10.0071144 12.4524142,10.0692014 12.2226499,9.91602515 L12.2226499,9.91602515 L11.510852,9.44093441 C10.783595,10.071904 9.7661559,10.3422083 8.76613558,10.0742537 C8.49940253,10.0027828 8.34111129,9.72861429 8.41258219,9.46188124 C8.4840531,9.19514819 8.75822158,9.03685694 9.02495463,9.10832785 C9.59417693,9.2608505 10.1718648,9.15177864 10.6303774,8.85480569 L9.2226499,7.91602515 C8.99288556,7.76284892 8.93079862,7.45241425 9.08397485,7.2226499 C9.23715108,6.99288556 9.54758575,6.93079862 9.7773501,7.08397485 L9.7773501,7.08397485 L11.3127826,8.10823157 C11.3805335,7.97922816 11.4351484,7.84076897 11.4744444,7.69411428 C11.760328,6.62718208 11.127163,5.53050816 10.0602308,5.24462454 C9.79349776,5.17315364 9.63520651,4.89898516 9.70667742,4.63225211 C9.77814832,4.36551905 10.0523168,4.20722781 10.3190499,4.27869871 Z M9.5,5.5 C9.77614237,5.5 10,5.72385763 10,6 C10,6.27614237 9.77614237,6.5 9.5,6.5 C9.22385763,6.5 9,6.27614237 9,6 C9,5.72385763 9.22385763,5.5 9.5,5.5 Z"/>
    <filter id="ao-m" width="110.9%" height="116.9%" x="-5.4%" y="-4.2%" filterUnits="objectBoundingBox">
      <feOffset dy=".5" in="SourceAlpha" result="shadowOffsetOuter1"/>
      <feColorMatrix in="shadowOffsetOuter1" values="0 0 0 0 0   0 0 0 0 0   0 0 0 0 0  0 0 0 0.06 0"/>
    </filter>
    <rect id="ao-q" width="21" height="15" x="0" y="0" rx="1.5"/>
    <filter id="ao-p" width="102.4%" height="103.3%" x="-1.2%" y="-1.7%" filterUnits="objectBoundingBox">
      <feOffset dy="-.5" in="SourceAlpha" result="shadowOffsetInner1"/>
      <feComposite in="shadowOffsetInner1" in2="SourceAlpha" k2="-1" k3="1" operator="arithmetic" result="shadowInnerInner1"/>
      <feColorMatrix in="shadowInnerInner1" result="shadowMatrixInner1" values="0 0 0 0 0   0 0 0 0 0   0 0 0 0 0  0 0 0 0.04 0"/>
      <feOffset dy=".5" in="SourceAlpha" result="shadowOffsetInner2"/>
      <feComposite in="shadowOffsetInner2" in2="SourceAlpha" k2="-1" k3="1" operator="arithmetic" result="shadowInnerInner2"/>
      <feColorMatrix in="shadowInnerInner2" result="shadowMatrixInner2" values="0 0 0 0 1   0 0 0 0 1   0 0 0 0 1  0 0 0 0.12 0"/>
      <feMerge>
        <feMergeNode in="shadowMatrixInner1"/>
        <feMergeNode in="shadowMatrixInner2"/>
      </feMerge>
    </filter>
  </defs>
  <g fill="none" fill-rule="evenodd" filter="url(#ao-a)" transform="translate(1 1)">
    <mask id="ao-f" fill="#fff">
      <use xlink:href="#ao-b"/>
    </mask>
    <use fill="#000" filter="url(#ao-c)" xlink:href="#ao-b"/>
    <use fill="url(#ao-d)" xlink:href="#ao-b"/>
    <rect width="21" height="15" fill="url(#ao-e)" mask="url(#ao-f)"/>
    <g mask="url(#ao-f)">
      <use fill="#000" filter="url(#ao-g)" xlink:href="#ao-h"/>
      <use fill="url(#ao-i)" xlink:href="#ao-h"/>
    </g>
    <g mask="url(#ao-f)">
      <use fill="#000" filter="url(#ao-j)" xlink:href="#ao-k"/>
      <use fill="url(#ao-l)" xlink:href="#ao-k"/>
    </g>
    <g fill-rule="nonzero" mask="url(#ao-f)">
      <use fill="#000" filter="url(#ao-m)" xlink:href="#ao-n"/>
      <use fill="url(#ao-o)" xlink:href="#ao-n"/>
    </g>
    <g fill="#000" mask="url(#ao-f)">
      <use filter="url(#ao-p)" xlink:href="#ao-q"/>
    </g>
  </g>
</svg>
