<svg xmlns="http://www.w3.org/2000/svg" xmlns:xlink="http://www.w3.org/1999/xlink" width="23" height="17" viewBox="0 0 23 17">
  <defs>
    <linearGradient id="au-c" x1="50%" x2="50%" y1="0%" y2="100%">
      <stop offset="0%" stop-color="#FFF"/>
      <stop offset="100%" stop-color="#F0F0F0"/>
    </linearGradient>
    <rect id="au-a" width="21" height="15" x="0" y="0" rx="1.5"/>
    <filter id="au-b" width="116.7%" height="123.3%" x="-8.3%" y="-8.3%" filterUnits="objectBoundingBox">
      <feOffset dy=".5" in="SourceAlpha" result="shadowOffsetOuter1"/>
      <feGaussianBlur in="shadowOffsetOuter1" result="shadowBlurOuter1" stdDeviation=".5"/>
      <feColorMatrix in="shadowBlurOuter1" values="0 0 0 0 0   0 0 0 0 0   0 0 0 0 0  0 0 0 0.16 0"/>
    </filter>
    <linearGradient id="au-g" x1="50%" x2="50%" y1="0%" y2="100%">
      <stop offset="0%" stop-color="#0A17A7"/>
      <stop offset="100%" stop-color="#030E88"/>
    </linearGradient>
    <rect id="au-f" width="21" height="15" x="0" y="0"/>
    <filter id="au-e" width="116.7%" height="123.3%" x="-8.3%" y="-8.3%" filterUnits="objectBoundingBox">
      <feOffset dy=".5" in="SourceAlpha" result="shadowOffsetOuter1"/>
      <feGaussianBlur in="shadowOffsetOuter1" result="shadowBlurOuter1" stdDeviation=".5"/>
      <feColorMatrix in="shadowBlurOuter1" values="0 0 0 0 0   0 0 0 0 0   0 0 0 0 0  0 0 0 0.16 0"/>
    </filter>
    <linearGradient id="au-h" x1="50%" x2="50%" y1="0%" y2="100%">
      <stop offset="0%" stop-color="#FF2E3B"/>
      <stop offset="100%" stop-color="#FC0D1B"/>
    </linearGradient>
    <linearGradient id="au-k" x1="50%" x2="50%" y1="0%" y2="100%">
      <stop offset="0%" stop-color="#FFF"/>
      <stop offset="100%" stop-color="#F0F0F0"/>
    </linearGradient>
    <path id="au-j" d="M0,2.5 L0,4.5 L3.5,4.5 L3.5,7.00461102 C3.5,7.2782068 3.71403503,7.5 4.00468445,7.5 L4.99531555,7.5 C5.27404508,7.5 5.5,7.2842474 5.5,7.00461102 L5.5,4.5 L9.00952148,4.5 C9.28040529,4.5 9.5,4.28596497 9.5,3.99531555 L9.5,3.00468445 C9.5,2.72595492 9.28494263,2.5 9.00952148,2.5 L5.5,2.5 L5.5,0 L3.5,0 L3.5,2.5 L0,2.5 Z"/>
    <filter id="au-i" width="117.5%" height="122.1%" x="-7.9%" y="-10%" filterUnits="objectBoundingBox">
      <feMorphology in="SourceAlpha" operator="dilate" radius=".25" result="shadowSpreadOuter1"/>
      <feOffset in="shadowSpreadOuter1" result="shadowOffsetOuter1"/>
      <feColorMatrix in="shadowOffsetOuter1" values="0 0 0 0 0   0 0 0 0 0   0 0 0 0 0  0 0 0 0.06 0"/>
    </filter>
    <polygon id="au-m" points="4.5 12.25 3.618 12.714 3.787 11.732 3.073 11.036 4.059 10.893 4.5 10 4.941 10.893 5.927 11.036 5.213 11.732 5.382 12.714"/>
    <filter id="au-l" width="111.8%" height="123.8%" x="-5.9%" y="-8.3%" filterUnits="objectBoundingBox">
      <feOffset dy=".5" in="SourceAlpha" result="shadowOffsetOuter1"/>
      <feColorMatrix in="shadowOffsetOuter1" values="0 0 0 0 0   0 0 0 0 0   0 0 0 0 0  0 0 0 0.24 0"/>
    </filter>
    <polygon id="au-o" points="15 13 14.293 13.207 14.5 12.5 14.293 11.793 15 12 15.707 11.793 15.5 12.5 15.707 13.207"/>
    <filter id="au-n" width="95.7%" height="120.7%" x="2.1%" y="2.1%" filterUnits="objectBoundingBox">
      <feOffset dy=".5" in="SourceAlpha" result="shadowOffsetOuter1"/>
      <feColorMatrix in="shadowOffsetOuter1" values="0 0 0 0 0   0 0 0 0 0   0 0 0 0 0  0 0 0 0.24 0"/>
    </filter>
    <polygon id="au-q" points="15 3.5 14.293 3.707 14.5 3 14.293 2.293 15 2.5 15.707 2.293 15.5 3 15.707 3.707"/>
    <filter id="au-p" width="95.7%" height="120.7%" x="2.1%" y="2.1%" filterUnits="objectBoundingBox">
      <feOffset dy=".5" in="SourceAlpha" result="shadowOffsetOuter1"/>
      <feColorMatrix in="shadowOffsetOuter1" values="0 0 0 0 0   0 0 0 0 0   0 0 0 0 0  0 0 0 0.24 0"/>
    </filter>
    <polygon id="au-s" points="18 6.5 17.293 6.707 17.5 6 17.293 5.293 18 5.5 18.707 5.293 18.5 6 18.707 6.707"/>
    <filter id="au-r" width="95.7%" height="120.7%" x="2.1%" y="2.1%" filterUnits="objectBoundingBox">
      <feOffset dy=".5" in="SourceAlpha" result="shadowOffsetOuter1"/>
      <feColorMatrix in="shadowOffsetOuter1" values="0 0 0 0 0   0 0 0 0 0   0 0 0 0 0  0 0 0 0.24 0"/>
    </filter>
    <polygon id="au-u" points="12 7.5 11.293 7.707 11.5 7 11.293 6.293 12 6.5 12.707 6.293 12.5 7 12.707 7.707"/>
    <filter id="au-t" width="95.7%" height="120.7%" x="2.1%" y="2.1%" filterUnits="objectBoundingBox">
      <feOffset dy=".5" in="SourceAlpha" result="shadowOffsetOuter1"/>
      <feColorMatrix in="shadowOffsetOuter1" values="0 0 0 0 0   0 0 0 0 0   0 0 0 0 0  0 0 0 0.24 0"/>
    </filter>
    <polygon id="au-w" points="16.5 8.75 16.146 8.854 16.25 8.5 16.146 8.146 16.5 8.25 16.854 8.146 16.75 8.5 16.854 8.854"/>
    <filter id="au-v" width="120.7%" height="170.7%" x="-10.4%" y="-10.4%" filterUnits="objectBoundingBox">
      <feOffset dy=".5" in="SourceAlpha" result="shadowOffsetOuter1"/>
      <feColorMatrix in="shadowOffsetOuter1" values="0 0 0 0 0   0 0 0 0 0   0 0 0 0 0  0 0 0 0.24 0"/>
    </filter>
    <rect id="au-y" width="21" height="15" x="0" y="0" rx="1.5"/>
    <filter id="au-x" width="102.4%" height="103.3%" x="-1.2%" y="-1.7%" filterUnits="objectBoundingBox">
      <feOffset dy="-.5" in="SourceAlpha" result="shadowOffsetInner1"/>
      <feComposite in="shadowOffsetInner1" in2="SourceAlpha" k2="-1" k3="1" operator="arithmetic" result="shadowInnerInner1"/>
      <feColorMatrix in="shadowInnerInner1" result="shadowMatrixInner1" values="0 0 0 0 0   0 0 0 0 0   0 0 0 0 0  0 0 0 0.04 0"/>
      <feOffset dy=".5" in="SourceAlpha" result="shadowOffsetInner2"/>
      <feComposite in="shadowOffsetInner2" in2="SourceAlpha" k2="-1" k3="1" operator="arithmetic" result="shadowInnerInner2"/>
      <feColorMatrix in="shadowInnerInner2" result="shadowMatrixInner2" values="0 0 0 0 1   0 0 0 0 1   0 0 0 0 1  0 0 0 0.12 0"/>
      <feMerge>
        <feMergeNode in="shadowMatrixInner1"/>
        <feMergeNode in="shadowMatrixInner2"/>
      </feMerge>
    </filter>
  </defs>
  <g fill="none" fill-rule="evenodd" transform="translate(1 1)">
    <mask id="au-d" fill="#fff">
      <use xlink:href="#au-a"/>
    </mask>
    <use fill="#000" filter="url(#au-b)" xlink:href="#au-a"/>
    <use fill="url(#au-c)" xlink:href="#au-a"/>
    <g mask="url(#au-d)">
      <use fill="#000" filter="url(#au-e)" xlink:href="#au-f"/>
      <use fill="url(#au-g)" xlink:href="#au-f"/>
    </g>
    <path fill="url(#au-h)" stroke="#FFF" stroke-width=".5" d="M0.580116263,-0.25 L-0.675814352,-0.25 L3.25,3.11498373 L3.25,3.87134553 L-0.25,6.37134553 L-0.25,7.45106191 L4.07169906,4.75 L4.92942021,4.75 L11.367513,8.70002745 L5.75,3.88501627 L5.75,3.11498373 L11.6883505,-1.97503094 L4.92830094,2.25 L4.08011626,2.25 L0.580116263,-0.25 Z" mask="url(#au-d)"/>
    <g mask="url(#au-d)">
      <use fill="#000" filter="url(#au-i)" xlink:href="#au-j"/>
      <use fill="url(#au-k)" xlink:href="#au-j"/>
    </g>
    <polygon fill="url(#au-h)" points="0 3 4 3 4 2.5 4 0 5 0 5 2.5 5 3 9 3 9 4 5 4 5 4.5 5 7 4 7 4 4.5 4 4 0 4" mask="url(#au-d)"/>
    <g mask="url(#au-d)">
      <use fill="#000" filter="url(#au-l)" xlink:href="#au-m"/>
      <use fill="#FFF" xlink:href="#au-m"/>
    </g>
    <g mask="url(#au-d)">
      <use fill="#000" filter="url(#au-n)" xlink:href="#au-o"/>
      <use fill="#FFF" xlink:href="#au-o"/>
    </g>
    <g mask="url(#au-d)">
      <use fill="#000" filter="url(#au-p)" xlink:href="#au-q"/>
      <use fill="#FFF" xlink:href="#au-q"/>
    </g>
    <g mask="url(#au-d)">
      <use fill="#000" filter="url(#au-r)" xlink:href="#au-s"/>
      <use fill="#FFF" xlink:href="#au-s"/>
    </g>
    <g mask="url(#au-d)">
      <use fill="#000" filter="url(#au-t)" xlink:href="#au-u"/>
      <use fill="#FFF" xlink:href="#au-u"/>
    </g>
    <g mask="url(#au-d)">
      <use fill="#000" filter="url(#au-v)" xlink:href="#au-w"/>
      <use fill="#FFF" xlink:href="#au-w"/>
    </g>
    <g fill="#000" mask="url(#au-d)">
      <use filter="url(#au-x)" xlink:href="#au-y"/>
    </g>
  </g>
</svg>
