<svg xmlns="http://www.w3.org/2000/svg" xmlns:xlink="http://www.w3.org/1999/xlink" width="23" height="17" viewBox="0 0 23 17">
  <defs>
    <linearGradient id="ax-c" x1="50%" x2="50%" y1="0%" y2="100%">
      <stop offset="0%" stop-color="#FFF"/>
      <stop offset="100%" stop-color="#F0F0F0"/>
    </linearGradient>
    <rect id="ax-a" width="21" height="15" x="0" y="0" rx="1.5"/>
    <filter id="ax-b" width="116.7%" height="123.3%" x="-8.3%" y="-8.3%" filterUnits="objectBoundingBox">
      <feOffset dy=".5" in="SourceAlpha" result="shadowOffsetOuter1"/>
      <feGaussianBlur in="shadowOffsetOuter1" result="shadowBlurOuter1" stdDeviation=".5"/>
      <feColorMatrix in="shadowBlurOuter1" values="0 0 0 0 0   0 0 0 0 0   0 0 0 0 0  0 0 0 0.16 0"/>
    </filter>
    <linearGradient id="ax-d" x1="50%" x2="50%" y1="0%" y2="100%">
      <stop offset="0%" stop-color="#157CBB"/>
      <stop offset="100%" stop-color="#0E6CA5"/>
    </linearGradient>
    <linearGradient id="ax-h" x1="50%" x2="50%" y1="0%" y2="100%">
      <stop offset="0%" stop-color="#FFD34D"/>
      <stop offset="100%" stop-color="#FECB2F"/>
    </linearGradient>
    <polygon id="ax-g" points="0 9 6 9 6 15 9 15 9 9 21 9 21 6 9 6 9 0 6 0 6 6 0 6"/>
    <filter id="ax-f" width="107.1%" height="110%" x="-3.6%" y="-5%" filterUnits="objectBoundingBox">
      <feMorphology in="SourceAlpha" operator="dilate" radius=".25" result="shadowSpreadOuter1"/>
      <feOffset in="shadowSpreadOuter1" result="shadowOffsetOuter1"/>
      <feColorMatrix in="shadowOffsetOuter1" values="0 0 0 0 0   0 0 0 0 0   0 0 0 0 0  0 0 0 0.06 0"/>
    </filter>
    <linearGradient id="ax-i" x1="50%" x2="50%" y1="0%" y2="100%">
      <stop offset="0%" stop-color="#EB363A"/>
      <stop offset="100%" stop-color="#D52B2F"/>
    </linearGradient>
    <rect id="ax-k" width="21" height="15" x="0" y="0" rx="1.5"/>
    <filter id="ax-j" width="102.4%" height="103.3%" x="-1.2%" y="-1.7%" filterUnits="objectBoundingBox">
      <feOffset dy="-.5" in="SourceAlpha" result="shadowOffsetInner1"/>
      <feComposite in="shadowOffsetInner1" in2="SourceAlpha" k2="-1" k3="1" operator="arithmetic" result="shadowInnerInner1"/>
      <feColorMatrix in="shadowInnerInner1" result="shadowMatrixInner1" values="0 0 0 0 0   0 0 0 0 0   0 0 0 0 0  0 0 0 0.04 0"/>
      <feOffset dy=".5" in="SourceAlpha" result="shadowOffsetInner2"/>
      <feComposite in="shadowOffsetInner2" in2="SourceAlpha" k2="-1" k3="1" operator="arithmetic" result="shadowInnerInner2"/>
      <feColorMatrix in="shadowInnerInner2" result="shadowMatrixInner2" values="0 0 0 0 1   0 0 0 0 1   0 0 0 0 1  0 0 0 0.12 0"/>
      <feMerge>
        <feMergeNode in="shadowMatrixInner1"/>
        <feMergeNode in="shadowMatrixInner2"/>
      </feMerge>
    </filter>
  </defs>
  <g fill="none" fill-rule="evenodd" transform="translate(1 1)">
    <mask id="ax-e" fill="#fff">
      <use xlink:href="#ax-a"/>
    </mask>
    <use fill="#000" filter="url(#ax-b)" xlink:href="#ax-a"/>
    <use fill="url(#ax-c)" xlink:href="#ax-a"/>
    <rect width="21" height="15" fill="url(#ax-d)" mask="url(#ax-e)"/>
    <g mask="url(#ax-e)">
      <use fill="#000" filter="url(#ax-f)" xlink:href="#ax-g"/>
      <use fill="url(#ax-h)" xlink:href="#ax-g"/>
    </g>
    <polygon fill="url(#ax-i)" points="0 8 7 8 7 15 8 15 8 8 21 8 21 7 8 7 8 0 7 0 7 7 0 7" mask="url(#ax-e)"/>
    <use fill="#000" filter="url(#ax-j)" xlink:href="#ax-k"/>
  </g>
</svg>
