<svg xmlns="http://www.w3.org/2000/svg" xmlns:xlink="http://www.w3.org/1999/xlink" width="23" height="17" viewBox="0 0 23 17">
  <defs>
    <linearGradient id="by-c" x1="50%" x2="50%" y1="0%" y2="100%">
      <stop offset="0%" stop-color="#FFF"/>
      <stop offset="100%" stop-color="#F0F0F0"/>
    </linearGradient>
    <rect id="by-a" width="21" height="15" x="0" y="0" rx="1.5"/>
    <filter id="by-b" width="116.7%" height="123.3%" x="-8.3%" y="-8.3%" filterUnits="objectBoundingBox">
      <feOffset dy=".5" in="SourceAlpha" result="shadowOffsetOuter1"/>
      <feGaussianBlur in="shadowOffsetOuter1" result="shadowBlurOuter1" stdDeviation=".5"/>
      <feColorMatrix in="shadowBlurOuter1" values="0 0 0 0 0   0 0 0 0 0   0 0 0 0 0  0 0 0 0.16 0"/>
    </filter>
    <linearGradient id="by-g" x1="50%" x2="50%" y1="0%" y2="100%">
      <stop offset="0%" stop-color="#E54252"/>
      <stop offset="100%" stop-color="#C63442"/>
    </linearGradient>
    <rect id="by-f" width="21" height="10" x="0" y="0"/>
    <filter id="by-e" width="107.1%" height="115%" x="-3.6%" y="-7.5%" filterUnits="objectBoundingBox">
      <feMorphology in="SourceAlpha" operator="dilate" radius=".25" result="shadowSpreadOuter1"/>
      <feOffset in="shadowSpreadOuter1" result="shadowOffsetOuter1"/>
      <feColorMatrix in="shadowOffsetOuter1" values="0 0 0 0 0   0 0 0 0 0   0 0 0 0 0  0 0 0 0.06 0"/>
    </filter>
    <linearGradient id="by-j" x1="50%" x2="50%" y1="0%" y2="100%">
      <stop offset="0%" stop-color="#5CBE6B"/>
      <stop offset="100%" stop-color="#4EA55B"/>
    </linearGradient>
    <rect id="by-i" width="21" height="5" x="0" y="10"/>
    <filter id="by-h" width="107.1%" height="130%" x="-3.6%" y="-15%" filterUnits="objectBoundingBox">
      <feMorphology in="SourceAlpha" operator="dilate" radius=".25" result="shadowSpreadOuter1"/>
      <feOffset in="shadowSpreadOuter1" result="shadowOffsetOuter1"/>
      <feColorMatrix in="shadowOffsetOuter1" values="0 0 0 0 0   0 0 0 0 0   0 0 0 0 0  0 0 0 0.06 0"/>
    </filter>
    <linearGradient id="by-m" x1="50%" x2="50%" y1="0%" y2="100%">
      <stop offset="0%" stop-color="#FFF"/>
      <stop offset="100%" stop-color="#F0F0F0"/>
    </linearGradient>
    <path id="by-l" d="M3,0 L3,2.25 L2.5,3 L3,3.75 L3,5.25 L2.5,6 L3,6.75 L3,8.25 L2.5,9 L3,9.75 L3,11.25 L2.5,12 L3,12.75 L3,15 L0,15 L0,0 L3,0 Z"/>
    <filter id="by-k" width="150%" height="110%" x="-25%" y="-5%" filterUnits="objectBoundingBox">
      <feMorphology in="SourceAlpha" operator="dilate" radius=".25" result="shadowSpreadOuter1"/>
      <feOffset in="shadowSpreadOuter1" result="shadowOffsetOuter1"/>
      <feColorMatrix in="shadowOffsetOuter1" values="0 0 0 0 0   0 0 0 0 0   0 0 0 0 0  0 0 0 0.06 0"/>
    </filter>
    <linearGradient id="by-n" x1="50%" x2="50%" y1="0%" y2="100%">
      <stop offset="0%" stop-color="#E54252"/>
      <stop offset="100%" stop-color="#C63442"/>
    </linearGradient>
    <linearGradient id="by-o" x1="50%" x2="50%" y1="0%" y2="100%">
      <stop offset="0%" stop-color="#E54252"/>
      <stop offset="100%" stop-color="#C63442"/>
    </linearGradient>
    <rect id="by-q" width="21" height="15" x="0" y="0" rx="1.5"/>
    <filter id="by-p" width="102.4%" height="103.3%" x="-1.2%" y="-1.7%" filterUnits="objectBoundingBox">
      <feOffset dy="-.5" in="SourceAlpha" result="shadowOffsetInner1"/>
      <feComposite in="shadowOffsetInner1" in2="SourceAlpha" k2="-1" k3="1" operator="arithmetic" result="shadowInnerInner1"/>
      <feColorMatrix in="shadowInnerInner1" result="shadowMatrixInner1" values="0 0 0 0 0   0 0 0 0 0   0 0 0 0 0  0 0 0 0.04 0"/>
      <feOffset dy=".5" in="SourceAlpha" result="shadowOffsetInner2"/>
      <feComposite in="shadowOffsetInner2" in2="SourceAlpha" k2="-1" k3="1" operator="arithmetic" result="shadowInnerInner2"/>
      <feColorMatrix in="shadowInnerInner2" result="shadowMatrixInner2" values="0 0 0 0 1   0 0 0 0 1   0 0 0 0 1  0 0 0 0.12 0"/>
      <feMerge>
        <feMergeNode in="shadowMatrixInner1"/>
        <feMergeNode in="shadowMatrixInner2"/>
      </feMerge>
    </filter>
  </defs>
  <g fill="none" fill-rule="evenodd" transform="translate(1 1)">
    <mask id="by-d" fill="#fff">
      <use xlink:href="#by-a"/>
    </mask>
    <use fill="#000" filter="url(#by-b)" xlink:href="#by-a"/>
    <use fill="url(#by-c)" xlink:href="#by-a"/>
    <g mask="url(#by-d)">
      <use fill="#000" filter="url(#by-e)" xlink:href="#by-f"/>
      <use fill="url(#by-g)" xlink:href="#by-f"/>
    </g>
    <g mask="url(#by-d)">
      <use fill="#000" filter="url(#by-h)" xlink:href="#by-i"/>
      <use fill="url(#by-j)" xlink:href="#by-i"/>
    </g>
    <g mask="url(#by-d)">
      <use fill="#000" filter="url(#by-k)" xlink:href="#by-l"/>
      <use fill="url(#by-m)" xlink:href="#by-l"/>
    </g>
    <path fill="url(#by-n)" d="M-0.5,10.5 L0.5,12 L-0.5,13.5 L-1.5,12 L-0.5,10.5 Z M-0.5,7.5 L0.5,9 L-0.5,10.5 L-1.5,9 L-0.5,7.5 Z M-0.5,4.5 L0.5,6 L-0.5,7.5 L-1.5,6 L-0.5,4.5 Z M-0.5,1.5 L0.5,3 L-0.5,4.5 L-1.5,3 L-0.5,1.5 Z" mask="url(#by-d)"/>
    <path fill="url(#by-o)" d="M1.5,12 L2.5,13.5 L1.5,15 L0.5,13.5 L1.5,12 Z M1.5,9 L2.5,10.5 L1.5,12 L0.5,10.5 L1.5,9 Z M1.5,6 L2.5,7.5 L1.5,9 L0.5,7.5 L1.5,6 Z M1.5,3 L2.5,4.5 L1.5,6 L0.5,4.5 L1.5,3 Z M1.5,0 L2.5,1.5 L1.5,3 L0.5,1.5 L1.5,0 Z" mask="url(#by-d)"/>
    <g fill="#000" mask="url(#by-d)">
      <use filter="url(#by-p)" xlink:href="#by-q"/>
    </g>
  </g>
</svg>
