<svg xmlns="http://www.w3.org/2000/svg" xmlns:xlink="http://www.w3.org/1999/xlink" width="23" height="17" viewBox="0 0 23 17">
  <defs>
    <linearGradient id="dm-c" x1="50%" x2="50%" y1="0%" y2="100%">
      <stop offset="0%" stop-color="#FFF"/>
      <stop offset="100%" stop-color="#F0F0F0"/>
    </linearGradient>
    <rect id="dm-a" width="21" height="15" x="0" y="0" rx="1.5"/>
    <filter id="dm-b" width="116.7%" height="123.3%" x="-8.3%" y="-8.3%" filterUnits="objectBoundingBox">
      <feOffset dy=".5" in="SourceAlpha" result="shadowOffsetOuter1"/>
      <feGaussianBlur in="shadowOffsetOuter1" result="shadowBlurOuter1" stdDeviation=".5"/>
      <feColorMatrix in="shadowBlurOuter1" values="0 0 0 0 0   0 0 0 0 0   0 0 0 0 0  0 0 0 0.16 0"/>
    </filter>
    <linearGradient id="dm-g" x1="50%" x2="50%" y1="0%" y2="100%">
      <stop offset="0%" stop-color="#108753"/>
      <stop offset="100%" stop-color="#0B6B41"/>
    </linearGradient>
    <rect id="dm-f" width="21" height="6" x="0" y="0"/>
    <filter id="dm-e" width="107.1%" height="125%" x="-3.6%" y="-12.5%" filterUnits="objectBoundingBox">
      <feMorphology in="SourceAlpha" operator="dilate" radius=".25" result="shadowSpreadOuter1"/>
      <feOffset in="shadowSpreadOuter1" result="shadowOffsetOuter1"/>
      <feColorMatrix in="shadowOffsetOuter1" values="0 0 0 0 0   0 0 0 0 0   0 0 0 0 0  0 0 0 0.06 0"/>
    </filter>
    <rect id="dm-i" width="21" height="6" x="0" y="9"/>
    <filter id="dm-h" width="107.1%" height="125%" x="-3.6%" y="-12.5%" filterUnits="objectBoundingBox">
      <feMorphology in="SourceAlpha" operator="dilate" radius=".25" result="shadowSpreadOuter1"/>
      <feOffset in="shadowSpreadOuter1" result="shadowOffsetOuter1"/>
      <feColorMatrix in="shadowOffsetOuter1" values="0 0 0 0 0   0 0 0 0 0   0 0 0 0 0  0 0 0 0.06 0"/>
    </filter>
    <path id="dm-k" d="M12,0 L12,6 L21,6 L21,9 L12,9 L12,15 L9,15 L9,9 L0,9 L0,6 L9,6 L9,0 L12,0 Z"/>
    <filter id="dm-j" width="107.1%" height="110%" x="-3.6%" y="-5%" filterUnits="objectBoundingBox">
      <feMorphology in="SourceAlpha" operator="dilate" radius=".25" result="shadowSpreadOuter1"/>
      <feOffset in="shadowSpreadOuter1" result="shadowOffsetOuter1"/>
      <feColorMatrix in="shadowOffsetOuter1" values="0 0 0 0 0   0 0 0 0 0   0 0 0 0 0  0 0 0 0.06 0"/>
    </filter>
    <linearGradient id="dm-l" x1="50%" x2="50%" y1="0%" y2="100%">
      <stop offset="0%" stop-color="#262626"/>
      <stop offset="100%" stop-color="#0D0D0D"/>
    </linearGradient>
    <linearGradient id="dm-m" x1="50%" x2="50%" y1="0%" y2="100%">
      <stop offset="0%" stop-color="#FCD449"/>
      <stop offset="100%" stop-color="#FCD036"/>
    </linearGradient>
    <linearGradient id="dm-n" x1="50%" x2="50%" y1="0%" y2="100%">
      <stop offset="0%" stop-color="#E02C42"/>
      <stop offset="100%" stop-color="#D22036"/>
    </linearGradient>
    <rect id="dm-p" width="21" height="15" x="0" y="0" rx="1.5"/>
    <filter id="dm-o" width="102.4%" height="103.3%" x="-1.2%" y="-1.7%" filterUnits="objectBoundingBox">
      <feOffset dy="-.5" in="SourceAlpha" result="shadowOffsetInner1"/>
      <feComposite in="shadowOffsetInner1" in2="SourceAlpha" k2="-1" k3="1" operator="arithmetic" result="shadowInnerInner1"/>
      <feColorMatrix in="shadowInnerInner1" result="shadowMatrixInner1" values="0 0 0 0 0   0 0 0 0 0   0 0 0 0 0  0 0 0 0.04 0"/>
      <feOffset dy=".5" in="SourceAlpha" result="shadowOffsetInner2"/>
      <feComposite in="shadowOffsetInner2" in2="SourceAlpha" k2="-1" k3="1" operator="arithmetic" result="shadowInnerInner2"/>
      <feColorMatrix in="shadowInnerInner2" result="shadowMatrixInner2" values="0 0 0 0 1   0 0 0 0 1   0 0 0 0 1  0 0 0 0.12 0"/>
      <feMerge>
        <feMergeNode in="shadowMatrixInner1"/>
        <feMergeNode in="shadowMatrixInner2"/>
      </feMerge>
    </filter>
  </defs>
  <g fill="none" fill-rule="evenodd" transform="translate(1 1)">
    <mask id="dm-d" fill="#fff">
      <use xlink:href="#dm-a"/>
    </mask>
    <use fill="#000" filter="url(#dm-b)" xlink:href="#dm-a"/>
    <use fill="url(#dm-c)" xlink:href="#dm-a"/>
    <g mask="url(#dm-d)">
      <use fill="#000" filter="url(#dm-e)" xlink:href="#dm-f"/>
      <use fill="url(#dm-g)" xlink:href="#dm-f"/>
    </g>
    <g mask="url(#dm-d)">
      <use fill="#000" filter="url(#dm-h)" xlink:href="#dm-i"/>
      <use fill="url(#dm-g)" xlink:href="#dm-i"/>
    </g>
    <g mask="url(#dm-d)">
      <use fill="#000" filter="url(#dm-j)" xlink:href="#dm-k"/>
      <use fill="url(#dm-c)" xlink:href="#dm-k"/>
    </g>
    <path fill="url(#dm-l)" d="M11,0 L11,7 L21,7 L21,8 L11,8 L11,15 L10,15 L10,8 L0,8 L0,7 L10,7 L10,0 L11,0 Z" mask="url(#dm-d)"/>
    <path fill="url(#dm-m)" d="M10,0 L10,6 L21,6 L21,7 L10,7 L10,15 L9,15 L9,7 L0,7 L0,6 L9,6 L9,0 L10,0 Z" mask="url(#dm-d)"/>
    <circle cx="10.5" cy="7.5" r="3.5" fill="url(#dm-n)" mask="url(#dm-d)"/>
    <path stroke="#0E673F" stroke-dasharray=".5 2" stroke-linecap="round" d="M10.5,10 C11.8807119,10 13,8.88071187 13,7.5 C13,6.11928813 11.8807119,5 10.5,5 C9.11928813,5 8,6.11928813 8,7.5 C8,8.88071187 9.11928813,10 10.5,10 Z" mask="url(#dm-d)"/>
    <path fill="#0E673F" d="M10.5,8.5 C11.0522847,8.5 11,8.05228475 11,7.5 C11,6.94771525 11.0522847,6.5 10.5,6.5 C9.94771525,6.5 10,6.94771525 10,7.5 C10,8.05228475 9.94771525,8.5 10.5,8.5 Z" mask="url(#dm-d)"/>
    <g fill="#000" mask="url(#dm-d)">
      <use filter="url(#dm-o)" xlink:href="#dm-p"/>
    </g>
  </g>
</svg>
