<svg xmlns="http://www.w3.org/2000/svg" xmlns:xlink="http://www.w3.org/1999/xlink" width="23" height="17" viewBox="0 0 23 17">
  <defs>
    <linearGradient id="dz-c" x1="50%" x2="50%" y1="0%" y2="100%">
      <stop offset="0%" stop-color="#FFF"/>
      <stop offset="100%" stop-color="#F0F0F0"/>
    </linearGradient>
    <rect id="dz-a" width="21" height="15" x="0" y="0" rx="1.5"/>
    <filter id="dz-b" width="116.7%" height="123.3%" x="-8.3%" y="-8.3%" filterUnits="objectBoundingBox">
      <feOffset dy=".5" in="SourceAlpha" result="shadowOffsetOuter1"/>
      <feGaussianBlur in="shadowOffsetOuter1" result="shadowBlurOuter1" stdDeviation=".5"/>
      <feColorMatrix in="shadowBlurOuter1" values="0 0 0 0 0   0 0 0 0 0   0 0 0 0 0  0 0 0 0.16 0"/>
    </filter>
    <linearGradient id="dz-g" x1="50%" x2="50%" y1="0%" y2="100%">
      <stop offset="0%" stop-color="#048345"/>
      <stop offset="100%" stop-color="#04753E"/>
    </linearGradient>
    <rect id="dz-f" width="11" height="15" x="0" y="0"/>
    <filter id="dz-e" width="113.6%" height="110%" x="-6.8%" y="-5%" filterUnits="objectBoundingBox">
      <feMorphology in="SourceAlpha" operator="dilate" radius=".25" result="shadowSpreadOuter1"/>
      <feOffset in="shadowSpreadOuter1" result="shadowOffsetOuter1"/>
      <feColorMatrix in="shadowOffsetOuter1" values="0 0 0 0 0   0 0 0 0 0   0 0 0 0 0  0 0 0 0.06 0"/>
    </filter>
    <linearGradient id="dz-j" x1="50%" x2="50%" y1="0%" y2="100%">
      <stop offset="0%" stop-color="#FFF"/>
      <stop offset="100%" stop-color="#F0F0F0"/>
    </linearGradient>
    <rect id="dz-i" width="10" height="15" x="11" y="0"/>
    <filter id="dz-h" width="115%" height="110%" x="-7.5%" y="-5%" filterUnits="objectBoundingBox">
      <feMorphology in="SourceAlpha" operator="dilate" radius=".25" result="shadowSpreadOuter1"/>
      <feOffset in="shadowSpreadOuter1" result="shadowOffsetOuter1"/>
      <feColorMatrix in="shadowOffsetOuter1" values="0 0 0 0 0   0 0 0 0 0   0 0 0 0 0  0 0 0 0.06 0"/>
    </filter>
    <linearGradient id="dz-k" x1="50%" x2="50%" y1="0%" y2="100%">
      <stop offset="0%" stop-color="#E81B42"/>
      <stop offset="100%" stop-color="#D20F34"/>
    </linearGradient>
    <linearGradient id="dz-l" x1="50%" x2="50%" y1="0%" y2="100%">
      <stop offset="0%" stop-color="#E81B42"/>
      <stop offset="100%" stop-color="#D20F34"/>
    </linearGradient>
    <rect id="dz-n" width="21" height="15" x="0" y="0" rx="1.5"/>
    <filter id="dz-m" width="102.4%" height="103.3%" x="-1.2%" y="-1.7%" filterUnits="objectBoundingBox">
      <feOffset dy="-.5" in="SourceAlpha" result="shadowOffsetInner1"/>
      <feComposite in="shadowOffsetInner1" in2="SourceAlpha" k2="-1" k3="1" operator="arithmetic" result="shadowInnerInner1"/>
      <feColorMatrix in="shadowInnerInner1" result="shadowMatrixInner1" values="0 0 0 0 0   0 0 0 0 0   0 0 0 0 0  0 0 0 0.04 0"/>
      <feOffset dy=".5" in="SourceAlpha" result="shadowOffsetInner2"/>
      <feComposite in="shadowOffsetInner2" in2="SourceAlpha" k2="-1" k3="1" operator="arithmetic" result="shadowInnerInner2"/>
      <feColorMatrix in="shadowInnerInner2" result="shadowMatrixInner2" values="0 0 0 0 1   0 0 0 0 1   0 0 0 0 1  0 0 0 0.12 0"/>
      <feMerge>
        <feMergeNode in="shadowMatrixInner1"/>
        <feMergeNode in="shadowMatrixInner2"/>
      </feMerge>
    </filter>
  </defs>
  <g fill="none" fill-rule="evenodd" transform="translate(1 1)">
    <mask id="dz-d" fill="#fff">
      <use xlink:href="#dz-a"/>
    </mask>
    <use fill="#000" filter="url(#dz-b)" xlink:href="#dz-a"/>
    <use fill="url(#dz-c)" xlink:href="#dz-a"/>
    <g mask="url(#dz-d)">
      <use fill="#000" filter="url(#dz-e)" xlink:href="#dz-f"/>
      <use fill="url(#dz-g)" xlink:href="#dz-f"/>
    </g>
    <g mask="url(#dz-d)">
      <use fill="#000" filter="url(#dz-h)" xlink:href="#dz-i"/>
      <use fill="url(#dz-j)" xlink:href="#dz-i"/>
    </g>
    <polygon fill="url(#dz-k)" points="13 8.28 11.824 9.118 12.258 7.741 11.098 6.882 12.542 6.869 13 5.5 13.458 6.869 14.902 6.882 13.742 7.741 14.176 9.118" mask="url(#dz-d)"/>
    <path fill="url(#dz-l)" d="M10.3131751,3 C11.4530456,3 12.4896417,3.46132307 13.2607965,4.21477818 C12.7289447,3.96103075 12.1269862,3.81818182 11.4894956,3.81818182 C9.32394935,3.81818182 7.5684273,5.46658797 7.5684273,7.5 C7.5684273,9.53341203 9.32394935,11.1818182 11.4894956,11.1818182 C12.1269862,11.1818182 12.7289447,11.0389693 13.2610466,10.7855014 C12.4896417,11.5386769 11.4530456,12 10.3131751,12 C7.93107426,12 6,9.98528137 6,7.5 C6,5.01471863 7.93107426,3 10.3131751,3 Z" mask="url(#dz-d)"/>
    <g fill="#000" mask="url(#dz-d)">
      <use filter="url(#dz-m)" xlink:href="#dz-n"/>
    </g>
  </g>
</svg>
