<svg xmlns="http://www.w3.org/2000/svg" xmlns:xlink="http://www.w3.org/1999/xlink" width="23" height="17" viewBox="0 0 23 17">
  <defs>
    <linearGradient id="es-c" x1="50%" x2="50%" y1="0%" y2="100%">
      <stop offset="0%" stop-color="#FFF"/>
      <stop offset="100%" stop-color="#F0F0F0"/>
    </linearGradient>
    <rect id="es-a" width="21" height="15" x="0" y="0" rx="1.5"/>
    <filter id="es-b" width="116.7%" height="123.3%" x="-8.3%" y="-8.3%" filterUnits="objectBoundingBox">
      <feOffset dy=".5" in="SourceAlpha" result="shadowOffsetOuter1"/>
      <feGaussianBlur in="shadowOffsetOuter1" result="shadowBlurOuter1" stdDeviation=".5"/>
      <feColorMatrix in="shadowBlurOuter1" values="0 0 0 0 0   0 0 0 0 0   0 0 0 0 0  0 0 0 0.16 0"/>
    </filter>
    <linearGradient id="es-g" x1="50%" x2="50%" y1="0%" y2="100%">
      <stop offset="0%" stop-color="#DD172C"/>
      <stop offset="100%" stop-color="#C60B1F"/>
    </linearGradient>
    <rect id="es-f" width="21" height="4" x="0" y="0"/>
    <filter id="es-e" width="107.1%" height="137.5%" x="-3.6%" y="-18.8%" filterUnits="objectBoundingBox">
      <feMorphology in="SourceAlpha" operator="dilate" radius=".25" result="shadowSpreadOuter1"/>
      <feOffset in="shadowSpreadOuter1" result="shadowOffsetOuter1"/>
      <feColorMatrix in="shadowOffsetOuter1" values="0 0 0 0 0   0 0 0 0 0   0 0 0 0 0  0 0 0 0.06 0"/>
    </filter>
    <rect id="es-i" width="21" height="4" x="0" y="11"/>
    <filter id="es-h" width="107.1%" height="137.5%" x="-3.6%" y="-18.8%" filterUnits="objectBoundingBox">
      <feMorphology in="SourceAlpha" operator="dilate" radius=".25" result="shadowSpreadOuter1"/>
      <feOffset in="shadowSpreadOuter1" result="shadowOffsetOuter1"/>
      <feColorMatrix in="shadowOffsetOuter1" values="0 0 0 0 0   0 0 0 0 0   0 0 0 0 0  0 0 0 0.06 0"/>
    </filter>
    <linearGradient id="es-l" x1="50%" x2="50%" y1="0%" y2="100%">
      <stop offset="0%" stop-color="#FFD133"/>
      <stop offset="100%" stop-color="#FFC500"/>
    </linearGradient>
    <rect id="es-k" width="21" height="7" x="0" y="4"/>
    <filter id="es-j" width="107.1%" height="121.4%" x="-3.6%" y="-10.7%" filterUnits="objectBoundingBox">
      <feMorphology in="SourceAlpha" operator="dilate" radius=".25" result="shadowSpreadOuter1"/>
      <feOffset in="shadowSpreadOuter1" result="shadowOffsetOuter1"/>
      <feColorMatrix in="shadowOffsetOuter1" values="0 0 0 0 0   0 0 0 0 0   0 0 0 0 0  0 0 0 0.06 0"/>
    </filter>
    <rect id="es-n" width="21" height="15" x="0" y="0" rx="1.5"/>
    <filter id="es-m" width="102.4%" height="103.3%" x="-1.2%" y="-1.7%" filterUnits="objectBoundingBox">
      <feOffset dy="-.5" in="SourceAlpha" result="shadowOffsetInner1"/>
      <feComposite in="shadowOffsetInner1" in2="SourceAlpha" k2="-1" k3="1" operator="arithmetic" result="shadowInnerInner1"/>
      <feColorMatrix in="shadowInnerInner1" result="shadowMatrixInner1" values="0 0 0 0 0   0 0 0 0 0   0 0 0 0 0  0 0 0 0.04 0"/>
      <feOffset dy=".5" in="SourceAlpha" result="shadowOffsetInner2"/>
      <feComposite in="shadowOffsetInner2" in2="SourceAlpha" k2="-1" k3="1" operator="arithmetic" result="shadowInnerInner2"/>
      <feColorMatrix in="shadowInnerInner2" result="shadowMatrixInner2" values="0 0 0 0 1   0 0 0 0 1   0 0 0 0 1  0 0 0 0.12 0"/>
      <feMerge>
        <feMergeNode in="shadowMatrixInner1"/>
        <feMergeNode in="shadowMatrixInner2"/>
      </feMerge>
    </filter>
  </defs>
  <g fill="none" fill-rule="evenodd" transform="translate(1 1)">
    <mask id="es-d" fill="#fff">
      <use xlink:href="#es-a"/>
    </mask>
    <use fill="#000" filter="url(#es-b)" xlink:href="#es-a"/>
    <use fill="url(#es-c)" xlink:href="#es-a"/>
    <g mask="url(#es-d)">
      <use fill="#000" filter="url(#es-e)" xlink:href="#es-f"/>
      <use fill="url(#es-g)" xlink:href="#es-f"/>
    </g>
    <g mask="url(#es-d)">
      <use fill="#000" filter="url(#es-h)" xlink:href="#es-i"/>
      <use fill="url(#es-g)" xlink:href="#es-i"/>
    </g>
    <g mask="url(#es-d)">
      <use fill="#000" filter="url(#es-j)" xlink:href="#es-k"/>
      <use fill="url(#es-l)" xlink:href="#es-k"/>
    </g>
    <polygon fill="#FFEDB1" points="5.5 7 6.5 7 6.5 7.5 5.5 7.5" mask="url(#es-d)"/>
    <path stroke="#A41517" stroke-width=".5" d="M6.04288802,6.80895929 L4.5580037,7.18564577 L4.66589006,8.48028207 C4.6838831,8.69619853 4.78934445,8.88909752 4.95509599,9.02602141 C5.1205982,9.16273934 5.34461671,9.24317966 5.60207331,9.24335419 C5.79271287,9.21847348 5.9660774,9.12546688 6.09669403,8.99121299 C6.22220308,8.8622089 6.30875751,8.69445983 6.33112192,8.50954545 L6.04288802,6.80895929 Z" mask="url(#es-d)"/>
    <polygon fill="#A41517" points="4.5 7.5 6.5 7.5 6.5 8 6 8 5.5 9 5 8 4.5 8" mask="url(#es-d)"/>
    <rect width="1" height="3.5" x="3" y="6" fill="#A41517" mask="url(#es-d)"/>
    <rect width="1" height="3.5" x="7" y="6" fill="#A41517" mask="url(#es-d)"/>
    <path fill="#A41517" d="M4.5,5.5 C4.5,5.22385763 4.71403503,5 5.00468445,5 L5.99531555,5 C6.27404508,5 6.5,5.23193359 6.5,5.5 L6.5,5.74765778 C6.5,5.88702254 6.39247131,6 6.25476074,6 L4.74523926,6 C4.60979736,6 4.5,5.89298248 4.5,5.74765778 L4.5,5.5 Z" mask="url(#es-d)"/>
    <g fill="#000" mask="url(#es-d)">
      <use filter="url(#es-m)" xlink:href="#es-n"/>
    </g>
  </g>
</svg>
