<svg xmlns="http://www.w3.org/2000/svg" xmlns:xlink="http://www.w3.org/1999/xlink" width="23" height="17" viewBox="0 0 23 17">
  <defs>
    <linearGradient id="fj-c" x1="50%" x2="50%" y1="0%" y2="100%">
      <stop offset="0%" stop-color="#FFF"/>
      <stop offset="100%" stop-color="#F0F0F0"/>
    </linearGradient>
    <rect id="fj-a" width="21" height="15" x="0" y="0" rx="1.5"/>
    <filter id="fj-b" width="116.7%" height="123.3%" x="-8.3%" y="-8.3%" filterUnits="objectBoundingBox">
      <feOffset dy=".5" in="SourceAlpha" result="shadowOffsetOuter1"/>
      <feGaussianBlur in="shadowOffsetOuter1" result="shadowBlurOuter1" stdDeviation=".5"/>
      <feColorMatrix in="shadowBlurOuter1" values="0 0 0 0 0   0 0 0 0 0   0 0 0 0 0  0 0 0 0.16 0"/>
    </filter>
    <linearGradient id="fj-g" x1="50%" x2="50%" y1="0%" y2="100%">
      <stop offset="0%" stop-color="#79CFF6"/>
      <stop offset="100%" stop-color="#68BFE6"/>
    </linearGradient>
    <rect id="fj-f" width="21" height="15" x="0" y="0"/>
    <filter id="fj-e" width="116.7%" height="123.3%" x="-8.3%" y="-8.3%" filterUnits="objectBoundingBox">
      <feOffset dy=".5" in="SourceAlpha" result="shadowOffsetOuter1"/>
      <feGaussianBlur in="shadowOffsetOuter1" result="shadowBlurOuter1" stdDeviation=".5"/>
      <feColorMatrix in="shadowBlurOuter1" values="0 0 0 0 0   0 0 0 0 0   0 0 0 0 0  0 0 0 0.16 0"/>
    </filter>
    <linearGradient id="fj-h" x1="50%" x2="50%" y1="0%" y2="100%">
      <stop offset="0%" stop-color="#042C90"/>
      <stop offset="100%" stop-color="#00247E"/>
    </linearGradient>
    <linearGradient id="fj-k" x1="50%" x2="50%" y1="0%" y2="100%">
      <stop offset="0%" stop-color="#FFF"/>
      <stop offset="100%" stop-color="#F0F0F0"/>
    </linearGradient>
    <path id="fj-i" d="M0,3.5 L0,0 L5,0 L5,3.5 C5,6 2.5,7 2.5,7 C2.5,7 0,6 0,3.5 Z"/>
    <filter id="fj-j" width="110%" height="114.3%" x="-5%" y="-3.6%" filterUnits="objectBoundingBox">
      <feOffset dy=".5" in="SourceAlpha" result="shadowOffsetOuter1"/>
      <feColorMatrix in="shadowOffsetOuter1" values="0 0 0 0 0   0 0 0 0 0   0 0 0 0 0  0 0 0 0.06 0"/>
    </filter>
    <linearGradient id="fj-m" x1="50%" x2="50%" y1="0%" y2="100%">
      <stop offset="0%" stop-color="#EB1D43"/>
      <stop offset="100%" stop-color="#D21034"/>
    </linearGradient>
    <linearGradient id="fj-n" x1="50%" x2="50%" y1="0%" y2="100%">
      <stop offset="0%" stop-color="#DB1E36"/>
      <stop offset="100%" stop-color="#D51931"/>
    </linearGradient>
    <linearGradient id="fj-o" x1="50%" x2="50%" y1="0%" y2="100%">
      <stop offset="0%" stop-color="#FFF"/>
      <stop offset="100%" stop-color="#F0F0F0"/>
    </linearGradient>
    <rect id="fj-q" width="21" height="15" x="0" y="0" rx="1.5"/>
    <filter id="fj-p" width="102.4%" height="103.3%" x="-1.2%" y="-1.7%" filterUnits="objectBoundingBox">
      <feOffset dy="-.5" in="SourceAlpha" result="shadowOffsetInner1"/>
      <feComposite in="shadowOffsetInner1" in2="SourceAlpha" k2="-1" k3="1" operator="arithmetic" result="shadowInnerInner1"/>
      <feColorMatrix in="shadowInnerInner1" result="shadowMatrixInner1" values="0 0 0 0 0   0 0 0 0 0   0 0 0 0 0  0 0 0 0.04 0"/>
      <feOffset dy=".5" in="SourceAlpha" result="shadowOffsetInner2"/>
      <feComposite in="shadowOffsetInner2" in2="SourceAlpha" k2="-1" k3="1" operator="arithmetic" result="shadowInnerInner2"/>
      <feColorMatrix in="shadowInnerInner2" result="shadowMatrixInner2" values="0 0 0 0 1   0 0 0 0 1   0 0 0 0 1  0 0 0 0.12 0"/>
      <feMerge>
        <feMergeNode in="shadowMatrixInner1"/>
        <feMergeNode in="shadowMatrixInner2"/>
      </feMerge>
    </filter>
  </defs>
  <g fill="none" fill-rule="evenodd" transform="translate(1 1)">
    <mask id="fj-d" fill="#fff">
      <use xlink:href="#fj-a"/>
    </mask>
    <use fill="#000" filter="url(#fj-b)" xlink:href="#fj-a"/>
    <use fill="url(#fj-c)" xlink:href="#fj-a"/>
    <g mask="url(#fj-d)">
      <use fill="#000" filter="url(#fj-e)" xlink:href="#fj-f"/>
      <use fill="url(#fj-g)" xlink:href="#fj-f"/>
    </g>
    <rect width="9" height="7" fill="url(#fj-h)" mask="url(#fj-d)"/>
    <g mask="url(#fj-d)">
      <g transform="translate(13 4)">
        <mask id="fj-l" fill="#fff">
          <use xlink:href="#fj-i"/>
        </mask>
        <use fill="#000" filter="url(#fj-j)" xlink:href="#fj-i"/>
        <use fill="url(#fj-k)" xlink:href="#fj-i"/>
        <path fill="#2A915C" d="M1,1.5 C1.27614237,1.5 1.5,1.72385763 1.5,2 C1.5,2.27614237 1.27614237,2.5 1,2.5 C0.723857625,2.5 0.5,2.27614237 0.5,2 C0.5,1.72385763 0.723857625,1.5 1,1.5 Z M4,1.5 C4.27614237,1.5 4.5,1.72385763 4.5,2 C4.5,2.27614237 4.27614237,2.5 4,2.5 C3.72385763,2.5 3.5,2.27614237 3.5,2 C3.5,1.72385763 3.72385763,1.5 4,1.5 Z" mask="url(#fj-l)"/>
        <polygon fill="url(#fj-m)" points="0 0 5 0 5 1 3 1 3 3 5 3 5 4 3 4 3 7 2 7 2 4 0 4 0 3 2 3 2 1 0 1" mask="url(#fj-l)"/>
      </g>
    </g>
    <path fill="url(#fj-n)" stroke="#FFF" stroke-width=".5" d="M0.580116263,-0.25 L-0.675814352,-0.25 L3.25,3.11498373 L3.25,3.87134553 L-0.25,6.37134553 L-0.25,7.45106191 L4.07169906,4.75 L4.92942021,4.75 L11.367513,8.70002745 L5.75,3.88501627 L5.75,3.11498373 L11.6883505,-1.97503094 L4.92830094,2.25 L4.08011626,2.25 L0.580116263,-0.25 Z" mask="url(#fj-d)"/>
    <path fill="url(#fj-o)" d="M0,2.5 L0,4.5 L3.5,4.5 L3.5,7.00461102 C3.5,7.2782068 3.71403503,7.5 4.00468445,7.5 L4.99531555,7.5 C5.27404508,7.5 5.5,7.2842474 5.5,7.00461102 L5.5,4.5 L9.00952148,4.5 C9.28040529,4.5 9.5,4.28596497 9.5,3.99531555 L9.5,3.00468445 C9.5,2.72595492 9.28494263,2.5 9.00952148,2.5 L5.5,2.5 L5.5,0 L3.5,0 L3.5,2.5 L0,2.5 Z" mask="url(#fj-d)"/>
    <polygon fill="url(#fj-n)" points="0 3 4 3 4 2.5 4 0 5 0 5 2.5 5 3 9 3 9 4 5 4 5 4.5 5 7 4 7 4 4.5 4 4 0 4" mask="url(#fj-d)"/>
    <g fill="#000" mask="url(#fj-d)">
      <use filter="url(#fj-p)" xlink:href="#fj-q"/>
    </g>
  </g>
</svg>
