<svg xmlns="http://www.w3.org/2000/svg" xmlns:xlink="http://www.w3.org/1999/xlink" width="23" height="17" viewBox="0 0 23 17">
  <defs>
    <linearGradient id="gb-c" x1="50%" x2="50%" y1="0%" y2="100%">
      <stop offset="0%" stop-color="#FFF"/>
      <stop offset="100%" stop-color="#F0F0F0"/>
    </linearGradient>
    <rect id="gb-a" width="21" height="15" x="0" y="0" rx="1.5"/>
    <filter id="gb-b" width="116.7%" height="123.3%" x="-8.3%" y="-8.3%" filterUnits="objectBoundingBox">
      <feOffset dy=".5" in="SourceAlpha" result="shadowOffsetOuter1"/>
      <feGaussianBlur in="shadowOffsetOuter1" result="shadowBlurOuter1" stdDeviation=".5"/>
      <feColorMatrix in="shadowBlurOuter1" values="0 0 0 0 0   0 0 0 0 0   0 0 0 0 0  0 0 0 0.16 0"/>
    </filter>
    <linearGradient id="gb-d" x1="50%" x2="50%" y1="0%" y2="100%">
      <stop offset="0%" stop-color="#0A17A7"/>
      <stop offset="100%" stop-color="#030E88"/>
    </linearGradient>
    <linearGradient id="gb-h" x1="50%" x2="50%" y1="0%" y2="100%">
      <stop offset="0%" stop-color="#FFF"/>
      <stop offset="100%" stop-color="#F0F0F0"/>
    </linearGradient>
    <path id="gb-g" d="M21.9618519,-1.43733467 L23.0802377,0.220740472 L15.9947623,4.99966533 L21,5 L21,10 L15.9947623,9.99966533 L23.0802377,14.7792595 L21.9618519,16.4373347 L12.9997623,10.3916653 L13,16 L8,16 L7.99976229,10.3916653 L-0.961851899,16.4373347 L-2.08023771,14.7792595 L5.00476229,9.99966533 L4.04121181e-14,10 L4.04121181e-14,5 L5.00476229,4.99966533 L-2.08023771,0.220740472 L-0.961851899,-1.43733467 L7.99976229,4.60766533 L8,-1 L13,-1 L12.9997623,4.60766533 L21.9618519,-1.43733467 Z"/>
    <filter id="gb-f" width="107.5%" height="110.6%" x="-3.8%" y="-5.3%" filterUnits="objectBoundingBox">
      <feMorphology in="SourceAlpha" operator="dilate" radius=".25" result="shadowSpreadOuter1"/>
      <feOffset in="shadowSpreadOuter1" result="shadowOffsetOuter1"/>
      <feColorMatrix in="shadowOffsetOuter1" values="0 0 0 0 0   0 0 0 0 0   0 0 0 0 0  0 0 0 0.06 0"/>
    </filter>
    <linearGradient id="gb-i" x1="50%" x2="50%" y1="0%" y2="100%">
      <stop offset="0%" stop-color="#E6273E"/>
      <stop offset="100%" stop-color="#CF152B"/>
    </linearGradient>
    <rect id="gb-k" width="21" height="15" x="0" y="0" rx="1.5"/>
    <filter id="gb-j" width="102.4%" height="103.3%" x="-1.2%" y="-1.7%" filterUnits="objectBoundingBox">
      <feOffset dy="-.5" in="SourceAlpha" result="shadowOffsetInner1"/>
      <feComposite in="shadowOffsetInner1" in2="SourceAlpha" k2="-1" k3="1" operator="arithmetic" result="shadowInnerInner1"/>
      <feColorMatrix in="shadowInnerInner1" result="shadowMatrixInner1" values="0 0 0 0 0   0 0 0 0 0   0 0 0 0 0  0 0 0 0.04 0"/>
      <feOffset dy=".5" in="SourceAlpha" result="shadowOffsetInner2"/>
      <feComposite in="shadowOffsetInner2" in2="SourceAlpha" k2="-1" k3="1" operator="arithmetic" result="shadowInnerInner2"/>
      <feColorMatrix in="shadowInnerInner2" result="shadowMatrixInner2" values="0 0 0 0 1   0 0 0 0 1   0 0 0 0 1  0 0 0 0.12 0"/>
      <feMerge>
        <feMergeNode in="shadowMatrixInner1"/>
        <feMergeNode in="shadowMatrixInner2"/>
      </feMerge>
    </filter>
  </defs>
  <g fill="none" fill-rule="evenodd" transform="translate(1 1)">
    <mask id="gb-e" fill="#fff">
      <use xlink:href="#gb-a"/>
    </mask>
    <use fill="#000" filter="url(#gb-b)" xlink:href="#gb-a"/>
    <use fill="url(#gb-c)" xlink:href="#gb-a"/>
    <rect width="21" height="15" fill="url(#gb-d)" mask="url(#gb-e)"/>
    <g mask="url(#gb-e)">
      <use fill="#000" filter="url(#gb-f)" xlink:href="#gb-g"/>
      <use fill="url(#gb-h)" xlink:href="#gb-g"/>
    </g>
    <line x1="14.001" x2="23.5" y1="4.749" y2="-1.5" stroke="#DB1F35" stroke-linecap="round" stroke-width=".5" mask="url(#gb-e)"/>
    <line x1="15.01" x2="23.525" y1="16.013" y2="10.273" stroke="#DB1F35" stroke-linecap="round" stroke-width=".5" mask="url(#gb-e)" transform="matrix(1 0 0 -1 0 26.286)"/>
    <line x1="6.004" x2="-2.878" y1="4.733" y2="-1.253" stroke="#DB1F35" stroke-linecap="round" stroke-width=".5" mask="url(#gb-e)"/>
    <line x1="6.968" x2="-2.878" y1="16.733" y2="10.204" stroke="#DB1F35" stroke-linecap="round" stroke-width=".5" mask="url(#gb-e)" transform="matrix(1 0 0 -1 0 26.937)"/>
    <polygon fill="url(#gb-i)" points="0 9 9 9 9 15 12 15 12 9 21 9 21 6 12 6 12 0 9 0 9 6 0 6" mask="url(#gb-e)"/>
    <use fill="#000" filter="url(#gb-j)" xlink:href="#gb-k"/>
  </g>
</svg>
