<svg xmlns="http://www.w3.org/2000/svg" xmlns:xlink="http://www.w3.org/1999/xlink" width="23" height="17" viewBox="0 0 23 17">
  <defs>
    <linearGradient id="ge-c" x1="50%" x2="50%" y1="0%" y2="100%">
      <stop offset="0%" stop-color="#FFF"/>
      <stop offset="100%" stop-color="#F0F0F0"/>
    </linearGradient>
    <rect id="ge-a" width="21" height="15" x="0" y="0" rx="1.5"/>
    <filter id="ge-b" width="116.7%" height="123.3%" x="-8.3%" y="-8.3%" filterUnits="objectBoundingBox">
      <feOffset dy=".5" in="SourceAlpha" result="shadowOffsetOuter1"/>
      <feGaussianBlur in="shadowOffsetOuter1" result="shadowBlurOuter1" stdDeviation=".5"/>
      <feColorMatrix in="shadowBlurOuter1" values="0 0 0 0 0   0 0 0 0 0   0 0 0 0 0  0 0 0 0.16 0"/>
    </filter>
    <linearGradient id="ge-e" x1="50%" x2="50%" y1="0%" y2="100%">
      <stop offset="0%" stop-color="#FF2B37"/>
      <stop offset="100%" stop-color="#FD0D1B"/>
    </linearGradient>
    <path id="ge-f" d="M12,-1 L12,6 L22,6 L22,9 L12,9 L12,16 L9,16 L9,9 L-1,9 L-1,6 L9,6 L9,-1 L12,-1 Z"/>
    <filter id="ge-g" width="102.2%" height="102.9%" x="-1.1%" y="-1.5%" filterUnits="objectBoundingBox">
      <feMorphology in="SourceAlpha" radius=".5" result="shadowSpreadInner1"/>
      <feOffset in="shadowSpreadInner1" result="shadowOffsetInner1"/>
      <feComposite in="shadowOffsetInner1" in2="SourceAlpha" k2="-1" k3="1" operator="arithmetic" result="shadowInnerInner1"/>
      <feColorMatrix in="shadowInnerInner1" values="0 0 0 0 0   0 0 0 0 0   0 0 0 0 0  0 0 0 0.06 0"/>
    </filter>
    <rect id="ge-i" width="21" height="15" x="0" y="0" rx="1.5"/>
    <filter id="ge-h" width="102.4%" height="103.3%" x="-1.2%" y="-1.7%" filterUnits="objectBoundingBox">
      <feOffset dy="-.5" in="SourceAlpha" result="shadowOffsetInner1"/>
      <feComposite in="shadowOffsetInner1" in2="SourceAlpha" k2="-1" k3="1" operator="arithmetic" result="shadowInnerInner1"/>
      <feColorMatrix in="shadowInnerInner1" result="shadowMatrixInner1" values="0 0 0 0 0   0 0 0 0 0   0 0 0 0 0  0 0 0 0.04 0"/>
      <feOffset dy=".5" in="SourceAlpha" result="shadowOffsetInner2"/>
      <feComposite in="shadowOffsetInner2" in2="SourceAlpha" k2="-1" k3="1" operator="arithmetic" result="shadowInnerInner2"/>
      <feColorMatrix in="shadowInnerInner2" result="shadowMatrixInner2" values="0 0 0 0 1   0 0 0 0 1   0 0 0 0 1  0 0 0 0.12 0"/>
      <feMerge>
        <feMergeNode in="shadowMatrixInner1"/>
        <feMergeNode in="shadowMatrixInner2"/>
      </feMerge>
    </filter>
  </defs>
  <g fill="none" fill-rule="evenodd" transform="translate(1 1)">
    <mask id="ge-d" fill="#fff">
      <use xlink:href="#ge-a"/>
    </mask>
    <use fill="#000" filter="url(#ge-b)" xlink:href="#ge-a"/>
    <use fill="url(#ge-c)" xlink:href="#ge-a"/>
    <g mask="url(#ge-d)">
      <use fill="url(#ge-e)" xlink:href="#ge-f"/>
      <use fill="#000" filter="url(#ge-g)" xlink:href="#ge-f"/>
    </g>
    <path fill="#FD0D1B" d="M17 1.5L16.8 2.7 18 2.5 18 3.5 16.8 3.3 17 4.5 16 4.5 16.2 3.3 15 3.5 15 2.5 16.2 2.7 16 1.5 17 1.5zM5 1.5L4.8 2.7 6 2.5 6 3.5 4.8 3.3 5 4.5 4 4.5 4.2 3.3 3 3.5 3 2.5 4.2 2.7 4 1.5 5 1.5zM5 10.5L4.8 11.7 6 11.5 6 12.5 4.8 12.3 5 13.5 4 13.5 4.2 12.3 3 12.5 3 11.5 4.2 11.7 4 10.5 5 10.5zM17 10.5L16.8 11.7 18 11.5 18 12.5 16.8 12.3 17 13.5 16 13.5 16.2 12.3 15 12.5 15 11.5 16.2 11.7 16 10.5 17 10.5z" mask="url(#ge-d)"/>
    <g fill="#000" mask="url(#ge-d)">
      <use filter="url(#ge-h)" xlink:href="#ge-i"/>
    </g>
  </g>
</svg>
