<svg xmlns="http://www.w3.org/2000/svg" xmlns:xlink="http://www.w3.org/1999/xlink" width="23" height="17" viewBox="0 0 23 17">
  <defs>
    <linearGradient id="hn-c" x1="50%" x2="50%" y1="0%" y2="100%">
      <stop offset="0%" stop-color="#FFF"/>
      <stop offset="100%" stop-color="#F0F0F0"/>
    </linearGradient>
    <rect id="hn-a" width="21" height="15" x="0" y="0" rx="1.5"/>
    <filter id="hn-b" width="116.7%" height="123.3%" x="-8.3%" y="-8.3%" filterUnits="objectBoundingBox">
      <feOffset dy=".5" in="SourceAlpha" result="shadowOffsetOuter1"/>
      <feGaussianBlur in="shadowOffsetOuter1" result="shadowBlurOuter1" stdDeviation=".5"/>
      <feColorMatrix in="shadowBlurOuter1" values="0 0 0 0 0   0 0 0 0 0   0 0 0 0 0  0 0 0 0.16 0"/>
    </filter>
    <linearGradient id="hn-g" x1="50%" x2="50%" y1="0%" y2="100%">
      <stop offset="0%" stop-color="#0884E6"/>
      <stop offset="100%" stop-color="#0074D0"/>
    </linearGradient>
    <rect id="hn-f" width="21" height="5" x="0" y="0"/>
    <filter id="hn-e" width="107.1%" height="130%" x="-3.6%" y="-15%" filterUnits="objectBoundingBox">
      <feMorphology in="SourceAlpha" operator="dilate" radius=".25" result="shadowSpreadOuter1"/>
      <feOffset in="shadowSpreadOuter1" result="shadowOffsetOuter1"/>
      <feColorMatrix in="shadowOffsetOuter1" values="0 0 0 0 0   0 0 0 0 0   0 0 0 0 0  0 0 0 0.06 0"/>
    </filter>
    <rect id="hn-i" width="21" height="5" x="0" y="10"/>
    <filter id="hn-h" width="107.1%" height="130%" x="-3.6%" y="-15%" filterUnits="objectBoundingBox">
      <feMorphology in="SourceAlpha" operator="dilate" radius=".25" result="shadowSpreadOuter1"/>
      <feOffset in="shadowSpreadOuter1" result="shadowOffsetOuter1"/>
      <feColorMatrix in="shadowOffsetOuter1" values="0 0 0 0 0   0 0 0 0 0   0 0 0 0 0  0 0 0 0.06 0"/>
    </filter>
    <linearGradient id="hn-l" x1="50%" x2="50%" y1="0%" y2="100%">
      <stop offset="0%" stop-color="#FFF"/>
      <stop offset="100%" stop-color="#F0F0F0"/>
    </linearGradient>
    <rect id="hn-k" width="21" height="5" x="0" y="5"/>
    <filter id="hn-j" width="107.1%" height="130%" x="-3.6%" y="-15%" filterUnits="objectBoundingBox">
      <feMorphology in="SourceAlpha" operator="dilate" radius=".25" result="shadowSpreadOuter1"/>
      <feOffset in="shadowSpreadOuter1" result="shadowOffsetOuter1"/>
      <feColorMatrix in="shadowOffsetOuter1" values="0 0 0 0 0   0 0 0 0 0   0 0 0 0 0  0 0 0 0.06 0"/>
    </filter>
    <linearGradient id="hn-m" x1="50%" x2="50%" y1="0%" y2="100%">
      <stop offset="0%" stop-color="#0E88E9"/>
      <stop offset="100%" stop-color="#0074D0"/>
    </linearGradient>
    <rect id="hn-o" width="21" height="15" x="0" y="0" rx="1.5"/>
    <filter id="hn-n" width="102.4%" height="103.3%" x="-1.2%" y="-1.7%" filterUnits="objectBoundingBox">
      <feOffset dy="-.5" in="SourceAlpha" result="shadowOffsetInner1"/>
      <feComposite in="shadowOffsetInner1" in2="SourceAlpha" k2="-1" k3="1" operator="arithmetic" result="shadowInnerInner1"/>
      <feColorMatrix in="shadowInnerInner1" result="shadowMatrixInner1" values="0 0 0 0 0   0 0 0 0 0   0 0 0 0 0  0 0 0 0.04 0"/>
      <feOffset dy=".5" in="SourceAlpha" result="shadowOffsetInner2"/>
      <feComposite in="shadowOffsetInner2" in2="SourceAlpha" k2="-1" k3="1" operator="arithmetic" result="shadowInnerInner2"/>
      <feColorMatrix in="shadowInnerInner2" result="shadowMatrixInner2" values="0 0 0 0 1   0 0 0 0 1   0 0 0 0 1  0 0 0 0.12 0"/>
      <feMerge>
        <feMergeNode in="shadowMatrixInner1"/>
        <feMergeNode in="shadowMatrixInner2"/>
      </feMerge>
    </filter>
  </defs>
  <g fill="none" fill-rule="evenodd" transform="translate(1 1)">
    <mask id="hn-d" fill="#fff">
      <use xlink:href="#hn-a"/>
    </mask>
    <use fill="#000" filter="url(#hn-b)" xlink:href="#hn-a"/>
    <use fill="url(#hn-c)" xlink:href="#hn-a"/>
    <g mask="url(#hn-d)">
      <use fill="#000" filter="url(#hn-e)" xlink:href="#hn-f"/>
      <use fill="url(#hn-g)" xlink:href="#hn-f"/>
    </g>
    <g mask="url(#hn-d)">
      <use fill="#000" filter="url(#hn-h)" xlink:href="#hn-i"/>
      <use fill="url(#hn-g)" xlink:href="#hn-i"/>
    </g>
    <g mask="url(#hn-d)">
      <use fill="#000" filter="url(#hn-j)" xlink:href="#hn-k"/>
      <use fill="url(#hn-l)" xlink:href="#hn-k"/>
    </g>
    <polygon fill="url(#hn-m)" points="10.5 8 9.793 8.207 10 7.5 9.793 6.793 10.5 7 11.207 6.793 11 7.5 11.207 8.207" mask="url(#hn-d)"/>
    <polygon fill="url(#hn-m)" points="14.5 7 13.793 7.207 14 6.5 13.793 5.793 14.5 6 15.207 5.793 15 6.5 15.207 7.207" mask="url(#hn-d)"/>
    <polygon fill="url(#hn-m)" points="14.5 9 13.793 9.207 14 8.5 13.793 7.793 14.5 8 15.207 7.793 15 8.5 15.207 9.207" mask="url(#hn-d)"/>
    <polygon fill="url(#hn-m)" points="6.5 9 5.793 9.207 6 8.5 5.793 7.793 6.5 8 7.207 7.793 7 8.5 7.207 9.207" mask="url(#hn-d)"/>
    <polygon fill="url(#hn-m)" points="6.5 7 5.793 7.207 6 6.5 5.793 5.793 6.5 6 7.207 5.793 7 6.5 7.207 7.207" mask="url(#hn-d)"/>
    <g fill="#000" mask="url(#hn-d)">
      <use filter="url(#hn-n)" xlink:href="#hn-o"/>
    </g>
  </g>
</svg>
