<svg xmlns="http://www.w3.org/2000/svg" xmlns:xlink="http://www.w3.org/1999/xlink" width="23" height="17" viewBox="0 0 23 17">
  <defs>
    <linearGradient id="hr-c" x1="50%" x2="50%" y1="0%" y2="100%">
      <stop offset="0%" stop-color="#FFF"/>
      <stop offset="100%" stop-color="#F0F0F0"/>
    </linearGradient>
    <rect id="hr-a" width="21" height="15" x="0" y="0" rx="1.5"/>
    <filter id="hr-b" width="116.7%" height="123.3%" x="-8.3%" y="-8.3%" filterUnits="objectBoundingBox">
      <feOffset dy=".5" in="SourceAlpha" result="shadowOffsetOuter1"/>
      <feGaussianBlur in="shadowOffsetOuter1" result="shadowBlurOuter1" stdDeviation=".5"/>
      <feColorMatrix in="shadowBlurOuter1" values="0 0 0 0 0   0 0 0 0 0   0 0 0 0 0  0 0 0 0.16 0"/>
    </filter>
    <linearGradient id="hr-g" x1="50%" x2="50%" y1="0%" y2="100%">
      <stop offset="0%" stop-color="#FF202D"/>
      <stop offset="100%" stop-color="#FD0D1B"/>
    </linearGradient>
    <rect id="hr-f" width="21" height="5" x="0" y="0"/>
    <filter id="hr-e" width="107.1%" height="130%" x="-3.6%" y="-15%" filterUnits="objectBoundingBox">
      <feMorphology in="SourceAlpha" operator="dilate" radius=".25" result="shadowSpreadOuter1"/>
      <feOffset in="shadowSpreadOuter1" result="shadowOffsetOuter1"/>
      <feColorMatrix in="shadowOffsetOuter1" values="0 0 0 0 0   0 0 0 0 0   0 0 0 0 0  0 0 0 0.06 0"/>
    </filter>
    <linearGradient id="hr-j" x1="50%" x2="50%" y1="0%" y2="100%">
      <stop offset="0%" stop-color="#2027AC"/>
      <stop offset="100%" stop-color="#191F94"/>
    </linearGradient>
    <rect id="hr-i" width="21" height="5" x="0" y="10"/>
    <filter id="hr-h" width="107.1%" height="130%" x="-3.6%" y="-15%" filterUnits="objectBoundingBox">
      <feMorphology in="SourceAlpha" operator="dilate" radius=".25" result="shadowSpreadOuter1"/>
      <feOffset in="shadowSpreadOuter1" result="shadowOffsetOuter1"/>
      <feColorMatrix in="shadowOffsetOuter1" values="0 0 0 0 0   0 0 0 0 0   0 0 0 0 0  0 0 0 0.06 0"/>
    </filter>
    <linearGradient id="hr-m" x1="50%" x2="50%" y1="0%" y2="100%">
      <stop offset="0%" stop-color="#FFF"/>
      <stop offset="100%" stop-color="#F0F0F0"/>
    </linearGradient>
    <path id="hr-l" d="M9,11 C8.72385763,11 8.40359497,10.8071899 8.27340698,10.546814 L8,10 L0,10 L0,5 L21,5 L21,10 L13,10 L12.726593,10.546814 C12.6170921,10.7658157 12.3522472,10.948535 12.1045856,10.9907929 L12,11 L12,10 L11,10 L11,11 L10,11 L10,10 L9,10 L9,11 Z"/>
    <filter id="hr-k" width="107.1%" height="136.8%" x="-3.6%" y="-12.5%" filterUnits="objectBoundingBox">
      <feMorphology in="SourceAlpha" operator="dilate" radius=".25" result="shadowSpreadOuter1"/>
      <feOffset in="shadowSpreadOuter1" result="shadowOffsetOuter1"/>
      <feColorMatrix in="shadowOffsetOuter1" values="0 0 0 0 0   0 0 0 0 0   0 0 0 0 0  0 0 0 0.06 0"/>
    </filter>
    <linearGradient id="hr-n" x1="50%" x2="50%" y1="0%" y2="100%">
      <stop offset="0%" stop-color="#FF212E"/>
      <stop offset="100%" stop-color="#FD0D1B"/>
    </linearGradient>
    <rect id="hr-p" width="21" height="15" x="0" y="0" rx="1.5"/>
    <filter id="hr-o" width="102.4%" height="103.3%" x="-1.2%" y="-1.7%" filterUnits="objectBoundingBox">
      <feOffset dy="-.5" in="SourceAlpha" result="shadowOffsetInner1"/>
      <feComposite in="shadowOffsetInner1" in2="SourceAlpha" k2="-1" k3="1" operator="arithmetic" result="shadowInnerInner1"/>
      <feColorMatrix in="shadowInnerInner1" result="shadowMatrixInner1" values="0 0 0 0 0   0 0 0 0 0   0 0 0 0 0  0 0 0 0.04 0"/>
      <feOffset dy=".5" in="SourceAlpha" result="shadowOffsetInner2"/>
      <feComposite in="shadowOffsetInner2" in2="SourceAlpha" k2="-1" k3="1" operator="arithmetic" result="shadowInnerInner2"/>
      <feColorMatrix in="shadowInnerInner2" result="shadowMatrixInner2" values="0 0 0 0 1   0 0 0 0 1   0 0 0 0 1  0 0 0 0.12 0"/>
      <feMerge>
        <feMergeNode in="shadowMatrixInner1"/>
        <feMergeNode in="shadowMatrixInner2"/>
      </feMerge>
    </filter>
  </defs>
  <g fill="none" fill-rule="evenodd" transform="translate(1 1)">
    <mask id="hr-d" fill="#fff">
      <use xlink:href="#hr-a"/>
    </mask>
    <use fill="#000" filter="url(#hr-b)" xlink:href="#hr-a"/>
    <use fill="url(#hr-c)" xlink:href="#hr-a"/>
    <g mask="url(#hr-d)">
      <use fill="#000" filter="url(#hr-e)" xlink:href="#hr-f"/>
      <use fill="url(#hr-g)" xlink:href="#hr-f"/>
    </g>
    <path fill="#1895DB" d="M8.5,3.5 L9,4 L9,5 L8,5 L8,4 L8.5,3.5 Z M10.5,3.5 L11,4 L11,5 L10,5 L10,4 L10.5,3.5 Z M12.5,3.5 L13,4 L13,5 L12,5 L12,4 L12.5,3.5 Z" mask="url(#hr-d)" opacity=".5"/>
    <path fill="#191F94" d="M9.5,3.5 L10,4 L10,5 L9,5 L9,4 L9.5,3.5 Z M11.5,3.5 L12,4 L12,5 L11,5 L11,4 L11.5,3.5 Z" mask="url(#hr-d)" opacity=".5"/>
    <g mask="url(#hr-d)">
      <use fill="#000" filter="url(#hr-h)" xlink:href="#hr-i"/>
      <use fill="url(#hr-j)" xlink:href="#hr-i"/>
    </g>
    <g mask="url(#hr-d)">
      <use fill="#000" filter="url(#hr-k)" xlink:href="#hr-l"/>
      <use fill="url(#hr-m)" xlink:href="#hr-l"/>
    </g>
    <path fill="url(#hr-n)" d="M12,10 L12,11 L11,11 L11,10 L12,10 Z M10,10 L10,11 L9,11 L9,10 L10,10 Z M9,9 L9,10 L8,10 L8,9 L9,9 Z M11,9 L11,10 L10,10 L10,9 L11,9 Z M13,9 L13,10 L12,10 L12,9 L13,9 Z M12,8 L12,9 L11,9 L11,8 L12,8 Z M10,8 L10,9 L9,9 L9,8 L10,8 Z M11,7 L11,8 L10,8 L10,7 L11,7 Z M13,7 L13,8 L12,8 L12,7 L13,7 Z M9,7 L9,8 L8,8 L8,7 L9,7 Z M10,6 L10,7 L9,7 L9,6 L10,6 Z M12,6 L12,7 L11,7 L11,6 L12,6 Z M11,5 L11,6 L10,6 L10,5 L11,5 Z M12.5,5 L13,6 L12,6 L12,5 L12.5,5 Z M9,5 L9,6 L8,6 L8.5,5 L9,5 Z" mask="url(#hr-d)"/>
    <g fill="#000" mask="url(#hr-d)">
      <use filter="url(#hr-o)" xlink:href="#hr-p"/>
    </g>
  </g>
</svg>
