<svg xmlns="http://www.w3.org/2000/svg" xmlns:xlink="http://www.w3.org/1999/xlink" width="23" height="17" viewBox="0 0 23 17">
  <defs>
    <linearGradient id="iq-c" x1="50%" x2="50%" y1="0%" y2="100%">
      <stop offset="0%" stop-color="#FFF"/>
      <stop offset="100%" stop-color="#F0F0F0"/>
    </linearGradient>
    <rect id="iq-a" width="21" height="15" x="0" y="0" rx="1.5"/>
    <filter id="iq-b" width="116.7%" height="123.3%" x="-8.3%" y="-8.3%" filterUnits="objectBoundingBox">
      <feOffset dy=".5" in="SourceAlpha" result="shadowOffsetOuter1"/>
      <feGaussianBlur in="shadowOffsetOuter1" result="shadowBlurOuter1" stdDeviation=".5"/>
      <feColorMatrix in="shadowBlurOuter1" values="0 0 0 0 0   0 0 0 0 0   0 0 0 0 0  0 0 0 0.16 0"/>
    </filter>
    <linearGradient id="iq-g" x1="50%" x2="50%" y1="0%" y2="100%">
      <stop offset="0%" stop-color="#DF1E35"/>
      <stop offset="100%" stop-color="#CC162C"/>
    </linearGradient>
    <rect id="iq-f" width="21" height="5" x="0" y="0"/>
    <filter id="iq-e" width="107.1%" height="130%" x="-3.6%" y="-15%" filterUnits="objectBoundingBox">
      <feMorphology in="SourceAlpha" operator="dilate" radius=".25" result="shadowSpreadOuter1"/>
      <feOffset in="shadowSpreadOuter1" result="shadowOffsetOuter1"/>
      <feColorMatrix in="shadowOffsetOuter1" values="0 0 0 0 0   0 0 0 0 0   0 0 0 0 0  0 0 0 0.06 0"/>
    </filter>
    <linearGradient id="iq-j" x1="50%" x2="50%" y1="0%" y2="100%">
      <stop offset="0%" stop-color="#262626"/>
      <stop offset="100%" stop-color="#0D0D0D"/>
    </linearGradient>
    <rect id="iq-i" width="21" height="5" x="0" y="10"/>
    <filter id="iq-h" width="107.1%" height="130%" x="-3.6%" y="-15%" filterUnits="objectBoundingBox">
      <feMorphology in="SourceAlpha" operator="dilate" radius=".25" result="shadowSpreadOuter1"/>
      <feOffset in="shadowSpreadOuter1" result="shadowOffsetOuter1"/>
      <feColorMatrix in="shadowOffsetOuter1" values="0 0 0 0 0   0 0 0 0 0   0 0 0 0 0  0 0 0 0.06 0"/>
    </filter>
    <linearGradient id="iq-m" x1="50%" x2="50%" y1="0%" y2="100%">
      <stop offset="0%" stop-color="#FFF"/>
      <stop offset="100%" stop-color="#F0F0F0"/>
    </linearGradient>
    <rect id="iq-l" width="21" height="5" x="0" y="5"/>
    <filter id="iq-k" width="107.1%" height="130%" x="-3.6%" y="-15%" filterUnits="objectBoundingBox">
      <feMorphology in="SourceAlpha" operator="dilate" radius=".25" result="shadowSpreadOuter1"/>
      <feOffset in="shadowSpreadOuter1" result="shadowOffsetOuter1"/>
      <feColorMatrix in="shadowOffsetOuter1" values="0 0 0 0 0   0 0 0 0 0   0 0 0 0 0  0 0 0 0.06 0"/>
    </filter>
    <rect id="iq-o" width="21" height="15" x="0" y="0" rx="1.5"/>
    <filter id="iq-n" width="102.4%" height="103.3%" x="-1.2%" y="-1.7%" filterUnits="objectBoundingBox">
      <feOffset dy="-.5" in="SourceAlpha" result="shadowOffsetInner1"/>
      <feComposite in="shadowOffsetInner1" in2="SourceAlpha" k2="-1" k3="1" operator="arithmetic" result="shadowInnerInner1"/>
      <feColorMatrix in="shadowInnerInner1" result="shadowMatrixInner1" values="0 0 0 0 0   0 0 0 0 0   0 0 0 0 0  0 0 0 0.04 0"/>
      <feOffset dy=".5" in="SourceAlpha" result="shadowOffsetInner2"/>
      <feComposite in="shadowOffsetInner2" in2="SourceAlpha" k2="-1" k3="1" operator="arithmetic" result="shadowInnerInner2"/>
      <feColorMatrix in="shadowInnerInner2" result="shadowMatrixInner2" values="0 0 0 0 1   0 0 0 0 1   0 0 0 0 1  0 0 0 0.12 0"/>
      <feMerge>
        <feMergeNode in="shadowMatrixInner1"/>
        <feMergeNode in="shadowMatrixInner2"/>
      </feMerge>
    </filter>
  </defs>
  <g fill="none" fill-rule="evenodd" transform="translate(1 1)">
    <mask id="iq-d" fill="#fff">
      <use xlink:href="#iq-a"/>
    </mask>
    <use fill="#000" filter="url(#iq-b)" xlink:href="#iq-a"/>
    <use fill="url(#iq-c)" xlink:href="#iq-a"/>
    <g mask="url(#iq-d)">
      <use fill="#000" filter="url(#iq-e)" xlink:href="#iq-f"/>
      <use fill="url(#iq-g)" xlink:href="#iq-f"/>
    </g>
    <g mask="url(#iq-d)">
      <use fill="#000" filter="url(#iq-h)" xlink:href="#iq-i"/>
      <use fill="url(#iq-j)" xlink:href="#iq-i"/>
    </g>
    <g mask="url(#iq-d)">
      <use fill="#000" filter="url(#iq-k)" xlink:href="#iq-l"/>
      <use fill="url(#iq-m)" xlink:href="#iq-l"/>
    </g>
    <path fill="#0F7A40" d="M14 6.25577831C14 6.11451585 14.0922852 6.04614258 14.2319336 6.1159668L14.7680664 6.3840332C14.8961598 6.4480799 15 6.60742188 15 6.74884939L15 8.75115061C15 8.88858633 14.8929825 9 14.7476578 9L14.2523422 9C14.1129775 9 14 8.88605976 14 8.74422169L14 6.25577831zM8 6.25577831C8 6.11451585 8.09228516 6.04614258 8.23193359 6.1159668L8.76806641 6.3840332C8.89615979 6.4480799 9 6.60742188 9 6.74884939L9 8.75115061C9 8.88858633 8.89298248 9 8.74765778 9L8.25234222 9C8.11297746 9 8 8.88605976 8 8.74422169L8 6.25577831zM12 6.74884939C12 6.61141367 12.0922852 6.45385742 12.2319336 6.3840332L12.7680664 6.1159668C12.8961598 6.0519201 13 6.11394024 13 6.25577831L13 8.74422169C13 8.88548415 12.8929825 9 12.7476578 9L12.2523422 9C12.1129775 9 12 8.89257812 12 8.75115061L12 6.74884939z" mask="url(#iq-d)"/>
    <path fill="#0F7A40" d="M10 7.74769449C10 7.6108966 10.0922852 7.45385742 10.2319336 7.3840332L10.7680664 7.1159668C10.8961598 7.0519201 11 7.11181023 11 7.2423206L11 8.04478441 12.5 8.0447844 12.5 8.99999997 11.2476945 9C11.1108966 9 10.8929825 9 10.7476578 9L10.2523422 9C10.1129775 9 10 8.88229752 10 8.75230551L10 7.74769449zM6 7.74769449C6 7.6108966 6.09228516 7.45385742 6.23193359 7.3840332L6.76806641 7.1159668C6.89615979 7.0519201 7 7.11181023 7 7.2423206L7 8.04478441 8.5 8.0447844 8.5 8.99999997 7.24769449 9C7.1108966 9 6.89298248 9 6.74765778 9L6.25234222 9C6.11297746 9 6 8.88229752 6 8.75230551L6 7.74769449z" mask="url(#iq-d)"/>
    <g fill="#000" mask="url(#iq-d)">
      <use filter="url(#iq-n)" xlink:href="#iq-o"/>
    </g>
  </g>
</svg>
