<svg xmlns="http://www.w3.org/2000/svg" xmlns:xlink="http://www.w3.org/1999/xlink" width="23" height="17" viewBox="0 0 23 17">
  <defs>
    <linearGradient id="ir-c" x1="50%" x2="50%" y1="0%" y2="100%">
      <stop offset="0%" stop-color="#FFF"/>
      <stop offset="100%" stop-color="#F0F0F0"/>
    </linearGradient>
    <rect id="ir-a" width="21" height="15" x="0" y="0" rx="1.5"/>
    <filter id="ir-b" width="116.7%" height="123.3%" x="-8.3%" y="-8.3%" filterUnits="objectBoundingBox">
      <feOffset dy=".5" in="SourceAlpha" result="shadowOffsetOuter1"/>
      <feGaussianBlur in="shadowOffsetOuter1" result="shadowBlurOuter1" stdDeviation=".5"/>
      <feColorMatrix in="shadowBlurOuter1" values="0 0 0 0 0   0 0 0 0 0   0 0 0 0 0  0 0 0 0.16 0"/>
    </filter>
    <linearGradient id="ir-g" x1="50%" x2="50%" y1="0%" y2="100%">
      <stop offset="0%" stop-color="#38BB56"/>
      <stop offset="100%" stop-color="#2B9F45"/>
    </linearGradient>
    <rect id="ir-f" width="21" height="5" x="0" y="0"/>
    <filter id="ir-e" width="107.1%" height="130%" x="-3.6%" y="-15%" filterUnits="objectBoundingBox">
      <feMorphology in="SourceAlpha" operator="dilate" radius=".25" result="shadowSpreadOuter1"/>
      <feOffset in="shadowSpreadOuter1" result="shadowOffsetOuter1"/>
      <feColorMatrix in="shadowOffsetOuter1" values="0 0 0 0 0   0 0 0 0 0   0 0 0 0 0  0 0 0 0.06 0"/>
    </filter>
    <linearGradient id="ir-j" x1="50%" x2="50%" y1="0%" y2="100%">
      <stop offset="0%" stop-color="#DE1B27"/>
      <stop offset="100%" stop-color="#D80915"/>
    </linearGradient>
    <rect id="ir-i" width="21" height="5" x="0" y="10"/>
    <filter id="ir-h" width="107.1%" height="130%" x="-3.6%" y="-15%" filterUnits="objectBoundingBox">
      <feMorphology in="SourceAlpha" operator="dilate" radius=".25" result="shadowSpreadOuter1"/>
      <feOffset in="shadowSpreadOuter1" result="shadowOffsetOuter1"/>
      <feColorMatrix in="shadowOffsetOuter1" values="0 0 0 0 0   0 0 0 0 0   0 0 0 0 0  0 0 0 0.06 0"/>
    </filter>
    <linearGradient id="ir-m" x1="50%" x2="50%" y1="0%" y2="100%">
      <stop offset="0%" stop-color="#FFF"/>
      <stop offset="100%" stop-color="#F0F0F0"/>
    </linearGradient>
    <rect id="ir-l" width="21" height="5" x="0" y="5"/>
    <filter id="ir-k" width="107.1%" height="130%" x="-3.6%" y="-15%" filterUnits="objectBoundingBox">
      <feMorphology in="SourceAlpha" operator="dilate" radius=".25" result="shadowSpreadOuter1"/>
      <feOffset in="shadowSpreadOuter1" result="shadowOffsetOuter1"/>
      <feColorMatrix in="shadowOffsetOuter1" values="0 0 0 0 0   0 0 0 0 0   0 0 0 0 0  0 0 0 0.06 0"/>
    </filter>
    <rect id="ir-o" width="21" height="15" x="0" y="0" rx="1.5"/>
    <filter id="ir-n" width="102.4%" height="103.3%" x="-1.2%" y="-1.7%" filterUnits="objectBoundingBox">
      <feOffset dy="-.5" in="SourceAlpha" result="shadowOffsetInner1"/>
      <feComposite in="shadowOffsetInner1" in2="SourceAlpha" k2="-1" k3="1" operator="arithmetic" result="shadowInnerInner1"/>
      <feColorMatrix in="shadowInnerInner1" result="shadowMatrixInner1" values="0 0 0 0 0   0 0 0 0 0   0 0 0 0 0  0 0 0 0.04 0"/>
      <feOffset dy=".5" in="SourceAlpha" result="shadowOffsetInner2"/>
      <feComposite in="shadowOffsetInner2" in2="SourceAlpha" k2="-1" k3="1" operator="arithmetic" result="shadowInnerInner2"/>
      <feColorMatrix in="shadowInnerInner2" result="shadowMatrixInner2" values="0 0 0 0 1   0 0 0 0 1   0 0 0 0 1  0 0 0 0.12 0"/>
      <feMerge>
        <feMergeNode in="shadowMatrixInner1"/>
        <feMergeNode in="shadowMatrixInner2"/>
      </feMerge>
    </filter>
  </defs>
  <g fill="none" fill-rule="evenodd" transform="translate(1 1)">
    <mask id="ir-d" fill="#fff">
      <use xlink:href="#ir-a"/>
    </mask>
    <use fill="#000" filter="url(#ir-b)" xlink:href="#ir-a"/>
    <use fill="url(#ir-c)" xlink:href="#ir-a"/>
    <g mask="url(#ir-d)">
      <use fill="#000" filter="url(#ir-e)" xlink:href="#ir-f"/>
      <use fill="url(#ir-g)" xlink:href="#ir-f"/>
    </g>
    <g mask="url(#ir-d)">
      <use fill="#000" filter="url(#ir-h)" xlink:href="#ir-i"/>
      <use fill="url(#ir-j)" xlink:href="#ir-i"/>
    </g>
    <g mask="url(#ir-d)">
      <use fill="#000" filter="url(#ir-k)" xlink:href="#ir-l"/>
      <use fill="url(#ir-m)" xlink:href="#ir-l"/>
    </g>
    <path fill="#FFF" fill-opacity=".5" d="M1.74765778,10 C1.88702254,10 2,10.1070175 2,10.2523422 L2,10.7476578 C2,10.8870225 1.89298248,11 1.74765778,11 L1.25234222,11 C1.11297746,11 1,10.8929825 1,10.7476578 L1,10.2523422 C1,10.1129775 1.10701752,10 1.25234222,10 L1.74765778,10 Z M3.74765778,10 C3.88702254,10 4,10.1070175 4,10.2523422 L4,10.7476578 C4,10.8870225 3.89298248,11 3.74765778,11 L3.25234222,11 C3.11297746,11 3,10.8929825 3,10.7476578 L3,10.2523422 C3,10.1129775 3.10701752,10 3.25234222,10 L3.74765778,10 Z M5.74765778,10 C5.88702254,10 6,10.1070175 6,10.2523422 L6,10.7476578 C6,10.8870225 5.89298248,11 5.74765778,11 L5.25234222,11 C5.11297746,11 5,10.8929825 5,10.7476578 L5,10.2523422 C5,10.1129775 5.10701752,10 5.25234222,10 L5.74765778,10 Z M7.74765778,10 C7.88702254,10 8,10.1070175 8,10.2523422 L8,10.7476578 C8,10.8870225 7.89298248,11 7.74765778,11 L7.25234222,11 C7.11297746,11 7,10.8929825 7,10.7476578 L7,10.2523422 C7,10.1129775 7.10701752,10 7.25234222,10 L7.74765778,10 Z M9.74765778,10 C9.88702254,10 10,10.1070175 10,10.2523422 L10,10.7476578 C10,10.8870225 9.89298248,11 9.74765778,11 L9.25234222,11 C9.11297746,11 9,10.8929825 9,10.7476578 L9,10.2523422 C9,10.1129775 9.10701752,10 9.25234222,10 L9.74765778,10 Z M11.7476578,10 C11.8870225,10 12,10.1070175 12,10.2523422 L12,10.7476578 C12,10.8870225 11.8929825,11 11.7476578,11 L11.2523422,11 C11.1129775,11 11,10.8929825 11,10.7476578 L11,10.2523422 C11,10.1129775 11.1070175,10 11.2523422,10 L11.7476578,10 Z M13.7476578,10 C13.8870225,10 14,10.1070175 14,10.2523422 L14,10.7476578 C14,10.8870225 13.8929825,11 13.7476578,11 L13.2523422,11 C13.1129775,11 13,10.8929825 13,10.7476578 L13,10.2523422 C13,10.1129775 13.1070175,10 13.2523422,10 L13.7476578,10 Z M15.7476578,10 C15.8870225,10 16,10.1070175 16,10.2523422 L16,10.7476578 C16,10.8870225 15.8929825,11 15.7476578,11 L15.2523422,11 C15.1129775,11 15,10.8929825 15,10.7476578 L15,10.2523422 C15,10.1129775 15.1070175,10 15.2523422,10 L15.7476578,10 Z M17.7476578,10 C17.8870225,10 18,10.1070175 18,10.2523422 L18,10.7476578 C18,10.8870225 17.8929825,11 17.7476578,11 L17.2523422,11 C17.1129775,11 17,10.8929825 17,10.7476578 L17,10.2523422 C17,10.1129775 17.1070175,10 17.2523422,10 L17.7476578,10 Z M19.7476578,10 C19.8870225,10 20,10.1070175 20,10.2523422 L20,10.7476578 C20,10.8870225 19.8929825,11 19.7476578,11 L19.2523422,11 C19.1129775,11 19,10.8929825 19,10.7476578 L19,10.2523422 C19,10.1129775 19.1070175,10 19.2523422,10 L19.7476578,10 Z M1.74765778,4 C1.88702254,4 2,4.10701752 2,4.25234222 L2,4.74765778 C2,4.88702254 1.89298248,5 1.74765778,5 L1.25234222,5 C1.11297746,5 1,4.89298248 1,4.74765778 L1,4.25234222 C1,4.11297746 1.10701752,4 1.25234222,4 L1.74765778,4 Z M3.74765778,4 C3.88702254,4 4,4.10701752 4,4.25234222 L4,4.74765778 C4,4.88702254 3.89298248,5 3.74765778,5 L3.25234222,5 C3.11297746,5 3,4.89298248 3,4.74765778 L3,4.25234222 C3,4.11297746 3.10701752,4 3.25234222,4 L3.74765778,4 Z M5.74765778,4 C5.88702254,4 6,4.10701752 6,4.25234222 L6,4.74765778 C6,4.88702254 5.89298248,5 5.74765778,5 L5.25234222,5 C5.11297746,5 5,4.89298248 5,4.74765778 L5,4.25234222 C5,4.11297746 5.10701752,4 5.25234222,4 L5.74765778,4 Z M7.74765778,4 C7.88702254,4 8,4.10701752 8,4.25234222 L8,4.74765778 C8,4.88702254 7.89298248,5 7.74765778,5 L7.25234222,5 C7.11297746,5 7,4.89298248 7,4.74765778 L7,4.25234222 C7,4.11297746 7.10701752,4 7.25234222,4 L7.74765778,4 Z M9.74765778,4 C9.88702254,4 10,4.10701752 10,4.25234222 L10,4.74765778 C10,4.88702254 9.89298248,5 9.74765778,5 L9.25234222,5 C9.11297746,5 9,4.89298248 9,4.74765778 L9,4.25234222 C9,4.11297746 9.10701752,4 9.25234222,4 L9.74765778,4 Z M11.7476578,4 C11.8870225,4 12,4.10701752 12,4.25234222 L12,4.74765778 C12,4.88702254 11.8929825,5 11.7476578,5 L11.2523422,5 C11.1129775,5 11,4.89298248 11,4.74765778 L11,4.25234222 C11,4.11297746 11.1070175,4 11.2523422,4 L11.7476578,4 Z M13.7476578,4 C13.8870225,4 14,4.10701752 14,4.25234222 L14,4.74765778 C14,4.88702254 13.8929825,5 13.7476578,5 L13.2523422,5 C13.1129775,5 13,4.89298248 13,4.74765778 L13,4.25234222 C13,4.11297746 13.1070175,4 13.2523422,4 L13.7476578,4 Z M15.7476578,4 C15.8870225,4 16,4.10701752 16,4.25234222 L16,4.74765778 C16,4.88702254 15.8929825,5 15.7476578,5 L15.2523422,5 C15.1129775,5 15,4.89298248 15,4.74765778 L15,4.25234222 C15,4.11297746 15.1070175,4 15.2523422,4 L15.7476578,4 Z M17.7476578,4 C17.8870225,4 18,4.10701752 18,4.25234222 L18,4.74765778 C18,4.88702254 17.8929825,5 17.7476578,5 L17.2523422,5 C17.1129775,5 17,4.89298248 17,4.74765778 L17,4.25234222 C17,4.11297746 17.1070175,4 17.2523422,4 L17.7476578,4 Z M19.7476578,4 C19.8870225,4 20,4.10701752 20,4.25234222 L20,4.74765778 C20,4.88702254 19.8929825,5 19.7476578,5 L19.2523422,5 C19.1129775,5 19,4.89298248 19,4.74765778 L19,4.25234222 C19,4.11297746 19.1070175,4 19.2523422,4 L19.7476578,4 Z" mask="url(#ir-d)"/>
    <path stroke="#D80915" stroke-width=".5" d="M9.49013299,6.39085656 C9.18899133,6.66520242 9,7.06053056 9,7.5 C9,8.32842712 9.67157288,9 10.5,9 L10.5,9 C11.3284271,9 12,8.32842712 12,7.5 C12,7.06882429 11.8180747,6.68013951 11.5267962,6.40651778" mask="url(#ir-d)"/>
    <rect width="1" height="2" x="10" y="7" fill="#D80915" mask="url(#ir-d)" rx=".5"/>
    <g fill="#000" mask="url(#ir-d)">
      <use filter="url(#ir-n)" xlink:href="#ir-o"/>
    </g>
  </g>
</svg>
