<svg xmlns="http://www.w3.org/2000/svg" xmlns:xlink="http://www.w3.org/1999/xlink" width="23" height="17" viewBox="0 0 23 17">
  <defs>
    <linearGradient id="ke-c" x1="50%" x2="50%" y1="0%" y2="100%">
      <stop offset="0%" stop-color="#FFF"/>
      <stop offset="100%" stop-color="#F0F0F0"/>
    </linearGradient>
    <rect id="ke-a" width="21" height="15" x="0" y="0" rx="1.5"/>
    <filter id="ke-b" width="116.7%" height="123.3%" x="-8.3%" y="-8.3%" filterUnits="objectBoundingBox">
      <feOffset dy=".5" in="SourceAlpha" result="shadowOffsetOuter1"/>
      <feGaussianBlur in="shadowOffsetOuter1" result="shadowBlurOuter1" stdDeviation=".5"/>
      <feColorMatrix in="shadowBlurOuter1" values="0 0 0 0 0   0 0 0 0 0   0 0 0 0 0  0 0 0 0.16 0"/>
    </filter>
    <linearGradient id="ke-g" x1="50%" x2="50%" y1="0%" y2="100%">
      <stop offset="0%" stop-color="#262626"/>
      <stop offset="100%" stop-color="#0D0D0D"/>
    </linearGradient>
    <rect id="ke-f" width="21" height="4" x="0" y="0"/>
    <filter id="ke-e" width="107.1%" height="137.5%" x="-3.6%" y="-18.8%" filterUnits="objectBoundingBox">
      <feMorphology in="SourceAlpha" operator="dilate" radius=".25" result="shadowSpreadOuter1"/>
      <feOffset in="shadowSpreadOuter1" result="shadowOffsetOuter1"/>
      <feColorMatrix in="shadowOffsetOuter1" values="0 0 0 0 0   0 0 0 0 0   0 0 0 0 0  0 0 0 0.06 0"/>
    </filter>
    <linearGradient id="ke-j" x1="50%" x2="50%" y1="0%" y2="100%">
      <stop offset="0%" stop-color="#018301"/>
      <stop offset="100%" stop-color="#006700"/>
    </linearGradient>
    <rect id="ke-i" width="21" height="4" x="0" y="11"/>
    <filter id="ke-h" width="107.1%" height="137.5%" x="-3.6%" y="-18.8%" filterUnits="objectBoundingBox">
      <feMorphology in="SourceAlpha" operator="dilate" radius=".25" result="shadowSpreadOuter1"/>
      <feOffset in="shadowSpreadOuter1" result="shadowOffsetOuter1"/>
      <feColorMatrix in="shadowOffsetOuter1" values="0 0 0 0 0   0 0 0 0 0   0 0 0 0 0  0 0 0 0.06 0"/>
    </filter>
    <linearGradient id="ke-m" x1="50%" x2="50%" y1="0%" y2="100%">
      <stop offset="0%" stop-color="#FFF"/>
      <stop offset="100%" stop-color="#F0F0F0"/>
    </linearGradient>
    <rect id="ke-l" width="21" height="7" x="0" y="4"/>
    <filter id="ke-k" width="107.1%" height="121.4%" x="-3.6%" y="-10.7%" filterUnits="objectBoundingBox">
      <feMorphology in="SourceAlpha" operator="dilate" radius=".25" result="shadowSpreadOuter1"/>
      <feOffset in="shadowSpreadOuter1" result="shadowOffsetOuter1"/>
      <feColorMatrix in="shadowOffsetOuter1" values="0 0 0 0 0   0 0 0 0 0   0 0 0 0 0  0 0 0 0.06 0"/>
    </filter>
    <linearGradient id="ke-n" x1="50%" x2="50%" y1="0%" y2="100%">
      <stop offset="0%" stop-color="#DC0808"/>
      <stop offset="100%" stop-color="#BC0000"/>
    </linearGradient>
    <path id="ke-o" d="M2.5,10.5 C3.5,10.5 5,8.53756612 5,5.5 C5,2.46243388 3.5,0.5 2.5,0.5 C1.5,0.5 0,2.46243388 0,5.5 C0,8.53756612 1.5,10.5 2.5,10.5 Z"/>
    <filter id="ke-p" width="110%" height="110%" x="-5%" y="-2.5%" filterUnits="objectBoundingBox">
      <feOffset dy=".5" in="SourceAlpha" result="shadowOffsetOuter1"/>
      <feColorMatrix in="shadowOffsetOuter1" values="0 0 0 0 0   0 0 0 0 0   0 0 0 0 0  0 0 0 0.06 0"/>
    </filter>
    <linearGradient id="ke-q" x1="50%" x2="50%" y1="0%" y2="100%">
      <stop offset="0%" stop-color="#262626"/>
      <stop offset="100%" stop-color="#0D0D0D"/>
    </linearGradient>
    <linearGradient id="ke-u" x1="50%" x2="50%" y1="0%" y2="100%">
      <stop offset="0%" stop-color="#FFF"/>
      <stop offset="100%" stop-color="#F0F0F0"/>
    </linearGradient>
    <path id="ke-t" d="M2.5,7 C2.77614237,7 3,7.8954305 3,9 C3,10.1045695 2.77614237,11 2.5,11 C2.22385763,11 2,10.1045695 2,9 C2,7.8954305 2.22385763,7 2.5,7 Z M2.5,4 C2.77614237,4 3,4.67157288 3,5.5 C3,6.32842712 2.77614237,7 2.5,7 C2.22385763,7 2,6.32842712 2,5.5 C2,4.67157288 2.22385763,4 2.5,4 Z M2.5,0 C2.77614237,0 3,0.8954305 3,2 C3,3.1045695 2.77614237,4 2.5,4 C2.22385763,4 2,3.1045695 2,2 C2,0.8954305 2.22385763,0 2.5,0 Z"/>
    <filter id="ke-s" width="150%" height="109.1%" x="-25%" y="-2.3%" filterUnits="objectBoundingBox">
      <feOffset dy=".5" in="SourceAlpha" result="shadowOffsetOuter1"/>
      <feColorMatrix in="shadowOffsetOuter1" values="0 0 0 0 0   0 0 0 0 0   0 0 0 0 0  0 0 0 0.06 0"/>
    </filter>
    <rect id="ke-w" width="21" height="15" x="0" y="0" rx="1.5"/>
    <filter id="ke-v" width="102.4%" height="103.3%" x="-1.2%" y="-1.7%" filterUnits="objectBoundingBox">
      <feOffset dy="-.5" in="SourceAlpha" result="shadowOffsetInner1"/>
      <feComposite in="shadowOffsetInner1" in2="SourceAlpha" k2="-1" k3="1" operator="arithmetic" result="shadowInnerInner1"/>
      <feColorMatrix in="shadowInnerInner1" result="shadowMatrixInner1" values="0 0 0 0 0   0 0 0 0 0   0 0 0 0 0  0 0 0 0.04 0"/>
      <feOffset dy=".5" in="SourceAlpha" result="shadowOffsetInner2"/>
      <feComposite in="shadowOffsetInner2" in2="SourceAlpha" k2="-1" k3="1" operator="arithmetic" result="shadowInnerInner2"/>
      <feColorMatrix in="shadowInnerInner2" result="shadowMatrixInner2" values="0 0 0 0 1   0 0 0 0 1   0 0 0 0 1  0 0 0 0.12 0"/>
      <feMerge>
        <feMergeNode in="shadowMatrixInner1"/>
        <feMergeNode in="shadowMatrixInner2"/>
      </feMerge>
    </filter>
    <linearGradient id="ke-x" x1="50%" x2="50%" y1="0%" y2="100%">
      <stop offset="0%" stop-color="#FFF"/>
      <stop offset="100%" stop-color="#F0F0F0"/>
    </linearGradient>
  </defs>
  <g fill="none" fill-rule="evenodd">
    <g transform="translate(1 1)">
      <mask id="ke-d" fill="#fff">
        <use xlink:href="#ke-a"/>
      </mask>
      <use fill="#000" filter="url(#ke-b)" xlink:href="#ke-a"/>
      <use fill="url(#ke-c)" xlink:href="#ke-a"/>
      <g mask="url(#ke-d)">
        <use fill="#000" filter="url(#ke-e)" xlink:href="#ke-f"/>
        <use fill="url(#ke-g)" xlink:href="#ke-f"/>
      </g>
      <g mask="url(#ke-d)">
        <use fill="#000" filter="url(#ke-h)" xlink:href="#ke-i"/>
        <use fill="url(#ke-j)" xlink:href="#ke-i"/>
      </g>
      <g mask="url(#ke-d)">
        <use fill="#000" filter="url(#ke-k)" xlink:href="#ke-l"/>
        <use fill="url(#ke-m)" xlink:href="#ke-l"/>
      </g>
      <rect width="21" height="5" y="5" fill="url(#ke-n)" mask="url(#ke-d)"/>
      <g mask="url(#ke-d)">
        <g transform="translate(8 2)">
          <mask id="ke-r" fill="#fff">
            <use xlink:href="#ke-o"/>
          </mask>
          <use fill="#000" filter="url(#ke-p)" xlink:href="#ke-o"/>
          <use fill="#BC0000" xlink:href="#ke-o"/>
          <ellipse cx="-1.5" cy="5.5" fill="url(#ke-q)" mask="url(#ke-r)" rx="2.5" ry="5.5"/>
          <ellipse cx="6.5" cy="5.5" fill="url(#ke-q)" mask="url(#ke-r)" rx="2.5" ry="5.5"/>
          <g mask="url(#ke-r)">
            <use fill="#000" filter="url(#ke-s)" xlink:href="#ke-t"/>
            <use fill="url(#ke-u)" xlink:href="#ke-t"/>
          </g>
        </g>
      </g>
      <g fill="#000" mask="url(#ke-d)">
        <use filter="url(#ke-v)" xlink:href="#ke-w"/>
      </g>
    </g>
    <path fill="url(#ke-x)" d="M13.5,13 C13.7761424,13 14,13.2238576 14,13.5 C14,13.7761424 13.7761424,14 13.5,14 C13.2238576,14 13,13.7761424 13,13.5 C13,13.2238576 13.2238576,13 13.5,13 Z M9.5,13 C9.77614237,13 10,13.2238576 10,13.5 C10,13.7761424 9.77614237,14 9.5,14 C9.22385763,14 9,13.7761424 9,13.5 C9,13.2238576 9.22385763,13 9.5,13 Z M13.5,3 C13.7761424,3 14,3.22385763 14,3.5 C14,3.77614237 13.7761424,4 13.5,4 C13.2238576,4 13,3.77614237 13,3.5 C13,3.22385763 13.2238576,3 13.5,3 Z M9.5,3 C9.77614237,3 10,3.22385763 10,3.5 C10,3.77614237 9.77614237,4 9.5,4 C9.22385763,4 9,3.77614237 9,3.5 C9,3.22385763 9.22385763,3 9.5,3 Z"/>
  </g>
</svg>
