<svg xmlns="http://www.w3.org/2000/svg" xmlns:xlink="http://www.w3.org/1999/xlink" width="23" height="17" viewBox="0 0 23 17">
  <defs>
    <linearGradient id="kh-c" x1="50%" x2="50%" y1="0%" y2="100%">
      <stop offset="0%" stop-color="#FFF"/>
      <stop offset="100%" stop-color="#F0F0F0"/>
    </linearGradient>
    <rect id="kh-a" width="21" height="15" x="0" y="0" rx="1.5"/>
    <filter id="kh-b" width="116.7%" height="123.3%" x="-8.3%" y="-8.3%" filterUnits="objectBoundingBox">
      <feOffset dy=".5" in="SourceAlpha" result="shadowOffsetOuter1"/>
      <feGaussianBlur in="shadowOffsetOuter1" result="shadowBlurOuter1" stdDeviation=".5"/>
      <feColorMatrix in="shadowBlurOuter1" values="0 0 0 0 0   0 0 0 0 0   0 0 0 0 0  0 0 0 0.16 0"/>
    </filter>
    <linearGradient id="kh-g" x1="50%" x2="50%" y1="0%" y2="100%">
      <stop offset="0%" stop-color="#0F3EB6"/>
      <stop offset="100%" stop-color="#09339F"/>
    </linearGradient>
    <rect id="kh-f" width="21" height="4" x="0" y="0"/>
    <filter id="kh-e" width="107.1%" height="137.5%" x="-3.6%" y="-18.8%" filterUnits="objectBoundingBox">
      <feMorphology in="SourceAlpha" operator="dilate" radius=".25" result="shadowSpreadOuter1"/>
      <feOffset in="shadowSpreadOuter1" result="shadowOffsetOuter1"/>
      <feColorMatrix in="shadowOffsetOuter1" values="0 0 0 0 0   0 0 0 0 0   0 0 0 0 0  0 0 0 0.06 0"/>
    </filter>
    <rect id="kh-i" width="21" height="4" x="0" y="11"/>
    <filter id="kh-h" width="107.1%" height="137.5%" x="-3.6%" y="-18.8%" filterUnits="objectBoundingBox">
      <feMorphology in="SourceAlpha" operator="dilate" radius=".25" result="shadowSpreadOuter1"/>
      <feOffset in="shadowSpreadOuter1" result="shadowOffsetOuter1"/>
      <feColorMatrix in="shadowOffsetOuter1" values="0 0 0 0 0   0 0 0 0 0   0 0 0 0 0  0 0 0 0.06 0"/>
    </filter>
    <linearGradient id="kh-l" x1="50%" x2="50%" y1="0%" y2="100%">
      <stop offset="0%" stop-color="#ED1A3C"/>
      <stop offset="100%" stop-color="#DE0B2D"/>
    </linearGradient>
    <rect id="kh-k" width="21" height="7" x="0" y="4"/>
    <filter id="kh-j" width="107.1%" height="121.4%" x="-3.6%" y="-10.7%" filterUnits="objectBoundingBox">
      <feMorphology in="SourceAlpha" operator="dilate" radius=".25" result="shadowSpreadOuter1"/>
      <feOffset in="shadowSpreadOuter1" result="shadowOffsetOuter1"/>
      <feColorMatrix in="shadowOffsetOuter1" values="0 0 0 0 0   0 0 0 0 0   0 0 0 0 0  0 0 0 0.06 0"/>
    </filter>
    <linearGradient id="kh-o" x1="50%" x2="50%" y1="0%" y2="100%">
      <stop offset="0%" stop-color="#FFF"/>
      <stop offset="100%" stop-color="#F0F0F0"/>
    </linearGradient>
    <path id="kh-n" d="M8.5,8 L8.5,10 L6.5,10 L7.5,8 L8.5,8 Z M12,8 L12,10 L9,10 L9,8 L12,8 Z M13.5,8 L14.5,10 L12.5,10 L12.5,8 L13.5,8 Z M13,6 C13.2761424,6 13.5,6.22133017 13.5,6.50783157 L13.5,7.5 L12.5,7.5 L12.5,6.50783157 C12.5,6.25852701 12.6832562,6.05118092 12.9122514,6.00818185 L13,6 Z M10.5,5.5 C10.7761424,5.5 11,5.72170461 11,5.99821125 L11,6.54541016 L12,6.54541016 L12,7.5 L9,7.5 L9,6.54541016 L10,6.54541016 L10,5.99821125 C10,5.7536295 10.1832562,5.55021135 10.4122514,5.50802685 L10.5,5.5 Z M8,6 C8.27614237,6 8.5,6.22133017 8.5,6.50783157 L8.5,7.5 L7.5,7.5 L7.5,6.50783157 C7.5,6.25852701 7.68325617,6.05118092 7.91225137,6.00818185 L8,6 Z"/>
    <filter id="kh-m" width="106.2%" height="122.2%" x="-3.1%" y="-5.6%" filterUnits="objectBoundingBox">
      <feOffset dy=".5" in="SourceAlpha" result="shadowOffsetOuter1"/>
      <feColorMatrix in="shadowOffsetOuter1" values="0 0 0 0 0   0 0 0 0 0   0 0 0 0 0  0 0 0 0.06 0"/>
    </filter>
    <rect id="kh-q" width="21" height="15" x="0" y="0" rx="1.5"/>
    <filter id="kh-p" width="102.4%" height="103.3%" x="-1.2%" y="-1.7%" filterUnits="objectBoundingBox">
      <feOffset dy="-.5" in="SourceAlpha" result="shadowOffsetInner1"/>
      <feComposite in="shadowOffsetInner1" in2="SourceAlpha" k2="-1" k3="1" operator="arithmetic" result="shadowInnerInner1"/>
      <feColorMatrix in="shadowInnerInner1" result="shadowMatrixInner1" values="0 0 0 0 0   0 0 0 0 0   0 0 0 0 0  0 0 0 0.04 0"/>
      <feOffset dy=".5" in="SourceAlpha" result="shadowOffsetInner2"/>
      <feComposite in="shadowOffsetInner2" in2="SourceAlpha" k2="-1" k3="1" operator="arithmetic" result="shadowInnerInner2"/>
      <feColorMatrix in="shadowInnerInner2" result="shadowMatrixInner2" values="0 0 0 0 1   0 0 0 0 1   0 0 0 0 1  0 0 0 0.12 0"/>
      <feMerge>
        <feMergeNode in="shadowMatrixInner1"/>
        <feMergeNode in="shadowMatrixInner2"/>
      </feMerge>
    </filter>
  </defs>
  <g fill="none" fill-rule="evenodd" transform="translate(1 1)">
    <mask id="kh-d" fill="#fff">
      <use xlink:href="#kh-a"/>
    </mask>
    <use fill="#000" filter="url(#kh-b)" xlink:href="#kh-a"/>
    <use fill="url(#kh-c)" xlink:href="#kh-a"/>
    <g mask="url(#kh-d)">
      <use fill="#000" filter="url(#kh-e)" xlink:href="#kh-f"/>
      <use fill="url(#kh-g)" xlink:href="#kh-f"/>
    </g>
    <g mask="url(#kh-d)">
      <use fill="#000" filter="url(#kh-h)" xlink:href="#kh-i"/>
      <use fill="url(#kh-g)" xlink:href="#kh-i"/>
    </g>
    <g mask="url(#kh-d)">
      <use fill="#000" filter="url(#kh-j)" xlink:href="#kh-k"/>
      <use fill="url(#kh-l)" xlink:href="#kh-k"/>
    </g>
    <g mask="url(#kh-d)">
      <use fill="#000" filter="url(#kh-m)" xlink:href="#kh-n"/>
      <use fill="url(#kh-o)" xlink:href="#kh-n"/>
    </g>
    <g fill="#000" mask="url(#kh-d)">
      <use filter="url(#kh-p)" xlink:href="#kh-q"/>
    </g>
  </g>
</svg>
