<svg xmlns="http://www.w3.org/2000/svg" xmlns:xlink="http://www.w3.org/1999/xlink" width="23" height="17" viewBox="0 0 23 17">
  <defs>
    <linearGradient id="ky-c" x1="50%" x2="50%" y1="0%" y2="100%">
      <stop offset="0%" stop-color="#FFF"/>
      <stop offset="100%" stop-color="#F0F0F0"/>
    </linearGradient>
    <rect id="ky-a" width="21" height="15" x="0" y="0" rx="1.5"/>
    <filter id="ky-b" width="116.7%" height="123.3%" x="-8.3%" y="-8.3%" filterUnits="objectBoundingBox">
      <feOffset dy=".5" in="SourceAlpha" result="shadowOffsetOuter1"/>
      <feGaussianBlur in="shadowOffsetOuter1" result="shadowBlurOuter1" stdDeviation=".5"/>
      <feColorMatrix in="shadowBlurOuter1" values="0 0 0 0 0   0 0 0 0 0   0 0 0 0 0  0 0 0 0.16 0"/>
    </filter>
    <linearGradient id="ky-g" x1="50%" x2="50%" y1="0%" y2="100%">
      <stop offset="0%" stop-color="#07319C"/>
      <stop offset="100%" stop-color="#00247E"/>
    </linearGradient>
    <rect id="ky-f" width="21" height="15" x="0" y="0"/>
    <filter id="ky-e" width="116.7%" height="123.3%" x="-8.3%" y="-8.3%" filterUnits="objectBoundingBox">
      <feOffset dy=".5" in="SourceAlpha" result="shadowOffsetOuter1"/>
      <feGaussianBlur in="shadowOffsetOuter1" result="shadowBlurOuter1" stdDeviation=".5"/>
      <feColorMatrix in="shadowBlurOuter1" values="0 0 0 0 0   0 0 0 0 0   0 0 0 0 0  0 0 0 0.16 0"/>
    </filter>
    <linearGradient id="ky-j" x1="50%" x2="50%" y1="0%" y2="100%">
      <stop offset="0%" stop-color="#FFF"/>
      <stop offset="100%" stop-color="#F0F0F0"/>
    </linearGradient>
    <path id="ky-h" d="M0,3.5 L0,0 L5,0 L5,3.5 C5,6 2.5,7 2.5,7 C2.5,7 0,6 0,3.5 Z"/>
    <filter id="ky-i" width="110%" height="114.3%" x="-5%" y="-3.6%" filterUnits="objectBoundingBox">
      <feOffset dy=".5" in="SourceAlpha" result="shadowOffsetOuter1"/>
      <feColorMatrix in="shadowOffsetOuter1" values="0 0 0 0 0   0 0 0 0 0   0 0 0 0 0  0 0 0 0.06 0"/>
    </filter>
    <linearGradient id="ky-l" x1="50%" x2="50%" y1="0%" y2="100%">
      <stop offset="0%" stop-color="#125FBA"/>
      <stop offset="100%" stop-color="#0C50A1"/>
    </linearGradient>
    <linearGradient id="ky-m" x1="50%" x2="50%" y1="0%" y2="100%">
      <stop offset="0%" stop-color="#DB1E36"/>
      <stop offset="100%" stop-color="#D51931"/>
    </linearGradient>
    <linearGradient id="ky-n" x1="50%" x2="50%" y1="0%" y2="100%">
      <stop offset="0%" stop-color="#FFF"/>
      <stop offset="100%" stop-color="#F0F0F0"/>
    </linearGradient>
    <rect id="ky-p" width="21" height="15" x="0" y="0" rx="1.5"/>
    <filter id="ky-o" width="102.4%" height="103.3%" x="-1.2%" y="-1.7%" filterUnits="objectBoundingBox">
      <feOffset dy="-.5" in="SourceAlpha" result="shadowOffsetInner1"/>
      <feComposite in="shadowOffsetInner1" in2="SourceAlpha" k2="-1" k3="1" operator="arithmetic" result="shadowInnerInner1"/>
      <feColorMatrix in="shadowInnerInner1" result="shadowMatrixInner1" values="0 0 0 0 0   0 0 0 0 0   0 0 0 0 0  0 0 0 0.04 0"/>
      <feOffset dy=".5" in="SourceAlpha" result="shadowOffsetInner2"/>
      <feComposite in="shadowOffsetInner2" in2="SourceAlpha" k2="-1" k3="1" operator="arithmetic" result="shadowInnerInner2"/>
      <feColorMatrix in="shadowInnerInner2" result="shadowMatrixInner2" values="0 0 0 0 1   0 0 0 0 1   0 0 0 0 1  0 0 0 0.12 0"/>
      <feMerge>
        <feMergeNode in="shadowMatrixInner1"/>
        <feMergeNode in="shadowMatrixInner2"/>
      </feMerge>
    </filter>
  </defs>
  <g fill="none" fill-rule="evenodd" transform="translate(1 1)">
    <mask id="ky-d" fill="#fff">
      <use xlink:href="#ky-a"/>
    </mask>
    <use fill="#000" filter="url(#ky-b)" xlink:href="#ky-a"/>
    <use fill="url(#ky-c)" xlink:href="#ky-a"/>
    <g mask="url(#ky-d)">
      <use fill="#000" filter="url(#ky-e)" xlink:href="#ky-f"/>
      <use fill="url(#ky-g)" xlink:href="#ky-f"/>
    </g>
    <ellipse cx="15.5" cy="4" fill="#FAD051" mask="url(#ky-d)" rx="1.5" ry="1"/>
    <g mask="url(#ky-d)">
      <g transform="translate(13 4)">
        <mask id="ky-k" fill="#fff">
          <use xlink:href="#ky-h"/>
        </mask>
        <use fill="#000" filter="url(#ky-i)" xlink:href="#ky-h"/>
        <use fill="url(#ky-j)" xlink:href="#ky-h"/>
        <polygon fill="#CF142C" points="0 0 5 0 5 1 3 1 2 1 0 1" mask="url(#ky-k)"/>
        <path fill="url(#ky-l)" d="M5,6 L5,7 L1.37667655e-13,7 L1.37667655e-13,6 L5,6 Z M5,4 L5,5 L1.37667655e-13,5 L1.37667655e-13,4 L5,4 Z M5,2 L5,3 L1.37667655e-13,3 L1.37667655e-13,2 L5,2 Z" mask="url(#ky-k)"/>
      </g>
    </g>
    <path fill="url(#ky-m)" stroke="#FFF" stroke-width=".5" d="M0.580116263,-0.25 L-0.675814352,-0.25 L3.25,3.11498373 L3.25,3.87134553 L-0.25,6.37134553 L-0.25,7.45106191 L4.07169906,4.75 L4.92942021,4.75 L11.367513,8.70002745 L5.75,3.88501627 L5.75,3.11498373 L11.6883505,-1.97503094 L4.92830094,2.25 L4.08011626,2.25 L0.580116263,-0.25 Z" mask="url(#ky-d)"/>
    <path fill="url(#ky-n)" d="M0,2.5 L0,4.5 L3.5,4.5 L3.5,7.00461102 C3.5,7.2782068 3.71403503,7.5 4.00468445,7.5 L4.99531555,7.5 C5.27404508,7.5 5.5,7.2842474 5.5,7.00461102 L5.5,4.5 L9.00952148,4.5 C9.28040529,4.5 9.5,4.28596497 9.5,3.99531555 L9.5,3.00468445 C9.5,2.72595492 9.28494263,2.5 9.00952148,2.5 L5.5,2.5 L5.5,0 L3.5,0 L3.5,2.5 L0,2.5 Z" mask="url(#ky-d)"/>
    <polygon fill="url(#ky-m)" points="0 3 4 3 4 2.5 4 0 5 0 5 2.5 5 3 9 3 9 4 5 4 5 4.5 5 7 4 7 4 4.5 4 4 0 4" mask="url(#ky-d)"/>
    <g fill="#000" mask="url(#ky-d)">
      <use filter="url(#ky-o)" xlink:href="#ky-p"/>
    </g>
  </g>
</svg>
