<svg xmlns="http://www.w3.org/2000/svg" xmlns:xlink="http://www.w3.org/1999/xlink" width="23" height="17" viewBox="0 0 23 17">
  <defs>
    <linearGradient id="lr-c" x1="50%" x2="50%" y1="0%" y2="100%">
      <stop offset="0%" stop-color="#FFF"/>
      <stop offset="100%" stop-color="#F0F0F0"/>
    </linearGradient>
    <rect id="lr-a" width="21" height="15" x="0" y="0" rx="1.5"/>
    <filter id="lr-b" width="116.7%" height="123.3%" x="-8.3%" y="-8.3%" filterUnits="objectBoundingBox">
      <feOffset dy=".5" in="SourceAlpha" result="shadowOffsetOuter1"/>
      <feGaussianBlur in="shadowOffsetOuter1" result="shadowBlurOuter1" stdDeviation=".5"/>
      <feColorMatrix in="shadowBlurOuter1" values="0 0 0 0 0   0 0 0 0 0   0 0 0 0 0  0 0 0 0.16 0"/>
    </filter>
    <linearGradient id="lr-d" x1="50%" x2="50%" y1="0%" y2="100%">
      <stop offset="0%" stop-color="#E1244A"/>
      <stop offset="100%" stop-color="#BE1134"/>
    </linearGradient>
    <linearGradient id="lr-f" x1="50%" x2="50%" y1="0%" y2="100%">
      <stop offset="0%" stop-color="#0C3F8E"/>
      <stop offset="100%" stop-color="#032A67"/>
    </linearGradient>
    <linearGradient id="lr-i" x1="50%" x2="50%" y1="0%" y2="100%">
      <stop offset="0%" stop-color="#FFF"/>
      <stop offset="100%" stop-color="#F0F0F0"/>
    </linearGradient>
    <polygon id="lr-h" points="5 6.17 3.237 7.427 3.887 5.362 2.147 4.073 4.312 4.053 5 2 5.688 4.053 7.853 4.073 6.113 5.362 6.763 7.427"/>
    <filter id="lr-g" width="103.4%" height="107.1%" x="-1.7%" y="-4.2%" filterUnits="objectBoundingBox">
      <feOffset dy=".5" in="SourceAlpha" result="shadowOffsetOuter1"/>
      <feColorMatrix in="shadowOffsetOuter1" values="0 0 0 0 0   0 0 0 0 0   0 0 0 0 0  0 0 0 0.06 0"/>
    </filter>
    <rect id="lr-k" width="21" height="15" x="0" y="0" rx="1.5"/>
    <filter id="lr-j" width="102.4%" height="103.3%" x="-1.2%" y="-1.7%" filterUnits="objectBoundingBox">
      <feOffset dy="-.5" in="SourceAlpha" result="shadowOffsetInner1"/>
      <feComposite in="shadowOffsetInner1" in2="SourceAlpha" k2="-1" k3="1" operator="arithmetic" result="shadowInnerInner1"/>
      <feColorMatrix in="shadowInnerInner1" result="shadowMatrixInner1" values="0 0 0 0 0   0 0 0 0 0   0 0 0 0 0  0 0 0 0.04 0"/>
      <feOffset dy=".5" in="SourceAlpha" result="shadowOffsetInner2"/>
      <feComposite in="shadowOffsetInner2" in2="SourceAlpha" k2="-1" k3="1" operator="arithmetic" result="shadowInnerInner2"/>
      <feColorMatrix in="shadowInnerInner2" result="shadowMatrixInner2" values="0 0 0 0 1   0 0 0 0 1   0 0 0 0 1  0 0 0 0.12 0"/>
      <feMerge>
        <feMergeNode in="shadowMatrixInner1"/>
        <feMergeNode in="shadowMatrixInner2"/>
      </feMerge>
    </filter>
  </defs>
  <g fill="none" fill-rule="evenodd" transform="translate(1 1)">
    <mask id="lr-e" fill="#fff">
      <use xlink:href="#lr-a"/>
    </mask>
    <use fill="#000" filter="url(#lr-b)" xlink:href="#lr-a"/>
    <use fill="url(#lr-c)" xlink:href="#lr-a"/>
    <path fill="url(#lr-d)" d="M21,12 L21,14 L0,14 L0,12 L21,12 Z M21,8 L21,10 L10,10 L10,8 L21,8 Z M21,4 L21,6 L10,6 L10,4 L21,4 Z M21,0 L21,2 L10,2 L10,0 L21,0 Z" mask="url(#lr-e)"/>
    <rect width="10" height="10" fill="url(#lr-f)" mask="url(#lr-e)"/>
    <g mask="url(#lr-e)">
      <use fill="#000" filter="url(#lr-g)" xlink:href="#lr-h"/>
      <use fill="url(#lr-i)" xlink:href="#lr-h"/>
    </g>
    <g fill="#000" mask="url(#lr-e)">
      <use filter="url(#lr-j)" xlink:href="#lr-k"/>
    </g>
  </g>
</svg>
