<svg xmlns="http://www.w3.org/2000/svg" xmlns:xlink="http://www.w3.org/1999/xlink" width="23" height="17" viewBox="0 0 23 17">
  <defs>
    <linearGradient id="ly-c" x1="50%" x2="50%" y1="0%" y2="100%">
      <stop offset="0%" stop-color="#FFF"/>
      <stop offset="100%" stop-color="#F0F0F0"/>
    </linearGradient>
    <rect id="ly-a" width="21" height="15" x="0" y="0" rx="1.5"/>
    <filter id="ly-b" width="116.7%" height="123.3%" x="-8.3%" y="-8.3%" filterUnits="objectBoundingBox">
      <feOffset dy=".5" in="SourceAlpha" result="shadowOffsetOuter1"/>
      <feGaussianBlur in="shadowOffsetOuter1" result="shadowBlurOuter1" stdDeviation=".5"/>
      <feColorMatrix in="shadowBlurOuter1" values="0 0 0 0 0   0 0 0 0 0   0 0 0 0 0  0 0 0 0.16 0"/>
    </filter>
    <linearGradient id="ly-g" x1="50%" x2="50%" y1="0%" y2="100%">
      <stop offset="0%" stop-color="#262626"/>
      <stop offset="100%" stop-color="#0D0D0D"/>
    </linearGradient>
    <rect id="ly-f" width="21" height="5" x="0" y="5"/>
    <filter id="ly-e" width="107.1%" height="130%" x="-3.6%" y="-15%" filterUnits="objectBoundingBox">
      <feMorphology in="SourceAlpha" operator="dilate" radius=".25" result="shadowSpreadOuter1"/>
      <feOffset in="shadowSpreadOuter1" result="shadowOffsetOuter1"/>
      <feColorMatrix in="shadowOffsetOuter1" values="0 0 0 0 0   0 0 0 0 0   0 0 0 0 0  0 0 0 0.06 0"/>
    </filter>
    <linearGradient id="ly-j" x1="50%" x2="50%" y1="0%" y2="100%">
      <stop offset="0%" stop-color="#34B857"/>
      <stop offset="100%" stop-color="#2B9E4A"/>
    </linearGradient>
    <rect id="ly-i" width="21" height="5" x="0" y="10"/>
    <filter id="ly-h" width="107.1%" height="130%" x="-3.6%" y="-15%" filterUnits="objectBoundingBox">
      <feMorphology in="SourceAlpha" operator="dilate" radius=".25" result="shadowSpreadOuter1"/>
      <feOffset in="shadowSpreadOuter1" result="shadowOffsetOuter1"/>
      <feColorMatrix in="shadowOffsetOuter1" values="0 0 0 0 0   0 0 0 0 0   0 0 0 0 0  0 0 0 0.06 0"/>
    </filter>
    <linearGradient id="ly-m" x1="50%" x2="50%" y1="0%" y2="100%">
      <stop offset="0%" stop-color="#F41F34"/>
      <stop offset="100%" stop-color="#E60B21"/>
    </linearGradient>
    <rect id="ly-l" width="21" height="5" x="0" y="0"/>
    <filter id="ly-k" width="107.1%" height="130%" x="-3.6%" y="-15%" filterUnits="objectBoundingBox">
      <feMorphology in="SourceAlpha" operator="dilate" radius=".25" result="shadowSpreadOuter1"/>
      <feOffset in="shadowSpreadOuter1" result="shadowOffsetOuter1"/>
      <feColorMatrix in="shadowOffsetOuter1" values="0 0 0 0 0   0 0 0 0 0   0 0 0 0 0  0 0 0 0.06 0"/>
    </filter>
    <linearGradient id="ly-p" x1="50%" x2="50%" y1="0%" y2="100%">
      <stop offset="0%" stop-color="#FFF"/>
      <stop offset="100%" stop-color="#F0F0F0"/>
    </linearGradient>
    <path id="ly-o" d="M10.5,6 C10.8089198,6 11.0960284,6.09338475 11.3346361,6.25346452 C11.3061791,6.25093373 11.2781986,6.25 11.25,6.25 C10.5596441,6.25 10,6.80964406 10,7.5 C10,8.19035594 10.5596441,8.75 11.25,8.75 L11.3336276,8.74721147 C11.0952196,8.90687812 10.8084847,9 10.5,9 C9.67157288,9 9,8.32842712 9,7.5 C9,6.67157288 9.67157288,6 10.5,6 Z M11.5,7 C11.7761424,7 12,7.22385763 12,7.5 C12,7.77614237 11.7761424,8 11.5,8 C11.2238576,8 11,7.77614237 11,7.5 C11,7.22385763 11.2238576,7 11.5,7 Z"/>
    <filter id="ly-n" width="116.7%" height="133.3%" x="-8.3%" y="-8.3%" filterUnits="objectBoundingBox">
      <feOffset dy=".5" in="SourceAlpha" result="shadowOffsetOuter1"/>
      <feColorMatrix in="shadowOffsetOuter1" values="0 0 0 0 0   0 0 0 0 0   0 0 0 0 0  0 0 0 0.06 0"/>
    </filter>
    <rect id="ly-r" width="21" height="15" x="0" y="0" rx="1.5"/>
    <filter id="ly-q" width="102.4%" height="103.3%" x="-1.2%" y="-1.7%" filterUnits="objectBoundingBox">
      <feOffset dy="-.5" in="SourceAlpha" result="shadowOffsetInner1"/>
      <feComposite in="shadowOffsetInner1" in2="SourceAlpha" k2="-1" k3="1" operator="arithmetic" result="shadowInnerInner1"/>
      <feColorMatrix in="shadowInnerInner1" result="shadowMatrixInner1" values="0 0 0 0 0   0 0 0 0 0   0 0 0 0 0  0 0 0 0.04 0"/>
      <feOffset dy=".5" in="SourceAlpha" result="shadowOffsetInner2"/>
      <feComposite in="shadowOffsetInner2" in2="SourceAlpha" k2="-1" k3="1" operator="arithmetic" result="shadowInnerInner2"/>
      <feColorMatrix in="shadowInnerInner2" result="shadowMatrixInner2" values="0 0 0 0 1   0 0 0 0 1   0 0 0 0 1  0 0 0 0.12 0"/>
      <feMerge>
        <feMergeNode in="shadowMatrixInner1"/>
        <feMergeNode in="shadowMatrixInner2"/>
      </feMerge>
    </filter>
  </defs>
  <g fill="none" fill-rule="evenodd" transform="translate(1 1)">
    <mask id="ly-d" fill="#fff">
      <use xlink:href="#ly-a"/>
    </mask>
    <use fill="#000" filter="url(#ly-b)" xlink:href="#ly-a"/>
    <use fill="url(#ly-c)" xlink:href="#ly-a"/>
    <g mask="url(#ly-d)">
      <use fill="#000" filter="url(#ly-e)" xlink:href="#ly-f"/>
      <use fill="url(#ly-g)" xlink:href="#ly-f"/>
    </g>
    <g mask="url(#ly-d)">
      <use fill="#000" filter="url(#ly-h)" xlink:href="#ly-i"/>
      <use fill="url(#ly-j)" xlink:href="#ly-i"/>
    </g>
    <g mask="url(#ly-d)">
      <use fill="#000" filter="url(#ly-k)" xlink:href="#ly-l"/>
      <use fill="url(#ly-m)" xlink:href="#ly-l"/>
    </g>
    <g mask="url(#ly-d)">
      <use fill="#000" filter="url(#ly-n)" xlink:href="#ly-o"/>
      <use fill="url(#ly-p)" xlink:href="#ly-o"/>
    </g>
    <g fill="#000" mask="url(#ly-d)">
      <use filter="url(#ly-q)" xlink:href="#ly-r"/>
    </g>
  </g>
</svg>
