<svg xmlns="http://www.w3.org/2000/svg" xmlns:xlink="http://www.w3.org/1999/xlink" width="23" height="17" viewBox="0 0 23 17">
  <defs>
    <linearGradient id="me-c" x1="50%" x2="50%" y1="0%" y2="100%">
      <stop offset="0%" stop-color="#FFF"/>
      <stop offset="100%" stop-color="#F0F0F0"/>
    </linearGradient>
    <rect id="me-a" width="21" height="15" x="0" y="0" rx="1.5"/>
    <filter id="me-b" width="116.7%" height="123.3%" x="-8.3%" y="-8.3%" filterUnits="objectBoundingBox">
      <feOffset dy=".5" in="SourceAlpha" result="shadowOffsetOuter1"/>
      <feGaussianBlur in="shadowOffsetOuter1" result="shadowBlurOuter1" stdDeviation=".5"/>
      <feColorMatrix in="shadowBlurOuter1" values="0 0 0 0 0   0 0 0 0 0   0 0 0 0 0  0 0 0 0.16 0"/>
    </filter>
    <linearGradient id="me-g" x1="50%" x2="50%" y1="0%" y2="100%">
      <stop offset="0%" stop-color="#E6BE53"/>
      <stop offset="100%" stop-color="#D3AD46"/>
    </linearGradient>
    <rect id="me-f" width="21" height="15" x="0" y="0"/>
    <filter id="me-e" width="116.7%" height="123.3%" x="-8.3%" y="-8.3%" filterUnits="objectBoundingBox">
      <feOffset dy=".5" in="SourceAlpha" result="shadowOffsetOuter1"/>
      <feGaussianBlur in="shadowOffsetOuter1" result="shadowBlurOuter1" stdDeviation=".5"/>
      <feColorMatrix in="shadowBlurOuter1" values="0 0 0 0 0   0 0 0 0 0   0 0 0 0 0  0 0 0 0.16 0"/>
    </filter>
    <linearGradient id="me-h" x1="50%" x2="50%" y1="0%" y2="100%">
      <stop offset="0%" stop-color="#E01826"/>
      <stop offset="100%" stop-color="#C30A17"/>
    </linearGradient>
    <linearGradient id="me-k" x1="50%" x2="50%" y1="0%" y2="100%">
      <stop offset="0%" stop-color="#E6BE53"/>
      <stop offset="100%" stop-color="#D3AD46"/>
    </linearGradient>
    <path id="me-j" d="M7.12103605,3.48414421 L7.37896395,4.51585579 C7.44581031,4.78324125 7.59640503,5.19281006 7.72659302,5.45318604 L7.77340698,5.54681396 C7.87769354,5.75538708 8.07538871,6.04091414 8.25093928,6.24284515 L8.351,6.35118217 L8.14731216,6.14731216 C8.34209628,6.34209628 8.34179688,6.65820313 8.14731216,6.85268784 L8.35,6.64918217 L8.29626106,6.7141929 C8.16844426,6.89707698 8.22174072,7.11087036 8.45318604,7.22659302 L8.54681396,7.27340698 C8.7971017,7.39855085 9,7.27340698 9,7 L9,7.5 C9,7.22385763 9.09640503,6.80718994 9.22659302,6.54681396 L9.27340698,6.45318604 C9.39855085,6.2028983 9.34375,5.84375 9.15024853,5.65024853 L8.84975147,5.34975147 C8.73385403,5.23385403 8.57416986,5.07416986 8.42295742,4.92295742 L8.35268784,4.85268784 C8.15790372,4.65790372 8.19281006,4.40359497 8.45318604,4.27340698 L8.54681396,4.22659302 C8.7971017,4.10144915 9.15625,4.15625 9.34975147,4.34975147 L9.92494173,4.92494173 C9.97529298,4.97529298 10.0266384,5.02663843 10.0770426,5.07704258 L10.15,5.14918217 L10.2164004,5.20501612 C10.3865357,5.32280536 10.6137341,5.32264149 10.7836883,5.20494712 L10.849,5.14918217 L11.074998,4.92500198 C11.125322,4.87467802 11.1746602,4.82533981 11.2210925,4.77890751 L11.6502485,4.34975147 C11.8434109,4.15658907 12.1928101,4.09640503 12.453186,4.22659302 L12.546814,4.27340698 C12.7971017,4.39855085 12.8417969,4.65820313 12.6473122,4.85268784 L12.425002,5.07499802 C12.3243541,5.17564593 12.2276491,5.27235088 12.1502485,5.34975147 L11.8497515,5.65024853 C11.6565891,5.84341093 11.596405,6.19281006 11.726593,6.45318604 L11.773407,6.54681396 C11.8985509,6.7971017 12,7.22659302 12,7.5 L12,7 C12,7.27614237 12.1928101,7.40359497 12.453186,7.27340698 L12.546814,7.22659302 C12.769292,7.11535402 12.8293264,6.89783678 12.703328,6.71428011 L12.649,6.64918217 L12.8526878,6.85268784 C12.6579037,6.65790372 12.6582031,6.34179688 12.8526878,6.14731216 L12.648,6.35118217 L12.7488144,6.24344177 C12.9234181,6.04350851 13.118103,5.76379395 13.226593,5.54681396 L13.273407,5.45318604 C13.3985509,5.2028983 13.5535088,4.78596497 13.6210361,4.51585579 L13.8789639,3.48414421 C13.9458103,3.21675875 14.1384277,3.18457031 14.3035474,3.40472984 L15.1964526,4.59527016 C15.3640972,4.81879628 15.5,5.21403503 15.5,5.50468445 L15.5,6.49531555 C15.5,6.77404508 15.403595,7.19281006 15.273407,7.45318604 L15.226593,7.54681396 C15.1014491,7.7971017 14.84375,8.15625 14.6502485,8.34975147 L14.3497515,8.65024853 C14.1565891,8.84341093 13.8071899,9.09640503 13.546814,9.22659302 L13.453186,9.27340698 C13.2446129,9.37769354 12.9078841,9.46552543 12.6463039,9.49190588 L12.5,9.5 C12.2238576,9.5 12.1928101,9.59640503 12.453186,9.72659302 L12.546814,9.77340698 C12.7971017,9.89855085 13.1582031,10.1582031 13.3526878,10.3526878 L13.1473122,10.1473122 C13.3420963,10.3420963 13.6582031,10.3417969 13.8526878,10.1473122 L13.6473122,10.3526878 C13.7988109,10.2011891 14.0237024,10.1677038 14.2076793,10.2518094 L14.237,10.2681822 L14.2674967,10.3187891 C14.3608652,10.5118071 14.371048,10.7579041 14.273407,10.953186 L14.226593,11.046814 C14.1170921,11.2658157 13.8481584,11.448535 13.6030523,11.4907929 L13.5,11.5 C13.2238576,11.5 12.8071899,11.403595 12.546814,11.273407 L12.453186,11.226593 C12.2028983,11.1014491 11.903595,10.8071899 11.773407,10.546814 L11.726593,10.453186 C11.6292589,10.2585178 11.4505555,10.1882204 11.2844319,10.2580968 L11.263,10.2691822 L11.2369188,10.3168637 C11.1518816,10.5057703 11.1602783,10.7404175 11.2732544,10.9098816 L11.7267456,11.5901184 C11.8776598,11.8164898 11.8160706,12.1226196 11.5901184,12.2732544 L10.9098816,12.7267456 C10.6835102,12.8776598 10.3160706,12.8773804 10.0901184,12.7267456 L9.40988159,12.2732544 C9.18351024,12.1223402 9.12261963,11.8160706 9.27325439,11.5901184 L9.72674561,10.9098816 C9.83993128,10.7401031 9.84805478,10.5054447 9.76299419,10.3166784 L9.735,10.2671822 L9.71602861,10.2568137 C9.55100703,10.184552 9.37466431,10.2506714 9.27340698,10.453186 L9.22659302,10.546814 C9.10144915,10.7971017 8.80718994,11.096405 8.54681396,11.226593 L8.45318604,11.273407 C8.24461292,11.3776935 7.90788414,11.4655254 7.64630389,11.4919059 L7.5,11.5 C7.22385763,11.5 6.90359497,11.3071899 6.77340698,11.046814 L6.72659302,10.953186 C6.63273512,10.7654702 6.64119475,10.5154217 6.73333893,10.3200815 L6.763,10.2681822 L6.79247592,10.2517232 C6.97658218,10.1676262 7.20142195,10.2014219 7.35268784,10.3526878 L7.14731216,10.1473122 C7.34209628,10.3420963 7.65820312,10.3417969 7.85268784,10.1473122 L7.64731216,10.3526878 C7.84209628,10.1579037 8.19281006,9.90359497 8.45318604,9.77340698 L8.54681396,9.72659302 C8.77207293,9.61396354 8.77108023,9.52052678 8.5732087,9.50296572 L8.5,9.5 C8.22385763,9.5 7.80718994,9.40359497 7.54681396,9.27340698 L7.45318604,9.22659302 C7.2028983,9.10144915 6.84375,8.84375 6.65024853,8.65024853 L6.34975147,8.34975147 C6.15658907,8.15658907 5.90359497,7.80718994 5.77340698,7.54681396 L5.72659302,7.45318604 C5.60144915,7.2028983 5.5,6.78596497 5.5,6.49531555 L5.5,5.50468445 C5.5,5.22595492 5.63842773,4.81542969 5.80354738,4.59527016 L6.69645262,3.40472984 C6.86409721,3.18120372 7.05350876,3.21403503 7.12103605,3.48414421 Z M10.9746094,2.65820313 L11.5253906,2.84179688 C11.7875101,2.92917005 11.84375,3.15625 11.6502485,3.34975147 L11.3497515,3.65024853 C11.1841837,3.8158163 10.8750859,3.95451387 10.6213397,3.99076281 L10.5,4 C10.2238576,4 9.84375,3.84375 9.65024853,3.65024853 L9.34975147,3.34975147 C9.15658907,3.15658907 9.20856857,2.93047714 9.47460938,2.84179688 L10.0253906,2.65820313 C10.2875101,2.57082995 10.7085686,2.56952286 10.9746094,2.65820313 Z"/>
    <filter id="me-i" width="105%" height="108.1%" x="-2.5%" y="-2.4%" filterUnits="objectBoundingBox">
      <feOffset dy=".5" in="SourceAlpha" result="shadowOffsetOuter1"/>
      <feColorMatrix in="shadowOffsetOuter1" values="0 0 0 0 0   0 0 0 0 0   0 0 0 0 0  0 0 0 0.06 0"/>
    </filter>
    <rect id="me-m" width="21" height="15" x="0" y="0" rx="1.5"/>
    <filter id="me-l" width="102.4%" height="103.3%" x="-1.2%" y="-1.7%" filterUnits="objectBoundingBox">
      <feOffset dy="-.5" in="SourceAlpha" result="shadowOffsetInner1"/>
      <feComposite in="shadowOffsetInner1" in2="SourceAlpha" k2="-1" k3="1" operator="arithmetic" result="shadowInnerInner1"/>
      <feColorMatrix in="shadowInnerInner1" result="shadowMatrixInner1" values="0 0 0 0 0   0 0 0 0 0   0 0 0 0 0  0 0 0 0.04 0"/>
      <feOffset dy=".5" in="SourceAlpha" result="shadowOffsetInner2"/>
      <feComposite in="shadowOffsetInner2" in2="SourceAlpha" k2="-1" k3="1" operator="arithmetic" result="shadowInnerInner2"/>
      <feColorMatrix in="shadowInnerInner2" result="shadowMatrixInner2" values="0 0 0 0 1   0 0 0 0 1   0 0 0 0 1  0 0 0 0.12 0"/>
      <feMerge>
        <feMergeNode in="shadowMatrixInner1"/>
        <feMergeNode in="shadowMatrixInner2"/>
      </feMerge>
    </filter>
  </defs>
  <g fill="none" fill-rule="evenodd" transform="translate(1 1)">
    <mask id="me-d" fill="#fff">
      <use xlink:href="#me-a"/>
    </mask>
    <use fill="#000" filter="url(#me-b)" xlink:href="#me-a"/>
    <use fill="url(#me-c)" xlink:href="#me-a"/>
    <g mask="url(#me-d)">
      <use fill="#000" filter="url(#me-e)" xlink:href="#me-f"/>
      <use fill="url(#me-g)" xlink:href="#me-f"/>
    </g>
    <rect width="19" height="13" x="1" y="1" fill="url(#me-h)" mask="url(#me-d)" rx=".75"/>
    <g mask="url(#me-d)">
      <use fill="#000" filter="url(#me-i)" xlink:href="#me-j"/>
      <use fill="url(#me-k)" xlink:href="#me-j"/>
    </g>
    <path fill="#215F90" d="M9.5,9.00574269 C9.5,9.27871347 9.57596016,9.29143143 9.68457031,9.02539062 C9.68457031,9.02539062 10,8 10.5,8 C11,8 11.3225133,9.04180002 11.3225133,9.04180002 C11.4205365,9.29485688 11.5,9.27817278 11.5,8.99464673 L11.5,8.5 C11.5,7.67157288 11.0522847,7 10.5,7 C9.94771525,7 9.5,7.67157288 9.5,8.5 L9.5,9.00574269 Z" mask="url(#me-d)"/>
    <g fill="#000" mask="url(#me-d)">
      <use filter="url(#me-l)" xlink:href="#me-m"/>
    </g>
  </g>
</svg>
