<svg xmlns="http://www.w3.org/2000/svg" xmlns:xlink="http://www.w3.org/1999/xlink" width="23" height="17" viewBox="0 0 23 17">
  <defs>
    <linearGradient id="mn-c" x1="50%" x2="50%" y1="0%" y2="100%">
      <stop offset="0%" stop-color="#FFF"/>
      <stop offset="100%" stop-color="#F0F0F0"/>
    </linearGradient>
    <rect id="mn-a" width="21" height="15" x="0" y="0" rx="1.5"/>
    <filter id="mn-b" width="116.7%" height="123.3%" x="-8.3%" y="-8.3%" filterUnits="objectBoundingBox">
      <feOffset dy=".5" in="SourceAlpha" result="shadowOffsetOuter1"/>
      <feGaussianBlur in="shadowOffsetOuter1" result="shadowBlurOuter1" stdDeviation=".5"/>
      <feColorMatrix in="shadowBlurOuter1" values="0 0 0 0 0   0 0 0 0 0   0 0 0 0 0  0 0 0 0.16 0"/>
    </filter>
    <linearGradient id="mn-g" x1="50%" x2="50%" y1="0%" y2="100%">
      <stop offset="0%" stop-color="#146BBC"/>
      <stop offset="100%" stop-color="#0B5396"/>
    </linearGradient>
    <rect id="mn-f" width="7" height="15" x="7" y="0"/>
    <filter id="mn-e" width="121.4%" height="110%" x="-10.7%" y="-5%" filterUnits="objectBoundingBox">
      <feMorphology in="SourceAlpha" operator="dilate" radius=".25" result="shadowSpreadOuter1"/>
      <feOffset in="shadowSpreadOuter1" result="shadowOffsetOuter1"/>
      <feColorMatrix in="shadowOffsetOuter1" values="0 0 0 0 0   0 0 0 0 0   0 0 0 0 0  0 0 0 0.06 0"/>
    </filter>
    <linearGradient id="mn-j" x1="50%" x2="50%" y1="0%" y2="100%">
      <stop offset="0%" stop-color="#E43642"/>
      <stop offset="100%" stop-color="#C32A34"/>
    </linearGradient>
    <rect id="mn-i" width="7" height="15" x="0" y="0"/>
    <filter id="mn-h" width="121.4%" height="110%" x="-10.7%" y="-5%" filterUnits="objectBoundingBox">
      <feMorphology in="SourceAlpha" operator="dilate" radius=".25" result="shadowSpreadOuter1"/>
      <feOffset in="shadowSpreadOuter1" result="shadowOffsetOuter1"/>
      <feColorMatrix in="shadowOffsetOuter1" values="0 0 0 0 0   0 0 0 0 0   0 0 0 0 0  0 0 0 0.06 0"/>
    </filter>
    <rect id="mn-l" width="7" height="15" x="14" y="0"/>
    <filter id="mn-k" width="121.4%" height="110%" x="-10.7%" y="-5%" filterUnits="objectBoundingBox">
      <feMorphology in="SourceAlpha" operator="dilate" radius=".25" result="shadowSpreadOuter1"/>
      <feOffset in="shadowSpreadOuter1" result="shadowOffsetOuter1"/>
      <feColorMatrix in="shadowOffsetOuter1" values="0 0 0 0 0   0 0 0 0 0   0 0 0 0 0  0 0 0 0.06 0"/>
    </filter>
    <linearGradient id="mn-m" x1="50%" x2="50%" y1="0%" y2="100%">
      <stop offset="0%" stop-color="#F8D246"/>
      <stop offset="100%" stop-color="#F9CE2F"/>
    </linearGradient>
    <rect id="mn-o" width="21" height="15" x="0" y="0" rx="1.5"/>
    <filter id="mn-n" width="102.4%" height="103.3%" x="-1.2%" y="-1.7%" filterUnits="objectBoundingBox">
      <feOffset dy="-.5" in="SourceAlpha" result="shadowOffsetInner1"/>
      <feComposite in="shadowOffsetInner1" in2="SourceAlpha" k2="-1" k3="1" operator="arithmetic" result="shadowInnerInner1"/>
      <feColorMatrix in="shadowInnerInner1" result="shadowMatrixInner1" values="0 0 0 0 0   0 0 0 0 0   0 0 0 0 0  0 0 0 0.04 0"/>
      <feOffset dy=".5" in="SourceAlpha" result="shadowOffsetInner2"/>
      <feComposite in="shadowOffsetInner2" in2="SourceAlpha" k2="-1" k3="1" operator="arithmetic" result="shadowInnerInner2"/>
      <feColorMatrix in="shadowInnerInner2" result="shadowMatrixInner2" values="0 0 0 0 1   0 0 0 0 1   0 0 0 0 1  0 0 0 0.12 0"/>
      <feMerge>
        <feMergeNode in="shadowMatrixInner1"/>
        <feMergeNode in="shadowMatrixInner2"/>
      </feMerge>
    </filter>
  </defs>
  <g fill="none" fill-rule="evenodd" transform="translate(1 1)">
    <mask id="mn-d" fill="#fff">
      <use xlink:href="#mn-a"/>
    </mask>
    <use fill="#000" filter="url(#mn-b)" xlink:href="#mn-a"/>
    <use fill="url(#mn-c)" xlink:href="#mn-a"/>
    <g mask="url(#mn-d)">
      <use fill="#000" filter="url(#mn-e)" xlink:href="#mn-f"/>
      <use fill="url(#mn-g)" xlink:href="#mn-f"/>
    </g>
    <g mask="url(#mn-d)">
      <use fill="#000" filter="url(#mn-h)" xlink:href="#mn-i"/>
      <use fill="url(#mn-j)" xlink:href="#mn-i"/>
    </g>
    <g mask="url(#mn-d)">
      <use fill="#000" filter="url(#mn-k)" xlink:href="#mn-l"/>
      <use fill="url(#mn-j)" xlink:href="#mn-l"/>
    </g>
    <path fill="url(#mn-m)" d="M5,9 L5,12 L4,12 L4,9 L5,9 Z M3,9 L3,12 L2,12 L2,9 L3,9 Z M4,11 L3.5,12 L3,11 L4,11 Z M3.5,10 C3.77614237,10 4,10.2238576 4,10.5 C4,10.7761424 3.77614237,11 3.5,11 C3.22385763,11 3,10.7761424 3,10.5 C3,10.2238576 3.22385763,10 3.5,10 Z M4,9 L3.5,10 L3,9 L4,9 Z M3.5,8 C3.77614237,8 4,8.22385763 4,8.5 C4,8.77614237 3.77614237,9 3.5,9 C3.22385763,9 3,8.77614237 3,8.5 C3,8.22385763 3.22385763,8 3.5,8 Z M3.5,7.5 L4,8 L3,8 L3.5,7.5 Z" mask="url(#mn-d)"/>
    <g fill="#000" mask="url(#mn-d)">
      <use filter="url(#mn-n)" xlink:href="#mn-o"/>
    </g>
  </g>
</svg>
