<svg xmlns="http://www.w3.org/2000/svg" xmlns:xlink="http://www.w3.org/1999/xlink" width="23" height="17" viewBox="0 0 23 17">
  <defs>
    <linearGradient id="my-c" x1="50%" x2="50%" y1="0%" y2="100%">
      <stop offset="0%" stop-color="#FFF"/>
      <stop offset="100%" stop-color="#F0F0F0"/>
    </linearGradient>
    <rect id="my-a" width="21" height="15" x="0" y="0" rx="1.5"/>
    <filter id="my-b" width="116.7%" height="123.3%" x="-8.3%" y="-8.3%" filterUnits="objectBoundingBox">
      <feOffset dy=".5" in="SourceAlpha" result="shadowOffsetOuter1"/>
      <feGaussianBlur in="shadowOffsetOuter1" result="shadowBlurOuter1" stdDeviation=".5"/>
      <feColorMatrix in="shadowBlurOuter1" values="0 0 0 0 0   0 0 0 0 0   0 0 0 0 0  0 0 0 0.16 0"/>
    </filter>
    <linearGradient id="my-d" x1="50%" x2="50%" y1="0%" y2="100%">
      <stop offset="0%" stop-color="#E1244A"/>
      <stop offset="100%" stop-color="#BE1134"/>
    </linearGradient>
    <linearGradient id="my-f" x1="50%" x2="50%" y1="0%" y2="100%">
      <stop offset="0%" stop-color="#0C3F8E"/>
      <stop offset="100%" stop-color="#032A67"/>
    </linearGradient>
    <linearGradient id="my-i" x1="50%" x2="50%" y1="0%" y2="100%">
      <stop offset="0%" stop-color="#FFD34F"/>
      <stop offset="100%" stop-color="#FFCB2F"/>
    </linearGradient>
    <path id="my-h" d="M5,1 C5.70962869,1 6.36171073,1.24638647 6.87536626,1.65827954 C6.603139,1.55572562 6.30807721,1.5 6,1.5 C4.61928813,1.5 3.5,2.61928813 3.5,4 C3.5,5.38071187 4.61928813,6.5 6,6.5 C6.30807721,6.5 6.603139,6.44427438 6.87565548,6.34235303 C6.36171073,6.75361353 5.70962869,7 5,7 C3.34314575,7 2,5.65685425 2,4 C2,2.34314575 3.34314575,1 5,1 Z M8,2 L8.35578466,3.26120553 L9.56366296,2.7530204 L8.79944088,3.81753284 L9.94985582,4.44504187 L8.64110181,4.51126163 L8.86776748,5.80193774 L8,4.81999999 L7.13223252,5.80193774 L7.35889819,4.51126163 L6.05014418,4.44504187 L7.20055912,3.81753284 L6.43633704,2.7530204 L7.64421534,3.26120553 L8,2 Z"/>
    <filter id="my-g" width="106.3%" height="116.7%" x="-3.1%" y="-4.2%" filterUnits="objectBoundingBox">
      <feOffset dy=".5" in="SourceAlpha" result="shadowOffsetOuter1"/>
      <feColorMatrix in="shadowOffsetOuter1" values="0 0 0 0 0   0 0 0 0 0   0 0 0 0 0  0 0 0 0.06 0"/>
    </filter>
    <rect id="my-k" width="21" height="15" x="0" y="0" rx="1.5"/>
    <filter id="my-j" width="102.4%" height="103.3%" x="-1.2%" y="-1.7%" filterUnits="objectBoundingBox">
      <feOffset dy="-.5" in="SourceAlpha" result="shadowOffsetInner1"/>
      <feComposite in="shadowOffsetInner1" in2="SourceAlpha" k2="-1" k3="1" operator="arithmetic" result="shadowInnerInner1"/>
      <feColorMatrix in="shadowInnerInner1" result="shadowMatrixInner1" values="0 0 0 0 0   0 0 0 0 0   0 0 0 0 0  0 0 0 0.04 0"/>
      <feOffset dy=".5" in="SourceAlpha" result="shadowOffsetInner2"/>
      <feComposite in="shadowOffsetInner2" in2="SourceAlpha" k2="-1" k3="1" operator="arithmetic" result="shadowInnerInner2"/>
      <feColorMatrix in="shadowInnerInner2" result="shadowMatrixInner2" values="0 0 0 0 1   0 0 0 0 1   0 0 0 0 1  0 0 0 0.12 0"/>
      <feMerge>
        <feMergeNode in="shadowMatrixInner1"/>
        <feMergeNode in="shadowMatrixInner2"/>
      </feMerge>
    </filter>
  </defs>
  <g fill="none" fill-rule="evenodd" transform="translate(1 1)">
    <mask id="my-e" fill="#fff">
      <use xlink:href="#my-a"/>
    </mask>
    <use fill="#000" filter="url(#my-b)" xlink:href="#my-a"/>
    <use fill="url(#my-c)" xlink:href="#my-a"/>
    <path fill="url(#my-d)" d="M21,14 L21,15 L0,15 L0,14 L21,14 Z M21,12 L21,13 L0,13 L0,12 L21,12 Z M21,10 L21,11 L0,11 L0,10 L21,10 Z M21,8 L21,9 L0,9 L0,8 L21,8 Z M21,6 L21,7 L10,7 L10,6 L21,6 Z M21,4 L21,5 L10,5 L10,4 L21,4 Z M21,2 L21,3 L10,3 L10,2 L21,2 Z M21,0 L21,1 L10,1 L10,0 L21,0 Z" mask="url(#my-e)"/>
    <rect width="12" height="8" fill="url(#my-f)" mask="url(#my-e)"/>
    <g mask="url(#my-e)">
      <use fill="#000" filter="url(#my-g)" xlink:href="#my-h"/>
      <use fill="url(#my-i)" xlink:href="#my-h"/>
    </g>
    <g fill="#000" mask="url(#my-e)">
      <use filter="url(#my-j)" xlink:href="#my-k"/>
    </g>
  </g>
</svg>
