<svg xmlns="http://www.w3.org/2000/svg" xmlns:xlink="http://www.w3.org/1999/xlink" width="23" height="17" viewBox="0 0 23 17">
  <defs>
    <linearGradient id="pk-c" x1="50%" x2="50%" y1="0%" y2="100%">
      <stop offset="0%" stop-color="#FFF"/>
      <stop offset="100%" stop-color="#F0F0F0"/>
    </linearGradient>
    <rect id="pk-a" width="21" height="15" x="0" y="0" rx="1.5"/>
    <filter id="pk-b" width="116.7%" height="123.3%" x="-8.3%" y="-8.3%" filterUnits="objectBoundingBox">
      <feOffset dy=".5" in="SourceAlpha" result="shadowOffsetOuter1"/>
      <feGaussianBlur in="shadowOffsetOuter1" result="shadowBlurOuter1" stdDeviation=".5"/>
      <feColorMatrix in="shadowBlurOuter1" values="0 0 0 0 0   0 0 0 0 0   0 0 0 0 0  0 0 0 0.16 0"/>
    </filter>
    <linearGradient id="pk-g" x1="50%" x2="50%" y1="0%" y2="100%">
      <stop offset="0%" stop-color="#0A632F"/>
      <stop offset="100%" stop-color="#05411E"/>
    </linearGradient>
    <rect id="pk-f" width="21" height="15" x="0" y="0"/>
    <filter id="pk-e" width="116.7%" height="123.3%" x="-8.3%" y="-8.3%" filterUnits="objectBoundingBox">
      <feOffset dy=".5" in="SourceAlpha" result="shadowOffsetOuter1"/>
      <feGaussianBlur in="shadowOffsetOuter1" result="shadowBlurOuter1" stdDeviation=".5"/>
      <feColorMatrix in="shadowBlurOuter1" values="0 0 0 0 0   0 0 0 0 0   0 0 0 0 0  0 0 0 0.16 0"/>
    </filter>
    <linearGradient id="pk-j" x1="50%" x2="50%" y1="0%" y2="100%">
      <stop offset="0%" stop-color="#FFF"/>
      <stop offset="100%" stop-color="#F0F0F0"/>
    </linearGradient>
    <rect id="pk-i" width="6" height="15" x="0" y="0"/>
    <filter id="pk-h" width="125%" height="110%" x="-12.5%" y="-5%" filterUnits="objectBoundingBox">
      <feMorphology in="SourceAlpha" operator="dilate" radius=".25" result="shadowSpreadOuter1"/>
      <feOffset in="shadowSpreadOuter1" result="shadowOffsetOuter1"/>
      <feColorMatrix in="shadowOffsetOuter1" values="0 0 0 0 0   0 0 0 0 0   0 0 0 0 0  0 0 0 0.06 0"/>
    </filter>
    <linearGradient id="pk-m" x1="50%" x2="50%" y1="0%" y2="100%">
      <stop offset="0%" stop-color="#FFF"/>
      <stop offset="100%" stop-color="#F0F0F0"/>
    </linearGradient>
    <path id="pk-l" d="M7.10899215,8.90505632 C6.37767739,9.50025242 5.45768754,9.85486244 4.45831264,9.85486244 C2.07621182,9.85486244 0.145137561,7.84014381 0.145137561,5.35486244 C0.145137561,2.86958106 2.07621182,0.854862439 4.45831264,0.854862439 C5.45768754,0.854862439 6.37767739,1.20947246 7.10899215,1.80466856 C6.77695359,1.71887113 6.42727918,1.67304426 6.06620581,1.67304426 C3.90065961,1.67304426 2.14513756,3.32145041 2.14513756,5.35486244 C2.14513756,7.38827447 3.90065961,9.03668062 6.06620581,9.03668062 C6.42727918,9.03668062 6.77695359,8.99085375 7.10899215,8.90505632 L7.10899215,8.90505632 Z M7.14513756,6.13486247 L5.96956706,6.97289643 L6.40331345,5.5958957 L5.24302453,4.73682845 L6.68666505,4.72382916 L7.14513756,3.35486244 L7.60361008,4.72382916 L9.04725059,4.73682845 L7.88696167,5.5958957 L8.32070807,6.97289643 L7.14513756,6.13486247 L7.14513756,6.13486247 Z"/>
    <filter id="pk-k" width="105.6%" height="111.1%" x="-2.8%" y="-2.8%" filterUnits="objectBoundingBox">
      <feOffset dy=".5" in="SourceAlpha" result="shadowOffsetOuter1"/>
      <feColorMatrix in="shadowOffsetOuter1" values="0 0 0 0 0   0 0 0 0 0   0 0 0 0 0  0 0 0 0.06 0"/>
    </filter>
    <rect id="pk-o" width="21" height="15" x="0" y="0" rx="1.5"/>
    <filter id="pk-n" width="102.4%" height="103.3%" x="-1.2%" y="-1.7%" filterUnits="objectBoundingBox">
      <feOffset dy="-.5" in="SourceAlpha" result="shadowOffsetInner1"/>
      <feComposite in="shadowOffsetInner1" in2="SourceAlpha" k2="-1" k3="1" operator="arithmetic" result="shadowInnerInner1"/>
      <feColorMatrix in="shadowInnerInner1" result="shadowMatrixInner1" values="0 0 0 0 0   0 0 0 0 0   0 0 0 0 0  0 0 0 0.04 0"/>
      <feOffset dy=".5" in="SourceAlpha" result="shadowOffsetInner2"/>
      <feComposite in="shadowOffsetInner2" in2="SourceAlpha" k2="-1" k3="1" operator="arithmetic" result="shadowInnerInner2"/>
      <feColorMatrix in="shadowInnerInner2" result="shadowMatrixInner2" values="0 0 0 0 1   0 0 0 0 1   0 0 0 0 1  0 0 0 0.12 0"/>
      <feMerge>
        <feMergeNode in="shadowMatrixInner1"/>
        <feMergeNode in="shadowMatrixInner2"/>
      </feMerge>
    </filter>
  </defs>
  <g fill="none" fill-rule="evenodd" transform="translate(1 1)">
    <mask id="pk-d" fill="#fff">
      <use xlink:href="#pk-a"/>
    </mask>
    <use fill="#000" filter="url(#pk-b)" xlink:href="#pk-a"/>
    <use fill="url(#pk-c)" xlink:href="#pk-a"/>
    <g mask="url(#pk-d)">
      <use fill="#000" filter="url(#pk-e)" xlink:href="#pk-f"/>
      <use fill="url(#pk-g)" xlink:href="#pk-f"/>
    </g>
    <g mask="url(#pk-d)">
      <use fill="#000" filter="url(#pk-h)" xlink:href="#pk-i"/>
      <use fill="url(#pk-j)" xlink:href="#pk-i"/>
    </g>
    <g mask="url(#pk-d)">
      <g transform="rotate(-45 11.414 -4.364)">
        <use fill="#000" filter="url(#pk-k)" xlink:href="#pk-l"/>
        <use fill="url(#pk-m)" xlink:href="#pk-l"/>
      </g>
    </g>
    <g fill="#000" mask="url(#pk-d)">
      <use filter="url(#pk-n)" xlink:href="#pk-o"/>
    </g>
  </g>
</svg>
