<svg xmlns="http://www.w3.org/2000/svg" xmlns:xlink="http://www.w3.org/1999/xlink" width="23" height="17" viewBox="0 0 23 17">
  <defs>
    <linearGradient id="rs-c" x1="50%" x2="50%" y1="0%" y2="100%">
      <stop offset="0%" stop-color="#FFF"/>
      <stop offset="100%" stop-color="#F0F0F0"/>
    </linearGradient>
    <rect id="rs-a" width="21" height="15" x="0" y="0" rx="1.5"/>
    <filter id="rs-b" width="116.7%" height="123.3%" x="-8.3%" y="-8.3%" filterUnits="objectBoundingBox">
      <feOffset dy=".5" in="SourceAlpha" result="shadowOffsetOuter1"/>
      <feGaussianBlur in="shadowOffsetOuter1" result="shadowBlurOuter1" stdDeviation=".5"/>
      <feColorMatrix in="shadowBlurOuter1" values="0 0 0 0 0   0 0 0 0 0   0 0 0 0 0  0 0 0 0.16 0"/>
    </filter>
    <linearGradient id="rs-g" x1="50%" x2="50%" y1="0%" y2="100%">
      <stop offset="0%" stop-color="#17508F"/>
      <stop offset="100%" stop-color="#114175"/>
    </linearGradient>
    <rect id="rs-f" width="21" height="5" x="0" y="5"/>
    <filter id="rs-e" width="107.1%" height="130%" x="-3.6%" y="-15%" filterUnits="objectBoundingBox">
      <feMorphology in="SourceAlpha" operator="dilate" radius=".25" result="shadowSpreadOuter1"/>
      <feOffset in="shadowSpreadOuter1" result="shadowOffsetOuter1"/>
      <feColorMatrix in="shadowOffsetOuter1" values="0 0 0 0 0   0 0 0 0 0   0 0 0 0 0  0 0 0 0.06 0"/>
    </filter>
    <linearGradient id="rs-j" x1="50%" x2="50%" y1="0%" y2="100%">
      <stop offset="0%" stop-color="#E1444D"/>
      <stop offset="100%" stop-color="#C53840"/>
    </linearGradient>
    <rect id="rs-i" width="21" height="5" x="0" y="0"/>
    <filter id="rs-h" width="107.1%" height="130%" x="-3.6%" y="-15%" filterUnits="objectBoundingBox">
      <feMorphology in="SourceAlpha" operator="dilate" radius=".25" result="shadowSpreadOuter1"/>
      <feOffset in="shadowSpreadOuter1" result="shadowOffsetOuter1"/>
      <feColorMatrix in="shadowOffsetOuter1" values="0 0 0 0 0   0 0 0 0 0   0 0 0 0 0  0 0 0 0.06 0"/>
    </filter>
    <linearGradient id="rs-m" x1="50%" x2="50%" y1="0%" y2="100%">
      <stop offset="0%" stop-color="#FFF"/>
      <stop offset="100%" stop-color="#F0F0F0"/>
    </linearGradient>
    <rect id="rs-l" width="21" height="5" x="0" y="10"/>
    <filter id="rs-k" width="107.1%" height="130%" x="-3.6%" y="-15%" filterUnits="objectBoundingBox">
      <feMorphology in="SourceAlpha" operator="dilate" radius=".25" result="shadowSpreadOuter1"/>
      <feOffset in="shadowSpreadOuter1" result="shadowOffsetOuter1"/>
      <feColorMatrix in="shadowOffsetOuter1" values="0 0 0 0 0   0 0 0 0 0   0 0 0 0 0  0 0 0 0.06 0"/>
    </filter>
    <linearGradient id="rs-p" x1="50%" x2="50%" y1="0%" y2="100%">
      <stop offset="0%" stop-color="#FFF"/>
      <stop offset="100%" stop-color="#F0F0F0"/>
    </linearGradient>
    <path id="rs-n" d="M0.5,2.5 C0.5,1.82617791 0.873828888,0.484626524 0.873828888,0.484626524 C0.943511269,0.216974685 1.2157526,0 1.49538898,0 L3.50461102,0 C3.7782068,0 4.05735636,0.214117162 4.12617111,0.481138541 C4.12617111,0.481138541 4.5,1.81010532 4.5,2.5 C4.5,3.1449728 4.12359554,4.51947242 4.12359554,4.51947242 C4.05533561,4.78486047 3.85530376,5.17418671 3.66748512,5.37236309 C3.66748512,5.37236309 3.25,6 2.5,6 C1.75,6 1.33251488,5.37236309 1.33251488,5.37236309 C1.14887198,5.16671263 0.942643642,4.78284423 0.873828888,4.51260075 C0.873828888,4.51260075 0.5,3.16104539 0.5,2.5 Z"/>
    <filter id="rs-o" width="137.5%" height="125.4%" x="-18.8%" y="-12.9%" filterUnits="objectBoundingBox">
      <feMorphology in="SourceAlpha" operator="dilate" radius=".25" result="shadowSpreadOuter1"/>
      <feOffset in="shadowSpreadOuter1" result="shadowOffsetOuter1"/>
      <feColorMatrix in="shadowOffsetOuter1" values="0 0 0 0 0   0 0 0 0 0   0 0 0 0 0  0 0 0 0.06 0"/>
    </filter>
    <rect id="rs-s" width="21" height="15" x="0" y="0" rx="1.5"/>
    <filter id="rs-r" width="102.4%" height="103.3%" x="-1.2%" y="-1.7%" filterUnits="objectBoundingBox">
      <feOffset dy="-.5" in="SourceAlpha" result="shadowOffsetInner1"/>
      <feComposite in="shadowOffsetInner1" in2="SourceAlpha" k2="-1" k3="1" operator="arithmetic" result="shadowInnerInner1"/>
      <feColorMatrix in="shadowInnerInner1" result="shadowMatrixInner1" values="0 0 0 0 0   0 0 0 0 0   0 0 0 0 0  0 0 0 0.04 0"/>
      <feOffset dy=".5" in="SourceAlpha" result="shadowOffsetInner2"/>
      <feComposite in="shadowOffsetInner2" in2="SourceAlpha" k2="-1" k3="1" operator="arithmetic" result="shadowInnerInner2"/>
      <feColorMatrix in="shadowInnerInner2" result="shadowMatrixInner2" values="0 0 0 0 1   0 0 0 0 1   0 0 0 0 1  0 0 0 0.12 0"/>
      <feMerge>
        <feMergeNode in="shadowMatrixInner1"/>
        <feMergeNode in="shadowMatrixInner2"/>
      </feMerge>
    </filter>
  </defs>
  <g fill="none" fill-rule="evenodd">
    <g transform="translate(1 1)">
      <mask id="rs-d" fill="#fff">
        <use xlink:href="#rs-a"/>
      </mask>
      <use fill="#000" filter="url(#rs-b)" xlink:href="#rs-a"/>
      <use fill="url(#rs-c)" xlink:href="#rs-a"/>
      <g mask="url(#rs-d)">
        <use fill="#000" filter="url(#rs-e)" xlink:href="#rs-f"/>
        <use fill="url(#rs-g)" xlink:href="#rs-f"/>
      </g>
      <g mask="url(#rs-d)">
        <use fill="#000" filter="url(#rs-h)" xlink:href="#rs-i"/>
        <use fill="url(#rs-j)" xlink:href="#rs-i"/>
      </g>
      <g mask="url(#rs-d)">
        <use fill="#000" filter="url(#rs-k)" xlink:href="#rs-l"/>
        <use fill="url(#rs-m)" xlink:href="#rs-l"/>
      </g>
      <g mask="url(#rs-d)">
        <g transform="translate(4 5)">
          <mask id="rs-q" fill="#fff">
            <use xlink:href="#rs-n"/>
          </mask>
          <use fill="#000" filter="url(#rs-o)" xlink:href="#rs-n"/>
          <use fill="url(#rs-p)" xlink:href="#rs-n"/>
          <line x1="4.5" x2=".5" y1=".5" y2="5.5" stroke="#C43840" stroke-linecap="square" mask="url(#rs-q)"/>
          <line x1="4.5" x2=".5" y1=".5" y2="5.5" stroke="#C43840" stroke-linecap="square" mask="url(#rs-q)" transform="matrix(-1 0 0 1 5 0)"/>
        </g>
      </g>
      <g fill="#000" mask="url(#rs-d)">
        <use filter="url(#rs-r)" xlink:href="#rs-s"/>
      </g>
    </g>
    <ellipse cx="7.5" cy="8.5" fill="#FFF" rx="1" ry="1.5"/>
    <path fill="#D1A43A" d="M6,5 L5.5,4 L6.5,4.5 L7.5,4 L8.5,4.5 L9.5,4 L9,5 L9,5.5 C9,5.77614237 8.7842474,6 8.50461102,6 L6.49538898,6 C6.2217932,6 6,5.76806641 6,5.5 L6,5 Z"/>
  </g>
</svg>
