<svg xmlns="http://www.w3.org/2000/svg" xmlns:xlink="http://www.w3.org/1999/xlink" width="23" height="17" viewBox="0 0 23 17">
  <defs>
    <linearGradient id="sb-c" x1="50%" x2="50%" y1="0%" y2="100%">
      <stop offset="0%" stop-color="#FFF"/>
      <stop offset="100%" stop-color="#F0F0F0"/>
    </linearGradient>
    <rect id="sb-a" width="21" height="15" x="0" y="0" rx="1.5"/>
    <filter id="sb-b" width="116.7%" height="123.3%" x="-8.3%" y="-8.3%" filterUnits="objectBoundingBox">
      <feOffset dy=".5" in="SourceAlpha" result="shadowOffsetOuter1"/>
      <feGaussianBlur in="shadowOffsetOuter1" result="shadowBlurOuter1" stdDeviation=".5"/>
      <feColorMatrix in="shadowBlurOuter1" values="0 0 0 0 0   0 0 0 0 0   0 0 0 0 0  0 0 0 0.16 0"/>
    </filter>
    <linearGradient id="sb-d" x1="50%" x2="50%" y1="0%" y2="100%">
      <stop offset="0%" stop-color="#1DBE4F"/>
      <stop offset="100%" stop-color="#159B3F"/>
    </linearGradient>
    <linearGradient id="sb-h" x1="50%" x2="50%" y1="0%" y2="100%">
      <stop offset="0%" stop-color="#0660D4"/>
      <stop offset="100%" stop-color="#0051BB"/>
    </linearGradient>
    <polygon id="sb-g" points="0 0 21 0 0 15"/>
    <filter id="sb-f" width="112.2%" height="113.1%" x="-3.6%" y="-5%" filterUnits="objectBoundingBox">
      <feMorphology in="SourceAlpha" operator="dilate" radius=".25" result="shadowSpreadOuter1"/>
      <feOffset in="shadowSpreadOuter1" result="shadowOffsetOuter1"/>
      <feColorMatrix in="shadowOffsetOuter1" values="0 0 0 0 0   0 0 0 0 0   0 0 0 0 0  0 0 0 0.06 0"/>
    </filter>
    <linearGradient id="sb-k" x1="50%" x2="50%" y1="0%" y2="100%">
      <stop offset="0%" stop-color="#2C7442"/>
      <stop offset="100%" stop-color="#225B34"/>
    </linearGradient>
    <polygon id="sb-j" points="0 0 21 15 0 15"/>
    <filter id="sb-i" width="112.2%" height="113.1%" x="-3.6%" y="-8.1%" filterUnits="objectBoundingBox">
      <feMorphology in="SourceAlpha" operator="dilate" radius=".25" result="shadowSpreadOuter1"/>
      <feOffset in="shadowSpreadOuter1" result="shadowOffsetOuter1"/>
      <feColorMatrix in="shadowOffsetOuter1" values="0 0 0 0 0   0 0 0 0 0   0 0 0 0 0  0 0 0 0.06 0"/>
    </filter>
    <linearGradient id="sb-n" x1="50%" x2="50%" y1="0%" y2="100%">
      <stop offset="0%" stop-color="#FFD646"/>
      <stop offset="100%" stop-color="#FED02F"/>
    </linearGradient>
    <rect id="sb-m" width="29" height="2" x="-4" y="6.5"/>
    <filter id="sb-l" width="107.5%" height="110.6%" x="-3.8%" y="-5.3%" filterUnits="objectBoundingBox">
      <feMorphology in="SourceAlpha" operator="dilate" radius=".25" result="shadowSpreadOuter1"/>
      <feOffset in="shadowSpreadOuter1" result="shadowOffsetOuter1"/>
      <feColorMatrix in="shadowOffsetOuter1" values="0 0 0 0 0   0 0 0 0 0   0 0 0 0 0  0 0 0 0.06 0"/>
    </filter>
    <rect id="sb-o" width="21" height="15" x="0" y="0" rx="1.5"/>
    <filter id="sb-p" width="102.4%" height="103.3%" x="-1.2%" y="-1.7%" filterUnits="objectBoundingBox">
      <feOffset dy="-.5" in="SourceAlpha" result="shadowOffsetInner1"/>
      <feComposite in="shadowOffsetInner1" in2="SourceAlpha" k2="-1" k3="1" operator="arithmetic" result="shadowInnerInner1"/>
      <feColorMatrix in="shadowInnerInner1" result="shadowMatrixInner1" values="0 0 0 0 0   0 0 0 0 0   0 0 0 0 0  0 0 0 0.04 0"/>
      <feOffset dy=".5" in="SourceAlpha" result="shadowOffsetInner2"/>
      <feComposite in="shadowOffsetInner2" in2="SourceAlpha" k2="-1" k3="1" operator="arithmetic" result="shadowInnerInner2"/>
      <feColorMatrix in="shadowInnerInner2" result="shadowMatrixInner2" values="0 0 0 0 1   0 0 0 0 1   0 0 0 0 1  0 0 0 0.12 0"/>
      <feMerge>
        <feMergeNode in="shadowMatrixInner1"/>
        <feMergeNode in="shadowMatrixInner2"/>
      </feMerge>
    </filter>
    <path id="sb-s" d="M7.25,4 L7.61736578,4.74436438 L8.43882065,4.86372876 L7.84441032,5.44313562 L7.98473157,6.26127124 L7.25,5.875 L6.51526843,6.26127124 L6.65558968,5.44313562 L6.06117935,4.86372876 L6.88263422,4.74436438 L7.25,4 Z M2.25,4 L2.61736578,4.74436438 L3.43882065,4.86372876 L2.84441032,5.44313562 L2.98473157,6.26127124 L2.25,5.875 L1.51526843,6.26127124 L1.65558968,5.44313562 L1.06117935,4.86372876 L1.88263422,4.74436438 L2.25,4 Z M4.75,2.5 L5.11736578,3.24436438 L5.93882065,3.36372876 L5.34441032,3.94313562 L5.48473157,4.76127124 L4.75,4.375 L4.01526843,4.76127124 L4.15558968,3.94313562 L3.56117935,3.36372876 L4.38263422,3.24436438 L4.75,2.5 Z M2.25,1 L2.61736578,1.74436438 L3.43882065,1.86372876 L2.84441032,2.44313562 L2.98473157,3.26127124 L2.25,2.875 L1.51526843,3.26127124 L1.65558968,2.44313562 L1.06117935,1.86372876 L1.88263422,1.74436438 L2.25,1 Z M7.25,1 L7.61736578,1.74436438 L8.43882065,1.86372876 L7.84441032,2.44313562 L7.98473157,3.26127124 L7.25,2.875 L6.51526843,3.26127124 L6.65558968,2.44313562 L6.06117935,1.86372876 L6.88263422,1.74436438 L7.25,1 Z"/>
    <filter id="sb-r" width="106.8%" height="119%" x="-3.4%" y="-4.8%" filterUnits="objectBoundingBox">
      <feOffset dy=".5" in="SourceAlpha" result="shadowOffsetOuter1"/>
      <feColorMatrix in="shadowOffsetOuter1" values="0 0 0 0 0   0 0 0 0 0   0 0 0 0 0  0 0 0 0.24 0"/>
    </filter>
  </defs>
  <g fill="none" fill-rule="evenodd" transform="translate(1 1)">
    <mask id="sb-e" fill="#fff">
      <use xlink:href="#sb-a"/>
    </mask>
    <use fill="#000" filter="url(#sb-b)" xlink:href="#sb-a"/>
    <use fill="url(#sb-c)" xlink:href="#sb-a"/>
    <rect width="21" height="15" fill="url(#sb-d)" mask="url(#sb-e)"/>
    <g mask="url(#sb-e)">
      <use fill="#000" filter="url(#sb-f)" xlink:href="#sb-g"/>
      <use fill="url(#sb-h)" xlink:href="#sb-g"/>
    </g>
    <g mask="url(#sb-e)" transform="matrix(-1 0 0 1 21 0)">
      <use fill="#000" filter="url(#sb-i)" xlink:href="#sb-j"/>
      <use fill="url(#sb-k)" xlink:href="#sb-j"/>
    </g>
    <g mask="url(#sb-e)">
      <use fill="#000" filter="url(#sb-l)" xlink:href="#sb-m"/>
      <use fill="url(#sb-n)" xlink:href="#sb-m"/>
    </g>
    <mask id="sb-q" fill="#fff">
      <use xlink:href="#sb-o"/>
    </mask>
    <use fill="#000" filter="url(#sb-p)" xlink:href="#sb-o"/>
    <g mask="url(#sb-q)">
      <use fill="#000" filter="url(#sb-r)" xlink:href="#sb-s"/>
      <use fill="#FFF" xlink:href="#sb-s"/>
    </g>
  </g>
</svg>
