<svg xmlns="http://www.w3.org/2000/svg" xmlns:xlink="http://www.w3.org/1999/xlink" width="23" height="17" viewBox="0 0 23 17">
  <defs>
    <filter id="sg-a" width="111.9%" height="123.3%" x="-6%" y="-8.3%" filterUnits="objectBoundingBox">
      <feMorphology in="SourceAlpha" operator="dilate" radius=".25" result="shadowSpreadOuter1"/>
      <feOffset in="shadowSpreadOuter1" result="shadowOffsetOuter1"/>
      <feColorMatrix in="shadowOffsetOuter1" result="shadowMatrixOuter1" values="0 0 0 0 0   0 0 0 0 0   0 0 0 0 0  0 0 0 0.06 0"/>
      <feMerge>
        <feMergeNode in="shadowMatrixOuter1"/>
        <feMergeNode in="SourceGraphic"/>
      </feMerge>
    </filter>
    <linearGradient id="sg-d" x1="50%" x2="50%" y1="0%" y2="100%">
      <stop offset="0%" stop-color="#FFF"/>
      <stop offset="100%" stop-color="#F0F0F0"/>
    </linearGradient>
    <rect id="sg-b" width="21" height="15" x="0" y="0" rx="1.5"/>
    <filter id="sg-c" width="116.7%" height="123.3%" x="-8.3%" y="-8.3%" filterUnits="objectBoundingBox">
      <feOffset dy=".5" in="SourceAlpha" result="shadowOffsetOuter1"/>
      <feGaussianBlur in="shadowOffsetOuter1" result="shadowBlurOuter1" stdDeviation=".5"/>
      <feColorMatrix in="shadowBlurOuter1" values="0 0 0 0 0   0 0 0 0 0   0 0 0 0 0  0 0 0 0.16 0"/>
    </filter>
    <linearGradient id="sg-h" x1="50%" x2="50%" y1="0%" y2="100%">
      <stop offset="0%" stop-color="#E12237"/>
      <stop offset="100%" stop-color="#CE1126"/>
    </linearGradient>
    <rect id="sg-g" width="21" height="8" x="0" y="0"/>
    <filter id="sg-f" width="107.1%" height="118.8%" x="-3.6%" y="-9.4%" filterUnits="objectBoundingBox">
      <feMorphology in="SourceAlpha" operator="dilate" radius=".25" result="shadowSpreadOuter1"/>
      <feOffset in="shadowSpreadOuter1" result="shadowOffsetOuter1"/>
      <feColorMatrix in="shadowOffsetOuter1" values="0 0 0 0 0   0 0 0 0 0   0 0 0 0 0  0 0 0 0.06 0"/>
    </filter>
    <linearGradient id="sg-k" x1="50%" x2="50%" y1="0%" y2="100%">
      <stop offset="0%" stop-color="#FFF"/>
      <stop offset="100%" stop-color="#F0F0F0"/>
    </linearGradient>
    <rect id="sg-j" width="21" height="7" x="0" y="8"/>
    <filter id="sg-i" width="107.1%" height="121.4%" x="-3.6%" y="-10.7%" filterUnits="objectBoundingBox">
      <feMorphology in="SourceAlpha" operator="dilate" radius=".25" result="shadowSpreadOuter1"/>
      <feOffset in="shadowSpreadOuter1" result="shadowOffsetOuter1"/>
      <feColorMatrix in="shadowOffsetOuter1" values="0 0 0 0 0   0 0 0 0 0   0 0 0 0 0  0 0 0 0.06 0"/>
    </filter>
    <linearGradient id="sg-n" x1="50%" x2="50%" y1="0%" y2="100%">
      <stop offset="0%" stop-color="#FFF"/>
      <stop offset="100%" stop-color="#F0F0F0"/>
    </linearGradient>
    <path id="sg-m" d="M5,1 C5.70962869,1 6.36171073,1.24638647 6.87536626,1.65827954 C6.603139,1.55572562 6.30807721,1.5 6,1.5 C4.61928813,1.5 3.5,2.61928813 3.5,4 C3.5,5.38071187 4.61928813,6.5 6,6.5 C6.30807721,6.5 6.603139,6.44427438 6.87565548,6.34235303 C6.36171073,6.75361353 5.70962869,7 5,7 C3.34314575,7 2,5.65685425 2,4 C2,2.34314575 3.34314575,1 5,1 Z M6.5,5 C6.77614237,5 7,5.22385763 7,5.5 C7,5.77614237 6.77614237,6 6.5,6 C6.22385763,6 6,5.77614237 6,5.5 C6,5.22385763 6.22385763,5 6.5,5 Z M8.5,5 C8.77614237,5 9,5.22385763 9,5.5 C9,5.77614237 8.77614237,6 8.5,6 C8.22385763,6 8,5.77614237 8,5.5 C8,5.22385763 8.22385763,5 8.5,5 Z M5.5,3 C5.77614237,3 6,3.22385763 6,3.5 C6,3.77614237 5.77614237,4 5.5,4 C5.22385763,4 5,3.77614237 5,3.5 C5,3.22385763 5.22385763,3 5.5,3 Z M9.5,3 C9.77614237,3 10,3.22385763 10,3.5 C10,3.77614237 9.77614237,4 9.5,4 C9.22385763,4 9,3.77614237 9,3.5 C9,3.22385763 9.22385763,3 9.5,3 Z M7.5,1.5 C7.77614237,1.5 8,1.72385763 8,2 C8,2.27614237 7.77614237,2.5 7.5,2.5 C7.22385763,2.5 7,2.27614237 7,2 C7,1.72385763 7.22385763,1.5 7.5,1.5 Z"/>
    <filter id="sg-l" width="106.2%" height="116.7%" x="-3.1%" y="-4.2%" filterUnits="objectBoundingBox">
      <feOffset dy=".5" in="SourceAlpha" result="shadowOffsetOuter1"/>
      <feColorMatrix in="shadowOffsetOuter1" values="0 0 0 0 0   0 0 0 0 0   0 0 0 0 0  0 0 0 0.06 0"/>
    </filter>
    <rect id="sg-p" width="21" height="15" x="0" y="0" rx="1.5"/>
    <filter id="sg-o" width="102.4%" height="103.3%" x="-1.2%" y="-1.7%" filterUnits="objectBoundingBox">
      <feOffset dy="-.5" in="SourceAlpha" result="shadowOffsetInner1"/>
      <feComposite in="shadowOffsetInner1" in2="SourceAlpha" k2="-1" k3="1" operator="arithmetic" result="shadowInnerInner1"/>
      <feColorMatrix in="shadowInnerInner1" result="shadowMatrixInner1" values="0 0 0 0 0   0 0 0 0 0   0 0 0 0 0  0 0 0 0.04 0"/>
      <feOffset dy=".5" in="SourceAlpha" result="shadowOffsetInner2"/>
      <feComposite in="shadowOffsetInner2" in2="SourceAlpha" k2="-1" k3="1" operator="arithmetic" result="shadowInnerInner2"/>
      <feColorMatrix in="shadowInnerInner2" result="shadowMatrixInner2" values="0 0 0 0 1   0 0 0 0 1   0 0 0 0 1  0 0 0 0.12 0"/>
      <feMerge>
        <feMergeNode in="shadowMatrixInner1"/>
        <feMergeNode in="shadowMatrixInner2"/>
      </feMerge>
    </filter>
  </defs>
  <g fill="none" fill-rule="evenodd" filter="url(#sg-a)" transform="translate(1 1)">
    <mask id="sg-e" fill="#fff">
      <use xlink:href="#sg-b"/>
    </mask>
    <use fill="#000" filter="url(#sg-c)" xlink:href="#sg-b"/>
    <use fill="url(#sg-d)" xlink:href="#sg-b"/>
    <g mask="url(#sg-e)">
      <use fill="#000" filter="url(#sg-f)" xlink:href="#sg-g"/>
      <use fill="url(#sg-h)" xlink:href="#sg-g"/>
    </g>
    <g mask="url(#sg-e)">
      <use fill="#000" filter="url(#sg-i)" xlink:href="#sg-j"/>
      <use fill="url(#sg-k)" xlink:href="#sg-j"/>
    </g>
    <g mask="url(#sg-e)">
      <use fill="#000" filter="url(#sg-l)" xlink:href="#sg-m"/>
      <use fill="url(#sg-n)" xlink:href="#sg-m"/>
    </g>
    <g fill="#000" mask="url(#sg-e)">
      <use filter="url(#sg-o)" xlink:href="#sg-p"/>
    </g>
  </g>
</svg>
