<svg xmlns="http://www.w3.org/2000/svg" xmlns:xlink="http://www.w3.org/1999/xlink" width="23" height="17" viewBox="0 0 23 17">
  <defs>
    <linearGradient id="sk-c" x1="50%" x2="50%" y1="0%" y2="100%">
      <stop offset="0%" stop-color="#FFF"/>
      <stop offset="100%" stop-color="#F0F0F0"/>
    </linearGradient>
    <rect id="sk-a" width="21" height="15" x="0" y="0" rx="1.5"/>
    <filter id="sk-b" width="116.7%" height="123.3%" x="-8.3%" y="-8.3%" filterUnits="objectBoundingBox">
      <feOffset dy=".5" in="SourceAlpha" result="shadowOffsetOuter1"/>
      <feGaussianBlur in="shadowOffsetOuter1" result="shadowBlurOuter1" stdDeviation=".5"/>
      <feColorMatrix in="shadowBlurOuter1" values="0 0 0 0 0   0 0 0 0 0   0 0 0 0 0  0 0 0 0.16 0"/>
    </filter>
    <linearGradient id="sk-g" x1="50%" x2="50%" y1="0%" y2="100%">
      <stop offset="0%" stop-color="#0C47B7"/>
      <stop offset="100%" stop-color="#073DA4"/>
    </linearGradient>
    <rect id="sk-f" width="21" height="5" x="0" y="5"/>
    <filter id="sk-e" width="107.1%" height="130%" x="-3.6%" y="-15%" filterUnits="objectBoundingBox">
      <feMorphology in="SourceAlpha" operator="dilate" radius=".25" result="shadowSpreadOuter1"/>
      <feOffset in="shadowSpreadOuter1" result="shadowOffsetOuter1"/>
      <feColorMatrix in="shadowOffsetOuter1" values="0 0 0 0 0   0 0 0 0 0   0 0 0 0 0  0 0 0 0.06 0"/>
    </filter>
    <linearGradient id="sk-j" x1="50%" x2="50%" y1="0%" y2="100%">
      <stop offset="0%" stop-color="#E53B35"/>
      <stop offset="100%" stop-color="#D32E28"/>
    </linearGradient>
    <rect id="sk-i" width="21" height="5" x="0" y="10"/>
    <filter id="sk-h" width="107.1%" height="130%" x="-3.6%" y="-15%" filterUnits="objectBoundingBox">
      <feMorphology in="SourceAlpha" operator="dilate" radius=".25" result="shadowSpreadOuter1"/>
      <feOffset in="shadowSpreadOuter1" result="shadowOffsetOuter1"/>
      <feColorMatrix in="shadowOffsetOuter1" values="0 0 0 0 0   0 0 0 0 0   0 0 0 0 0  0 0 0 0.06 0"/>
    </filter>
    <linearGradient id="sk-m" x1="50%" x2="50%" y1="0%" y2="100%">
      <stop offset="0%" stop-color="#FFF"/>
      <stop offset="100%" stop-color="#F0F0F0"/>
    </linearGradient>
    <rect id="sk-l" width="21" height="5" x="0" y="0"/>
    <filter id="sk-k" width="107.1%" height="130%" x="-3.6%" y="-15%" filterUnits="objectBoundingBox">
      <feMorphology in="SourceAlpha" operator="dilate" radius=".25" result="shadowSpreadOuter1"/>
      <feOffset in="shadowSpreadOuter1" result="shadowOffsetOuter1"/>
      <feColorMatrix in="shadowOffsetOuter1" values="0 0 0 0 0   0 0 0 0 0   0 0 0 0 0  0 0 0 0.06 0"/>
    </filter>
    <linearGradient id="sk-p" x1="50%" x2="50%" y1="0%" y2="100%">
      <stop offset="0%" stop-color="#F73744"/>
      <stop offset="100%" stop-color="#EC212F"/>
    </linearGradient>
    <linearGradient id="sk-q" x1="50%" x2="50%" y1="0%" y2="100%">
      <stop offset="0%" stop-color="#FFF"/>
      <stop offset="100%" stop-color="#F0F0F0"/>
    </linearGradient>
    <path id="sk-n" d="M0.711485382,1.00138006 C0.732756418,0.448333126 1.19677132,0 1.75138006,0 L6.24861994,0 C6.80166687,0 7.26718351,0.446771324 7.28851462,1.00138006 L7.46148538,5.49861994 C7.48275642,6.05166687 7.16440529,6.78765261 6.74055213,7.15095532 L5.1460309,8.5176878 C4.51309551,9.06020385 3.48356295,9.05733967 2.8539691,8.5176878 L1.25944787,7.15095532 C0.840016394,6.79144262 0.517183512,6.05322868 0.538514618,5.49861994 L0.711485382,1.00138006 Z"/>
    <filter id="sk-o" width="143.3%" height="144.8%" x="-21.7%" y="-16.8%" filterUnits="objectBoundingBox">
      <feMorphology in="SourceAlpha" operator="dilate" radius="1" result="shadowSpreadOuter1"/>
      <feOffset dy="1" in="shadowSpreadOuter1" result="shadowOffsetOuter1"/>
      <feComposite in="shadowOffsetOuter1" in2="SourceAlpha" operator="out" result="shadowOffsetOuter1"/>
      <feColorMatrix in="shadowOffsetOuter1" values="0 0 0 0 0   0 0 0 0 0   0 0 0 0 0  0 0 0 0.06 0"/>
    </filter>
    <linearGradient id="sk-u" x1="50%" x2="50%" y1="0%" y2="100%">
      <stop offset="0%" stop-color="#FFF"/>
      <stop offset="100%" stop-color="#F0F0F0"/>
    </linearGradient>
    <path id="sk-t" d="M3.5,5.24523926 C3.5,5.10979736 3.38229752,5 3.25230551,5 L2.24769449,5 C2.1108966,5 2,4.89298248 2,4.74765778 L2,4.25234222 C2,4.11297746 2.11770248,4 2.24769449,4 L3.25230551,4 C3.3891034,4 3.5,3.89298248 3.5,3.74765778 L3.5,3.25234222 C3.5,3.11297746 3.39298248,3 3.24765778,3 L2.75234222,3 C2.61297746,3 2.5,2.89298248 2.5,2.74765778 L2.5,2.25234222 C2.5,2.11297746 2.60701752,2 2.75234222,2 L3.24765778,2 C3.38702254,2 3.5,1.89298248 3.5,1.74765778 L3.5,1.25234222 C3.5,1.11297746 3.60701752,1 3.75234222,1 L4.24765778,1 C4.38702254,1 4.5,1.10701752 4.5,1.25234222 L4.5,1.74765778 C4.5,1.88702254 4.60701752,2 4.75234222,2 L5.24765778,2 C5.38702254,2 5.5,2.10701752 5.5,2.25234222 L5.5,2.74765778 C5.5,2.88702254 5.39298248,3 5.24765778,3 L4.75234222,3 C4.61297746,3 4.5,3.10701752 4.5,3.25234222 L4.5,3.74765778 C4.5,3.88702254 4.61770248,4 4.74769449,4 L5.75230551,4 C5.8891034,4 6,4.10701752 6,4.25234222 L6,4.74765778 C6,4.88702254 5.88229752,5 5.75230551,5 L4.74769449,5 C4.6108966,5 4.5,5.10752869 4.5,5.24523926 L4.5,6.75476074 C4.5,6.89020264 4.39298248,7 4.24765778,7 L3.75234222,7 C3.61297746,7 3.5,6.89247131 3.5,6.75476074 L3.5,5.24523926 Z"/>
    <filter id="sk-s" width="112.5%" height="116.7%" x="-6.2%" y="-4.2%" filterUnits="objectBoundingBox">
      <feOffset dy=".5" in="SourceAlpha" result="shadowOffsetOuter1"/>
      <feColorMatrix in="shadowOffsetOuter1" values="0 0 0 0 0   0 0 0 0 0   0 0 0 0 0  0 0 0 0.06 0"/>
    </filter>
    <rect id="sk-w" width="21" height="15" x="0" y="0" rx="1.5"/>
    <filter id="sk-v" width="102.4%" height="103.3%" x="-1.2%" y="-1.7%" filterUnits="objectBoundingBox">
      <feOffset dy="-.5" in="SourceAlpha" result="shadowOffsetInner1"/>
      <feComposite in="shadowOffsetInner1" in2="SourceAlpha" k2="-1" k3="1" operator="arithmetic" result="shadowInnerInner1"/>
      <feColorMatrix in="shadowInnerInner1" result="shadowMatrixInner1" values="0 0 0 0 0   0 0 0 0 0   0 0 0 0 0  0 0 0 0.04 0"/>
      <feOffset dy=".5" in="SourceAlpha" result="shadowOffsetInner2"/>
      <feComposite in="shadowOffsetInner2" in2="SourceAlpha" k2="-1" k3="1" operator="arithmetic" result="shadowInnerInner2"/>
      <feColorMatrix in="shadowInnerInner2" result="shadowMatrixInner2" values="0 0 0 0 1   0 0 0 0 1   0 0 0 0 1  0 0 0 0.12 0"/>
      <feMerge>
        <feMergeNode in="shadowMatrixInner1"/>
        <feMergeNode in="shadowMatrixInner2"/>
      </feMerge>
    </filter>
  </defs>
  <g fill="none" fill-rule="evenodd" transform="translate(1 1)">
    <mask id="sk-d" fill="#fff">
      <use xlink:href="#sk-a"/>
    </mask>
    <use fill="#000" filter="url(#sk-b)" xlink:href="#sk-a"/>
    <use fill="url(#sk-c)" xlink:href="#sk-a"/>
    <g mask="url(#sk-d)">
      <use fill="#000" filter="url(#sk-e)" xlink:href="#sk-f"/>
      <use fill="url(#sk-g)" xlink:href="#sk-f"/>
    </g>
    <g mask="url(#sk-d)">
      <use fill="#000" filter="url(#sk-h)" xlink:href="#sk-i"/>
      <use fill="url(#sk-j)" xlink:href="#sk-i"/>
    </g>
    <g mask="url(#sk-d)">
      <use fill="#000" filter="url(#sk-k)" xlink:href="#sk-l"/>
      <use fill="url(#sk-m)" xlink:href="#sk-l"/>
    </g>
    <g mask="url(#sk-d)">
      <g transform="translate(3.5 3)">
        <mask id="sk-r" fill="#fff">
          <use xlink:href="#sk-n"/>
        </mask>
        <use fill="#000" filter="url(#sk-o)" xlink:href="#sk-n"/>
        <path fill="url(#sk-p)" stroke="url(#sk-q)" d="M6.24861994,-0.5 L1.75138006,-0.5 C1.34106378,-0.5 0.963549203,-0.335470765 0.685007937,-0.0672458428 C0.406229141,0.201207813 0.227605315,0.572649974 0.211854795,0.982163503 L0.0388840305,5.47940338 C0.0124018313,6.16794056 0.413379412,7.08429267 0.934052186,7.53058362 L2.52857341,8.8973161 C2.93325549,9.24418646 3.46540419,9.42350148 4.00039528,9.42350148 C4.53403523,9.42350148 5.0656101,9.2451588 5.47142659,8.8973161 L7.06594781,7.53058362 C7.59210956,7.07958784 7.98752359,6.16600161 7.96111597,5.47940338 L7.78814521,0.982163503 C7.77237062,0.572024226 7.593589,0.201032688 7.31517945,-0.0670653928 C7.03626879,-0.335646036 6.65831013,-0.5 6.24861994,-0.5 Z"/>
        <g mask="url(#sk-r)">
          <use fill="#000" filter="url(#sk-s)" xlink:href="#sk-t"/>
          <use fill="url(#sk-u)" xlink:href="#sk-t"/>
        </g>
        <path fill="#1251A1" d="M4,6.5 C4.39796989,6.5 4.74164235,6.73247498 4.90262472,7.06903231 C6.11862704,7.26077308 7,7.82892262 7,8.5 C7,9.32842712 5.65685425,10 4,10 C2.34314575,10 1,9.32842712 1,8.5 C1,7.82892262 1.88137296,7.26077308 3.09690797,7.06915684 C3.25835765,6.73247498 3.60203011,6.5 4,6.5 Z" mask="url(#sk-r)"/>
      </g>
    </g>
    <g fill="#000" mask="url(#sk-d)">
      <use filter="url(#sk-v)" xlink:href="#sk-w"/>
    </g>
  </g>
</svg>
