<svg xmlns="http://www.w3.org/2000/svg" xmlns:xlink="http://www.w3.org/1999/xlink" width="23" height="17" viewBox="0 0 23 17">
  <defs>
    <linearGradient id="tc-c" x1="50%" x2="50%" y1="0%" y2="100%">
      <stop offset="0%" stop-color="#FFF"/>
      <stop offset="100%" stop-color="#F0F0F0"/>
    </linearGradient>
    <rect id="tc-a" width="21" height="15" x="0" y="0" rx="1.5"/>
    <filter id="tc-b" width="116.7%" height="123.3%" x="-8.3%" y="-8.3%" filterUnits="objectBoundingBox">
      <feOffset dy=".5" in="SourceAlpha" result="shadowOffsetOuter1"/>
      <feGaussianBlur in="shadowOffsetOuter1" result="shadowBlurOuter1" stdDeviation=".5"/>
      <feColorMatrix in="shadowBlurOuter1" values="0 0 0 0 0   0 0 0 0 0   0 0 0 0 0  0 0 0 0.16 0"/>
    </filter>
    <linearGradient id="tc-g" x1="50%" x2="50%" y1="0%" y2="100%">
      <stop offset="0%" stop-color="#07319C"/>
      <stop offset="100%" stop-color="#00247E"/>
    </linearGradient>
    <rect id="tc-f" width="21" height="15" x="0" y="0"/>
    <filter id="tc-e" width="116.7%" height="123.3%" x="-8.3%" y="-8.3%" filterUnits="objectBoundingBox">
      <feOffset dy=".5" in="SourceAlpha" result="shadowOffsetOuter1"/>
      <feGaussianBlur in="shadowOffsetOuter1" result="shadowBlurOuter1" stdDeviation=".5"/>
      <feColorMatrix in="shadowBlurOuter1" values="0 0 0 0 0   0 0 0 0 0   0 0 0 0 0  0 0 0 0.16 0"/>
    </filter>
    <linearGradient id="tc-j" x1="50%" x2="50%" y1="0%" y2="100%">
      <stop offset="0%" stop-color="#FFD033"/>
      <stop offset="100%" stop-color="#FEC403"/>
    </linearGradient>
    <linearGradient id="tc-k" x1="50%" x2="50%" y1="0%" y2="100%">
      <stop offset="0%" stop-color="#FFF"/>
      <stop offset="100%" stop-color="#F0F0F0"/>
    </linearGradient>
    <path id="tc-h" d="M0,3.5 L2.57831658e-17,0.999341965 C1.15435165e-17,0.447420638 0.443716645,0 0.999807492,0 L4.00019251,0 C4.55237094,0 5,0.440959692 5,0.999341965 L5,3.5 C5,6 2.5,7 2.5,7 C2.5,7 0,6 0,3.5 Z"/>
    <filter id="tc-i" width="110%" height="114.3%" x="-5%" y="-3.6%" filterUnits="objectBoundingBox">
      <feOffset dy=".5" in="SourceAlpha" result="shadowOffsetOuter1"/>
      <feComposite in="shadowOffsetOuter1" in2="SourceAlpha" operator="out" result="shadowOffsetOuter1"/>
      <feColorMatrix in="shadowOffsetOuter1" values="0 0 0 0 0   0 0 0 0 0   0 0 0 0 0  0 0 0 0.06 0"/>
    </filter>
    <linearGradient id="tc-m" x1="50%" x2="50%" y1="0%" y2="100%">
      <stop offset="0%" stop-color="#DB1E36"/>
      <stop offset="100%" stop-color="#D51931"/>
    </linearGradient>
    <linearGradient id="tc-n" x1="50%" x2="50%" y1="0%" y2="100%">
      <stop offset="0%" stop-color="#FFF"/>
      <stop offset="100%" stop-color="#F0F0F0"/>
    </linearGradient>
    <rect id="tc-p" width="21" height="15" x="0" y="0" rx="1.5"/>
    <filter id="tc-o" width="102.4%" height="103.3%" x="-1.2%" y="-1.7%" filterUnits="objectBoundingBox">
      <feOffset dy="-.5" in="SourceAlpha" result="shadowOffsetInner1"/>
      <feComposite in="shadowOffsetInner1" in2="SourceAlpha" k2="-1" k3="1" operator="arithmetic" result="shadowInnerInner1"/>
      <feColorMatrix in="shadowInnerInner1" result="shadowMatrixInner1" values="0 0 0 0 0   0 0 0 0 0   0 0 0 0 0  0 0 0 0.04 0"/>
      <feOffset dy=".5" in="SourceAlpha" result="shadowOffsetInner2"/>
      <feComposite in="shadowOffsetInner2" in2="SourceAlpha" k2="-1" k3="1" operator="arithmetic" result="shadowInnerInner2"/>
      <feColorMatrix in="shadowInnerInner2" result="shadowMatrixInner2" values="0 0 0 0 1   0 0 0 0 1   0 0 0 0 1  0 0 0 0.12 0"/>
      <feMerge>
        <feMergeNode in="shadowMatrixInner1"/>
        <feMergeNode in="shadowMatrixInner2"/>
      </feMerge>
    </filter>
  </defs>
  <g fill="none" fill-rule="evenodd" transform="translate(1 1)">
    <mask id="tc-d" fill="#fff">
      <use xlink:href="#tc-a"/>
    </mask>
    <use fill="#000" filter="url(#tc-b)" xlink:href="#tc-a"/>
    <use fill="url(#tc-c)" xlink:href="#tc-a"/>
    <g mask="url(#tc-d)">
      <use fill="#000" filter="url(#tc-e)" xlink:href="#tc-f"/>
      <use fill="url(#tc-g)" xlink:href="#tc-f"/>
    </g>
    <g mask="url(#tc-d)">
      <g transform="translate(13 4)">
        <mask id="tc-l" fill="#fff">
          <use xlink:href="#tc-h"/>
        </mask>
        <use fill="#000" filter="url(#tc-i)" xlink:href="#tc-h"/>
        <path fill="url(#tc-j)" stroke="url(#tc-k)" stroke-linejoin="square" stroke-width=".5" d="M4.00019251,0.25 L0.999807492,0.25 C0.791672413,0.25 0.60437086,0.333314838 0.469061332,0.468561363 C0.333286893,0.604272584 0.25,0.792034162 0.25,0.999341965 L0.25,3.5 C0.25,4.27336532 0.507873448,4.89201768 0.851581516,5.37320897 C1.42360971,6.17404844 2.23012944,6.60000644 2.50047188,6.72681431 C2.93643358,6.5244095 4.75,5.55855736 4.75,3.5 L4.75,0.999341965 C4.75,0.790667895 4.66702083,0.603621555 4.53200511,0.468668698 C4.39611291,0.332839769 4.2079123,0.25 4.00019251,0.25 Z"/>
        <ellipse cx="3.5" cy="2" fill="#BA5B1F" mask="url(#tc-l)" rx="1" ry="1"/>
        <ellipse cx="1.312" cy="2.03" fill="#FF9F3E" mask="url(#tc-l)" rx="1" ry="1" transform="rotate(-20 1.312 2.03)"/>
        <ellipse cx="1.711" cy="2.047" fill="#FF937F" mask="url(#tc-l)" rx="1" ry="1" transform="rotate(25 1.711 2.047)"/>
        <polygon fill="#01A827" points="2 4 2.5 3 3 4 3 5 2 5" mask="url(#tc-l)"/>
      </g>
    </g>
    <path fill="url(#tc-m)" stroke="#FFF" stroke-width=".5" d="M0.580116263,-0.25 L-0.675814352,-0.25 L3.25,3.11498373 L3.25,3.87134553 L-0.25,6.37134553 L-0.25,7.45106191 L4.07169906,4.75 L4.92942021,4.75 L11.367513,8.70002745 L5.75,3.88501627 L5.75,3.11498373 L11.6883505,-1.97503094 L4.92830094,2.25 L4.08011626,2.25 L0.580116263,-0.25 Z" mask="url(#tc-d)"/>
    <path fill="url(#tc-n)" d="M0,2.5 L0,4.5 L3.5,4.5 L3.5,7.00461102 C3.5,7.2782068 3.71403503,7.5 4.00468445,7.5 L4.99531555,7.5 C5.27404508,7.5 5.5,7.2842474 5.5,7.00461102 L5.5,4.5 L9.00952148,4.5 C9.28040529,4.5 9.5,4.28596497 9.5,3.99531555 L9.5,3.00468445 C9.5,2.72595492 9.28494263,2.5 9.00952148,2.5 L5.5,2.5 L5.5,0 L3.5,0 L3.5,2.5 L0,2.5 Z" mask="url(#tc-d)"/>
    <polygon fill="url(#tc-m)" points="0 3 4 3 4 2.5 4 0 5 0 5 2.5 5 3 9 3 9 4 5 4 5 4.5 5 7 4 7 4 4.5 4 4 0 4" mask="url(#tc-d)"/>
    <g fill="#000" mask="url(#tc-d)">
      <use filter="url(#tc-o)" xlink:href="#tc-p"/>
    </g>
  </g>
</svg>
