<svg xmlns="http://www.w3.org/2000/svg" xmlns:xlink="http://www.w3.org/1999/xlink" width="23" height="17" viewBox="0 0 23 17">
  <defs>
    <linearGradient id="tj-c" x1="50%" x2="50%" y1="0%" y2="100%">
      <stop offset="0%" stop-color="#FFF"/>
      <stop offset="100%" stop-color="#F0F0F0"/>
    </linearGradient>
    <rect id="tj-a" width="21" height="15" x="0" y="0" rx="1.5"/>
    <filter id="tj-b" width="116.7%" height="123.3%" x="-8.3%" y="-8.3%" filterUnits="objectBoundingBox">
      <feOffset dy=".5" in="SourceAlpha" result="shadowOffsetOuter1"/>
      <feGaussianBlur in="shadowOffsetOuter1" result="shadowBlurOuter1" stdDeviation=".5"/>
      <feColorMatrix in="shadowBlurOuter1" values="0 0 0 0 0   0 0 0 0 0   0 0 0 0 0  0 0 0 0.16 0"/>
    </filter>
    <linearGradient id="tj-g" x1="50%" x2="50%" y1="0%" y2="100%">
      <stop offset="0%" stop-color="#D9101C"/>
      <stop offset="100%" stop-color="#CA0814"/>
    </linearGradient>
    <rect id="tj-f" width="21" height="5" x="0" y="0"/>
    <filter id="tj-e" width="107.1%" height="130%" x="-3.6%" y="-15%" filterUnits="objectBoundingBox">
      <feMorphology in="SourceAlpha" operator="dilate" radius=".25" result="shadowSpreadOuter1"/>
      <feOffset in="shadowSpreadOuter1" result="shadowOffsetOuter1"/>
      <feColorMatrix in="shadowOffsetOuter1" values="0 0 0 0 0   0 0 0 0 0   0 0 0 0 0  0 0 0 0.06 0"/>
    </filter>
    <linearGradient id="tj-j" x1="50%" x2="50%" y1="0%" y2="100%">
      <stop offset="0%" stop-color="#0F7811"/>
      <stop offset="100%" stop-color="#0A650C"/>
    </linearGradient>
    <rect id="tj-i" width="21" height="5" x="0" y="10"/>
    <filter id="tj-h" width="107.1%" height="130%" x="-3.6%" y="-15%" filterUnits="objectBoundingBox">
      <feMorphology in="SourceAlpha" operator="dilate" radius=".25" result="shadowSpreadOuter1"/>
      <feOffset in="shadowSpreadOuter1" result="shadowOffsetOuter1"/>
      <feColorMatrix in="shadowOffsetOuter1" values="0 0 0 0 0   0 0 0 0 0   0 0 0 0 0  0 0 0 0.06 0"/>
    </filter>
    <linearGradient id="tj-m" x1="50%" x2="50%" y1="0%" y2="100%">
      <stop offset="0%" stop-color="#FFF"/>
      <stop offset="100%" stop-color="#F0F0F0"/>
    </linearGradient>
    <rect id="tj-l" width="21" height="5" x="0" y="5"/>
    <filter id="tj-k" width="107.1%" height="130%" x="-3.6%" y="-15%" filterUnits="objectBoundingBox">
      <feMorphology in="SourceAlpha" operator="dilate" radius=".25" result="shadowSpreadOuter1"/>
      <feOffset in="shadowSpreadOuter1" result="shadowOffsetOuter1"/>
      <feColorMatrix in="shadowOffsetOuter1" values="0 0 0 0 0   0 0 0 0 0   0 0 0 0 0  0 0 0 0.06 0"/>
    </filter>
    <rect id="tj-o" width="21" height="15" x="0" y="0" rx="1.5"/>
    <filter id="tj-n" width="102.4%" height="103.3%" x="-1.2%" y="-1.7%" filterUnits="objectBoundingBox">
      <feOffset dy="-.5" in="SourceAlpha" result="shadowOffsetInner1"/>
      <feComposite in="shadowOffsetInner1" in2="SourceAlpha" k2="-1" k3="1" operator="arithmetic" result="shadowInnerInner1"/>
      <feColorMatrix in="shadowInnerInner1" result="shadowMatrixInner1" values="0 0 0 0 0   0 0 0 0 0   0 0 0 0 0  0 0 0 0.04 0"/>
      <feOffset dy=".5" in="SourceAlpha" result="shadowOffsetInner2"/>
      <feComposite in="shadowOffsetInner2" in2="SourceAlpha" k2="-1" k3="1" operator="arithmetic" result="shadowInnerInner2"/>
      <feColorMatrix in="shadowInnerInner2" result="shadowMatrixInner2" values="0 0 0 0 1   0 0 0 0 1   0 0 0 0 1  0 0 0 0.12 0"/>
      <feMerge>
        <feMergeNode in="shadowMatrixInner1"/>
        <feMergeNode in="shadowMatrixInner2"/>
      </feMerge>
    </filter>
  </defs>
  <g fill="none" fill-rule="evenodd" transform="translate(1 1)">
    <mask id="tj-d" fill="#fff">
      <use xlink:href="#tj-a"/>
    </mask>
    <use fill="#000" filter="url(#tj-b)" xlink:href="#tj-a"/>
    <use fill="url(#tj-c)" xlink:href="#tj-a"/>
    <g mask="url(#tj-d)">
      <use fill="#000" filter="url(#tj-e)" xlink:href="#tj-f"/>
      <use fill="url(#tj-g)" xlink:href="#tj-f"/>
    </g>
    <g mask="url(#tj-d)">
      <use fill="#000" filter="url(#tj-h)" xlink:href="#tj-i"/>
      <use fill="url(#tj-j)" xlink:href="#tj-i"/>
    </g>
    <g mask="url(#tj-d)">
      <use fill="#000" filter="url(#tj-k)" xlink:href="#tj-l"/>
      <use fill="url(#tj-m)" xlink:href="#tj-l"/>
    </g>
    <path fill="#FAD14E" d="M10.5,7 C10.7761424,7 11,7.22385763 11,7.5 C11,7.59048973 10.9759617,7.78274726 10.9339224,8.00035854 L11.504611,8 C11.7478073,8 11.9500731,8.18325617 11.9920186,8.41225137 L12,8.5 C12,8.77614237 11.7842474,9 11.504611,9 L9.49538898,9 C9.2217932,9 9,8.76806641 9,8.5 C9,8.22385763 9.2157526,8 9.49538898,8 L10.0660776,8.00035854 C10.0240383,7.78274726 10,7.59048973 10,7.5 C10,7.22385763 10.2238576,7 10.5,7 Z M13.5,7 C13.7761424,7 14,7.22385763 14,7.5 C14,7.77614237 13.7761424,8 13.5,8 C13.2238576,8 13,7.77614237 13,7.5 C13,7.22385763 13.2238576,7 13.5,7 Z M7.5,7 C7.77614237,7 8,7.22385763 8,7.5 C8,7.77614237 7.77614237,8 7.5,8 C7.22385763,8 7,7.77614237 7,7.5 C7,7.22385763 7.22385763,7 7.5,7 Z M9.5,6 C9.77614237,6 10,6.22385763 10,6.5 C10,6.77614237 9.77614237,7 9.5,7 C9.22385763,7 9,6.77614237 9,6.5 C9,6.22385763 9.22385763,6 9.5,6 Z M11.5,6 C11.7761424,6 12,6.22385763 12,6.5 C12,6.77614237 11.7761424,7 11.5,7 C11.2238576,7 11,6.77614237 11,6.5 C11,6.22385763 11.2238576,6 11.5,6 Z" mask="url(#tj-d)"/>
    <g fill="#000" mask="url(#tj-d)">
      <use filter="url(#tj-n)" xlink:href="#tj-o"/>
    </g>
  </g>
</svg>
