<svg xmlns="http://www.w3.org/2000/svg" xmlns:xlink="http://www.w3.org/1999/xlink" width="23" height="17" viewBox="0 0 23 17">
  <defs>
    <linearGradient id="tm-c" x1="50%" x2="50%" y1="0%" y2="100%">
      <stop offset="0%" stop-color="#FFF"/>
      <stop offset="100%" stop-color="#F0F0F0"/>
    </linearGradient>
    <rect id="tm-a" width="21" height="15" x="0" y="0" rx="1.5"/>
    <filter id="tm-b" width="116.7%" height="123.3%" x="-8.3%" y="-8.3%" filterUnits="objectBoundingBox">
      <feOffset dy=".5" in="SourceAlpha" result="shadowOffsetOuter1"/>
      <feGaussianBlur in="shadowOffsetOuter1" result="shadowBlurOuter1" stdDeviation=".5"/>
      <feColorMatrix in="shadowBlurOuter1" values="0 0 0 0 0   0 0 0 0 0   0 0 0 0 0  0 0 0 0.16 0"/>
    </filter>
    <linearGradient id="tm-d" x1="50%" x2="50%" y1="0%" y2="100%">
      <stop offset="0%" stop-color="#30C375"/>
      <stop offset="100%" stop-color="#28AE67"/>
    </linearGradient>
    <linearGradient id="tm-f" x1="50%" x2="50%" y1="0%" y2="100%">
      <stop offset="0%" stop-color="#DE414F"/>
      <stop offset="100%" stop-color="#CA3745"/>
    </linearGradient>
    <ellipse id="tm-g" cx="1.5" cy="1" rx="1.5" ry="1"/>
    <ellipse id="tm-i" cx="1.5" cy="1" rx="1.5" ry="1"/>
    <ellipse id="tm-k" cx="1.5" cy="1" rx="1.5" ry="1"/>
    <ellipse id="tm-m" cx="1.5" cy=".5" rx="1.5" ry="1"/>
    <ellipse id="tm-n" cx="1.5" cy="1" rx="1.5" ry="1"/>
    <linearGradient id="tm-r" x1="50%" x2="50%" y1="0%" y2="100%">
      <stop offset="0%" stop-color="#FFF"/>
      <stop offset="100%" stop-color="#F0F0F0"/>
    </linearGradient>
    <path id="tm-q" d="M11.1169894,3.17861784 C10.9394885,3.39015517 10.9670805,3.70553297 11.1786178,3.88303386 C11.3901552,4.06053476 11.705533,4.03294278 11.8830339,3.82140545 C12.0605348,3.60986811 12.0329428,3.29449032 11.8214054,3.11698942 C11.6098681,2.93948852 11.2944903,2.9670805 11.1169894,3.17861784 Z M9.82140545,5.11698942 C9.60986811,4.93948852 9.29449032,4.9670805 9.11698942,5.17861784 C8.93948852,5.39015517 8.9670805,5.70553297 9.17861784,5.88303386 C9.39015517,6.06053476 9.70553297,6.03294278 9.88303386,5.82140545 C10.0605348,5.60986811 10.0329428,5.29449032 9.82140545,5.11698942 L9.82140545,5.11698942 Z M8.82140545,4.11698942 C8.60986811,3.93948852 8.29449032,3.9670805 8.11698942,4.17861784 C7.93948852,4.39015517 7.9670805,4.70553297 8.17861784,4.88303386 C8.39015517,5.06053476 8.70553297,5.03294278 8.88303386,4.82140545 C9.06053476,4.60986811 9.03294278,4.29449032 8.82140545,4.11698942 L8.82140545,4.11698942 Z M10.8214054,2.11698942 C10.6098681,1.93948852 10.2944903,1.9670805 10.1169894,2.17861784 C9.93948852,2.39015517 9.9670805,2.70553297 10.1786178,2.88303386 C10.3901552,3.06053476 10.705533,3.03294278 10.8830339,2.82140545 C11.0605348,2.60986811 11.0329428,2.29449032 10.8214054,2.11698942 L10.8214054,2.11698942 Z M10.3214054,3.61698942 C10.1098681,3.43948852 9.79449032,3.4670805 9.61698942,3.67861784 C9.43948852,3.89015517 9.4670805,4.20553297 9.67861784,4.38303386 C9.89015517,4.56053476 10.205533,4.53294278 10.3830339,4.32140545 C10.5605348,4.10986811 10.5329428,3.79449032 10.3214054,3.61698942 L10.3214054,3.61698942 Z"/>
    <filter id="tm-p" width="112.5%" height="125%" x="-6.2%" y="-6.2%" filterUnits="objectBoundingBox">
      <feOffset dy=".5" in="SourceAlpha" result="shadowOffsetOuter1"/>
      <feColorMatrix in="shadowOffsetOuter1" values="0 0 0 0 0   0 0 0 0 0   0 0 0 0 0  0 0 0 0.06 0"/>
    </filter>
    <path id="tm-t" d="M13.1070726,7.0878904 C11.9160354,8.27892761 9.98498252,8.27892761 8.79394531,7.0878904 C8.67853723,6.97248232 8.57431185,6.85012618 8.48126919,6.72216849 C9.6738634,7.58934686 11.3530454,7.48512149 12.4286745,6.40949237 C13.5043037,5.33386325 13.608529,3.65468123 12.7413507,2.46208702 C12.8693083,2.55512969 12.9916645,2.65935506 13.1070726,2.77476315 C14.2981098,3.96580035 14.2981098,5.8968532 13.1070726,7.0878904 Z"/>
    <filter id="tm-s" width="109.1%" height="118.1%" x="-4.5%" y="-4.5%" filterUnits="objectBoundingBox">
      <feOffset dy=".5" in="SourceAlpha" result="shadowOffsetOuter1"/>
      <feColorMatrix in="shadowOffsetOuter1" values="0 0 0 0 0   0 0 0 0 0   0 0 0 0 0  0 0 0 0.06 0"/>
    </filter>
    <rect id="tm-v" width="21" height="15" x="0" y="0" rx="1.5"/>
    <filter id="tm-u" width="102.4%" height="103.3%" x="-1.2%" y="-1.7%" filterUnits="objectBoundingBox">
      <feOffset dy="-.5" in="SourceAlpha" result="shadowOffsetInner1"/>
      <feComposite in="shadowOffsetInner1" in2="SourceAlpha" k2="-1" k3="1" operator="arithmetic" result="shadowInnerInner1"/>
      <feColorMatrix in="shadowInnerInner1" result="shadowMatrixInner1" values="0 0 0 0 0   0 0 0 0 0   0 0 0 0 0  0 0 0 0.04 0"/>
      <feOffset dy=".5" in="SourceAlpha" result="shadowOffsetInner2"/>
      <feComposite in="shadowOffsetInner2" in2="SourceAlpha" k2="-1" k3="1" operator="arithmetic" result="shadowInnerInner2"/>
      <feColorMatrix in="shadowInnerInner2" result="shadowMatrixInner2" values="0 0 0 0 1   0 0 0 0 1   0 0 0 0 1  0 0 0 0.12 0"/>
      <feMerge>
        <feMergeNode in="shadowMatrixInner1"/>
        <feMergeNode in="shadowMatrixInner2"/>
      </feMerge>
    </filter>
  </defs>
  <g fill="none" fill-rule="evenodd" transform="translate(1 1)">
    <mask id="tm-e" fill="#fff">
      <use xlink:href="#tm-a"/>
    </mask>
    <use fill="#000" filter="url(#tm-b)" xlink:href="#tm-a"/>
    <use fill="url(#tm-c)" xlink:href="#tm-a"/>
    <rect width="21" height="15" fill="url(#tm-d)" mask="url(#tm-e)"/>
    <rect width="3" height="15" x="3" fill="url(#tm-f)" mask="url(#tm-e)"/>
    <g mask="url(#tm-e)">
      <g transform="translate(3 1)">
        <mask id="tm-h" fill="#fff">
          <use xlink:href="#tm-g"/>
        </mask>
        <use fill="#FFF" xlink:href="#tm-g"/>
        <circle cx="1.5" cy="1" r="1" fill="#DD404F" mask="url(#tm-h)"/>
        <rect width="1.5" height="1" fill="#FBAF29" mask="url(#tm-h)"/>
        <rect width="1.5" height="1" x="1.5" y="1" fill="#FBAF29" mask="url(#tm-h)"/>
      </g>
    </g>
    <g mask="url(#tm-e)">
      <g transform="translate(3 12)">
        <mask id="tm-j" fill="#fff">
          <use xlink:href="#tm-i"/>
        </mask>
        <use fill="#FFF" xlink:href="#tm-i"/>
        <circle cx="1.5" cy="1" r="1" fill="#DD404F" mask="url(#tm-j)"/>
        <rect width="1.5" height="1" fill="#FBAF29" mask="url(#tm-j)"/>
        <rect width="1.5" height="1" x="1.5" y="1" fill="#FBAF29" mask="url(#tm-j)"/>
      </g>
    </g>
    <g mask="url(#tm-e)">
      <g transform="translate(3 7)">
        <mask id="tm-l" fill="#fff">
          <use xlink:href="#tm-k"/>
        </mask>
        <use fill="#28AE67" xlink:href="#tm-k"/>
        <ellipse cx="1.5" cy="1" fill="#DD404F" mask="url(#tm-l)" rx="1" ry="1"/>
      </g>
    </g>
    <g mask="url(#tm-e)">
      <use fill="#28AE67" transform="translate(3 10)" xlink:href="#tm-m"/>
    </g>
    <g mask="url(#tm-e)">
      <g transform="translate(3 4)">
        <mask id="tm-o" fill="#fff">
          <use xlink:href="#tm-n"/>
        </mask>
        <use fill="#FBAF29" xlink:href="#tm-n"/>
        <circle cx="1.5" cy="1" r="1" fill="#DD404F" mask="url(#tm-o)"/>
        <rect width="1" height="2" fill="#28AE67" mask="url(#tm-o)"/>
        <rect width="1" height="2" x="2" fill="#28AE67" mask="url(#tm-o)"/>
      </g>
    </g>
    <g mask="url(#tm-e)">
      <use fill="#000" filter="url(#tm-p)" xlink:href="#tm-q"/>
      <use fill="url(#tm-r)" xlink:href="#tm-q"/>
    </g>
    <g mask="url(#tm-e)">
      <use fill="#000" filter="url(#tm-s)" xlink:href="#tm-t"/>
      <use fill="url(#tm-r)" xlink:href="#tm-t"/>
    </g>
    <g fill="#000" mask="url(#tm-e)">
      <use filter="url(#tm-u)" xlink:href="#tm-v"/>
    </g>
  </g>
</svg>
