<svg xmlns="http://www.w3.org/2000/svg" xmlns:xlink="http://www.w3.org/1999/xlink" width="23" height="17" viewBox="0 0 23 17">
  <defs>
    <linearGradient id="tn-c" x1="50%" x2="50%" y1="0%" y2="100%">
      <stop offset="0%" stop-color="#FFF"/>
      <stop offset="100%" stop-color="#F0F0F0"/>
    </linearGradient>
    <rect id="tn-a" width="21" height="15" x="0" y="0" rx="1.5"/>
    <filter id="tn-b" width="116.7%" height="123.3%" x="-8.3%" y="-8.3%" filterUnits="objectBoundingBox">
      <feOffset dy=".5" in="SourceAlpha" result="shadowOffsetOuter1"/>
      <feGaussianBlur in="shadowOffsetOuter1" result="shadowBlurOuter1" stdDeviation=".5"/>
      <feColorMatrix in="shadowBlurOuter1" values="0 0 0 0 0   0 0 0 0 0   0 0 0 0 0  0 0 0 0.16 0"/>
    </filter>
    <linearGradient id="tn-d" x1="50%" x2="50%" y1="0%" y2="100%">
      <stop offset="0%" stop-color="#E92434"/>
      <stop offset="100%" stop-color="#E11324"/>
    </linearGradient>
    <linearGradient id="tn-h" x1="50%" x2="50%" y1="0%" y2="100%">
      <stop offset="0%" stop-color="#FFF"/>
      <stop offset="100%" stop-color="#F0F0F0"/>
    </linearGradient>
    <path id="tn-g" d="M10.5,3 C12.9852814,3 15,5.01471863 15,7.5 C15,9.98528137 12.9852814,12 10.5,12 C8.01471863,12 6,9.98528137 6,7.5 C6,5.01471863 8.01471863,3 10.5,3 Z M10.5,4 C8.56700338,4 7,5.56700338 7,7.5 C7,9.43299662 8.56700338,11 10.5,11 C10.9815129,11 11.4403154,10.9027648 11.857843,10.7268585 C10.2476853,10.5327811 9,9.16209678 9,7.5 C9,5.83790322 10.2476853,4.46721894 11.8575494,4.27345351 C11.4403154,4.09723523 10.9815129,4 10.5,4 Z M11.5461272,5.69230289 L11.4575914,7.13328462 L10.0665062,7.51948263 L11.4096022,8.048973 L11.3470294,9.49131539 L12.2656441,8.37757672 L13.6180572,8.88279532 L12.8426963,7.66497659 L13.7411064,6.53487647 L12.3432923,6.89596178 L11.5461272,5.69230289 Z"/>
    <filter id="tn-f" width="105.6%" height="111.1%" x="-2.8%" y="-2.8%" filterUnits="objectBoundingBox">
      <feOffset dy=".5" in="SourceAlpha" result="shadowOffsetOuter1"/>
      <feColorMatrix in="shadowOffsetOuter1" values="0 0 0 0 0   0 0 0 0 0   0 0 0 0 0  0 0 0 0.06 0"/>
    </filter>
    <rect id="tn-j" width="21" height="15" x="0" y="0" rx="1.5"/>
    <filter id="tn-i" width="102.4%" height="103.3%" x="-1.2%" y="-1.7%" filterUnits="objectBoundingBox">
      <feOffset dy="-.5" in="SourceAlpha" result="shadowOffsetInner1"/>
      <feComposite in="shadowOffsetInner1" in2="SourceAlpha" k2="-1" k3="1" operator="arithmetic" result="shadowInnerInner1"/>
      <feColorMatrix in="shadowInnerInner1" result="shadowMatrixInner1" values="0 0 0 0 0   0 0 0 0 0   0 0 0 0 0  0 0 0 0.04 0"/>
      <feOffset dy=".5" in="SourceAlpha" result="shadowOffsetInner2"/>
      <feComposite in="shadowOffsetInner2" in2="SourceAlpha" k2="-1" k3="1" operator="arithmetic" result="shadowInnerInner2"/>
      <feColorMatrix in="shadowInnerInner2" result="shadowMatrixInner2" values="0 0 0 0 1   0 0 0 0 1   0 0 0 0 1  0 0 0 0.12 0"/>
      <feMerge>
        <feMergeNode in="shadowMatrixInner1"/>
        <feMergeNode in="shadowMatrixInner2"/>
      </feMerge>
    </filter>
  </defs>
  <g fill="none" fill-rule="evenodd" transform="translate(1 1)">
    <mask id="tn-e" fill="#fff">
      <use xlink:href="#tn-a"/>
    </mask>
    <use fill="#000" filter="url(#tn-b)" xlink:href="#tn-a"/>
    <use fill="url(#tn-c)" xlink:href="#tn-a"/>
    <rect width="21" height="15" fill="url(#tn-d)" mask="url(#tn-e)"/>
    <g mask="url(#tn-e)">
      <use fill="#000" filter="url(#tn-f)" xlink:href="#tn-g"/>
      <use fill="url(#tn-h)" xlink:href="#tn-g"/>
    </g>
    <g fill="#000" mask="url(#tn-e)">
      <use filter="url(#tn-i)" xlink:href="#tn-j"/>
    </g>
  </g>
</svg>
