<svg xmlns="http://www.w3.org/2000/svg" xmlns:xlink="http://www.w3.org/1999/xlink" width="23" height="17" viewBox="0 0 23 17">
  <defs>
    <linearGradient id="us-c" x1="50%" x2="50%" y1="0%" y2="100%">
      <stop offset="0%" stop-color="#FFF"/>
      <stop offset="100%" stop-color="#F0F0F0"/>
    </linearGradient>
    <rect id="us-a" width="21" height="15" x="0" y="0" rx="1.5"/>
    <filter id="us-b" width="116.7%" height="123.3%" x="-8.3%" y="-8.3%" filterUnits="objectBoundingBox">
      <feOffset dy=".5" in="SourceAlpha" result="shadowOffsetOuter1"/>
      <feGaussianBlur in="shadowOffsetOuter1" result="shadowBlurOuter1" stdDeviation=".5"/>
      <feColorMatrix in="shadowBlurOuter1" values="0 0 0 0 0   0 0 0 0 0   0 0 0 0 0  0 0 0 0.16 0"/>
    </filter>
    <linearGradient id="us-d" x1="50%" x2="50%" y1="0%" y2="100%">
      <stop offset="0%" stop-color="#D02F44"/>
      <stop offset="100%" stop-color="#B12537"/>
    </linearGradient>
    <linearGradient id="us-f" x1="50%" x2="50%" y1="0%" y2="100%">
      <stop offset="0%" stop-color="#46467F"/>
      <stop offset="100%" stop-color="#3C3C6D"/>
    </linearGradient>
    <linearGradient id="us-i" x1="50%" x2="50%" y1="0%" y2="100%">
      <stop offset="0%" stop-color="#FFF"/>
      <stop offset="100%" stop-color="#F0F0F0"/>
    </linearGradient>
    <path id="us-h" d="M7.5,5 C7.77614237,5 8,5.22385763 8,5.5 C8,5.77614237 7.77614237,6 7.5,6 C7.22385763,6 7,5.77614237 7,5.5 C7,5.22385763 7.22385763,5 7.5,5 Z M5.5,5 C5.77614237,5 6,5.22385763 6,5.5 C6,5.77614237 5.77614237,6 5.5,6 C5.22385763,6 5,5.77614237 5,5.5 C5,5.22385763 5.22385763,5 5.5,5 Z M3.5,5 C3.77614237,5 4,5.22385763 4,5.5 C4,5.77614237 3.77614237,6 3.5,6 C3.22385763,6 3,5.77614237 3,5.5 C3,5.22385763 3.22385763,5 3.5,5 Z M1.5,5 C1.77614237,5 2,5.22385763 2,5.5 C2,5.77614237 1.77614237,6 1.5,6 C1.22385763,6 1,5.77614237 1,5.5 C1,5.22385763 1.22385763,5 1.5,5 Z M2.5,4 C2.77614237,4 3,4.22385763 3,4.5 C3,4.77614237 2.77614237,5 2.5,5 C2.22385763,5 2,4.77614237 2,4.5 C2,4.22385763 2.22385763,4 2.5,4 Z M4.5,4 C4.77614237,4 5,4.22385763 5,4.5 C5,4.77614237 4.77614237,5 4.5,5 C4.22385763,5 4,4.77614237 4,4.5 C4,4.22385763 4.22385763,4 4.5,4 Z M6.5,4 C6.77614237,4 7,4.22385763 7,4.5 C7,4.77614237 6.77614237,5 6.5,5 C6.22385763,5 6,4.77614237 6,4.5 C6,4.22385763 6.22385763,4 6.5,4 Z M7.5,3 C7.77614237,3 8,3.22385763 8,3.5 C8,3.77614237 7.77614237,4 7.5,4 C7.22385763,4 7,3.77614237 7,3.5 C7,3.22385763 7.22385763,3 7.5,3 Z M5.5,3 C5.77614237,3 6,3.22385763 6,3.5 C6,3.77614237 5.77614237,4 5.5,4 C5.22385763,4 5,3.77614237 5,3.5 C5,3.22385763 5.22385763,3 5.5,3 Z M3.5,3 C3.77614237,3 4,3.22385763 4,3.5 C4,3.77614237 3.77614237,4 3.5,4 C3.22385763,4 3,3.77614237 3,3.5 C3,3.22385763 3.22385763,3 3.5,3 Z M1.5,3 C1.77614237,3 2,3.22385763 2,3.5 C2,3.77614237 1.77614237,4 1.5,4 C1.22385763,4 1,3.77614237 1,3.5 C1,3.22385763 1.22385763,3 1.5,3 Z M2.5,2 C2.77614237,2 3,2.22385763 3,2.5 C3,2.77614237 2.77614237,3 2.5,3 C2.22385763,3 2,2.77614237 2,2.5 C2,2.22385763 2.22385763,2 2.5,2 Z M4.5,2 C4.77614237,2 5,2.22385763 5,2.5 C5,2.77614237 4.77614237,3 4.5,3 C4.22385763,3 4,2.77614237 4,2.5 C4,2.22385763 4.22385763,2 4.5,2 Z M6.5,2 C6.77614237,2 7,2.22385763 7,2.5 C7,2.77614237 6.77614237,3 6.5,3 C6.22385763,3 6,2.77614237 6,2.5 C6,2.22385763 6.22385763,2 6.5,2 Z M1.5,1 C1.77614237,1 2,1.22385763 2,1.5 C2,1.77614237 1.77614237,2 1.5,2 C1.22385763,2 1,1.77614237 1,1.5 C1,1.22385763 1.22385763,1 1.5,1 Z M3.5,1 C3.77614237,1 4,1.22385763 4,1.5 C4,1.77614237 3.77614237,2 3.5,2 C3.22385763,2 3,1.77614237 3,1.5 C3,1.22385763 3.22385763,1 3.5,1 Z M5.5,1 C5.77614237,1 6,1.22385763 6,1.5 C6,1.77614237 5.77614237,2 5.5,2 C5.22385763,2 5,1.77614237 5,1.5 C5,1.22385763 5.22385763,1 5.5,1 Z M7.5,1 C7.77614237,1 8,1.22385763 8,1.5 C8,1.77614237 7.77614237,2 7.5,2 C7.22385763,2 7,1.77614237 7,1.5 C7,1.22385763 7.22385763,1 7.5,1 Z"/>
    <filter id="us-g" width="107.1%" height="120%" x="-3.6%" y="-5%" filterUnits="objectBoundingBox">
      <feOffset dy=".5" in="SourceAlpha" result="shadowOffsetOuter1"/>
      <feColorMatrix in="shadowOffsetOuter1" values="0 0 0 0 0   0 0 0 0 0   0 0 0 0 0  0 0 0 0.06 0"/>
    </filter>
    <rect id="us-k" width="21" height="15" x="0" y="0" rx="1.5"/>
    <filter id="us-j" width="102.4%" height="103.3%" x="-1.2%" y="-1.7%" filterUnits="objectBoundingBox">
      <feOffset dy="-.5" in="SourceAlpha" result="shadowOffsetInner1"/>
      <feComposite in="shadowOffsetInner1" in2="SourceAlpha" k2="-1" k3="1" operator="arithmetic" result="shadowInnerInner1"/>
      <feColorMatrix in="shadowInnerInner1" result="shadowMatrixInner1" values="0 0 0 0 0   0 0 0 0 0   0 0 0 0 0  0 0 0 0.04 0"/>
      <feOffset dy=".5" in="SourceAlpha" result="shadowOffsetInner2"/>
      <feComposite in="shadowOffsetInner2" in2="SourceAlpha" k2="-1" k3="1" operator="arithmetic" result="shadowInnerInner2"/>
      <feColorMatrix in="shadowInnerInner2" result="shadowMatrixInner2" values="0 0 0 0 1   0 0 0 0 1   0 0 0 0 1  0 0 0 0.12 0"/>
      <feMerge>
        <feMergeNode in="shadowMatrixInner1"/>
        <feMergeNode in="shadowMatrixInner2"/>
      </feMerge>
    </filter>
  </defs>
  <g fill="none" fill-rule="evenodd" transform="translate(1 1)">
    <mask id="us-e" fill="#fff">
      <use xlink:href="#us-a"/>
    </mask>
    <use fill="#000" filter="url(#us-b)" xlink:href="#us-a"/>
    <use fill="url(#us-c)" xlink:href="#us-a"/>
    <path fill="url(#us-d)" d="M21,14 L21,15 L0,15 L0,14 L21,14 Z M21,12 L21,13 L0,13 L0,12 L21,12 Z M21,10 L21,11 L0,11 L0,10 L21,10 Z M21,8 L21,9 L0,9 L0,8 L21,8 Z M21,6 L21,7 L0,7 L0,6 L21,6 Z M21,4 L21,5 L0,5 L0,4 L21,4 Z M21,2 L21,3 L0,3 L0,2 L21,2 Z M21,0 L21,1 L0,1 L0,0 L21,0 Z" mask="url(#us-e)"/>
    <rect width="9" height="7" fill="url(#us-f)" mask="url(#us-e)"/>
    <g mask="url(#us-e)">
      <use fill="#000" filter="url(#us-g)" xlink:href="#us-h"/>
      <use fill="url(#us-i)" xlink:href="#us-h"/>
    </g>
    <use fill="#000" filter="url(#us-j)" xlink:href="#us-k"/>
  </g>
</svg>
