<svg xmlns="http://www.w3.org/2000/svg" xmlns:xlink="http://www.w3.org/1999/xlink" width="23" height="17" viewBox="0 0 23 17">
  <defs>
    <linearGradient id="uz-c" x1="50%" x2="50%" y1="0%" y2="100%">
      <stop offset="0%" stop-color="#FFF"/>
      <stop offset="100%" stop-color="#F0F0F0"/>
    </linearGradient>
    <rect id="uz-a" width="21" height="15" x="0" y="0" rx="1.5"/>
    <filter id="uz-b" width="116.7%" height="123.3%" x="-8.3%" y="-8.3%" filterUnits="objectBoundingBox">
      <feOffset dy=".5" in="SourceAlpha" result="shadowOffsetOuter1"/>
      <feGaussianBlur in="shadowOffsetOuter1" result="shadowBlurOuter1" stdDeviation=".5"/>
      <feColorMatrix in="shadowBlurOuter1" values="0 0 0 0 0   0 0 0 0 0   0 0 0 0 0  0 0 0 0.16 0"/>
    </filter>
    <linearGradient id="uz-g" x1="50%" x2="50%" y1="0%" y2="100%">
      <stop offset="0%" stop-color="#04AAC8"/>
      <stop offset="100%" stop-color="#009AB6"/>
    </linearGradient>
    <rect id="uz-f" width="21" height="5" x="0" y="0"/>
    <filter id="uz-e" width="107.1%" height="130%" x="-3.6%" y="-15%" filterUnits="objectBoundingBox">
      <feMorphology in="SourceAlpha" operator="dilate" radius=".25" result="shadowSpreadOuter1"/>
      <feOffset in="shadowSpreadOuter1" result="shadowOffsetOuter1"/>
      <feColorMatrix in="shadowOffsetOuter1" values="0 0 0 0 0   0 0 0 0 0   0 0 0 0 0  0 0 0 0.06 0"/>
    </filter>
    <linearGradient id="uz-j" x1="50%" x2="50%" y1="0%" y2="100%">
      <stop offset="0%" stop-color="#23C840"/>
      <stop offset="100%" stop-color="#1EB639"/>
    </linearGradient>
    <rect id="uz-i" width="21" height="5" x="0" y="10"/>
    <filter id="uz-h" width="107.1%" height="130%" x="-3.6%" y="-15%" filterUnits="objectBoundingBox">
      <feMorphology in="SourceAlpha" operator="dilate" radius=".25" result="shadowSpreadOuter1"/>
      <feOffset in="shadowSpreadOuter1" result="shadowOffsetOuter1"/>
      <feColorMatrix in="shadowOffsetOuter1" values="0 0 0 0 0   0 0 0 0 0   0 0 0 0 0  0 0 0 0.06 0"/>
    </filter>
    <linearGradient id="uz-m" x1="50%" x2="50%" y1="0%" y2="100%">
      <stop offset="0%" stop-color="#FFF"/>
      <stop offset="100%" stop-color="#F0F0F0"/>
    </linearGradient>
    <rect id="uz-l" width="21" height="5" x="0" y="5"/>
    <filter id="uz-k" width="107.1%" height="130%" x="-3.6%" y="-15%" filterUnits="objectBoundingBox">
      <feMorphology in="SourceAlpha" operator="dilate" radius=".25" result="shadowSpreadOuter1"/>
      <feOffset in="shadowSpreadOuter1" result="shadowOffsetOuter1"/>
      <feColorMatrix in="shadowOffsetOuter1" values="0 0 0 0 0   0 0 0 0 0   0 0 0 0 0  0 0 0 0.06 0"/>
    </filter>
    <rect id="uz-o" width="21" height="15" x="0" y="0" rx="1.5"/>
    <filter id="uz-n" width="102.4%" height="103.3%" x="-1.2%" y="-1.7%" filterUnits="objectBoundingBox">
      <feOffset dy="-.5" in="SourceAlpha" result="shadowOffsetInner1"/>
      <feComposite in="shadowOffsetInner1" in2="SourceAlpha" k2="-1" k3="1" operator="arithmetic" result="shadowInnerInner1"/>
      <feColorMatrix in="shadowInnerInner1" result="shadowMatrixInner1" values="0 0 0 0 0   0 0 0 0 0   0 0 0 0 0  0 0 0 0.04 0"/>
      <feOffset dy=".5" in="SourceAlpha" result="shadowOffsetInner2"/>
      <feComposite in="shadowOffsetInner2" in2="SourceAlpha" k2="-1" k3="1" operator="arithmetic" result="shadowInnerInner2"/>
      <feColorMatrix in="shadowInnerInner2" result="shadowMatrixInner2" values="0 0 0 0 1   0 0 0 0 1   0 0 0 0 1  0 0 0 0.12 0"/>
      <feMerge>
        <feMergeNode in="shadowMatrixInner1"/>
        <feMergeNode in="shadowMatrixInner2"/>
      </feMerge>
    </filter>
    <linearGradient id="uz-r" x1="50%" x2="50%" y1="0%" y2="100%">
      <stop offset="0%" stop-color="#FFF"/>
      <stop offset="100%" stop-color="#F0F0F0"/>
    </linearGradient>
    <path id="uz-q" d="M3.5,1 C3.80891978,1 4.09602838,1.09338475 4.33463608,1.25346452 C4.3061791,1.25093373 4.27819859,1.25 4.25,1.25 C3.55964406,1.25 3,1.80964406 3,2.5 C3,3.19035594 3.55964406,3.75 4.25,3.75 L4.33362759,3.74721147 C4.09521958,3.90687812 3.80848468,4 3.5,4 C2.67157288,4 2,3.32842712 2,2.5 C2,1.67157288 2.67157288,1 3.5,1 Z M5.5,3 C5.77614237,3 6,3.22385763 6,3.5 C6,3.77614237 5.77614237,4 5.5,4 C5.22385763,4 5,3.77614237 5,3.5 C5,3.22385763 5.22385763,3 5.5,3 Z M9.5,3 C9.77614237,3 10,3.22385763 10,3.5 C10,3.77614237 9.77614237,4 9.5,4 C9.22385763,4 9,3.77614237 9,3.5 C9,3.22385763 9.22385763,3 9.5,3 Z M7.5,3 C7.77614237,3 8,3.22385763 8,3.5 C8,3.77614237 7.77614237,4 7.5,4 C7.22385763,4 7,3.77614237 7,3.5 C7,3.22385763 7.22385763,3 7.5,3 Z M7.5,1 C7.77614237,1 8,1.22385763 8,1.5 C8,1.77614237 7.77614237,2 7.5,2 C7.22385763,2 7,1.77614237 7,1.5 C7,1.22385763 7.22385763,1 7.5,1 Z M9.5,1 C9.77614237,1 10,1.22385763 10,1.5 C10,1.77614237 9.77614237,2 9.5,2 C9.22385763,2 9,1.77614237 9,1.5 C9,1.22385763 9.22385763,1 9.5,1 Z"/>
    <filter id="uz-p" width="106.2%" height="133.3%" x="-3.1%" y="-8.3%" filterUnits="objectBoundingBox">
      <feOffset dy=".5" in="SourceAlpha" result="shadowOffsetOuter1"/>
      <feColorMatrix in="shadowOffsetOuter1" values="0 0 0 0 0   0 0 0 0 0   0 0 0 0 0  0 0 0 0.06 0"/>
    </filter>
  </defs>
  <g fill="none" fill-rule="evenodd" transform="translate(1 1)">
    <mask id="uz-d" fill="#fff">
      <use xlink:href="#uz-a"/>
    </mask>
    <use fill="#000" filter="url(#uz-b)" xlink:href="#uz-a"/>
    <use fill="url(#uz-c)" xlink:href="#uz-a"/>
    <g mask="url(#uz-d)">
      <use fill="#000" filter="url(#uz-e)" xlink:href="#uz-f"/>
      <use fill="url(#uz-g)" xlink:href="#uz-f"/>
    </g>
    <g mask="url(#uz-d)">
      <use fill="#000" filter="url(#uz-h)" xlink:href="#uz-i"/>
      <use fill="url(#uz-j)" xlink:href="#uz-i"/>
    </g>
    <g mask="url(#uz-d)">
      <use fill="#000" filter="url(#uz-k)" xlink:href="#uz-l"/>
      <use fill="url(#uz-m)" xlink:href="#uz-l"/>
    </g>
    <g fill="#000" mask="url(#uz-d)">
      <use filter="url(#uz-n)" xlink:href="#uz-o"/>
    </g>
    <g mask="url(#uz-d)">
      <use fill="#000" filter="url(#uz-p)" xlink:href="#uz-q"/>
      <use fill="url(#uz-r)" xlink:href="#uz-q"/>
    </g>
  </g>
</svg>
