<svg xmlns="http://www.w3.org/2000/svg" xmlns:xlink="http://www.w3.org/1999/xlink" width="23" height="17" viewBox="0 0 23 17">
  <defs>
    <linearGradient id="vg-c" x1="50%" x2="50%" y1="0%" y2="100%">
      <stop offset="0%" stop-color="#FFF"/>
      <stop offset="100%" stop-color="#F0F0F0"/>
    </linearGradient>
    <rect id="vg-a" width="21" height="15" x="0" y="0" rx="1.5"/>
    <filter id="vg-b" width="116.7%" height="123.3%" x="-8.3%" y="-8.3%" filterUnits="objectBoundingBox">
      <feOffset dy=".5" in="SourceAlpha" result="shadowOffsetOuter1"/>
      <feGaussianBlur in="shadowOffsetOuter1" result="shadowBlurOuter1" stdDeviation=".5"/>
      <feColorMatrix in="shadowBlurOuter1" values="0 0 0 0 0   0 0 0 0 0   0 0 0 0 0  0 0 0 0.16 0"/>
    </filter>
    <linearGradient id="vg-g" x1="50%" x2="50%" y1="0%" y2="100%">
      <stop offset="0%" stop-color="#07319C"/>
      <stop offset="100%" stop-color="#00247E"/>
    </linearGradient>
    <rect id="vg-f" width="21" height="15" x="0" y="0"/>
    <filter id="vg-e" width="116.7%" height="123.3%" x="-8.3%" y="-8.3%" filterUnits="objectBoundingBox">
      <feOffset dy=".5" in="SourceAlpha" result="shadowOffsetOuter1"/>
      <feGaussianBlur in="shadowOffsetOuter1" result="shadowBlurOuter1" stdDeviation=".5"/>
      <feColorMatrix in="shadowBlurOuter1" values="0 0 0 0 0   0 0 0 0 0   0 0 0 0 0  0 0 0 0.16 0"/>
    </filter>
    <linearGradient id="vg-j" x1="50%" x2="50%" y1="0%" y2="100%">
      <stop offset="0%" stop-color="#008339"/>
      <stop offset="100%" stop-color="#00612A"/>
    </linearGradient>
    <path id="vg-h" d="M0,3.5 L2.57831658e-17,0.999341965 C1.15435165e-17,0.447420638 0.443716645,0 0.999807492,0 L4.00019251,0 C4.55237094,0 5,0.440959692 5,0.999341965 L5,3.5 C5,6 2.5,7 2.5,7 C2.5,7 0,6 0,3.5 Z"/>
    <filter id="vg-i" width="110%" height="114.3%" x="-5%" y="-3.6%" filterUnits="objectBoundingBox">
      <feOffset dy=".5" in="SourceAlpha" result="shadowOffsetOuter1"/>
      <feColorMatrix in="shadowOffsetOuter1" values="0 0 0 0 0   0 0 0 0 0   0 0 0 0 0  0 0 0 0.06 0"/>
    </filter>
    <linearGradient id="vg-n" x1="50%" x2="50%" y1="0%" y2="100%">
      <stop offset="0%" stop-color="#FFD033"/>
      <stop offset="100%" stop-color="#FEC403"/>
    </linearGradient>
    <path id="vg-m" d="M1.5,4 C1.77614237,4 2,4.22385763 2,4.5 C2,4.77614237 1.77614237,5 1.5,5 C1.22385763,5 1,4.77614237 1,4.5 C1,4.22385763 1.22385763,4 1.5,4 Z M3.5,4 C3.77614237,4 4,4.22385763 4,4.5 C4,4.77614237 3.77614237,5 3.5,5 C3.22385763,5 3,4.77614237 3,4.5 C3,4.22385763 3.22385763,4 3.5,4 Z M1.5,3 C1.77614237,3 2,3.22385763 2,3.5 C2,3.77614237 1.77614237,4 1.5,4 C1.22385763,4 1,3.77614237 1,3.5 C1,3.22385763 1.22385763,3 1.5,3 Z M3.5,3 C3.77614237,3 4,3.22385763 4,3.5 C4,3.77614237 3.77614237,4 3.5,4 C3.22385763,4 3,3.77614237 3,3.5 C3,3.22385763 3.22385763,3 3.5,3 Z M1.5,2 C1.77614237,2 2,2.22385763 2,2.5 C2,2.77614237 1.77614237,3 1.5,3 C1.22385763,3 1,2.77614237 1,2.5 C1,2.22385763 1.22385763,2 1.5,2 Z M3.5,2 L3.58987563,2.00805567 C3.82312484,2.05039163 4,2.25454011 4,2.5 C4,2.77614237 3.77614237,3 3.5,3 C3.22385763,3 3,2.77614237 3,2.5 C3,2.22385763 3.22385763,2 3.5,2 L3.5,2 Z M1.5,1 C1.77614237,1 2,1.22385763 2,1.5 C2,1.77614237 1.77614237,2 1.5,2 C1.22385763,2 1,1.77614237 1,1.5 C1,1.22385763 1.22385763,1 1.5,1 Z M3.5,1 C3.77614237,1 4,1.22385763 4,1.5 C4,1.77614237 3.77614237,2 3.5,2 C3.22385763,2 3,1.77614237 3,1.5 C3,1.22385763 3.22385763,1 3.5,1 Z"/>
    <filter id="vg-l" width="116.7%" height="125%" x="-8.3%" y="-6.2%" filterUnits="objectBoundingBox">
      <feOffset dy=".5" in="SourceAlpha" result="shadowOffsetOuter1"/>
      <feColorMatrix in="shadowOffsetOuter1" values="0 0 0 0 0   0 0 0 0 0   0 0 0 0 0  0 0 0 0.06 0"/>
    </filter>
    <linearGradient id="vg-q" x1="50%" x2="50%" y1="0%" y2="100%">
      <stop offset="0%" stop-color="#FFF"/>
      <stop offset="100%" stop-color="#F0F0F0"/>
    </linearGradient>
    <ellipse id="vg-p" cx="2.5" cy="3" rx="1" ry="1.5"/>
    <filter id="vg-o" width="150%" height="133.3%" x="-25%" y="-8.3%" filterUnits="objectBoundingBox">
      <feOffset dy=".5" in="SourceAlpha" result="shadowOffsetOuter1"/>
      <feColorMatrix in="shadowOffsetOuter1" values="0 0 0 0 0   0 0 0 0 0   0 0 0 0 0  0 0 0 0.06 0"/>
    </filter>
    <linearGradient id="vg-t" x1="50%" x2="50%" y1="0%" y2="100%">
      <stop offset="0%" stop-color="#FFD033"/>
      <stop offset="100%" stop-color="#FEC403"/>
    </linearGradient>
    <path id="vg-s" d="M12.5,10 C12.5,10.9536401 13.8658999,11.5 15.5,11.5 C17.1341001,11.5 18.5,10.9536401 18.5,10 C18.5,9.72385763 18.2761424,9.5 18,9.5 C17.7238576,9.5 17.5,9.72385763 17.5,10 C17.5,10.0095598 17.3788043,10.1241754 17.0820716,10.2428684 C16.6792626,10.403992 16.1117918,10.5 15.5,10.5 C14.8882082,10.5 14.3207374,10.403992 13.9179284,10.2428684 C13.6211957,10.1241754 13.5,10.0095598 13.5,10 C13.5,9.72385763 13.2761424,9.5 13,9.5 C12.7238576,9.5 12.5,9.72385763 12.5,10 L12.5,10 Z"/>
    <filter id="vg-r" width="108.3%" height="150%" x="-4.2%" y="-12.5%" filterUnits="objectBoundingBox">
      <feOffset dy=".5" in="SourceAlpha" result="shadowOffsetOuter1"/>
      <feColorMatrix in="shadowOffsetOuter1" values="0 0 0 0 0   0 0 0 0 0   0 0 0 0 0  0 0 0 0.06 0"/>
    </filter>
    <linearGradient id="vg-u" x1="50%" x2="50%" y1="0%" y2="100%">
      <stop offset="0%" stop-color="#DB1E36"/>
      <stop offset="100%" stop-color="#D51931"/>
    </linearGradient>
    <linearGradient id="vg-v" x1="50%" x2="50%" y1="0%" y2="100%">
      <stop offset="0%" stop-color="#FFF"/>
      <stop offset="100%" stop-color="#F0F0F0"/>
    </linearGradient>
    <rect id="vg-x" width="21" height="15" x="0" y="0" rx="1.5"/>
    <filter id="vg-w" width="102.4%" height="103.3%" x="-1.2%" y="-1.7%" filterUnits="objectBoundingBox">
      <feOffset dy="-.5" in="SourceAlpha" result="shadowOffsetInner1"/>
      <feComposite in="shadowOffsetInner1" in2="SourceAlpha" k2="-1" k3="1" operator="arithmetic" result="shadowInnerInner1"/>
      <feColorMatrix in="shadowInnerInner1" result="shadowMatrixInner1" values="0 0 0 0 0   0 0 0 0 0   0 0 0 0 0  0 0 0 0.04 0"/>
      <feOffset dy=".5" in="SourceAlpha" result="shadowOffsetInner2"/>
      <feComposite in="shadowOffsetInner2" in2="SourceAlpha" k2="-1" k3="1" operator="arithmetic" result="shadowInnerInner2"/>
      <feColorMatrix in="shadowInnerInner2" result="shadowMatrixInner2" values="0 0 0 0 1   0 0 0 0 1   0 0 0 0 1  0 0 0 0.12 0"/>
      <feMerge>
        <feMergeNode in="shadowMatrixInner1"/>
        <feMergeNode in="shadowMatrixInner2"/>
      </feMerge>
    </filter>
  </defs>
  <g fill="none" fill-rule="evenodd" transform="translate(1 1)">
    <mask id="vg-d" fill="#fff">
      <use xlink:href="#vg-a"/>
    </mask>
    <use fill="#000" filter="url(#vg-b)" xlink:href="#vg-a"/>
    <use fill="url(#vg-c)" xlink:href="#vg-a"/>
    <g mask="url(#vg-d)">
      <use fill="#000" filter="url(#vg-e)" xlink:href="#vg-f"/>
      <use fill="url(#vg-g)" xlink:href="#vg-f"/>
    </g>
    <g mask="url(#vg-d)">
      <g transform="translate(13 4)">
        <mask id="vg-k" fill="#fff">
          <use xlink:href="#vg-h"/>
        </mask>
        <use fill="#000" filter="url(#vg-i)" xlink:href="#vg-h"/>
        <use fill="url(#vg-j)" xlink:href="#vg-h"/>
        <g mask="url(#vg-k)">
          <use fill="#000" filter="url(#vg-l)" xlink:href="#vg-m"/>
          <use fill="url(#vg-n)" xlink:href="#vg-m"/>
        </g>
        <g mask="url(#vg-k)">
          <use fill="#000" filter="url(#vg-o)" xlink:href="#vg-p"/>
          <use fill="url(#vg-q)" xlink:href="#vg-p"/>
        </g>
      </g>
    </g>
    <g fill-rule="nonzero" mask="url(#vg-d)">
      <use fill="#000" filter="url(#vg-r)" xlink:href="#vg-s"/>
      <use fill="url(#vg-t)" xlink:href="#vg-s"/>
    </g>
    <path fill="url(#vg-u)" stroke="#FFF" stroke-width=".5" d="M0.580116263,-0.25 L-0.675814352,-0.25 L3.25,3.11498373 L3.25,3.87134553 L-0.25,6.37134553 L-0.25,7.45106191 L4.07169906,4.75 L4.92942021,4.75 L11.367513,8.70002745 L5.75,3.88501627 L5.75,3.11498373 L11.6883505,-1.97503094 L4.92830094,2.25 L4.08011626,2.25 L0.580116263,-0.25 Z" mask="url(#vg-d)"/>
    <path fill="url(#vg-v)" d="M0,2.5 L0,4.5 L3.5,4.5 L3.5,7.00461102 C3.5,7.2782068 3.71403503,7.5 4.00468445,7.5 L4.99531555,7.5 C5.27404508,7.5 5.5,7.2842474 5.5,7.00461102 L5.5,4.5 L9.00952148,4.5 C9.28040529,4.5 9.5,4.28596497 9.5,3.99531555 L9.5,3.00468445 C9.5,2.72595492 9.28494263,2.5 9.00952148,2.5 L5.5,2.5 L5.5,0 L3.5,0 L3.5,2.5 L0,2.5 Z" mask="url(#vg-d)"/>
    <polygon fill="url(#vg-u)" points="0 3 4 3 4 2.5 4 0 5 0 5 2.5 5 3 9 3 9 4 5 4 5 4.5 5 7 4 7 4 4.5 4 4 0 4" mask="url(#vg-d)"/>
    <g fill="#000" mask="url(#vg-d)">
      <use filter="url(#vg-w)" xlink:href="#vg-x"/>
    </g>
  </g>
</svg>
