<svg xmlns="http://www.w3.org/2000/svg" width="46" height="46" viewBox="0 0 46 46"><defs><linearGradient id="m89ma" x1="23" x2="23" y1="0" y2="46" gradientUnits="userSpaceOnUse"><stop offset="0" stop-color="#eb6509"/><stop offset="1" stop-color="#c34509"/></linearGradient></defs><g><g><path fill="url(#m89ma)" d="M12.958 36.922l-5.218-.801a20.178 20.178 0 0 0 7.497 5.452zM6.544 17.696l-.774-5.1a20.002 20.002 0 0 0-2.822 8.682zm32.911 0l3.596 3.581A20.126 20.126 0 0 0 40.23 12.6zm-6.414 19.226l-2.278 4.651a20.178 20.178 0 0 0 7.497-5.452zM15.076 21.353l3.018 9.321h9.811l3.018-9.321L23 15.593zM39.263 6.737a23 23 0 0 1 6.66 18.152C44.964 36.708 35.068 46 23 46 10.933 46 1.037 36.708.076 24.889A23.32 23.32 0 0 1 0 23C0 13.427 5.849 5.22 14.168 1.757A22.932 22.932 0 0 1 23 0c2.998 0 5.936.585 8.66 1.693.09.027.179.063.263.108a22.995 22.995 0 0 1 7.34 4.936zM23 2.875c-1.734 0-3.416.22-5.021.631L23 6.89l5.016-3.38A20.119 20.119 0 0 0 23 2.875zm14.812 6.5a20.15 20.15 0 0 0-6.425-4.67l-6.95 4.685v3.693l8.32 6.049 3.86-1.891zm-16.25 3.708V9.39L14.61 4.703a20.182 20.182 0 0 0-6.42 4.672l1.194 7.866 3.86 1.89zm18.986 19.778a19.993 19.993 0 0 0 2.45-7.58l-5.361-5.338-3.845 1.883-3.219 9.944 2.06 2.306zm-28.34-11.035l-3.845-1.883-5.36 5.338a19.993 19.993 0 0 0 2.45 7.58l7.913 1.215 2.061-2.306zM23 43.125a20.22 20.22 0 0 0 3.996-.397l3.369-6.876-2.057-2.303H17.692l-2.057 2.303 3.37 6.876a20.22 20.22 0 0 0 3.995.397z"/></g></g></svg>