<svg xmlns="http://www.w3.org/2000/svg" width="46" height="35" viewBox="0 0 46 35"><defs><linearGradient id="1cska" x1="23" x2="23" y1=".19" y2="34.31" gradientUnits="userSpaceOnUse"><stop offset="0" stop-color="#eb6509"/><stop offset="1" stop-color="#c34509"/></linearGradient></defs><g><g><path fill="url(#1cska)" d="M45.815 3.357v27.791a3.167 3.167 0 0 1-3.167 3.167H3.357A3.167 3.167 0 0 1 .19 31.148V3.357A3.167 3.167 0 0 1 3.357.19h39.291a3.167 3.167 0 0 1 3.167 3.167zm-7 22.333a4.13 4.13 0 0 1-4.102-3.714l-.017-.206-.006-.205V12.94a4.13 4.13 0 0 1 3.715-4.103l.205-.017.205-.005h4.5V3.356a.667.667 0 0 0-.666-.667H3.356a.667.667 0 0 0-.667.667v5.459h4.5a4.125 4.125 0 0 1 4.12 3.919l.006.206v8.625a4.125 4.125 0 0 1-3.92 4.12l-.205.005h-4.5v5.459c0 .368.298.667.666.667H42.65a.667.667 0 0 0 .667-.667V25.69zM23.003 10.25a7.003 7.003 0 1 1 0 14.006 7.003 7.003 0 0 1 0-14.006zM7.196 11.312H2.689v11.88l4.507.001c.851 0 1.55-.653 1.621-1.485l.006-.14v-8.63c0-.851-.654-1.55-1.487-1.62zm31.65 0l-.134.003c-.806.046-1.45.679-1.523 1.472l-.007.15v8.594l.003.133c.046.805.68 1.45 1.474 1.522l.15.007h4.506V11.31zm-15.843 1.437a4.504 4.504 0 1 0 0 9.008 4.504 4.504 0 0 0 0-9.008z"/></g></g></svg>