<svg xmlns="http://www.w3.org/2000/svg" width="24" height="24" viewBox="0 0 24 24"><g><g><g><path fill="#ea6409" d="M5.03 10.754a.5.5 0 0 1-.256-.746l.746-1.139a.5.5 0 0 1 .418-.226h1.486a.5.5 0 0 1 .448.277L8.411 10a.5.5 0 0 1-.264.687 4.5 4.5 0 0 1-3.113.067zm-.491-6.132L3.4 4.3a.5.5 0 0 1-.233-.816 4.5 4.5 0 0 1 2.066-1.3.5.5 0 0 1 .64.441l.067.87a.5.5 0 0 1-.186.429l-.761.609a.5.5 0 0 1-.45.089zm-.01 3.014c-.116.177-.36.554-.913 1.4a.498.498 0 0 1-.827.01 4.504 4.504 0 0 1-.77-2.969.5.5 0 0 1 .633-.435l1.313.375a.499.499 0 0 1 .335.323l.29.86a.502.502 0 0 1-.06.436zM8.062 2.28c.71.262 1.341.699 1.838 1.269a.5.5 0 0 1-.221.8l-.76.251a.5.5 0 0 1-.469-.085l-.814-.651a.5.5 0 0 1-.186-.352l-.056-.729a.5.5 0 0 1 .193-.434.5.5 0 0 1 .475-.069zm2.704 3.493a.505.505 0 0 1 .221.378 4.486 4.486 0 0 1-.633 2.67.5.5 0 0 1-.875-.036c-.379-.757-.514-1.043-.588-1.18a.5.5 0 0 1-.036-.4l.3-.893A.5.5 0 0 1 9.471 6l.861-.283a.5.5 0 0 1 .434.056zM13 6.5A6.5 6.5 0 1 0 6.5 13 6.508 6.508 0 0 0 13 6.5z"/></g><g><path fill="#ea6409" d="M21.715 9.396l-.117.38a.5.5 0 0 1-.62.327l-3.18-.946a.498.498 0 0 1-.35-.558l.05-.266a.498.498 0 0 1 .628-.398c1.116.308 2.16.559 3.278.871a.467.467 0 0 1 .32.59zm-.878 2.776l-1.339 4.246a.5.5 0 0 1-.425.346 3.328 3.328 0 0 1-2.582-1.102.501.501 0 0 1-.129-.424l.682-4.145a.5.5 0 0 1 .636-.4l2.832.848a.5.5 0 0 1 .333.632zm3-4.245a1.479 1.479 0 0 0-.887-.748c-.974-.3-1.858-.528-2.74-.758a65.271 65.271 0 0 1-2.607-.718 1.477 1.477 0 0 0-1.233.176 1.518 1.518 0 0 0-.672 1.023l-1.18 7.162a.5.5 0 0 1-.5.418.4.4 0 0 0-.392.482l.568 2.59a.5.5 0 1 1-.977.213l-.619-2.872a.5.5 0 0 0-.5-.393l-.426.014a.5.5 0 0 0-.466.621l.436 1.763a.5.5 0 0 1-.97.24l-.52-2.1a.5.5 0 0 0-.54-.377 11.3 11.3 0 0 0-1.869.332 3.129 3.129 0 0 0-2.114 2.072c-.169.527-.12 1.099.135 1.59.238.469.65.827 1.147 1a.255.255 0 0 1 .156.315 1 1 0 1 0 1.906.605.25.25 0 0 1 .314-.162l1.89.6a.25.25 0 0 1 .162.314l-.087.275a1 1 0 0 0 .95 1.303 1 1 0 0 0 .953-.7l.087-.274a.249.249 0 0 1 .314-.163l1.923.611a.249.249 0 0 1 .162.314 1 1 0 0 0 1.906.606.251.251 0 0 1 .315-.163l.714.227a.751.751 0 0 0 .942-.488c3.784-11.788 1.393-4.368 4.405-13.81a1.5 1.5 0 0 0-.086-1.14z"/></g></g></g></svg>