<svg xmlns="http://www.w3.org/2000/svg" width="46" height="47" viewBox="0 0 46 47"><defs><linearGradient id="xz2ua" x1="23" x2="23" y1=".54" y2="46.27" gradientUnits="userSpaceOnUse"><stop offset="0" stop-color="#eb6509"/><stop offset="1" stop-color="#c34509"/></linearGradient></defs><g><g><path fill="url(#xz2ua)" d="M35.956 13.5c0 4.68-2.48 8.78-6.198 11.058 7.408 2.384 13.203 8.586 14.863 16.506l.111.57.74 4.1-2.952.532-.74-4.097a19.1 19.1 0 0 0-37.46-.583l-.108.54-.74 4.1-2.952-.532.741-4.106C2.77 33.416 8.66 26.99 16.231 24.557A12.952 12.952 0 0 1 10.037 13.5c0-7.158 5.803-12.96 12.96-12.96 7.158 0 12.96 5.802 12.96 12.96zm-22.917 0c0 5.5 4.458 9.96 9.957 9.96 5.5 0 9.957-4.46 9.957-9.96 0-5.5-4.458-9.96-9.957-9.96-5.5 0-9.957 4.46-9.957 9.96z"/></g></g></svg>