<svg width="47" height="47" viewBox="0 0 47 47" fill="none" xmlns="http://www.w3.org/2000/svg">
<path opacity="0.95" d="M23.45 46.9C36.401 46.9 46.9 36.401 46.9 23.45C46.9 10.499 36.401 0 23.45 0C10.499 0 0 10.499 0 23.45C0 36.401 10.499 46.9 23.45 46.9Z" fill="#ACB7C2" fill-opacity="0.1"/>
<path opacity="0.95" d="M23.45 46.9C36.401 46.9 46.9 36.401 46.9 23.45C46.9 10.499 36.401 0 23.45 0C10.499 0 0 10.499 0 23.45C0 36.401 10.499 46.9 23.45 46.9Z" fill="white"/>
<path d="M31.5 23.275L18.9 31.15V15.4L31.5 23.275Z" stroke="#033F7D" stroke-width="3.15" stroke-miterlimit="20"/>
</svg>
