<svg xmlns="http://www.w3.org/2000/svg" width="16" height="20" viewBox="0 0 16 20"><g><g><g><path fill="#546b81" d="M7.999 18a6.4 6.4 0 1 1 0-12.8 6.4 6.4 0 0 1 0 12.8zm6.966-12.634a.8.8 0 1 0-1.132-1.13l-1.28 1.28A7.558 7.558 0 0 0 8.8 4.042V1.6h1.6a.8.8 0 1 0 0-1.6h-4.8a.8.8 0 1 0 0 1.6h1.6v2.443a7.6 7.6 0 1 0 6.528 2.561z"/></g><g><path fill="#546b81" d="M8.424 11.858a.607.607 0 0 1-.848 0l-1.634-1.632a.6.6 0 1 1 .85-.85l1.632 1.634a.6.6 0 0 1 0 .848zM8 6.4a5.2 5.2 0 1 0 0 10.4A5.2 5.2 0 0 0 8 6.4z"/></g></g></g></svg>