<svg xmlns="http://www.w3.org/2000/svg" width="46" height="46" viewBox="0 0 46 46"><defs><linearGradient id="6htva" x1="23" x2="23" y1=".5" y2="45.5" gradientUnits="userSpaceOnUse"><stop offset="0" stop-color="#eb6509"/><stop offset="1" stop-color="#c34509"/></linearGradient></defs><g><g><path fill="url(#6htva)" d="M29.652 41.192l1.136 2.776a20.56 20.56 0 0 1-14.922.255l-.654-.255 1.136-2.776a17.56 17.56 0 0 0 12.692.237zm3.312-36.206a20.56 20.56 0 0 1 10.541 16.022l.052.633-2.994.198A17.56 17.56 0 0 0 32.034 7.91l-.518-.297zm-19.928 0l1.448 2.628a17.56 17.56 0 0 0-8.998 13.63l-.05.595-2.993-.198a20.56 20.56 0 0 1 10.041-16.34zm.004 23.734a5.3 5.3 0 0 1-1.325 3.513 7.218 7.218 0 0 1 3.233 5.61l.012.442-3-.01a4.22 4.22 0 0 0-4.254-4.235 4.22 4.22 0 0 0-4.19 3.863l-.016.372-3 .01a7.22 7.22 0 0 1 3.232-6.044 5.32 5.32 0 1 1 9.308-3.521zm-7.64 0a2.32 2.32 0 0 0 2.309 2.32h.03A2.32 2.32 0 1 0 5.4 28.72zm38.2 0a5.3 5.3 0 0 1-1.332 3.521 7.218 7.218 0 0 1 3.22 5.603l.012.441-3-.01a4.22 4.22 0 0 0-4.208-4.235h-.039a4.22 4.22 0 0 0-4.198 3.862l-.015.373-3 .01a7.22 7.22 0 0 1 3.245-6.052A5.32 5.32 0 1 1 43.6 28.72zm-7.64 0a2.32 2.32 0 1 0 4.64 0 2.32 2.32 0 0 0-4.64 0zm-7.64-22.9a5.3 5.3 0 0 1-1.331 3.52 7.215 7.215 0 0 1 3.221 5.637l.01.383h-3a4.22 4.22 0 0 0-8.43-.301l-.01.301h-3a7.213 7.213 0 0 1 3.232-6.02 5.32 5.32 0 1 1 9.308-3.52zm-7.64 0a2.32 2.32 0 1 0 4.64 0 2.32 2.32 0 0 0-4.64 0z"/></g></g></svg>