<svg xmlns="http://www.w3.org/2000/svg" width="32" height="32" viewBox="0 0 32 32"><g><g><path fill="#fff" d="M0 6a6 6 0 0 1 6-6h20a6 6 0 0 1 6 6v20a6 6 0 0 1-6 6H6a6 6 0 0 1-6-6z"/></g><g><path fill="#acb7c2" d="M11.38 20.12a.5.5 0 0 0 .5.5h3.5a.5.5 0 0 0 .354-.854l-1.22-1.22a.124.124 0 0 1 0-.177l3.866-3.865a.125.125 0 0 1 .177 0l1.22 1.22a.5.5 0 0 0 .853-.354v-3.5a.5.5 0 0 0-.5-.5h-3.5a.5.5 0 0 0-.353.854l1.219 1.222a.125.125 0 0 1 0 .177l-3.866 3.863a.125.125 0 0 1-.177 0l-1.22-1.22a.5.5 0 0 0-.853.354z"/></g></g></svg>