<svg xmlns="http://www.w3.org/2000/svg" width="24" height="24" viewBox="0 0 24 24"><g><g><g><path fill="#ea6409" d="M7.75 4.5h15a1 1 0 0 0 0-2h-15a1 1 0 0 0 0 2z"/></g><g><path fill="#ea6409" d="M22.75 11h-15a1 1 0 0 0 0 2h15a1 1 0 0 0 0-2z"/></g><g><path fill="#ea6409" d="M22.75 19.5h-15a1 1 0 0 0 0 2h15a1 1 0 0 0 0-2z"/></g><g><path fill="#ea6409" d="M2.21 17.252a2 2 0 0 0-1.933 1.484.75.75 0 1 0 1.45.386.5.5 0 1 1 .483.63.75.75 0 1 0 0 1.5.5.5 0 1 1-.482.635.75.75 0 1 0-1.445.4 2 2 0 1 0 3.59-1.648.251.251 0 0 1 0-.278A2 2 0 0 0 2.21 17.25z"/></g><g><path fill="#ea6409" d="M4.25 10.75a2 2 0 1 0-4 0 .75.75 0 0 0 1.5 0 .5.5 0 0 1 1 0c0 .235-.08.462-.226.645l-2.11 2.636a.75.75 0 0 0 .587 1.219h2.5a.75.75 0 0 0 0-1.5h-.42a.249.249 0 0 1-.194-.406l.814-1.012c.356-.45.55-1.008.55-1.582z"/></g><g><path fill="#ea6409" d="M4 5.25h-.25a.25.25 0 0 1-.25-.248V1.625A1.377 1.377 0 0 0 2.125.25H1.5a.75.75 0 0 0 0 1.5h.25a.25.25 0 0 1 .25.252v3a.25.25 0 0 1-.25.25H1.5a.75.75 0 0 0 0 1.5H4a.75.75 0 0 0 0-1.5z"/></g></g></g></svg>