<svg xmlns="http://www.w3.org/2000/svg" width="24" height="24" viewBox="0 0 24 24"><g><g><g><path fill="#80c430" d="M12 22C6.477 22 2 17.523 2 12S6.477 2 12 2c5.52.006 9.994 4.48 10 10 0 5.523-4.477 10-10 10zm12-10c0-6.627-5.373-12-12-12S0 5.373 0 12s5.373 12 12 12c6.624-.007 11.993-5.376 12-12z"/></g><g><path fill="#80c430" d="M15.616 11.883l-1.94-1.939a.25.25 0 0 0-.427.177v7.88a1.25 1.25 0 0 1-2.5 0v-7.88a.25.25 0 0 0-.426-.177l-1.94 1.94a1.25 1.25 0 0 1-1.767-1.768l4.5-4.5a1.249 1.249 0 0 1 1.767 0l4.5 4.5a1.25 1.25 0 0 1-1.767 1.767z"/></g></g></g></svg>