<svg width="3031" height="1654" viewBox="0 0 3031 1654" fill="none" xmlns="http://www.w3.org/2000/svg">
<path d="M568.87 1653.91C706.37 1653.91 786.162 1481.74 859.162 1355.95L823.537 1322.86C806.495 1355.95 750.495 1466.28 714.829 1466.28C702.954 1466.28 697.87 1457.49 697.87 1433.2C697.87 1417.74 701.245 1393.49 706.37 1367.03L813.329 894.697C820.079 868.197 831.954 797.531 831.954 762.281C831.954 654.072 777.662 568.031 691.079 568.031C565.454 568.031 424.537 722.531 329.454 980.739L326.079 976.322L417.745 592.281L400.787 568.031C315.87 614.364 163.079 629.822 74.7869 629.822L66.3286 689.406C137.62 689.406 164.787 693.822 164.787 742.406C164.787 766.656 159.704 821.822 151.204 861.572L0.0786133 1625.28H230.995L309.079 1263.24C348.162 1084.53 444.912 755.614 560.37 755.614C584.079 755.614 602.787 768.864 602.787 812.989C602.787 830.656 599.412 852.739 592.62 881.447L499.287 1300.86C482.245 1378.03 468.662 1453.11 468.662 1497.28C468.662 1598.74 509.412 1653.91 568.87 1653.91Z" fill="#131114"/>
<path d="M1055.15 1653.9C1192.65 1653.9 1280.99 1490.61 1347.15 1355.94L1311.49 1327.28C1286.03 1373.65 1241.9 1466.28 1201.15 1466.28C1189.28 1466.28 1184.15 1457.48 1184.15 1439.86C1184.15 1431.03 1185.86 1422.19 1187.57 1413.4L1372.61 596.693L1355.65 568.026C1270.74 614.36 1117.94 629.818 1007.57 629.818L999.152 689.401C1073.82 696.026 1099.28 696.026 1099.28 740.151C1099.28 762.276 1092.49 819.651 1082.32 861.568L978.736 1331.65C963.444 1404.57 955.027 1461.94 955.027 1508.28C955.027 1611.98 992.319 1653.9 1055.15 1653.9Z" fill="#131114"/>
<path d="M1308.17 121.614C1242.54 121.614 1190.54 189.155 1190.54 274.572C1190.54 359.947 1242.54 429.53 1308.17 429.53C1373.88 429.53 1427.33 359.947 1427.33 274.572C1427.33 189.155 1373.88 121.614 1308.17 121.614Z" fill="#131114"/>
<path d="M2341.53 596.685H2001.95L1996.86 656.31C2039.24 656.31 2081.78 680.56 2081.78 722.518C2081.78 762.268 2047.78 828.435 1939.11 929.977L1750.66 1115.44L1747.28 1110.98L1981.61 29.4767L1962.86 0.810014C1862.74 55.9767 1726.95 60.3933 1625.07 67.0183L1616.57 126.602C1696.32 128.81 1709.91 137.643 1709.91 177.352C1709.91 199.435 1708.28 230.31 1692.95 298.768L1406.07 1625.27H1635.28L1723.53 1221.39L1798.24 1157.31C1857.66 1554.64 1905.2 1653.89 2030.82 1653.89C2168.36 1653.89 2222.66 1532.56 2266.82 1384.64L2231.11 1360.39C2214.2 1406.73 2195.49 1466.31 2149.7 1466.31C2098.74 1466.31 2068.2 1426.56 1998.53 965.31L2193.78 760.06C2249.82 704.852 2302.45 656.31 2341.53 656.31V596.685Z" fill="#131114"/>
<path d="M2954.35 186.128C2946.31 182.753 2937.14 181.003 2927.39 181.003C2901.85 181.003 2872.1 192.753 2846.64 217.253L2542.93 432.42L2618.81 464.503L2927.02 388.17C2960.85 381.545 2994.02 356.086 3007.64 301.461C3019.18 255.336 3001.14 205.961 2954.35 186.128Z" fill="#131114"/>
<path d="M2590.94 1088.95C2602.82 987.364 2697.94 638.614 2794.65 638.614C2823.52 638.614 2840.52 667.364 2840.52 724.698C2840.52 863.781 2711.48 1069.07 2590.94 1088.95ZM2860.94 568.031C2585.86 568.031 2327.86 934.406 2327.86 1287.57C2327.86 1501.66 2416.11 1653.91 2589.27 1653.91C2743.77 1653.91 2850.69 1532.57 2949.19 1393.49L2915.19 1344.95C2852.4 1424.36 2774.36 1499.45 2682.65 1499.45C2577.36 1499.45 2556.98 1411.11 2556.98 1355.95C2556.98 1296.36 2572.27 1203.7 2580.73 1170.61C2735.27 1133.07 3030.65 1033.7 3030.65 762.281C3030.65 631.989 2952.52 568.031 2860.94 568.031Z" fill="#131114"/>
</svg>
