<svg xmlns="http://www.w3.org/2000/svg" viewBox="0 0 18 18"><path d="M15.286 12.207a.36.36 0 01-.236.179l-2.204.508a.36.36 0 01-.348-.11l-.81-.904a.36.36 0 01-.072-.35l.918-2.837a.36.36 0 01.172-.205l1.509-.81a.36.36 0 01.44.08l1.381 1.599a.36.36 0 01.085.283 7.48 7.48 0 01-.836 2.569zm-3.933 1.847l-1.108 1.86a.36.36 0 01-.245.171 7.56 7.56 0 01-2.693.004.36.36 0 01-.246-.17l-1.112-1.862a.362.362 0 01.04-.427l.811-.907a.36.36 0 01.269-.12h3.163c.102 0 .2.043.268.12l.81.907c.106.118.122.29.042.426zm-5.76-2.156l-.811.908a.36.36 0 01-.35.11l-2.209-.51a.36.36 0 01-.236-.18 7.524 7.524 0 01-.835-2.582.361.361 0 01.082-.28l1.386-1.6a.36.36 0 01.442-.08l1.512.813a.36.36 0 01.173.206l.92 2.847a.361.361 0 01-.074.348zM3.196 3.412a7.599 7.599 0 012.215-1.598.361.361 0 01.297-.006l2.012.856a.36.36 0 01.216.331v1.869a.36.36 0 01-.148.288L5.335 6.936a.361.361 0 01-.372.033L3.5 6.255a.36.36 0 01-.201-.291l-.202-2.271a.36.36 0 01.1-.28zM9.37 3a.36.36 0 01.216-.332l2-.856a.36.36 0 01.296.007A7.598 7.598 0 0114.1 3.433a.361.361 0 01.099.28l-.201 2.275a.36.36 0 01-.189.288l-1.392.748a.36.36 0 01-.383-.027l-2.52-1.836a.36.36 0 01-.147-.292zm-.73-3a8.64 8.64 0 108.64 8.64A8.65 8.65 0 008.64 0z"/></svg>