<svg xmlns="http://www.w3.org/2000/svg" width="16" height="16" viewBox="0 0 16 16"><g><g><path fill="#212529" d="M6.954 3.043l.392-.39a.854.854 0 0 1 1.211 0l4.74 4.743a.854.854 0 0 1 0 1.211l-4.74 4.736a.854.854 0 0 1-1.21 0l-.393-.39a.858.858 0 0 1 .014-1.224l2.696-2.586H3.143a.855.855 0 0 1-.857-.857v-.572c0-.475.382-.857.857-.857h6.521L6.968 4.271a.862.862 0 0 1-.014-1.228zM0 1.714v12.572C0 15.232.768 16 1.714 16h12.572c.946 0 1.714-.768 1.714-1.714V1.714C16 .768 15.232 0 14.286 0H1.714C.768 0 0 .768 0 1.714z"/></g></g></svg>