<svg xmlns="http://www.w3.org/2000/svg" viewBox="0 0 18 18"><path d="M15.286 12.207a.36.36 0 0 1-.236.179l-2.204.508a.36.36 0 0 1-.348-.11l-.81-.904a.36.36 0 0 1-.072-.35l.918-2.837a.36.36 0 0 1 .172-.205l1.509-.81a.36.36 0 0 1 .44.08l1.381 1.599a.36.36 0 0 1 .085.283c-.12.9-.404 1.77-.836 2.569zm-3.933 1.847l-1.108 1.86a.36.36 0 0 1-.245.171 7.56 7.56 0 0 1-2.693.004.36.36 0 0 1-.246-.17l-1.112-1.862a.362.362 0 0 1 .04-.427l.811-.907a.36.36 0 0 1 .269-.12h3.163c.102 0 .2.043.268.12l.81.907c.106.118.122.29.042.426zm-5.76-2.156l-.811.908a.36.36 0 0 1-.35.11l-2.209-.51a.36.36 0 0 1-.236-.18 7.524 7.524 0 0 1-.835-2.582.361.361 0 0 1 .082-.28l1.386-1.6a.36.36 0 0 1 .442-.08l1.512.813a.36.36 0 0 1 .173.206l.92 2.847a.361.361 0 0 1-.074.348zM3.196 3.412a7.599 7.599 0 0 1 2.215-1.598.361.361 0 0 1 .297-.006l2.012.856a.36.36 0 0 1 .216.331v1.869a.36.36 0 0 1-.148.288L5.335 6.936a.361.361 0 0 1-.372.033L3.5 6.255a.36.36 0 0 1-.201-.291l-.202-2.271a.36.36 0 0 1 .1-.28zM9.37 3a.36.36 0 0 1 .216-.332l2-.856a.36.36 0 0 1 .296.007c.831.399 1.583.946 2.218 1.614a.361.361 0 0 1 .099.28l-.201 2.275a.36.36 0 0 1-.189.288l-1.392.748a.36.36 0 0 1-.383-.027l-2.52-1.836a.36.36 0 0 1-.147-.292zM8.64 0a8.64 8.64 0 1 0 8.64 8.64A8.65 8.65 0 0 0 8.64 0z"/></svg>