<svg xmlns="http://www.w3.org/2000/svg" viewBox="0 0 15 19"><path d="M14.706 2.325A1.687 1.687 0 0 0 13.02.64H6.277c-.93 0-1.684.755-1.686 1.685v3.793a.2.2 0 0 1-.047.13C3.483 7.501 1.643 8.68 1.643 9.993v3.84L.05 18.294a.2.2 0 0 0 .187.266h4.784a.2.2 0 0 0 .2-.2v-1.685c0-.054.021-.106.06-.143.241-.235 1.116-1.14 1.116-1.85v-1.234a.2.2 0 0 1 .057-.14l2.106-2.14.006-.005A1.267 1.267 0 0 0 6.782 9.37c-.08.072-.284.173-.204.125a.2.2 0 0 1-.303-.172v-6.8c0-.11.09-.2.2-.2h6.344c.11 0 .2.09.2.2v9.718a.2.2 0 0 1-.2.2H8.593a.843.843 0 1 0 0 1.686h4.427c.93-.001 1.685-.755 1.686-1.686z"/></svg>