<svg xmlns="http://www.w3.org/2000/svg" width="24" height="24" viewBox="0 0 24 24"><g><g><path fill="#acb7c2" d="M.25 1.75a1.5 1.5 0 0 1 1.5-1.5h3.5a1.5 1.5 0 0 1 1.5 1.5v3.5a1.5 1.5 0 0 1-1.5 1.5h-3.5a1.5 1.5 0 0 1-1.5-1.5zm0 8.5a1.5 1.5 0 0 1 1.5-1.5h3.5a1.5 1.5 0 0 1 1.5 1.5v3.5a1.5 1.5 0 0 1-1.5 1.5h-3.5a1.5 1.5 0 0 1-1.5-1.5zm0 8.5a1.5 1.5 0 0 1 1.5-1.5h3.5a1.5 1.5 0 0 1 1.5 1.5v3.5a1.5 1.5 0 0 1-1.5 1.5h-3.5a1.5 1.5 0 0 1-1.5-1.5zm8.5-17a1.5 1.5 0 0 1 1.5-1.5h3.5a1.5 1.5 0 0 1 1.5 1.5v3.5a1.5 1.5 0 0 1-1.5 1.5h-3.5a1.5 1.5 0 0 1-1.5-1.5zm0 8.5a1.5 1.5 0 0 1 1.5-1.5h3.5a1.5 1.5 0 0 1 1.5 1.5v3.5a1.5 1.5 0 0 1-1.5 1.5h-3.5a1.5 1.5 0 0 1-1.5-1.5zm0 8.5a1.5 1.5 0 0 1 1.5-1.5h3.5a1.5 1.5 0 0 1 1.5 1.5v3.5a1.5 1.5 0 0 1-1.5 1.5h-3.5a1.5 1.5 0 0 1-1.5-1.5zm8.5-17a1.5 1.5 0 0 1 1.5-1.5h3.5a1.5 1.5 0 0 1 1.5 1.5v3.5a1.5 1.5 0 0 1-1.5 1.5h-3.5a1.5 1.5 0 0 1-1.5-1.5zm0 8.5a1.5 1.5 0 0 1 1.5-1.5h3.5a1.5 1.5 0 0 1 1.5 1.5v3.5a1.5 1.5 0 0 1-1.5 1.5h-3.5a1.5 1.5 0 0 1-1.5-1.5zm0 8.5a1.5 1.5 0 0 1 1.5-1.5h3.5a1.5 1.5 0 0 1 1.5 1.5v3.5a1.5 1.5 0 0 1-1.5 1.5h-3.5a1.5 1.5 0 0 1-1.5-1.5z"/></g></g></svg>