<?xml version="1.0" encoding="UTF-8"?><!DOCTYPE svg PUBLIC "-//W3C//DTD SVG 1.1//EN" "http://www.w3.org/Graphics/SVG/1.1/DTD/svg11.dtd"><svg xmlns="http://www.w3.org/2000/svg" xmlns:xlink="http://www.w3.org/1999/xlink"><symbol id="angle-right" viewBox="0 0 192 512"><path d="M187.8 264.5L41 412.5c-4.7 4.7-12.3 4.7-17 0L4.2 392.7c-4.7-4.7-4.7-12.3 0-17L122.7 256 4.2 136.3c-4.7-4.7-4.7-12.3 0-17L24 99.5c4.7-4.7 12.3-4.7 17 0l146.8 148c4.7 4.7 4.7 12.3 0 17z"/></symbol><symbol id="arrow-left-square" viewBox="0 0 16 16"><path d="M9.046 12.944l-.392.39a.854.854 0 01-1.211 0l-4.74-4.736a.852.852 0 010-1.21l4.74-4.731a.854.854 0 011.21 0l.393.389a.857.857 0 01-.014 1.224L6.336 6.853h6.521c.475 0 .857.382.857.857v.57a.855.855 0 01-.857.857H6.336l2.696 2.583a.857.857 0 01.014 1.224zM16 14.286V1.714C16 .768 15.232 0 14.286 0H1.714C.768 0 0 .768 0 1.714v12.572C0 15.232.768 16 1.714 16h12.572c.946 0 1.714-.768 1.714-1.714z"/></symbol><symbol id="arrow-right-square"><path fill="#212529" d="M6.954 3.043l.392-.39a.854.854 0 011.211 0l4.74 4.743a.854.854 0 010 1.211l-4.74 4.736a.854.854 0 01-1.21 0l-.393-.39a.858.858 0 01.014-1.224l2.696-2.586H3.143a.855.855 0 01-.857-.857v-.572c0-.475.382-.857.857-.857h6.521L6.968 4.271a.862.862 0 01-.014-1.228zM0 1.714v12.572C0 15.232.768 16 1.714 16h12.572c.946 0 1.714-.768 1.714-1.714V1.714C16 .768 15.232 0 14.286 0H1.714C.768 0 0 .768 0 1.714z"/></symbol><symbol id="arrow-right" viewBox="0 0 15 12"><path d="M8.115 9.616l1.939-1.94a.25.25 0 00-.177-.426H2a1.25 1.25 0 010-2.5h7.879a.25.25 0 00.177-.427l-1.939-1.94A1.25 1.25 0 019.884.616l4.5 4.5a1.249 1.249 0 010 1.767l-4.5 4.5a1.25 1.25 0 01-1.767-1.767z"/></symbol><symbol id="ball" viewBox="0 0 18 18"><path d="M15.286 12.207a.36.36 0 01-.236.179l-2.204.508a.36.36 0 01-.348-.11l-.81-.904a.36.36 0 01-.072-.35l.918-2.837a.36.36 0 01.172-.205l1.509-.81a.36.36 0 01.44.08l1.381 1.599a.36.36 0 01.085.283 7.48 7.48 0 01-.836 2.569zm-3.933 1.847l-1.108 1.86a.36.36 0 01-.245.171 7.56 7.56 0 01-2.693.004.36.36 0 01-.246-.17l-1.112-1.862a.362.362 0 01.04-.427l.811-.907a.36.36 0 01.269-.12h3.163c.102 0 .2.043.268.12l.81.907c.106.118.122.29.042.426zm-5.76-2.156l-.811.908a.36.36 0 01-.35.11l-2.209-.51a.36.36 0 01-.236-.18 7.524 7.524 0 01-.835-2.582.361.361 0 01.082-.28l1.386-1.6a.36.36 0 01.442-.08l1.512.813a.36.36 0 01.173.206l.92 2.847a.361.361 0 01-.074.348zM3.196 3.412a7.599 7.599 0 012.215-1.598.361.361 0 01.297-.006l2.012.856a.36.36 0 01.216.331v1.869a.36.36 0 01-.148.288L5.335 6.936a.361.361 0 01-.372.033L3.5 6.255a.36.36 0 01-.201-.291l-.202-2.271a.36.36 0 01.1-.28zM9.37 3a.36.36 0 01.216-.332l2-.856a.36.36 0 01.296.007A7.598 7.598 0 0114.1 3.433a.361.361 0 01.099.28l-.201 2.275a.36.36 0 01-.189.288l-1.392.748a.36.36 0 01-.383-.027l-2.52-1.836a.36.36 0 01-.147-.292zm-.73-3a8.64 8.64 0 108.64 8.64A8.65 8.65 0 008.64 0z"/></symbol><symbol id="card-two" viewBox="0 0 9 12"><path d="M0 3a3 3 0 013-3h3a3 3 0 013 3v6a3 3 0 01-3 3H3a3 3 0 01-3-3z"/></symbol><symbol id="card" viewBox="0 0 15 19"><path d="M14.706 2.325A1.687 1.687 0 0013.02.64H6.277c-.93 0-1.684.755-1.686 1.685v3.793a.2.2 0 01-.047.13C3.483 7.501 1.643 8.68 1.643 9.993v3.84L.05 18.294a.2.2 0 00.187.266h4.784a.2.2 0 00.2-.2v-1.685c0-.054.021-.106.06-.143.241-.235 1.116-1.14 1.116-1.85v-1.234a.2.2 0 01.057-.14l2.106-2.14.006-.005A1.267 1.267 0 006.782 9.37c-.08.072-.284.173-.204.125a.2.2 0 01-.303-.172v-6.8c0-.11.09-.2.2-.2h6.344c.11 0 .2.09.2.2v9.718a.2.2 0 01-.2.2H8.593a.843.843 0 100 1.686h4.427a1.688 1.688 0 001.686-1.686z"/></symbol><symbol id="check-circle" viewBox="0 0 13 13"><path d="M9.912 5.528L7.128 9.24a1.46 1.46 0 01-1.071.584h-.1c-.39 0-.764-.155-1.039-.432L3.481 7.954a.75.75 0 111.06-1.06L5.57 7.922a.5.5 0 00.756-.056l2.392-3.242a.75.75 0 011.2.9zM6.75.5A6.25 6.25 0 1013 6.75 6.257 6.257 0 006.75.5z"/></symbol><symbol id="chevron-down"><path fill="none" stroke="#000" stroke-miterlimit="20" stroke-width="2" d="M11.26 1.01v0L6.25 6.02v0L1.24 1.01v0"/></symbol><symbol id="chevron-left" viewBox="0 0 320 512"><path d="M34.52 239.03L228.87 44.69c9.37-9.37 24.57-9.37 33.94 0l22.67 22.67c9.36 9.36 9.37 24.52.04 33.9L131.49 256l154.02 154.75c9.34 9.38 9.32 24.54-.04 33.9l-22.67 22.67c-9.37 9.37-24.57 9.37-33.94 0L34.52 272.97c-9.37-9.37-9.37-24.57 0-33.94z"/></symbol><symbol id="chevron-right" viewBox="0 0 320 512"><path d="M285.476 272.971L91.132 467.314c-9.373 9.373-24.569 9.373-33.941 0l-22.667-22.667c-9.357-9.357-9.375-24.522-.04-33.901L188.505 256 34.484 101.255c-9.335-9.379-9.317-24.544.04-33.901l22.667-22.667c9.373-9.373 24.569-9.373 33.941 0L285.475 239.03c9.373 9.372 9.373 24.568.001 33.941z"/></symbol><symbol id="chevron-up" viewBox="0 0 448 512"><path d="M240.971 130.524l194.343 194.343c9.373 9.373 9.373 24.569 0 33.941l-22.667 22.667c-9.357 9.357-24.522 9.375-33.901.04L224 227.495 69.255 381.516c-9.379 9.335-24.544 9.317-33.901-.04l-22.667-22.667c-9.373-9.373-9.373-24.569 0-33.941L207.03 130.525c9.372-9.373 24.568-9.373 33.941-.001z"/></symbol><symbol id="facebook-f" viewBox="0 0 320 512"><path d="M279.14 288l14.22-92.66h-88.91v-60.13c0-25.35 12.42-50.06 52.24-50.06h40.42V6.26S260.43 0 225.36 0c-73.22 0-121.08 44.38-121.08 124.72v70.62H22.89V288h81.39v224h100.17V288z"/></symbol><symbol id="facebook" viewBox="0 0 16 16"><path d="M8.546 16H.883A.883.883 0 010 15.117V.883C0 .395.395 0 .883 0h14.234c.488 0 .883.395.883.883v14.234a.883.883 0 01-.883.883H11.04V9.804h2.08l.31-2.415h-2.39V5.847c0-.699.194-1.175 1.196-1.175h1.279v-2.16a17.11 17.11 0 00-1.863-.095c-1.844 0-3.106 1.125-3.106 3.192v1.78H6.461v2.415h2.085z"/></symbol><symbol id="grid"><path fill="#acb7c2" d="M.25 1.75a1.5 1.5 0 011.5-1.5h3.5a1.5 1.5 0 011.5 1.5v3.5a1.5 1.5 0 01-1.5 1.5h-3.5a1.5 1.5 0 01-1.5-1.5zm0 8.5a1.5 1.5 0 011.5-1.5h3.5a1.5 1.5 0 011.5 1.5v3.5a1.5 1.5 0 01-1.5 1.5h-3.5a1.5 1.5 0 01-1.5-1.5zm0 8.5a1.5 1.5 0 011.5-1.5h3.5a1.5 1.5 0 011.5 1.5v3.5a1.5 1.5 0 01-1.5 1.5h-3.5a1.5 1.5 0 01-1.5-1.5zm8.5-17a1.5 1.5 0 011.5-1.5h3.5a1.5 1.5 0 011.5 1.5v3.5a1.5 1.5 0 01-1.5 1.5h-3.5a1.5 1.5 0 01-1.5-1.5zm0 8.5a1.5 1.5 0 011.5-1.5h3.5a1.5 1.5 0 011.5 1.5v3.5a1.5 1.5 0 01-1.5 1.5h-3.5a1.5 1.5 0 01-1.5-1.5zm0 8.5a1.5 1.5 0 011.5-1.5h3.5a1.5 1.5 0 011.5 1.5v3.5a1.5 1.5 0 01-1.5 1.5h-3.5a1.5 1.5 0 01-1.5-1.5zm8.5-17a1.5 1.5 0 011.5-1.5h3.5a1.5 1.5 0 011.5 1.5v3.5a1.5 1.5 0 01-1.5 1.5h-3.5a1.5 1.5 0 01-1.5-1.5zm0 8.5a1.5 1.5 0 011.5-1.5h3.5a1.5 1.5 0 011.5 1.5v3.5a1.5 1.5 0 01-1.5 1.5h-3.5a1.5 1.5 0 01-1.5-1.5zm0 8.5a1.5 1.5 0 011.5-1.5h3.5a1.5 1.5 0 011.5 1.5v3.5a1.5 1.5 0 01-1.5 1.5h-3.5a1.5 1.5 0 01-1.5-1.5z"/></symbol><symbol id="instagram" viewBox="0 0 448 512"><path d="M224.1 141c-63.6 0-114.9 51.3-114.9 114.9s51.3 114.9 114.9 114.9S339 319.5 339 255.9 287.7 141 224.1 141zm0 189.6c-41.1 0-74.7-33.5-74.7-74.7s33.5-74.7 74.7-74.7 74.7 33.5 74.7 74.7-33.6 74.7-74.7 74.7zm146.4-194.3c0 14.9-12 26.8-26.8 26.8-14.9 0-26.8-12-26.8-26.8s12-26.8 26.8-26.8 26.8 12 26.8 26.8zm76.1 27.2c-1.7-35.9-9.9-67.7-36.2-93.9-26.2-26.2-58-34.4-93.9-36.2-37-2.1-147.9-2.1-184.9 0-35.8 1.7-67.6 9.9-93.9 36.1s-34.4 58-36.2 93.9c-2.1 37-2.1 147.9 0 184.9 1.7 35.9 9.9 67.7 36.2 93.9s58 34.4 93.9 36.2c37 2.1 147.9 2.1 184.9 0 35.9-1.7 67.7-9.9 93.9-36.2 26.2-26.2 34.4-58 36.2-93.9 2.1-37 2.1-147.8 0-184.8zM398.8 388c-7.8 19.6-22.9 34.7-42.6 42.6-29.5 11.7-99.5 9-132.1 9s-102.7 2.6-132.1-9c-19.6-7.8-34.7-22.9-42.6-42.6-11.7-29.5-9-99.5-9-132.1s-2.6-102.7 9-132.1c7.8-19.6 22.9-34.7 42.6-42.6 29.5-11.7 99.5-9 132.1-9s102.7-2.6 132.1 9c19.6 7.8 34.7 22.9 42.6 42.6 11.7 29.5 9 99.5 9 132.1s2.7 102.7-9 132.1z"/></symbol><symbol id="play"><path opacity=".95" d="M8.98 17.962a8.982 8.982 0 100-17.963 8.982 8.982 0 000 17.963z"/><path d="M12.066 8.916L7.24 11.932V5.9l4.826 3.016z" stroke="#fff" stroke-width="1.21" stroke-miterlimit="20"/></symbol><symbol id="plus-circle" viewBox="0 0 512 512"><path d="M384 240v32c0 6.6-5.4 12-12 12h-88v88c0 6.6-5.4 12-12 12h-32c-6.6 0-12-5.4-12-12v-88h-88c-6.6 0-12-5.4-12-12v-32c0-6.6 5.4-12 12-12h88v-88c0-6.6 5.4-12 12-12h32c6.6 0 12 5.4 12 12v88h88c6.6 0 12 5.4 12 12zm120 16c0 137-111 248-248 248S8 393 8 256 119 8 256 8s248 111 248 248zm-48 0c0-110.5-89.5-200-200-200S56 145.5 56 256s89.5 200 200 200 200-89.5 200-200z"/></symbol><symbol id="search" viewBox="0 0 14 14"><path d="M6.75 2.407a4.35 4.35 0 110 8.7 4.35 4.35 0 010-8.7zm6.697 9.352l-1.586-1.587a6.154 6.154 0 10-1.697 1.697l1.587 1.587c.472.46 1.225.46 1.696 0a1.2 1.2 0 000-1.697z"/></symbol><symbol id="sign-in" viewBox="0 0 512 512"><path d="M416 448h-84c-6.6 0-12-5.4-12-12v-24c0-6.6 5.4-12 12-12h84c26.5 0 48-21.5 48-48V160c0-26.5-21.5-48-48-48h-84c-6.6 0-12-5.4-12-12V76c0-6.6 5.4-12 12-12h84c53 0 96 43 96 96v192c0 53-43 96-96 96zM167.1 83.5l-19.6 19.6c-4.8 4.8-4.7 12.5.2 17.1L260.8 230H12c-6.6 0-12 5.4-12 12v28c0 6.6 5.4 12 12 12h248.8L147.7 391.7c-4.8 4.7-4.9 12.4-.2 17.1l19.6 19.6c4.7 4.7 12.3 4.7 17 0l164.4-164c4.7-4.7 4.7-12.3 0-17l-164.4-164c-4.7-4.6-12.3-4.6-17 .1z"/></symbol><symbol id="sort-down" viewBox="0 0 320 512"><path fill="#ACB7C2" d="M272 288H48.1c-42.6 0-64.2 51.7-33.9 81.9l111.9 112c18.7 18.7 49.1 18.7 67.9 0l112-112c30-30.1 8.7-81.9-34-81.9zM160 448L48 336h224L160 448z"/></symbol><symbol id="sort-up" viewBox="0 0 320 512"><path d="M48 224h223.9c42.6 0 64.2-51.7 33.9-81.9l-111.9-112c-18.7-18.7-49.1-18.7-67.9 0l-112 112C-16 172.2 5.3 224 48 224zM160 64l112 112H48L160 64z"/></symbol><symbol id="square-full" viewBox="0 0 512 512"><path d="M512 512H0V0h512v512z"/></symbol><symbol id="twitter" viewBox="0 0 512 512"><path d="M459.37 151.716c.325 4.548.325 9.097.325 13.645 0 138.72-105.583 298.558-298.558 298.558-59.452 0-114.68-17.219-161.137-47.106 8.447.974 16.568 1.299 25.34 1.299 49.055 0 94.213-16.568 130.274-44.832-46.132-.975-84.792-31.188-98.112-72.772 6.498.974 12.995 1.624 19.818 1.624 9.421 0 18.843-1.3 27.614-3.573-48.081-9.747-84.143-51.98-84.143-102.985v-1.299c13.969 7.797 30.214 12.67 47.431 13.319-28.264-18.843-46.781-51.005-46.781-87.391 0-19.492 5.197-37.36 14.294-52.954 51.655 63.675 129.3 105.258 216.365 109.807-1.624-7.797-2.599-15.918-2.599-24.04 0-57.828 46.782-104.934 104.934-104.934 30.213 0 57.502 12.67 76.67 33.137 23.715-4.548 46.456-13.32 66.599-25.34-7.798 24.366-24.366 44.833-46.132 57.827 21.117-2.273 41.584-8.122 60.426-16.243-14.292 20.791-32.161 39.308-52.628 54.253z"/></symbol><symbol id="user-plus" viewBox="0 0 640 512"><path d="M224 288c79.5 0 144-64.5 144-144S303.5 0 224 0 80 64.5 80 144s64.5 144 144 144zm0-240c52.9 0 96 43.1 96 96s-43.1 96-96 96-96-43.1-96-96 43.1-96 96-96zm89.6 256c-28.7 0-42.5 16-89.6 16-47.1 0-60.8-16-89.6-16C60.2 304 0 364.2 0 438.4V464c0 26.5 21.5 48 48 48h352c26.5 0 48-21.5 48-48v-25.6c0-74.2-60.2-134.4-134.4-134.4zM400 464H48v-25.6c0-47.6 38.8-86.4 86.4-86.4 14.6 0 38.3 16 89.6 16 51.7 0 74.9-16 89.6-16 47.6 0 86.4 38.8 86.4 86.4V464zm224-248h-72v-72c0-8.8-7.2-16-16-16h-16c-8.8 0-16 7.2-16 16v72h-72c-8.8 0-16 7.2-16 16v16c0 8.8 7.2 16 16 16h72v72c0 8.8 7.2 16 16 16h16c8.8 0 16-7.2 16-16v-72h72c8.8 0 16-7.2 16-16v-16c0-8.8-7.2-16-16-16z"/></symbol><symbol id="user" viewBox="0 0 12 14"><path d="M5.838 6.857a3.208 3.208 0 100-6.417 3.208 3.208 0 000 6.417zM5.832 7.73A5.548 5.548 0 00.29 13.272c0 .16.13.291.292.291h10.5c.16 0 .291-.13.291-.291A5.548 5.548 0 005.832 7.73z"/></symbol><symbol id="youtube" viewBox="0 0 576 512"><path d="M549.655 124.083c-6.281-23.65-24.787-42.276-48.284-48.597C458.781 64 288 64 288 64S117.22 64 74.629 75.486c-23.497 6.322-42.003 24.947-48.284 48.597-11.412 42.867-11.412 132.305-11.412 132.305s0 89.438 11.412 132.305c6.281 23.65 24.787 41.5 48.284 47.821C117.22 448 288 448 288 448s170.78 0 213.371-11.486c23.497-6.321 42.003-24.171 48.284-47.821 11.412-42.867 11.412-132.305 11.412-132.305s0-89.438-11.412-132.305zm-317.51 213.508V175.185l142.739 81.205-142.739 81.201z"/></symbol><symbol id="zoom"><path fill="#acb7c2" d="M.38 9.12a.5.5 0 00.5.5h3.5a.5.5 0 00.353-.853L3.514 7.546a.124.124 0 010-.177L7.38 3.504a.125.125 0 01.177 0l1.22 1.22a.5.5 0 00.853-.354V.87a.5.5 0 00-.5-.5h-3.5a.5.5 0 00-.354.853l1.22 1.222a.125.125 0 010 .177L2.63 6.486a.125.125 0 01-.177 0l-1.22-1.22a.5.5 0 00-.853.354z"/></symbol></svg>