<svg width="47" height="47" viewBox="0 0 47 47" fill="none" xmlns="http://www.w3.org/2000/svg"><path opacity=".95" d="M23.45 46.9c12.951 0 23.45-10.499 23.45-23.45C46.9 10.499 36.401 0 23.45 0 10.499 0 0 10.499 0 23.45 0 36.401 10.499 46.9 23.45 46.9z" fill="#ACB7C2" fill-opacity=".1"/><path opacity=".95" d="M23.45 46.9c12.951 0 23.45-10.499 23.45-23.45C46.9 10.499 36.401 0 23.45 0 10.499 0 0 10.499 0 23.45 0 36.401 10.499 46.9 23.45 46.9z" fill="#fff"/><path d="M31.5 23.275L18.9 31.15V15.4l12.6 7.875z" stroke="#033F7D" stroke-width="3.15" stroke-miterlimit="20"/></svg>