<svg xmlns="http://www.w3.org/2000/svg" width="24" height="24" viewBox="0 0 24 24"><path fill="#ea6409" d="M5.03 10.754a.5.5 0 01-.256-.746l.746-1.139a.5.5 0 01.418-.226h1.486a.5.5 0 01.448.277L8.411 10a.5.5 0 01-.264.687 4.5 4.5 0 01-3.113.067zm-.491-6.132L3.4 4.3a.5.5 0 01-.233-.816 4.5 4.5 0 012.066-1.3.5.5 0 01.64.441l.067.87a.5.5 0 01-.186.429l-.761.609a.5.5 0 01-.45.089zm-.01 3.014c-.116.177-.36.554-.913 1.4a.498.498 0 01-.827.01 4.504 4.504 0 01-.77-2.969.5.5 0 01.633-.435l1.313.375a.499.499 0 01.335.323l.29.86a.502.502 0 01-.06.436zM8.062 2.28A4.51 4.51 0 019.9 3.549a.5.5 0 01-.221.8l-.76.251a.5.5 0 01-.469-.085l-.814-.651a.5.5 0 01-.186-.352l-.056-.729a.5.5 0 01.193-.434.5.5 0 01.475-.069zm2.704 3.493a.505.505 0 01.221.378 4.486 4.486 0 01-.633 2.67.5.5 0 01-.875-.036c-.379-.757-.514-1.043-.588-1.18a.5.5 0 01-.036-.4l.3-.893A.5.5 0 019.471 6l.861-.283a.5.5 0 01.434.056zM13 6.5A6.5 6.5 0 106.5 13 6.508 6.508 0 0013 6.5z"/><path fill="#ea6409" d="M21.715 9.396l-.117.38a.5.5 0 01-.62.327l-3.18-.946a.498.498 0 01-.35-.558l.05-.266a.498.498 0 01.628-.398c1.116.308 2.16.559 3.278.871a.467.467 0 01.32.59zm-.878 2.776l-1.339 4.246a.5.5 0 01-.425.346 3.328 3.328 0 01-2.582-1.102.501.501 0 01-.129-.424l.682-4.145a.5.5 0 01.636-.4l2.832.848a.5.5 0 01.333.632zm3-4.245a1.479 1.479 0 00-.887-.748c-.974-.3-1.858-.528-2.74-.758a65.271 65.271 0 01-2.607-.718 1.477 1.477 0 00-1.233.176 1.518 1.518 0 00-.672 1.023l-1.18 7.162a.5.5 0 01-.5.418.4.4 0 00-.392.482l.568 2.59a.5.5 0 11-.977.213l-.619-2.872a.5.5 0 00-.5-.393l-.426.014a.5.5 0 00-.466.621l.436 1.763a.5.5 0 01-.97.24l-.52-2.1a.5.5 0 00-.54-.377 11.3 11.3 0 00-1.869.332 3.129 3.129 0 00-2.114 2.072 2.074 2.074 0 00.135 1.59c.238.469.65.827 1.147 1a.255.255 0 01.156.315 1 1 0 101.906.605.25.25 0 01.314-.162l1.89.6a.25.25 0 01.162.314l-.087.275a1 1 0 00.95 1.303 1 1 0 00.953-.7l.087-.274a.249.249 0 01.314-.163l1.923.611a.249.249 0 01.162.314 1 1 0 001.906.606.251.251 0 01.315-.163l.714.227a.751.751 0 00.942-.488c3.784-11.788 1.393-4.368 4.405-13.81a1.5 1.5 0 00-.086-1.14z"/></svg>