<svg xmlns="http://www.w3.org/2000/svg" width="24" height="24" viewBox="0 0 24 24"><path fill="#ea6409" d="M7.75 4.5h15a1 1 0 000-2h-15a1 1 0 000 2zM22.75 11h-15a1 1 0 000 2h15a1 1 0 000-2zM22.75 19.5h-15a1 1 0 000 2h15a1 1 0 000-2zM2.21 17.252a2 2 0 00-1.933 1.484.75.75 0 101.45.386.5.5 0 11.483.63.75.75 0 100 1.5.5.5 0 11-.482.635.75.75 0 10-1.445.4 2 2 0 103.59-1.648.251.251 0 010-.278A2 2 0 002.21 17.25zM4.25 10.75a2 2 0 10-4 0 .75.75 0 001.5 0 .5.5 0 011 0c0 .235-.08.462-.226.645l-2.11 2.636a.75.75 0 00.587 1.219h2.5a.75.75 0 000-1.5h-.42a.249.249 0 01-.194-.406l.814-1.012c.356-.45.55-1.008.55-1.582zM4 5.25h-.25a.25.25 0 01-.25-.248V1.625A1.377 1.377 0 002.125.25H1.5a.75.75 0 000 1.5h.25a.25.25 0 01.25.252v3a.25.25 0 01-.25.25H1.5a.75.75 0 000 1.5H4a.75.75 0 000-1.5z"/></svg>