<svg xmlns="http://www.w3.org/2000/svg" width="20" height="16" viewBox="0 0 20 16"><path fill="#546b81" d="M18.965 4.634l-.005-.005-3.12-3.001A4.38 4.38 0 0012.79.4c-.08.022-.346-.057-.4.24A2.954 2.954 0 019.6 3.2 2.954 2.954 0 016.81.64C6.755.344 6.49.422 6.41.4a4.38 4.38 0 00-3.05 1.228L.234 4.634a.8.8 0 000 1.132l1.86 1.859a.791.791 0 001.065.058l.996-.77a.4.4 0 01.645.32V14.8a.8.8 0 00.8.8h8a.8.8 0 00.8-.8V7.23a.4.4 0 01.645-.32l.984.76a.8.8 0 001.077-.048l1.86-1.86a.8.8 0 000-1.128z"/></svg>