<svg xmlns="http://www.w3.org/2000/svg" width="24" height="24" viewBox="0 0 24 24"><path fill="#3062c4" d="M2 12C2 6.477 6.477 2 12 2s10 4.477 10 10c-.006 5.52-4.48 9.994-10 10-5.523 0-10-4.477-10-10zm10 12c6.627 0 12-5.373 12-12S18.627 0 12 0 0 5.373 0 12c.007 6.624 5.376 11.993 12 12z"/><path fill="#3062c4" d="M12.117 15.616l1.939-1.94a.25.25 0 00-.177-.427h-7.88a1.25 1.25 0 010-2.5h7.88a.25.25 0 00.177-.426l-1.94-1.94a1.25 1.25 0 011.768-1.767l4.5 4.5a1.249 1.249 0 010 1.767l-4.5 4.5a1.25 1.25 0 01-1.767-1.767z"/></svg>