<svg xmlns="http://www.w3.org/2000/svg" width="24" height="24" viewBox="0 0 24 24"><path fill="#c50909" d="M12 2c5.523 0 10 4.477 10 10s-4.477 10-10 10c-5.52-.006-9.994-4.48-10-10C2 6.477 6.477 2 12 2zM0 12c0 6.627 5.373 12 12 12s12-5.373 12-12S18.627 0 12 0C5.376.007.007 5.376 0 12z"/><path fill="#c50909" d="M8.384 12.117l1.94 1.939a.25.25 0 00.427-.177v-7.88a1.25 1.25 0 012.5 0v7.88a.25.25 0 00.426.177l1.94-1.94a1.25 1.25 0 011.767 1.768l-4.5 4.5a1.249 1.249 0 01-1.767 0l-4.5-4.5a1.25 1.25 0 011.767-1.767z"/></svg>