<svg xmlns="http://www.w3.org/2000/svg" width="311" height="51" viewBox="0 0 311 51"><path fill="#fff" d="M98.43 50.64V47.1h2.64V33.18h-2.64v-3.54h7.38l7.62 13.95V33.18h-2.88v-3.54h9.54v3.54h-2.52v17.46h-4.47l-7.89-14.43V47.1h2.88v3.54zm-12.9-17.28l-2.37 7.38h4.74zm-11.1 17.28V47.1h2.28l4.77-13.92h-2.4v-3.54h9.42l5.97 17.46h2.28v3.54h-9.06V47.1h2.22l-.87-2.76h-7.02l-.87 2.76h2.16v3.54zm-7.5-12.48v-4.08c0-.45-.15-.6-.6-.6h-5.82v5.28h5.82c.45 0 .6-.15.6-.6zM53.55 50.64V47.1h2.64V33.18h-2.64v-3.54h13.5c2.85 0 4.2 1.35 4.2 4.2v4.26c0 2.4-.96 3.72-2.94 4.11l2.34 4.89h2.7v3.54h-5.61l-3.93-8.1h-3.3v4.56h3.06v3.54zm-16.59 0V47.1h3.24V33.24h-3.21v3.78h-3.78v-7.38h18.3v7.38h-3.78v-3.78h-3.21V47.1h3.24v3.54zM25.71 33.36l-2.37 7.38h4.74zm-11.1 17.28V47.1h2.28l4.77-13.92h-2.4v-3.54h9.42l5.97 17.46h2.28v3.54h-9.06V47.1h2.22l-.87-2.76H22.2l-.87 2.76h2.16v3.54zm-10.83 0V47.1h3.24V33.24H3.81v3.78H.03v-7.38h18.3v7.38h-3.78v-3.78h-3.21V47.1h3.24v3.54zM294.18 50.64v-1.86h3V31.5h-3v-1.86h16.11v5.4h-2.04v-3.48h-8.91v7.38h8.79v1.92h-8.79v7.86h8.91v-3.48h2.04v5.4zm-13.14 0c-2.85 0-4.2-1.35-4.2-4.2v-12.6c0-2.85 1.35-4.2 4.2-4.2h6.24c2.85 0 4.2 1.35 4.2 4.2v2.28h-2.16v-2.34c0-1.56-.6-2.16-2.16-2.16h-6c-1.56 0-2.16.6-2.16 2.16V46.5c0 1.56.6 2.16 2.16 2.16h6c1.56 0 2.16-.6 2.16-2.16v-2.34h2.16v2.28c0 2.85-1.35 4.2-4.2 4.2zm-15.96 0v-1.86h3.24V31.5h-3.24v-1.86h8.64v1.86h-3.24v17.28h3.24v1.86zm-13.92 0l-6.6-19.14h-2.7v-1.86h7.8v1.86h-2.79l5.52 16.77L258 31.5h-2.76v-1.86h7.68v1.86h-2.7l-6.6 19.14zm-13.14-4.14V33.78c0-1.56-.6-2.16-2.16-2.16h-6.39c-1.56 0-2.16.6-2.16 2.16V46.5c0 1.56.6 2.16 2.16 2.16h6.39c1.56 0 2.16-.6 2.16-2.16zm-8.67 4.14c-2.85 0-4.2-1.35-4.2-4.2v-12.6c0-2.85 1.35-4.2 4.2-4.2h6.63c2.85 0 4.2 1.35 4.2 4.2v12.6c0 2.85-1.35 4.2-4.2 4.2zm-18.78 0c-2.85 0-4.2-1.35-4.2-4.2v-2.13h2.16v2.31c0 1.56.6 2.16 2.16 2.16h5.88c1.56 0 2.16-.6 2.16-2.16V44.1c0-1.59-.69-2.1-2.16-2.43l-5.82-1.35c-2.34-.54-4.32-1.14-4.32-4.29v-2.19c0-2.85 1.35-4.2 4.2-4.2h5.76c2.85 0 4.2 1.35 4.2 4.2v1.92h-2.16v-2.1c0-1.56-.6-2.16-2.16-2.16h-5.52c-1.56 0-2.16.6-2.16 2.16v2.13c0 1.59.69 2.1 2.16 2.43l5.82 1.35c2.34.54 4.32 1.14 4.32 4.29v2.58c0 2.85-1.35 4.2-4.2 4.2zm1.98-22.98l-3.42-3.6h2.1l2.4 2.46 2.4-2.46h2.1l-3.42 3.6zm-25.74 22.98v-1.86h3V31.5h-3v-1.86h16.11v5.4h-2.04v-3.48h-8.91v7.38h8.79v1.92h-8.79v7.86h8.91v-3.48h2.04v5.4zm-6.48-13.02v-3.84c0-1.56-.6-2.16-2.16-2.16h-7.56v8.16h7.56c1.56 0 2.16-.6 2.16-2.16zm-14.88 13.02v-1.86h3V31.5h-3v-1.86h12.84c2.85 0 4.2 1.35 4.2 4.2v3.6c0 2.82-1.32 4.17-4.11 4.2l3.54 7.14h2.79v1.86h-4.2l-4.41-8.88h-5.49v7.02h3.12v1.86zm8.22-22.98l-3.42-3.6h2.1l2.4 2.46 2.4-2.46h2.1l-3.42 3.6zm-24.09 22.98v-1.86h3.48V31.62h-5.55v4.02h-2.04v-6h17.34v6h-2.04v-4.02h-5.55v17.16h3.48v1.86zm-17.13 0c-2.85 0-4.2-1.35-4.2-4.2v-2.13h2.16v2.31c0 1.56.6 2.16 2.16 2.16h5.88c1.56 0 2.16-.6 2.16-2.16V44.1c0-1.59-.69-2.1-2.16-2.43l-5.82-1.35c-2.34-.54-4.32-1.14-4.32-4.29v-2.19c0-2.85 1.35-4.2 4.2-4.2h5.76c2.85 0 4.2 1.35 4.2 4.2v1.92h-2.16v-2.1c0-1.56-.6-2.16-2.16-2.16h-5.52c-1.56 0-2.16.6-2.16 2.16v2.13c0 1.59.69 2.1 2.16 2.43l5.82 1.35c2.34.54 4.32 1.14 4.32 4.29v2.58c0 2.85-1.35 4.2-4.2 4.2z"/><path fill="#f70223" d="M0 9h311V0H0z"/></svg>