<svg width="3031" height="1654" viewBox="0 0 3031 1654" fill="none" xmlns="http://www.w3.org/2000/svg"><path d="M568.87 1653.91c137.5 0 217.292-172.17 290.292-297.96l-35.625-33.09c-17.042 33.09-73.042 143.42-108.708 143.42-11.875 0-16.959-8.79-16.959-33.08 0-15.46 3.375-39.71 8.5-66.17l106.959-472.333c6.75-26.5 18.625-97.166 18.625-132.416 0-108.209-54.292-194.25-140.875-194.25-125.625 0-266.542 154.5-361.625 412.708l-3.375-4.417 91.666-384.041-16.958-24.25c-84.917 46.333-237.708 61.791-326 61.791l-8.458 59.584c71.291 0 98.458 4.416 98.458 53 0 24.25-5.083 79.416-13.583 119.166L.079 1625.28h230.916l78.084-362.04c39.083-178.71 135.833-507.626 251.291-507.626 23.709 0 42.417 13.25 42.417 57.375 0 17.667-3.375 39.75-10.167 68.458l-93.333 419.413c-17.042 77.17-30.625 152.25-30.625 196.42 0 101.46 40.75 156.63 100.208 156.63zM1055.15 1653.9c137.5 0 225.84-163.29 292-297.96l-35.66-28.66c-25.46 46.37-69.59 139-110.34 139-11.87 0-17-8.8-17-26.42 0-8.83 1.71-17.67 3.42-26.46l185.04-816.707-16.96-28.667c-84.91 46.334-237.71 61.792-348.08 61.792l-8.418 59.583c74.668 6.625 100.128 6.625 100.128 50.75 0 22.125-6.79 79.5-16.96 121.417L978.736 1331.65c-15.292 72.92-23.709 130.29-23.709 176.63 0 103.7 37.292 145.62 100.123 145.62zM1308.17 121.614c-65.63 0-117.63 67.541-117.63 152.958 0 85.375 52 154.958 117.63 154.958 65.71 0 119.16-69.583 119.16-154.958 0-85.417-53.45-152.958-119.16-152.958zM2341.53 596.685h-339.58l-5.09 59.625c42.38 0 84.92 24.25 84.92 66.208 0 39.75-34 105.917-142.67 207.459l-188.45 185.463-3.38-4.46L1981.61 29.477 1962.86.81c-100.12 55.167-235.91 59.583-337.79 66.208l-8.5 59.584c79.75 2.208 93.34 11.041 93.34 50.75 0 22.083-1.63 52.958-16.96 121.416L1406.07 1625.27h229.21l88.25-403.88 74.71-64.08c59.42 397.33 106.96 496.58 232.58 496.58 137.54 0 191.84-121.33 236-269.25l-35.71-24.25c-16.91 46.34-35.62 105.92-81.41 105.92-50.96 0-81.5-39.75-151.17-501l195.25-205.25c56.04-55.208 108.67-103.75 147.75-103.75v-59.625zM2954.35 186.128c-8.04-3.375-17.21-5.125-26.96-5.125-25.54 0-55.29 11.75-80.75 36.25L2542.93 432.42l75.88 32.083 308.21-76.333c33.83-6.625 67-32.084 80.62-86.709 11.54-46.125-6.5-95.5-53.29-115.333zM2590.94 1088.95c11.88-101.586 107-450.336 203.71-450.336 28.87 0 45.87 28.75 45.87 86.084 0 139.083-129.04 344.372-249.58 364.252zm270-520.919c-275.08 0-533.08 366.375-533.08 719.539 0 214.09 88.25 366.34 261.41 366.34 154.5 0 261.42-121.34 359.92-260.42l-34-48.54c-62.79 79.41-140.83 154.5-232.54 154.5-105.29 0-125.67-88.34-125.67-143.5 0-59.59 15.29-152.25 23.75-185.34 154.54-37.54 449.92-136.91 449.92-408.329 0-130.292-78.13-194.25-169.71-194.25z" fill="#131114"/></svg>