<svg width="18" height="18" viewBox="0 0 18 18" fill="none" xmlns="http://www.w3.org/2000/svg">
<path opacity="0.95" d="M8.98002 17.962C10.1594 17.962 11.3273 17.7297 12.4169 17.2784C13.5065 16.827 14.4966 16.1655 15.3305 15.3315C16.1645 14.4976 16.826 13.5075 17.2774 12.4179C17.7287 11.3283 17.961 10.1604 17.961 8.981C17.961 7.8016 17.7287 6.63374 17.2774 5.54412C16.826 4.45449 16.1645 3.46444 15.3305 2.63047C14.4966 1.79651 13.5065 1.13498 12.4169 0.683638C11.3273 0.2323 10.1594 -1.75745e-08 8.98002 0C6.59811 3.54932e-08 4.31376 0.94621 2.6295 2.63047C0.945233 4.31474 -0.000976562 6.59909 -0.000976562 8.981C-0.000976563 11.3629 0.945233 13.6473 2.6295 15.3315C4.31376 17.0158 6.59811 17.962 8.98002 17.962V17.962Z"/>
<path d="M12.066 8.91602L7.23999 11.932V5.90002L12.066 8.91602Z" stroke="white" stroke-width="1.21" stroke-miterlimit="20"/>
</svg>
