<svg id="forms.fw-Page_201" preserveAspectRatio="none" width="406" height="16" data-name="forms.fw-Page%201" xmlns="http://www.w3.org/2000/svg" viewBox="0 0 406 16"><defs><style>.cls-1{fill:#fff}.cls-2{fill:#ccc}.cls-3{fill:#dd2d01}.cls-5{fill:#ddd}.cls-6{fill:#5cadce}.cls-7{fill:#dd2f03}</style></defs><path class="cls-1" d="M.5.5h15v15H.5z"/><path class="cls-2" d="M15 1v14H1V1h14m1-1H0v16h16V0z"/><path class="cls-1" d="M156.5.5h15v15h-15z"/><path class="cls-3" d="M171 1v14h-14V1h14m1-1h-16v16h16V0z"/><path class="cls-1" d="M26.5.5h15v15h-15z"/><path class="cls-2" d="M41 1v14H27V1h14m1-1H26v16h16V0z"/><path class="cls-1" d="M130.5.5h15v15h-15z"/><path d="M145 1v14h-14V1h14m1-1h-16v16h16V0z" fill="#dd2c00"/><path class="cls-1" d="M78.5.5h15v15h-15z"/><path class="cls-5" d="M93 1v14H79V1h14m1-1H78v16h16V0z"/><g id="Ellipse"><circle class="cls-1" cx="216" cy="8" r="7.5"/><path class="cls-2" d="M216 1a7 7 0 11-7 7 7 7 0 017-7m0-1a8 8 0 108 8 8 8 0 00-8-8z"/></g><g id="Ellipse2"><circle class="cls-1" cx="242" cy="8" r="7.5"/><path class="cls-6" d="M242 1a7 7 0 11-7 7 7 7 0 017-7m0-1a8 8 0 108 8 8 8 0 00-8-8z"/></g><g id="Ellipse3"><circle class="cls-1" cx="294" cy="8" r="7.5"/><path class="cls-5" d="M294 1a7 7 0 11-7 7 7 7 0 017-7m0-1a8 8 0 108 8 8 8 0 00-8-8z"/></g><g id="Ellipse4"><circle class="cls-1" cx="372" cy="8" r="7.5"/><path class="cls-7" d="M372 1a7 7 0 11-7 7 7 7 0 017-7m0-1a8 8 0 108 8 8 8 0 00-8-8z"/></g><g id="Ellipse5"><circle class="cls-1" cx="268" cy="8" r="7.5"/><path class="cls-6" d="M268 1a7 7 0 11-7 7 7 7 0 017-7m0-1a8 8 0 108 8 8 8 0 00-8-8z"/></g><g id="Ellipse6"><circle class="cls-1" cx="346" cy="8" r="7.5"/><path class="cls-7" d="M346 1a7 7 0 11-7 7 7 7 0 017-7m0-1a8 8 0 108 8 8 8 0 00-8-8z"/></g><g id="Ellipse7"><circle class="cls-1" cx="320" cy="8" r="7.5"/><path class="cls-5" d="M320 1a7 7 0 11-7 7 7 7 0 017-7m0-1a8 8 0 108 8 8 8 0 00-8-8z"/></g><g id="Ellipse8"><circle class="cls-1" cx="398" cy="8" r="7.5"/><path class="cls-7" d="M398 1a7 7 0 11-7 7 7 7 0 017-7m0-1a8 8 0 108 8 8 8 0 00-8-8z"/></g><path id="Ellipse9" class="cls-6" d="M264 8a4 4 0 114 4 4 4 0 01-4-4z"/><path id="Ellipse10" class="cls-5" d="M316 8a4 4 0 114 4 4 4 0 01-4-4z"/><path id="Ellipse11" class="cls-7" d="M394 8a4 4 0 114 4 4 4 0 01-4-4z"/><path class="cls-1" d="M52.5.5h15v15h-15z"/><path class="cls-6" d="M67 1v14H53V1h14m1-1H52v16h16V0z"/><path class="cls-1" d="M182.5.5h15v15h-15z"/><path d="M197 1v14h-14V1h14m1-1h-16v16h16V0z" fill="#dd2e02"/><path class="cls-1" d="M104.5.5h15v15h-15z"/><path class="cls-5" d="M119 1v14h-14V1h14m1-1h-16v16h16V0z"/><path class="cls-6" d="M65.94 5.79a.72.72 0 00-.22-.51l-1-1a.77.77 0 00-1 0l-5 4.91L56.36 7a.75.75 0 00-1 0l-1 1a.71.71 0 000 1L57 11.71l1 1a.75.75 0 001 0l1-1 5.72-5.41a.72.72 0 00.22-.51z"/><path class="cls-3" d="M195.94 5.79a.72.72 0 00-.22-.51l-1-1a.77.77 0 00-1 0l-5 4.91L186.36 7a.75.75 0 00-1 0l-1 1a.71.71 0 000 1l2.64 2.71 1 1a.75.75 0 001 0l1-1 5.55-5.41a.72.72 0 00.22-.51z"/><path class="cls-5" d="M117.94 5.79a.72.72 0 00-.22-.51l-1-1a.77.77 0 00-1 0l-5 4.91L108.36 7a.75.75 0 00-1 0l-1 1a.71.71 0 000 1l2.64 2.71 1 1a.75.75 0 001 0l1-1 5.55-5.41a.72.72 0 00.22-.51z"/></svg>