<svg xmlns="http://www.w3.org/2000/svg" viewBox="0 0 19 19"><path fill="none" stroke="#acb7c2" stroke-miterlimit="20" stroke-width="1.5" d="M9.498 17.615a4.428 4.428 0 100-8.855 4.428 4.428 0 000 8.855z"/><path fill="none" stroke="#acb7c2" stroke-miterlimit="20" stroke-width="1.5" d="M13.862 12.47v0l3.755-8.128v0l-2.21-2.952v0H3.6v0L1.39 4.342v0l3.755 8.129v0M14.015 4.336H4.99M7.34 9.334L3.6 1.39M15.4 1.39l-3.74 7.944"/><path fill="none" stroke="#acb7c2" stroke-miterlimit="20" stroke-width="1.5" d="M9.502 12.45v0l.34.595v0l.673.14v0l-.464.51v0l.077.679v0l-.626-.286v0l-.626.286v0l.078-.68v0l-.464-.51v0l.672-.139v0l.34-.595v0z"/></svg>